<?xml version="1.0" encoding="UTF-8"?>
<!DOCTYPE svg PUBLIC "-//W3C//DTD SVG 1.1//EN" "http://www.w3.org/Graphics/SVG/1.1/DTD/svg11.dtd">
<svg xmlns="http://www.w3.org/2000/svg" version="1.1" width="248px" height="241px" style="shape-rendering:geometricPrecision; text-rendering:geometricPrecision; image-rendering:optimizeQuality; fill-rule:evenodd; clip-rule:evenodd" xmlns:xlink="http://www.w3.org/1999/xlink">
<g><path style="opacity:0.904" fill="#fe6500" d="M 111.5,-0.5 C 121.167,-0.5 130.833,-0.5 140.5,-0.5C 142.5,0.833333 144.5,0.833333 146.5,-0.5C 148.167,-0.5 149.833,-0.5 151.5,-0.5C 155.079,0.524565 158.746,1.69123 162.5,3C 161.833,3.33333 161.167,3.66667 160.5,4C 163.994,6.17885 167.661,6.84551 171.5,6C 174.167,6.66667 174.167,7.33333 171.5,8C 175.5,9.33333 179.5,10.6667 183.5,12C 182.167,12.6667 182.167,13.3333 183.5,14C 186.249,15.1227 188.749,16.6227 191,18.5C 192.84,17.1669 193.34,17.3335 192.5,19C 193.572,20.2837 194.905,20.6171 196.5,20C 195.434,21.159 195.767,21.9924 197.5,22.5C 199.142,23.803 200.809,25.1363 202.5,26.5C 204.808,28.4707 207.142,30.4707 209.5,32.5C 223.583,46.8446 233.75,62.8446 240,80.5C 243.876,93.2087 245.376,106.209 244.5,119.5C 245.926,152.974 234.926,180.974 211.5,203.5C 210.833,203.5 210.5,203.833 210.5,204.5C 209.833,204.5 209.5,204.833 209.5,205.5C 208.833,205.5 208.5,205.833 208.5,206.5C 207.833,206.5 207.5,206.833 207.5,207.5C 206.833,207.5 206.5,207.833 206.5,208.5C 205.833,208.5 205.5,208.833 205.5,209.5C 204.833,209.5 204.5,209.833 204.5,210.5C 203.833,210.5 203.5,210.833 203.5,211.5C 202.508,211.328 201.842,211.662 201.5,212.5C 200.833,212.5 200.5,212.833 200.5,213.5C 199.833,213.5 199.5,213.833 199.5,214.5C 198.833,214.5 198.5,214.833 198.5,215.5C 197.508,215.328 196.842,215.662 196.5,216.5C 195.833,216.5 195.5,216.833 195.5,217.5C 194.167,217.833 194.167,218.167 195.5,218.5C 195.158,219.338 194.492,219.672 193.5,219.5C 193.167,218.167 192.833,218.167 192.5,219.5C 191.508,219.328 190.842,219.662 190.5,220.5C 189.833,220.5 189.5,220.833 189.5,221.5C 188.508,221.328 187.842,221.662 187.5,222.5C 186.167,222.833 186.167,223.167 187.5,223.5C 187.158,224.338 186.492,224.672 185.5,224.5C 185.167,223.167 184.833,223.167 184.5,224.5C 183.508,224.328 182.842,224.662 182.5,225.5C 181.508,225.328 180.842,225.662 180.5,226.5C 179.508,226.328 178.842,226.662 178.5,227.5C 175.833,227.833 175.833,228.167 178.5,228.5C 177.22,229.931 175.553,230.598 173.5,230.5C 172.833,229.167 172.167,229.167 171.5,230.5C 168.833,230.833 168.833,231.167 171.5,231.5C 170.22,232.931 168.553,233.598 166.5,233.5C 165.5,232.167 164.5,232.167 163.5,233.5C 162.209,233.263 161.209,233.596 160.5,234.5C 156.5,234.833 156.5,235.167 160.5,235.5C 156.503,237.489 152.17,238.489 147.5,238.5C 133.5,237.167 119.5,237.167 105.5,238.5C 98.4694,238.481 98.136,237.981 104.5,237C 102.153,236.564 99.8193,236.064 97.5,235.5C 94.4372,236.821 91.4372,236.654 88.5,235C 89.5,234.667 90.5,234.333 91.5,234C 87.8888,232.22 84.2221,231.553 80.5,232C 82.7947,231.016 82.4614,230.183 79.5,229.5C 78.2322,230.428 76.8989,230.595 75.5,230C 71.9007,228.695 69.5674,226.695 68.5,224C 66.2068,222.305 63.8734,221.638 61.5,222C 62.6537,221.086 62.487,220.253 61,219.5C 59.1598,220.833 58.6598,220.666 59.5,219C 58.4281,217.716 57.0948,217.383 55.5,218C 56.2583,216.636 55.7583,215.469 54,214.5C 52.1598,215.833 51.6598,215.666 52.5,214C 46.6792,209.22 40.5126,203.387 34,196.5C 33.3333,197.833 32.6667,197.833 32,196.5C 31.3828,195.551 31.5494,194.718 32.5,194C 31.5305,192.242 30.3639,191.742 29,192.5C 29.5414,190.125 28.7081,188.125 26.5,186.5C 26.0679,185.29 25.4013,184.29 24.5,183.5C 24.1667,182.167 23.8333,182.167 23.5,183.5C 22.0937,183.027 21.427,182.027 21.5,180.5C 22.8333,179.833 22.8333,179.167 21.5,178.5C 21.1667,177.167 20.8333,177.167 20.5,178.5C 19.0937,178.027 18.427,177.027 18.5,175.5C 19.8333,174.833 19.8333,174.167 18.5,173.5C 18.3404,171.847 17.6737,170.514 16.5,169.5C 16.6716,168.508 16.3382,167.842 15.5,167.5C 15.7373,166.209 15.404,165.209 14.5,164.5C 14.6716,163.508 14.3382,162.842 13.5,162.5C 13.7373,161.209 13.404,160.209 12.5,159.5C 12.405,157.214 11.7384,155.214 10.5,153.5C 10.1667,149.5 9.83333,149.5 9.5,153.5C 7.19302,147.828 5.69302,141.828 5,135.5C 4.33333,124.5 4.33333,113.5 5,102.5C 5.33333,113.167 5.66667,123.833 6,134.5C 6.56475,120.111 6.89808,105.777 7,91.5C 7.5112,89.1218 8.17786,86.7885 9,84.5C 9.33333,85.5 9.66667,86.5 10,87.5C 12.3356,79.1634 15.5023,71.1634 19.5,63.5C 19.1667,62.8333 18.8333,62.1667 18.5,61.5C 19.8333,60.5 21.1667,59.5 22.5,58.5C 21.6744,57.549 21.5078,56.549 22,55.5C 22.6667,54.1667 23.3333,54.1667 24,55.5C 25.9414,53.6841 26.6081,51.6841 26,49.5C 27.7566,49.8671 29.2566,49.0338 30.5,47C 29.1669,45.1598 29.3335,44.6598 31,45.5C 31.8333,44.6667 32.6667,43.8333 33.5,43C 32.5494,42.2825 32.3828,41.4491 33,40.5C 37.8275,37.7228 42.3275,33.8894 46.5,29C 45.6598,27.3335 46.1598,27.1669 48,28.5C 49.5,27 51,25.5 52.5,24C 51.6598,22.3335 52.1598,22.1669 54,23.5C 55.8445,22.2893 56.6778,20.956 56.5,19.5C 57.6753,20.8549 58.6753,20.6883 59.5,19C 58.6598,17.3335 59.1598,17.1669 61,18.5C 62.2547,17.7894 63.4214,16.956 64.5,16C 64.1667,15.6667 63.8333,15.3333 63.5,15C 65.2785,15.9791 66.9452,15.6458 68.5,14C 69.8333,13.3333 69.8333,12.6667 68.5,12C 70.7061,10.1929 73.0394,9.69295 75.5,10.5C 77.1667,9.66667 78.8333,8.83333 80.5,8C 79.8333,7.66667 79.1667,7.33333 78.5,7C 86.2965,3.05741 94.4631,1.22407 103,1.5C 106.027,1.08768 108.86,0.421017 111.5,-0.5 Z M 214.5,55.5 C 215.401,56.2905 216.068,57.2905 216.5,58.5C 217.401,59.2905 218.068,60.2905 218.5,61.5C 219.338,61.8417 219.672,62.5084 219.5,63.5C 218.453,64.0778 218.62,64.7445 220,65.5C 220.399,65.2716 220.565,64.9382 220.5,64.5C 221.338,64.8417 221.672,65.5084 221.5,66.5C 222.338,66.8417 222.672,67.5084 222.5,68.5C 223.338,68.8417 223.672,69.5084 223.5,70.5C 224.338,70.8417 224.672,71.5084 224.5,72.5C 225.338,72.8417 225.672,73.5084 225.5,74.5C 226.404,75.209 226.737,76.209 226.5,77.5C 227.338,77.8417 227.672,78.5084 227.5,79.5C 228.404,80.209 228.737,81.209 228.5,82.5C 229.404,83.209 229.737,84.209 229.5,85.5C 230.404,86.209 230.737,87.209 230.5,88.5C 231.434,89.5676 231.768,90.901 231.5,92.5C 236.751,110.506 236.751,128.506 231.5,146.5C 231.649,147.552 231.483,148.552 231,149.5C 230.346,148.304 229.846,148.304 229.5,149.5C 230.705,150.995 230.705,152.328 229.5,153.5C 227.625,154.951 226.958,156.617 227.5,158.5C 227.737,159.791 227.404,160.791 226.5,161.5C 226.672,162.492 226.338,163.158 225.5,163.5C 225.672,164.492 225.338,165.158 224.5,165.5C 224.34,167.153 223.674,168.486 222.5,169.5C 222.672,170.492 222.338,171.158 221.5,171.5C 221.672,172.492 221.338,173.158 220.5,173.5C 219.922,172.453 219.256,172.62 218.5,174C 218.728,174.399 219.062,174.565 219.5,174.5C 219.672,175.492 219.338,176.158 218.5,176.5C 218.672,177.492 218.338,178.158 217.5,178.5C 216.922,177.453 216.256,177.62 215.5,179C 215.728,179.399 216.062,179.565 216.5,179.5C 216.573,181.027 215.906,182.027 214.5,182.5C 192.419,211.628 162.919,226.961 126,228.5C 98.648,227.568 74.4813,218.401 53.5,201C 47.8491,196.195 43.1824,190.695 39.5,184.5C 40.547,183.922 40.3803,183.256 39,182.5C 38.6012,182.728 38.4346,183.062 38.5,183.5C 37.0937,183.027 36.427,182.027 36.5,180.5C 35.0937,180.027 34.427,179.027 34.5,177.5C 33.6618,177.158 33.3284,176.492 33.5,175.5C 32.0937,175.027 31.427,174.027 31.5,172.5C 32.0431,172.44 32.3764,172.107 32.5,171.5C 30.6667,167.833 28.8333,164.167 27,160.5C 26.5357,161.094 26.369,161.761 26.5,162.5C 24.7329,160.208 23.7329,157.542 23.5,154.5C 24.0967,154.265 24.4301,153.765 24.5,153C 24,151.5 23.5,150 23,148.5C 22.5172,149.448 22.3505,150.448 22.5,151.5C 21.5655,150.432 21.2322,149.099 21.5,147.5C 20.5655,146.432 20.2322,145.099 20.5,143.5C 19.144,140.423 18.3106,137.09 18,133.5C 17.3333,123.833 17.3333,114.167 18,104.5C 18.693,98.1716 20.193,92.1716 22.5,86.5C 22.3505,87.552 22.5172,88.552 23,89.5C 23.5,88 24,86.5 24.5,85C 24.4301,84.2352 24.0967,83.7352 23.5,83.5C 23.4021,81.4471 24.0687,79.7804 25.5,78.5C 25.4021,76.4471 26.0687,74.7804 27.5,73.5C 27.369,74.2389 27.5357,74.9056 28,75.5C 29.5,72.5 31,69.5 32.5,66.5C 32.3764,65.8933 32.0431,65.56 31.5,65.5C 31.7497,63.326 32.7497,61.6594 34.5,60.5C 34.427,58.9731 35.0937,57.9731 36.5,57.5C 36.7376,55.5956 37.7376,54.2623 39.5,53.5C 49.9543,38.5592 63.621,27.3925 80.5,20C 124.368,2.53422 164.368,8.86756 200.5,39C 206.005,43.8814 210.672,49.3814 214.5,55.5 Z M 183.5,81.5 C 182.508,81.3284 181.842,81.6618 181.5,82.5C 180.833,83.1667 180.167,83.8333 179.5,84.5C 179.167,83.1667 178.833,83.1667 178.5,84.5C 177.508,84.3284 176.842,84.6618 176.5,85.5C 175.833,86.1667 175.167,86.8333 174.5,87.5C 174.158,88.3382 173.492,88.6716 172.5,88.5C 172.167,87.1667 171.833,87.1667 171.5,88.5C 170.508,88.3284 169.842,88.6618 169.5,89.5C 168.833,90.1667 168.167,90.8333 167.5,91.5C 167.167,90.1667 166.833,90.1667 166.5,91.5C 165.508,91.3284 164.842,91.6618 164.5,92.5C 163.167,93.5 161.833,94.5 160.5,95.5C 160.167,94.1667 159.833,94.1667 159.5,95.5C 158.508,95.3284 157.842,95.6618 157.5,96.5C 156.167,97.5 154.833,98.5 153.5,99.5C 153.167,98.1667 152.833,98.1667 152.5,99.5C 150.543,101.301 148.209,102.634 145.5,103.5C 141.555,106.254 137.888,108.587 134.5,110.5C 134.167,109.167 133.833,109.167 133.5,110.5C 132.778,110.918 132.278,111.584 132,112.5C 130.984,111.366 130.317,111.699 130,113.5C 128.927,112.72 127.76,112.887 126.5,114C 127.696,114.654 127.696,115.154 126.5,115.5C 117.671,111.127 109.671,106.46 102.5,101.5C 101.508,101.672 100.842,101.338 100.5,100.5C 98.9706,99.7161 97.3039,98.7161 95.5,97.5C 94.5084,97.6716 93.8417,97.3382 93.5,96.5C 91.9706,95.7161 90.3039,94.7161 88.5,93.5C 87.5084,93.6716 86.8417,93.3382 86.5,92.5C 85.8333,91.8333 85.1667,91.1667 84.5,90.5C 84.1667,89.1667 83.8333,89.1667 83.5,90.5C 82.5084,90.6716 81.8417,90.3382 81.5,89.5C 80.5084,89.6716 79.8417,89.3382 79.5,88.5C 80.8333,88.1667 80.8333,87.8333 79.5,87.5C 79.1583,86.6618 78.4916,86.3284 77.5,86.5C 77.1667,85.1667 76.8333,85.1667 76.5,86.5C 75.5084,86.6716 74.8417,86.3382 74.5,85.5C 73.5084,85.6716 72.8417,85.3382 72.5,84.5C 73.8333,84.1667 73.8333,83.8333 72.5,83.5C 72.1583,82.6618 71.4916,82.3284 70.5,82.5C 70.1667,81.1667 69.8333,81.1667 69.5,82.5C 68.5084,82.6716 67.8417,82.3382 67.5,81.5C 66.5266,81.0133 65.5266,80.5133 64.5,80C 105.5,79.3333 146.5,79.3333 187.5,80C 186.252,80.8611 184.919,81.3611 183.5,81.5 Z M 72.5,136.5 C 67.8333,139.167 64.1667,142.833 61.5,147.5C 61.5,148.167 61.1667,148.5 60.5,148.5C 59.6726,147.561 59.0059,147.895 58.5,149.5C 57.668,128.004 57.168,106.337 57,84.5C 56.5,107.164 56.3334,129.831 56.5,152.5C 55.3391,129.573 55.1724,105.906 56,81.5C 57.8656,83.3409 59.8656,85.0076 62,86.5C 62.3333,86.1667 62.6667,85.8333 63,85.5C 63.4419,87.6785 64.4419,88.3452 66,87.5C 69.6304,90.8845 73.297,93.5511 77,95.5C 78,95.5 79,95.5 80,95.5C 81.0968,97.0526 82.4301,98.386 84,99.5C 84.3333,99.1667 84.6667,98.8333 85,98.5C 86.8656,100.341 88.8656,102.008 91,103.5C 91.3333,103.167 91.6667,102.833 92,102.5C 93.0968,104.053 94.4301,105.386 96,106.5C 96.3333,106.167 96.6667,105.833 97,105.5C 97.4482,107.224 98.2815,107.891 99.5,107.5C 90.8453,117.488 81.8453,127.155 72.5,136.5 Z M 195.5,152.5 C 180.065,138.567 165.065,124.067 150.5,109C 165.753,99.4554 181.253,90.2887 197,81.5C 197.667,105.833 197.667,130.167 197,154.5C 196.283,153.956 195.783,153.289 195.5,152.5 Z M 149.5,117.5 C 161.834,130.843 174.5,143.176 187.5,154.5C 188.404,155.209 188.737,156.209 188.5,157.5C 147.864,158.501 105.197,158.834 60.5,158.5C 60.8333,157.5 61.5,156.833 62.5,156.5C 69.6355,150.892 76.6355,144.392 83.5,137C 83.2716,136.601 82.9382,136.435 82.5,136.5C 90.4643,128.035 98.631,119.702 107,111.5C 109.985,112.428 112.652,114.428 115,117.5C 116,117.5 117,117.5 118,117.5C 119.012,119.864 120.345,121.198 122,121.5C 123.974,121.374 126.141,121.208 128.5,121C 133.5,118.167 138.5,115.333 143.5,112.5C 145.519,114.19 147.519,115.856 149.5,117.5 Z"/></g>
<g><path style="opacity:0.008" fill="#fe7f00" d="M 197.5,21.5 C 198.833,22.1667 198.833,22.1667 197.5,21.5 Z"/></g>
<g><path style="opacity:0.008" fill="#fe7f00" d="M 202.5,25.5 C 203.833,26.1667 203.833,26.1667 202.5,25.5 Z"/></g>
<g><path style="opacity:0.004" fill="#fe0000" d="M 209.5,31.5 C 210.833,32.1667 210.833,32.1667 209.5,31.5 Z"/></g>
<g><path style="opacity:0.829" fill="#fe6500" d="M 50.5,72.5 C 100.664,73.4989 150.997,73.8322 201.5,73.5C 202.818,88.4462 203.484,103.613 203.5,119C 203.496,134.073 203.163,149.073 202.5,164C 177,164.167 151.5,164.333 126,164.5C 99.9521,164.491 74.1188,163.824 48.5,162.5C 48.5,162.167 48.5,161.833 48.5,161.5C 48.5,133.5 48.5,105.5 48.5,77.5C 49.1157,76.2022 49.1157,75.2022 48.5,74.5C 48.8333,73.5 49.5,72.8333 50.5,72.5 Z M 183.5,81.5 C 182.508,81.3284 181.842,81.6618 181.5,82.5C 180.833,83.1667 180.167,83.8333 179.5,84.5C 179.167,83.1667 178.833,83.1667 178.5,84.5C 177.508,84.3284 176.842,84.6618 176.5,85.5C 175.833,86.1667 175.167,86.8333 174.5,87.5C 174.158,88.3382 173.492,88.6716 172.5,88.5C 172.167,87.1667 171.833,87.1667 171.5,88.5C 170.508,88.3284 169.842,88.6618 169.5,89.5C 168.833,90.1667 168.167,90.8333 167.5,91.5C 167.167,90.1667 166.833,90.1667 166.5,91.5C 165.508,91.3284 164.842,91.6618 164.5,92.5C 163.167,93.5 161.833,94.5 160.5,95.5C 160.167,94.1667 159.833,94.1667 159.5,95.5C 158.508,95.3284 157.842,95.6618 157.5,96.5C 156.167,97.5 154.833,98.5 153.5,99.5C 153.167,98.1667 152.833,98.1667 152.5,99.5C 150.543,101.301 148.209,102.634 145.5,103.5C 141.555,106.254 137.888,108.587 134.5,110.5C 134.167,109.167 133.833,109.167 133.5,110.5C 132.778,110.918 132.278,111.584 132,112.5C 130.984,111.366 130.317,111.699 130,113.5C 128.927,112.72 127.76,112.887 126.5,114C 127.696,114.654 127.696,115.154 126.5,115.5C 117.671,111.127 109.671,106.46 102.5,101.5C 101.508,101.672 100.842,101.338 100.5,100.5C 98.9706,99.7161 97.3039,98.7161 95.5,97.5C 94.5084,97.6716 93.8417,97.3382 93.5,96.5C 91.9706,95.7161 90.3039,94.7161 88.5,93.5C 87.5084,93.6716 86.8417,93.3382 86.5,92.5C 85.8333,91.8333 85.1667,91.1667 84.5,90.5C 84.1667,89.1667 83.8333,89.1667 83.5,90.5C 82.5084,90.6716 81.8417,90.3382 81.5,89.5C 80.5084,89.6716 79.8417,89.3382 79.5,88.5C 80.8333,88.1667 80.8333,87.8333 79.5,87.5C 79.1583,86.6618 78.4916,86.3284 77.5,86.5C 77.1667,85.1667 76.8333,85.1667 76.5,86.5C 75.5084,86.6716 74.8417,86.3382 74.5,85.5C 73.5084,85.6716 72.8417,85.3382 72.5,84.5C 73.8333,84.1667 73.8333,83.8333 72.5,83.5C 72.1583,82.6618 71.4916,82.3284 70.5,82.5C 70.1667,81.1667 69.8333,81.1667 69.5,82.5C 68.5084,82.6716 67.8417,82.3382 67.5,81.5C 66.5266,81.0133 65.5266,80.5133 64.5,80C 105.5,79.3333 146.5,79.3333 187.5,80C 186.252,80.8611 184.919,81.3611 183.5,81.5 Z M 72.5,136.5 C 67.8333,139.167 64.1667,142.833 61.5,147.5C 61.5,148.167 61.1667,148.5 60.5,148.5C 59.6726,147.561 59.0059,147.895 58.5,149.5C 57.668,128.004 57.168,106.337 57,84.5C 56.5,107.164 56.3334,129.831 56.5,152.5C 55.3391,129.573 55.1724,105.906 56,81.5C 57.8656,83.3409 59.8656,85.0076 62,86.5C 62.3333,86.1667 62.6667,85.8333 63,85.5C 63.4419,87.6785 64.4419,88.3452 66,87.5C 69.6304,90.8845 73.297,93.5511 77,95.5C 78,95.5 79,95.5 80,95.5C 81.0968,97.0526 82.4301,98.386 84,99.5C 84.3333,99.1667 84.6667,98.8333 85,98.5C 86.8656,100.341 88.8656,102.008 91,103.5C 91.3333,103.167 91.6667,102.833 92,102.5C 93.0968,104.053 94.4301,105.386 96,106.5C 96.3333,106.167 96.6667,105.833 97,105.5C 97.4482,107.224 98.2815,107.891 99.5,107.5C 90.8453,117.488 81.8453,127.155 72.5,136.5 Z M 195.5,152.5 C 195.783,153.289 196.283,153.956 197,154.5C 197.667,130.167 197.667,105.833 197,81.5C 181.253,90.2887 165.753,99.4554 150.5,109C 165.065,124.067 180.065,138.567 195.5,152.5 Z M 149.5,117.5 C 161.834,130.843 174.5,143.176 187.5,154.5C 188.404,155.209 188.737,156.209 188.5,157.5C 147.864,158.501 105.197,158.834 60.5,158.5C 60.8333,157.5 61.5,156.833 62.5,156.5C 69.6355,150.892 76.6355,144.392 83.5,137C 83.2716,136.601 82.9382,136.435 82.5,136.5C 90.4643,128.035 98.631,119.702 107,111.5C 109.985,112.428 112.652,114.428 115,117.5C 116,117.5 117,117.5 118,117.5C 119.012,119.864 120.345,121.198 122,121.5C 123.974,121.374 126.141,121.208 128.5,121C 133.5,118.167 138.5,115.333 143.5,112.5C 145.519,114.19 147.519,115.856 149.5,117.5 Z"/></g>
<g><path style="opacity:0.004" fill="#fe0000" d="M 47.5,75.5 C 47.3284,76.4916 47.6618,77.1583 48.5,77.5C 48.5,105.5 48.5,133.5 48.5,161.5C 47.8333,161.5 47.5,161.833 47.5,162.5C 46.1667,133.5 46.1667,104.5 47.5,75.5 Z"/></g>
<g><path style="opacity:0.004" fill="#ff0700" d="M 58.5,149.5 C 58.5,149.833 58.5,150.167 58.5,150.5C 57.8333,151.167 57.1667,151.833 56.5,152.5C 56.3334,129.831 56.5,107.164 57,84.5C 57.168,106.337 57.668,128.004 58.5,149.5 Z"/></g>
<g><path style="opacity:0.004" fill="#fe0000" d="M 72.5,136.5 C 69.1667,140.5 65.5,144.167 61.5,147.5C 64.1667,142.833 67.8333,139.167 72.5,136.5 Z"/></g>
<g><path style="opacity:0.02" fill="#ff6a00" d="M 9.5,153.5 C 9.83333,153.5 10.1667,153.5 10.5,153.5C 10.1667,157.5 9.83333,157.5 9.5,153.5 Z"/></g>
<g><path style="opacity:0.016" fill="#ff61ff" d="M 12.5,159.5 C 12.5,160.5 12.5,161.5 12.5,162.5C 11.1667,161.5 11.1667,160.5 12.5,159.5 Z"/></g>
<g><path style="opacity:0.012" fill="#ff4b00" d="M 12.5,162.5 C 12.8333,162.5 13.1667,162.5 13.5,162.5C 13.3284,163.492 13.6618,164.158 14.5,164.5C 14.5,165.5 14.5,166.5 14.5,167.5C 13.0687,166.22 12.4021,164.553 12.5,162.5 Z"/></g>
<g><path style="opacity:0.008" fill="#ff7200" d="M 14.5,167.5 C 14.8333,167.5 15.1667,167.5 15.5,167.5C 15.5,168.167 15.5,168.833 15.5,169.5C 14.6618,169.158 14.3284,168.492 14.5,167.5 Z"/></g>
<g><path style="opacity:0.008" fill="#fe7900" d="M 15.5,169.5 C 15.8333,169.5 16.1667,169.5 16.5,169.5C 16.1667,172.167 15.8333,172.167 15.5,169.5 Z"/></g>
<g><path style="opacity:0.008" fill="#fe7900" d="M 18.5,173.5 C 18.5,174.167 18.5,174.833 18.5,175.5C 17.1667,174.833 17.1667,174.167 18.5,173.5 Z"/></g>
<g><path style="opacity:0.012" fill="#ff6400" d="M 20.5,178.5 C 20.8333,178.5 21.1667,178.5 21.5,178.5C 21.5,179.167 21.5,179.833 21.5,180.5C 20.6618,180.158 20.3284,179.492 20.5,178.5 Z"/></g>
<g><path style="opacity:0.008" fill="#ff7200" d="M 23.5,183.5 C 23.8333,183.5 24.1667,183.5 24.5,183.5C 24.1667,186.167 23.8333,186.167 23.5,183.5 Z"/></g>
<g><path style="opacity:0.004" fill="#ff2e00" d="M 26.5,186.5 C 26.631,187.239 26.4643,187.906 26,188.5C 25.3083,187.563 25.475,186.897 26.5,186.5 Z"/></g>
<g><path style="opacity:0.004" fill="#fe0000" d="M 211.5,203.5 C 212.833,204.167 212.833,204.167 211.5,203.5 Z"/></g>
<g><path style="opacity:0.004" fill="#fe0000" d="M 210.5,204.5 C 210.833,204.5 211.167,204.5 211.5,204.5C 211.315,205.17 210.981,205.17 210.5,204.5 Z"/></g>
<g><path style="opacity:0.004" fill="#fe0000" d="M 209.5,205.5 C 209.833,205.5 210.167,205.5 210.5,205.5C 210.315,206.17 209.981,206.17 209.5,205.5 Z"/></g>
<g><path style="opacity:0.004" fill="#fe0000" d="M 208.5,206.5 C 208.833,206.5 209.167,206.5 209.5,206.5C 209.315,207.17 208.981,207.17 208.5,206.5 Z"/></g>
<g><path style="opacity:0.004" fill="#fe0000" d="M 207.5,207.5 C 207.833,207.5 208.167,207.5 208.5,207.5C 208.315,208.17 207.981,208.17 207.5,207.5 Z"/></g>
<g><path style="opacity:0.004" fill="#fe0000" d="M 206.5,208.5 C 206.833,208.5 207.167,208.5 207.5,208.5C 207.315,209.17 206.981,209.17 206.5,208.5 Z"/></g>
<g><path style="opacity:0.004" fill="#fe0000" d="M 205.5,209.5 C 205.833,209.5 206.167,209.5 206.5,209.5C 206.315,210.17 205.981,210.17 205.5,209.5 Z"/></g>
<g><path style="opacity:0.004" fill="#fe0000" d="M 204.5,210.5 C 204.833,210.5 205.167,210.5 205.5,210.5C 205.315,211.17 204.981,211.17 204.5,210.5 Z"/></g>
<g><path style="opacity:0.004" fill="#fe0000" d="M 203.5,211.5 C 203.833,211.5 204.167,211.5 204.5,211.5C 204.315,212.17 203.981,212.17 203.5,211.5 Z"/></g>
<g><path style="opacity:0.008" fill="#fe7f00" d="M 201.5,212.5 C 202.833,213.167 202.833,213.167 201.5,212.5 Z"/></g>
<g><path style="opacity:0.008" fill="#fe7f00" d="M 200.5,213.5 C 200.833,213.5 201.167,213.5 201.5,213.5C 201.315,214.17 200.981,214.17 200.5,213.5 Z"/></g>
<g><path style="opacity:0.008" fill="#fe7f00" d="M 199.5,214.5 C 199.833,214.5 200.167,214.5 200.5,214.5C 200.315,215.17 199.981,215.17 199.5,214.5 Z"/></g>
<g><path style="opacity:0.004" fill="#fe0000" d="M 198.5,215.5 C 198.833,215.5 199.167,215.5 199.5,215.5C 199.315,216.17 198.981,216.17 198.5,215.5 Z"/></g>
<g><path style="opacity:0.004" fill="#ff2e00" d="M 196.5,217.5 C 196.5,217.167 196.5,216.833 196.5,216.5C 197.167,216.5 197.833,216.5 198.5,216.5C 198.158,217.338 197.492,217.672 196.5,217.5 Z"/></g>
<g><path style="opacity:0.012" fill="#fe5500" d="M 195.5,217.5 C 195.833,217.5 196.167,217.5 196.5,217.5C 196.315,218.17 195.981,218.17 195.5,217.5 Z"/></g>
<g><path style="opacity:0.012" fill="#fe5500" d="M 192.5,219.5 C 192.833,219.5 193.167,219.5 193.5,219.5C 193.315,220.17 192.981,220.17 192.5,219.5 Z"/></g>
<g><path style="opacity:0.008" fill="#fe7f00" d="M 190.5,221.5 C 190.5,221.167 190.5,220.833 190.5,220.5C 191.167,220.5 191.833,220.5 192.5,220.5C 192.158,221.338 191.492,221.672 190.5,221.5 Z"/></g>
<g><path style="opacity:0.012" fill="#fe5500" d="M 189.5,221.5 C 189.833,221.5 190.167,221.5 190.5,221.5C 190.315,222.17 189.981,222.17 189.5,221.5 Z"/></g>
<g><path style="opacity:0.004" fill="#ff45ff" d="M 187.5,223.5 C 187.5,223.167 187.5,222.833 187.5,222.5C 188.167,222.5 188.833,222.5 189.5,222.5C 189.158,223.338 188.492,223.672 187.5,223.5 Z"/></g>
<g><path style="opacity:0.012" fill="#fe5500" d="M 184.5,224.5 C 184.833,224.5 185.167,224.5 185.5,224.5C 185.315,225.17 184.981,225.17 184.5,224.5 Z"/></g>
<g><path style="opacity:0.004" fill="#ff45ff" d="M 182.5,226.5 C 182.5,226.167 182.5,225.833 182.5,225.5C 183.167,225.5 183.833,225.5 184.5,225.5C 184.158,226.338 183.492,226.672 182.5,226.5 Z"/></g>
<g><path style="opacity:0.004" fill="#ff45ff" d="M 180.5,227.5 C 180.5,227.167 180.5,226.833 180.5,226.5C 181.167,226.5 181.833,226.5 182.5,226.5C 182.158,227.338 181.492,227.672 180.5,227.5 Z"/></g>
<g><path style="opacity:0.012" fill="#fe7f00" d="M 178.5,228.5 C 178.5,228.167 178.5,227.833 178.5,227.5C 179.167,227.5 179.833,227.5 180.5,227.5C 180.158,228.338 179.492,228.672 178.5,228.5 Z"/></g>
<g><path style="opacity:0.012" fill="#ff5a00" d="M 171.5,231.5 C 171.5,231.167 171.5,230.833 171.5,230.5C 172.167,230.5 172.833,230.5 173.5,230.5C 173.158,231.338 172.492,231.672 171.5,231.5 Z"/></g>
<g><path style="opacity:0.016" fill="#ff65ff" d="M 163.5,234.5 C 163.5,234.167 163.5,233.833 163.5,233.5C 164.5,233.5 165.5,233.5 166.5,233.5C 165.791,234.404 164.791,234.737 163.5,234.5 Z"/></g>
<g><path style="opacity:0.012" fill="#ff4d00" d="M 160.5,235.5 C 160.5,235.167 160.5,234.833 160.5,234.5C 161.5,234.5 162.5,234.5 163.5,234.5C 162.791,235.404 161.791,235.737 160.5,235.5 Z"/></g>
<g><path style="opacity:0.012" fill="#ff5400" d="M 105.5,238.5 C 119.5,238.5 133.5,238.5 147.5,238.5C 133.5,239.833 119.5,239.833 105.5,238.5 Z"/></g>
</svg>
