<?xml version="1.0" encoding="UTF-8"?>
<!DOCTYPE svg PUBLIC "-//W3C//DTD SVG 1.1//EN" "http://www.w3.org/Graphics/SVG/1.1/DTD/svg11.dtd">
<svg xmlns="http://www.w3.org/2000/svg" version="1.1" width="279px" height="230px" style="shape-rendering:geometricPrecision; text-rendering:geometricPrecision; image-rendering:optimizeQuality; fill-rule:evenodd; clip-rule:evenodd" xmlns:xlink="http://www.w3.org/1999/xlink">
<g><path style="opacity:0.949" fill="#fe802a" d="M 143.5,2.5 C 141.73,4.11327 140.564,6.11327 140,8.5C 137.907,7.76603 137.407,8.4327 138.5,10.5C 117.786,8.77291 102.62,17.1062 93,35.5C 91.85,39.1117 91.0166,42.7783 90.5,46.5C 88.9081,45.3984 88.0748,46.065 88,48.5C 87.6667,48.1667 87.3333,47.8333 87,47.5C 85.2602,48.7158 84.2602,50.3825 84,52.5C 82.8525,51.5419 81.8525,51.8753 81,53.5C 80.5172,54.448 80.3505,55.448 80.5,56.5C 72.8261,56.6664 65.1594,56.4997 57.5,56C 54.8333,53.6667 54.8333,51.3333 57.5,49C 65.4931,48.5003 73.4931,48.3336 81.5,48.5C 84.173,23.3279 97.8397,7.82791 122.5,2C 129.58,1.20548 136.58,1.37215 143.5,2.5 Z"/></g>
<g><path style="opacity:0.948" fill="#fe9148" d="M 143.5,2.5 C 154.502,4.49919 163.502,9.83252 170.5,18.5C 169.246,21.0934 167.58,23.4268 165.5,25.5C 158.486,17.1544 149.486,12.1544 138.5,10.5C 137.407,8.4327 137.907,7.76603 140,8.5C 140.564,6.11327 141.73,4.11327 143.5,2.5 Z"/></g>
<g><path style="opacity:0.933" fill="#fe8939" d="M 145.5,21.5 C 144.196,23.2075 143.03,24.8741 142,26.5C 141.667,26.1667 141.333,25.8333 141,25.5C 140.51,26.7932 140.343,28.1266 140.5,29.5C 121.677,25.6269 110.677,33.2935 107.5,52.5C 107.837,55.1764 108.17,57.843 108.5,60.5C 106.908,59.3984 106.075,60.065 106,62.5C 105.667,62.1667 105.333,61.8333 105,61.5C 104.667,62.5 104.333,63.5 104,64.5C 103.667,64.1667 103.333,63.8333 103,63.5C 102.517,64.448 102.351,65.448 102.5,66.5C 94.9993,46.6321 100.666,31.4654 119.5,21C 128.279,17.5245 136.946,17.6912 145.5,21.5 Z"/></g>
<g><path style="opacity:0.933" fill="#fe964f" d="M 145.5,21.5 C 154.69,25.3542 160.69,32.0208 163.5,41.5C 162.206,42.2899 161.039,43.2899 160,44.5C 159.667,44.1667 159.333,43.8333 159,43.5C 158.626,45.4913 157.793,47.158 156.5,48.5C 154.781,39.1152 149.448,32.7819 140.5,29.5C 140.343,28.1266 140.51,26.7932 141,25.5C 141.333,25.8333 141.667,26.1667 142,26.5C 143.03,24.8741 144.196,23.2075 145.5,21.5 Z"/></g>
<g><path style="opacity:0.918" fill="#fe9146" d="M 145.5,38.5 C 144.992,40.2327 144.159,40.566 143,39.5C 142.345,41.6284 141.511,43.6284 140.5,45.5C 128.62,39.4421 122.62,43.1087 122.5,56.5C 120.5,58.1667 118.5,59.8333 116.5,61.5C 112.029,53.1034 113.029,45.2701 119.5,38C 128.379,31.8742 137.046,32.0409 145.5,38.5 Z"/></g>
<g><path style="opacity:0.951" fill="#fea161" d="M 170.5,18.5 C 178.618,26.7483 182.952,36.7483 183.5,48.5C 181.205,51.2971 178.705,53.9638 176,56.5C 175.617,55.944 175.117,55.6107 174.5,55.5C 175.544,44.3555 172.544,34.3555 165.5,25.5C 167.58,23.4268 169.246,21.0934 170.5,18.5 Z"/></g>
<g><path style="opacity:0.921" fill="#fea161" d="M 163.5,41.5 C 166.637,50.0277 166.803,58.3611 164,66.5C 157.457,73.0993 150.957,73.0993 144.5,66.5C 147.274,63.7398 149.608,60.7398 151.5,57.5C 150.899,61.909 152.566,63.2424 156.5,61.5C 157.767,57.1684 157.767,52.835 156.5,48.5C 157.793,47.158 158.626,45.4913 159,43.5C 159.333,43.8333 159.667,44.1667 160,44.5C 161.039,43.2899 162.206,42.2899 163.5,41.5 Z"/></g>
<g><path style="opacity:0.991" fill="#fe7011" d="M 35.5,77.5 C 33.086,78.9108 31.4194,80.9108 30.5,83.5C 22.9729,77.4396 15.8062,70.773 9,63.5C 8.50031,71.1594 8.33365,78.8261 8.5,86.5C 7.88258,86.3893 7.38258,86.056 7,85.5C 4.9633,87.7059 2.79663,89.7059 0.5,91.5C 0.176492,77.2546 0.509825,63.0879 1.5,49C 15.1667,48.3333 28.8333,48.3333 42.5,49C 45.1667,51.3333 45.1667,53.6667 42.5,56C 33.5,56.3333 24.5,56.6667 15.5,57C 22.3693,63.7018 29.036,70.5351 35.5,77.5 Z"/></g>
<g><path style="opacity:0.968" fill="#ffb685" d="M 203.5,48.5 C 217.5,48.5 231.5,48.5 245.5,48.5C 243.706,50.7966 241.706,52.9633 239.5,55C 240.056,55.3826 240.389,55.8826 240.5,56.5C 225.833,56.5 211.167,56.5 196.5,56.5C 198.833,53.8333 201.167,51.1667 203.5,48.5 Z"/></g>
<g><path style="opacity:0.957" fill="#fec299" d="M 245.5,48.5 C 251.509,48.3338 257.509,48.5005 263.5,49C 264.467,53.4014 264.8,57.9014 264.5,62.5C 262.215,64.7853 259.881,67.1186 257.5,69.5C 256.971,67.0532 256.304,65.3865 255.5,64.5C 243.139,75.3551 231.139,86.8551 219.5,99C 215.641,101.379 212.975,100.379 211.5,96C 211.862,94.7753 212.362,93.6086 213,92.5C 225.296,80.6776 237.463,68.8443 249.5,57C 246.518,56.502 243.518,56.3354 240.5,56.5C 240.389,55.8826 240.056,55.3826 239.5,55C 241.706,52.9633 243.706,50.7966 245.5,48.5 Z"/></g>
<g><path style="opacity:0.956" fill="#fe9b57" d="M 145.5,38.5 C 150.281,43.8464 152.281,50.1797 151.5,57.5C 149.608,60.7398 147.274,63.7398 144.5,66.5C 137.303,72.4019 129.637,72.9019 121.5,68C 119.21,66.2228 117.543,64.0562 116.5,61.5C 118.5,59.8333 120.5,58.1667 122.5,56.5C 129.46,64.8111 135.96,64.4778 142,55.5C 142.843,51.8971 142.343,48.5637 140.5,45.5C 141.511,43.6284 142.345,41.6284 143,39.5C 144.159,40.566 144.992,40.2327 145.5,38.5 Z"/></g>
<g><path style="opacity:0.949" fill="#feaa70" d="M 183.5,48.5 C 190.167,48.5 196.833,48.5 203.5,48.5C 201.167,51.1667 198.833,53.8333 196.5,56.5C 192.167,56.5 187.833,56.5 183.5,56.5C 180.293,81.2079 166.626,96.7079 142.5,103C 135.5,103.667 128.5,103.667 121.5,103C 117.961,102.321 114.628,101.154 111.5,99.5C 113.5,97.1667 115.5,94.8333 117.5,92.5C 139.995,98.8383 157.495,92.1717 170,72.5C 172.626,67.123 174.126,61.4563 174.5,55.5C 175.117,55.6107 175.617,55.944 176,56.5C 178.705,53.9638 181.205,51.2971 183.5,48.5 Z"/></g>
<g><path style="opacity:0.979" fill="#fec9a7" d="M 264.5,62.5 C 264.5,69.8333 264.5,77.1667 264.5,84.5C 261.87,86.6281 259.37,88.9614 257,91.5C 256.501,97.1569 256.334,102.824 256.5,108.5C 256.167,108.5 255.833,108.5 255.5,108.5C 255.5,93.8333 255.5,79.1667 255.5,64.5C 256.304,65.3865 256.971,67.0532 257.5,69.5C 259.881,67.1186 262.215,64.7853 264.5,62.5 Z"/></g>
<g><path style="opacity:0.94" fill="#fe8a3c" d="M 90.5,46.5 C 89.2284,55.5392 90.5617,64.2059 94.5,72.5C 93.2718,73.0249 92.4384,74.3582 92,76.5C 91.6667,76.1667 91.3333,75.8333 91,75.5C 90.3923,77.1545 89.8923,78.8211 89.5,80.5C 84.5221,73.2321 81.5221,65.2321 80.5,56.5C 80.3505,55.448 80.5172,54.448 81,53.5C 81.8525,51.8753 82.8525,51.5419 84,52.5C 84.2602,50.3825 85.2602,48.7158 87,47.5C 87.3333,47.8333 87.6667,48.1667 88,48.5C 88.0748,46.065 88.9081,45.3984 90.5,46.5 Z"/></g>
<g><path style="opacity:0.977" fill="#fe9a56" d="M 108.5,60.5 C 113.785,71.823 122.785,77.6563 135.5,78C 136.591,80.0639 136.758,82.2305 136,84.5C 120.359,86.7634 109.192,80.7634 102.5,66.5C 102.351,65.448 102.517,64.448 103,63.5C 103.333,63.8333 103.667,64.1667 104,64.5C 104.333,63.5 104.667,62.5 105,61.5C 105.333,61.8333 105.667,62.1667 106,62.5C 106.075,60.065 106.908,59.3984 108.5,60.5 Z"/></g>
<g><path style="opacity:0.957" fill="#fe9954" d="M 94.5,72.5 C 99.8655,81.702 107.532,88.3687 117.5,92.5C 115.5,94.8333 113.5,97.1667 111.5,99.5C 102.129,95.4878 94.796,89.1545 89.5,80.5C 89.8923,78.8211 90.3923,77.1545 91,75.5C 91.3333,75.8333 91.6667,76.1667 92,76.5C 92.4384,74.3582 93.2718,73.0249 94.5,72.5 Z"/></g>
<g><path style="opacity:0.936" fill="#fe8635" d="M 35.5,77.5 C 43.4126,83.7425 50.746,90.7425 57.5,98.5C 56.9101,99.766 56.4101,101.099 56,102.5C 55.6667,102.167 55.3333,101.833 55,101.5C 53.3196,102.84 52.4863,104.173 52.5,105.5C 44.8333,98.5 37.5,91.1667 30.5,83.5C 31.4194,80.9108 33.086,78.9108 35.5,77.5 Z"/></g>
<g><path style="opacity:0.945" fill="#fec096" d="M 203.5,106.5 C 202.778,106.918 202.278,107.584 202,108.5C 201.667,108.167 201.333,107.833 201,107.5C 200.667,108.5 200.333,109.5 200,110.5C 198.853,109.542 197.853,109.875 197,111.5C 196.667,112.5 196.333,113.5 196,114.5C 195.667,114.167 195.333,113.833 195,113.5C 194.667,114.5 194.333,115.5 194,116.5C 193.667,116.167 193.333,115.833 193,115.5C 192.667,116.5 192.333,117.5 192,118.5C 190.853,117.542 189.853,117.875 189,119.5C 188.667,120.5 188.333,121.5 188,122.5C 187.667,122.167 187.333,121.833 187,121.5C 186.667,122.5 186.333,123.5 186,124.5C 185.667,124.167 185.333,123.833 185,123.5C 184.667,124.5 184.333,125.5 184,126.5C 182.853,125.542 181.853,125.875 181,127.5C 180.667,128.5 180.333,129.5 180,130.5C 179.667,130.167 179.333,129.833 179,129.5C 178.667,130.5 178.333,131.5 178,132.5C 177.667,132.167 177.333,131.833 177,131.5C 176.667,132.5 176.333,133.5 176,134.5C 174.853,133.542 173.853,133.875 173,135.5C 172.667,136.5 172.333,137.5 172,138.5C 171.667,138.167 171.333,137.833 171,137.5C 170.667,138.5 170.333,139.5 170,140.5C 169.667,140.167 169.333,139.833 169,139.5C 168.667,140.5 168.333,141.5 168,142.5C 166.853,141.542 165.853,141.875 165,143.5C 164.667,144.5 164.333,145.5 164,146.5C 163.667,146.167 163.333,145.833 163,145.5C 162.667,146.5 162.333,147.5 162,148.5C 161.667,148.167 161.333,147.833 161,147.5C 160.667,148.5 160.333,149.5 160,150.5C 158.853,149.542 157.853,149.875 157,151.5C 156.667,152.5 156.333,153.5 156,154.5C 155.667,154.167 155.333,153.833 155,153.5C 154.667,154.5 154.333,155.5 154,156.5C 153.667,156.167 153.333,155.833 153,155.5C 152.667,156.5 152.333,157.5 152,158.5C 150.853,157.542 149.853,157.875 149,159.5C 148.667,160.5 148.333,161.5 148,162.5C 147.667,162.167 147.333,161.833 147,161.5C 146.667,162.5 146.333,163.5 146,164.5C 145.667,164.167 145.333,163.833 145,163.5C 144.667,164.5 144.333,165.5 144,166.5C 142.853,165.542 141.853,165.875 141,167.5C 140.667,168.5 140.333,169.5 140,170.5C 139.667,170.167 139.333,169.833 139,169.5C 138.667,170.5 138.333,171.5 138,172.5C 137.667,172.167 137.333,171.833 137,171.5C 136.667,172.5 136.333,173.5 136,174.5C 134.853,173.542 133.853,173.875 133,175.5C 132.517,176.448 132.351,177.448 132.5,178.5C 128.668,178.118 125.335,176.785 122.5,174.5C 122.833,170.833 124.833,168.833 128.5,168.5C 131.255,169.98 133.922,169.813 136.5,168C 157.168,146.999 178.168,126.332 199.5,106C 201.066,105.235 202.399,105.402 203.5,106.5 Z"/></g>
<g><path style="opacity:0.951" fill="#fec49c" d="M 203.5,106.5 C 206.128,107.625 206.961,109.625 206,112.5C 196.292,122.375 186.459,132.042 176.5,141.5C 180.187,144.855 183.853,148.189 187.5,151.5C 184.556,152.901 182.556,154.901 181.5,157.5C 177.518,154.524 173.518,151.524 169.5,148.5C 160.014,157.486 150.681,166.652 141.5,176C 138.526,176.993 135.526,177.826 132.5,178.5C 132.351,177.448 132.517,176.448 133,175.5C 133.853,173.875 134.853,173.542 136,174.5C 136.333,173.5 136.667,172.5 137,171.5C 137.333,171.833 137.667,172.167 138,172.5C 138.333,171.5 138.667,170.5 139,169.5C 139.333,169.833 139.667,170.167 140,170.5C 140.333,169.5 140.667,168.5 141,167.5C 141.853,165.875 142.853,165.542 144,166.5C 144.333,165.5 144.667,164.5 145,163.5C 145.333,163.833 145.667,164.167 146,164.5C 146.333,163.5 146.667,162.5 147,161.5C 147.333,161.833 147.667,162.167 148,162.5C 148.333,161.5 148.667,160.5 149,159.5C 149.853,157.875 150.853,157.542 152,158.5C 152.333,157.5 152.667,156.5 153,155.5C 153.333,155.833 153.667,156.167 154,156.5C 154.333,155.5 154.667,154.5 155,153.5C 155.333,153.833 155.667,154.167 156,154.5C 156.333,153.5 156.667,152.5 157,151.5C 157.853,149.875 158.853,149.542 160,150.5C 160.333,149.5 160.667,148.5 161,147.5C 161.333,147.833 161.667,148.167 162,148.5C 162.333,147.5 162.667,146.5 163,145.5C 163.333,145.833 163.667,146.167 164,146.5C 164.333,145.5 164.667,144.5 165,143.5C 165.853,141.875 166.853,141.542 168,142.5C 168.333,141.5 168.667,140.5 169,139.5C 169.333,139.833 169.667,140.167 170,140.5C 170.333,139.5 170.667,138.5 171,137.5C 171.333,137.833 171.667,138.167 172,138.5C 172.333,137.5 172.667,136.5 173,135.5C 173.853,133.875 174.853,133.542 176,134.5C 176.333,133.5 176.667,132.5 177,131.5C 177.333,131.833 177.667,132.167 178,132.5C 178.333,131.5 178.667,130.5 179,129.5C 179.333,129.833 179.667,130.167 180,130.5C 180.333,129.5 180.667,128.5 181,127.5C 181.853,125.875 182.853,125.542 184,126.5C 184.333,125.5 184.667,124.5 185,123.5C 185.333,123.833 185.667,124.167 186,124.5C 186.333,123.5 186.667,122.5 187,121.5C 187.333,121.833 187.667,122.167 188,122.5C 188.333,121.5 188.667,120.5 189,119.5C 189.853,117.875 190.853,117.542 192,118.5C 192.333,117.5 192.667,116.5 193,115.5C 193.333,115.833 193.667,116.167 194,116.5C 194.333,115.5 194.667,114.5 195,113.5C 195.333,113.833 195.667,114.167 196,114.5C 196.333,113.5 196.667,112.5 197,111.5C 197.853,109.875 198.853,109.542 200,110.5C 200.333,109.5 200.667,108.5 201,107.5C 201.333,107.833 201.667,108.167 202,108.5C 202.278,107.584 202.778,106.918 203.5,106.5 Z"/></g>
<g><path style="opacity:0.861" fill="#fe954e" d="M 57.5,98.5 C 65.1667,105.5 72.5,112.833 79.5,120.5C 77.369,122.611 75.7023,124.944 74.5,127.5C 66.8333,120.5 59.5,113.167 52.5,105.5C 52.4863,104.173 53.3196,102.84 55,101.5C 55.3333,101.833 55.6667,102.167 56,102.5C 56.4101,101.099 56.9101,99.766 57.5,98.5 Z"/></g>
<g><path style="opacity:0.985" fill="#fe7e28" d="M 8.5,86.5 C 8.5,100.5 8.5,114.5 8.5,128.5C 5.87321,127.924 4.37321,129.258 4,132.5C 3.66667,132.167 3.33333,131.833 3,131.5C 2.2917,132.381 1.45837,133.047 0.5,133.5C 0.5,119.5 0.5,105.5 0.5,91.5C 2.79663,89.7059 4.9633,87.7059 7,85.5C 7.38258,86.056 7.88258,86.3893 8.5,86.5 Z"/></g>
<g><path style="opacity:0.982" fill="#fed8be" d="M 264.5,84.5 C 264.5,98.5 264.5,112.5 264.5,126.5C 261.87,128.628 259.37,130.961 257,133.5C 256.5,125.173 256.334,116.84 256.5,108.5C 256.334,102.824 256.501,97.1569 257,91.5C 259.37,88.9614 261.87,86.6281 264.5,84.5 Z"/></g>
<g><path style="opacity:0.951" fill="#fea567" d="M 79.5,120.5 C 85.1667,125.5 90.5,130.833 95.5,136.5C 78.5351,153.965 61.3684,171.299 44,188.5C 43.3083,189.437 43.475,190.103 44.5,190.5C 35.6928,198.468 26.6928,206.302 17.5,214C 24.4921,214.5 31.4921,214.666 38.5,214.5C 35.8605,216.473 33.5272,218.806 31.5,221.5C 21.5,221.5 11.5,221.5 1.5,221.5C 1.35055,220.448 1.51722,219.448 2,218.5C 7.40246,213.636 11.9025,208.636 15.5,203.5C 39.6425,182.865 63.9758,162.365 88.5,142C 83.6301,137.298 78.9634,132.465 74.5,127.5C 75.7023,124.944 77.369,122.611 79.5,120.5 Z"/></g>
<g><path style="opacity:0.955" fill="#fea96c" d="M 95.5,136.5 C 99.4818,138.817 102.815,141.817 105.5,145.5C 104.246,148.093 102.58,150.427 100.5,152.5C 98.825,150.998 96.9917,149.665 95,148.5C 78.0435,162.389 61.2101,176.389 44.5,190.5C 43.475,190.103 43.3083,189.437 44,188.5C 61.3684,171.299 78.5351,153.965 95.5,136.5 Z"/></g>
<g><path style="opacity:0.977" fill="#fee3d0" d="M 255.5,108.5 C 255.833,108.5 256.167,108.5 256.5,108.5C 256.334,116.84 256.5,125.173 257,133.5C 259.37,130.961 261.87,128.628 264.5,126.5C 264.5,137.833 264.5,149.167 264.5,160.5C 263.883,160.389 263.383,160.056 263,159.5C 261,161.5 259,163.5 257,165.5C 256.819,162.305 256.319,159.305 255.5,156.5C 255.5,140.5 255.5,124.5 255.5,108.5 Z"/></g>
<g><path style="opacity:0.983" fill="#fe8d41" d="M 8.5,128.5 C 8.5,143.167 8.5,157.833 8.5,172.5C 7.88258,172.389 7.38258,172.056 7,171.5C 4.9633,173.706 2.79663,175.706 0.5,177.5C 0.5,162.833 0.5,148.167 0.5,133.5C 1.45837,133.047 2.2917,132.381 3,131.5C 3.33333,131.833 3.66667,132.167 4,132.5C 4.37321,129.258 5.87321,127.924 8.5,128.5 Z"/></g>
<g><path style="opacity:0.943" fill="#feb685" d="M 105.5,145.5 C 113.446,152.779 121.113,160.446 128.5,168.5C 124.833,168.833 122.833,170.833 122.5,174.5C 114.833,167.5 107.5,160.167 100.5,152.5C 102.58,150.427 104.246,148.093 105.5,145.5 Z"/></g>
<g><path style="opacity:0.915" fill="#fed4b8" d="M 187.5,151.5 C 195.247,157.371 202.58,163.704 209.5,170.5C 207.833,172.5 206.167,174.5 204.5,176.5C 196.536,170.537 188.87,164.204 181.5,157.5C 182.556,154.901 184.556,152.901 187.5,151.5 Z"/></g>
<g><path style="opacity:0.912" fill="#fee3cf" d="M 209.5,170.5 C 216.436,175.43 223.103,180.763 229.5,186.5C 229.649,187.552 229.483,188.552 229,189.5C 228.333,190.833 227.667,190.833 227,189.5C 226.8,191.32 225.966,192.653 224.5,193.5C 217.24,188.577 210.574,182.91 204.5,176.5C 206.167,174.5 207.833,172.5 209.5,170.5 Z"/></g>
<g><path style="opacity:0.977" fill="#feefe4" d="M 255.5,156.5 C 256.319,159.305 256.819,162.305 257,165.5C 259,163.5 261,161.5 263,159.5C 263.383,160.056 263.883,160.389 264.5,160.5C 264.5,169.833 264.5,179.167 264.5,188.5C 262.203,190.294 260.037,192.294 258,194.5C 257.667,194.167 257.333,193.833 257,193.5C 256.823,197.356 256.323,201.023 255.5,204.5C 255.5,188.5 255.5,172.5 255.5,156.5 Z"/></g>
<g><path style="opacity:0.947" fill="#fe9d5b" d="M 8.5,172.5 C 8.33346,184.505 8.50013,196.505 9,208.5C 11.2869,206.946 13.4535,205.279 15.5,203.5C 11.9025,208.636 7.40246,213.636 2,218.5C 1.51722,219.448 1.35055,220.448 1.5,221.5C 0.503984,207.01 0.170651,192.343 0.5,177.5C 2.79663,175.706 4.9633,173.706 7,171.5C 7.38258,172.056 7.88258,172.389 8.5,172.5 Z"/></g>
<g><path style="opacity:0.95" fill="#fef3ec" d="M 229.5,186.5 C 237.617,193.73 245.95,200.73 254.5,207.5C 255.386,206.675 255.719,205.675 255.5,204.5C 256.323,201.023 256.823,197.356 257,193.5C 257.333,193.833 257.667,194.167 258,194.5C 260.037,192.294 262.203,190.294 264.5,188.5C 264.5,199.5 264.5,210.5 264.5,221.5C 244.167,221.5 223.833,221.5 203.5,221.5C 203.244,219.208 203.577,217.041 204.5,215C 218.833,214.667 233.167,214.333 247.5,214C 239.384,207.619 231.718,200.785 224.5,193.5C 225.966,192.653 226.8,191.32 227,189.5C 227.667,190.833 228.333,190.833 229,189.5C 229.483,188.552 229.649,187.552 229.5,186.5 Z"/></g>
<g><path style="opacity:0.96" fill="#ffb686" d="M 38.5,214.5 C 52.8333,214.5 67.1667,214.5 81.5,214.5C 78.2651,216.061 75.5984,218.394 73.5,221.5C 59.5,221.5 45.5,221.5 31.5,221.5C 33.5272,218.806 35.8605,216.473 38.5,214.5 Z"/></g>
<g><path style="opacity:0.964" fill="#ffc59f" d="M 81.5,214.5 C 95.5,214.5 109.5,214.5 123.5,214.5C 122.269,215.718 121.102,217.051 120,218.5C 119.667,218.167 119.333,217.833 119,217.5C 118.52,219.133 117.687,220.466 116.5,221.5C 102.167,221.5 87.8333,221.5 73.5,221.5C 75.5984,218.394 78.2651,216.061 81.5,214.5 Z"/></g>
<g><path style="opacity:0.975" fill="#ffd3b6" d="M 123.5,214.5 C 135.171,214.333 146.838,214.5 158.5,215C 159.423,217.041 159.756,219.208 159.5,221.5C 145.167,221.5 130.833,221.5 116.5,221.5C 117.687,220.466 118.52,219.133 119,217.5C 119.333,217.833 119.667,218.167 120,218.5C 121.102,217.051 122.269,215.718 123.5,214.5 Z"/></g>
<g><path style="opacity:0.895" fill="#fee1cd" d="M 173.5,214.5 C 178.844,214.334 184.177,214.501 189.5,215C 191.325,216.466 191.825,218.299 191,220.5C 184.59,221.478 178.09,221.811 171.5,221.5C 171.166,218.812 171.832,216.479 173.5,214.5 Z"/></g>
</svg>
