<?xml version="1.0" encoding="UTF-8"?>
<!DOCTYPE svg PUBLIC "-//W3C//DTD SVG 1.1//EN" "http://www.w3.org/Graphics/SVG/1.1/DTD/svg11.dtd">
<svg xmlns="http://www.w3.org/2000/svg" version="1.1" width="145px" height="65px" style="shape-rendering:geometricPrecision; text-rendering:geometricPrecision; image-rendering:optimizeQuality; fill-rule:evenodd; clip-rule:evenodd" xmlns:xlink="http://www.w3.org/1999/xlink">
<g><path style="opacity:0.813" fill="#fd6500" d="M 127.5,3.5 C 128.833,5.5 130.5,7.16667 132.5,8.5C 132.427,10.0269 133.094,11.0269 134.5,11.5C 134.721,14.0673 135.388,16.4006 136.5,18.5C 136.5,19.8333 136.5,21.1667 136.5,22.5C 135.18,23.9418 133.514,24.6085 131.5,24.5C 130.21,20.1271 128.71,15.7937 127,11.5C 125.363,9.18979 123.196,7.68979 120.5,7C 85.5,6.33333 50.5,6.33333 15.5,7C 7.08507,11.3476 4.25174,18.1809 7,27.5C 8.44211,31.2749 10.9421,34.1083 14.5,36C 42.8333,36.3333 71.1667,36.6667 99.5,37C 101.056,37.7202 102.056,38.8868 102.5,40.5C 101.662,40.8417 101.328,41.5084 101.5,42.5C 100.508,42.3284 99.8417,42.6618 99.5,43.5C 70.8123,43.7919 42.1456,43.4586 13.5,42.5C 8.87445,39.5422 4.87445,35.8755 1.5,31.5C 1.73731,30.209 1.40397,29.209 0.5,28.5C 0.767809,26.901 0.434475,25.5676 -0.5,24.5C -0.5,22.5 -0.5,20.5 -0.5,18.5C 0.434475,17.4324 0.767809,16.099 0.5,14.5C 1.40397,13.791 1.73731,12.791 1.5,11.5C 4.68869,7.14923 8.68869,3.64923 13.5,1C 49.8333,0.333333 86.1667,0.333333 122.5,1C 124.193,1.84661 125.86,2.67994 127.5,3.5 Z M 43.5,13.5 C 44.1667,13.5 44.8333,13.5 45.5,13.5C 44.438,15.0992 44.438,16.7659 45.5,18.5C 44.8333,18.5 44.1667,18.5 43.5,18.5C 43.5,16.8333 43.5,15.1667 43.5,13.5 Z M 52.5,17.5 C 53.1667,17.5 53.8333,17.5 54.5,17.5C 53.8333,20.1667 53.1667,20.1667 52.5,17.5 Z"/></g>
<g><path style="opacity:0.004" fill="#ff45ff" d="M 127.5,3.5 C 128.167,2.16667 128.833,2.16667 129.5,3.5C 128.833,3.5 128.167,3.5 127.5,3.5 Z"/></g>
<g><path style="opacity:0.004" fill="#fe0000" d="M 5.5,3.5 C 6.83333,4.16667 6.83333,4.16667 5.5,3.5 Z"/></g>
<g><path style="opacity:0.008" fill="#fe7f00" d="M 129.5,3.5 C 130.167,3.5 130.5,3.83333 130.5,4.5C 130.167,4.16667 129.833,3.83333 129.5,3.5 Z"/></g>
<g><path style="opacity:0.004" fill="#fe0000" d="M 5.5,4.5 C 4.83333,5.16667 4.83333,5.16667 5.5,4.5 Z"/></g>
<g><path style="opacity:0.008" fill="#fe7f00" d="M 130.5,4.5 C 131.167,4.5 131.5,4.83333 131.5,5.5C 131.167,5.16667 130.833,4.83333 130.5,4.5 Z"/></g>
<g><path style="opacity:0.004" fill="#fe0000" d="M 131.5,5.5 C 132.833,6.16667 132.833,6.16667 131.5,5.5 Z"/></g>
<g><path style="opacity:0.012" fill="#fe5500" d="M 133.5,8.5 C 132.833,7.16667 132.833,7.16667 133.5,8.5 Z"/></g>
<g><path style="opacity:0.008" fill="#fe7f00" d="M 1.5,8.5 C 2.83333,9.16667 2.83333,9.16667 1.5,8.5 Z"/></g>
<g><path style="opacity:0.008" fill="#fe7f00" d="M 133.5,8.5 C 134.833,9.16667 134.833,9.16667 133.5,8.5 Z"/></g>
<g><path style="opacity:0.012" fill="#fe5500" d="M 1.5,11.5 C 0.833333,10.1667 0.833333,10.1667 1.5,11.5 Z"/></g>
<g><path style="opacity:0.012" fill="#fe5500" d="M 134.5,10.5 C 135.833,11.1667 135.833,11.1667 134.5,10.5 Z"/></g>
<g><path style="opacity:0.831" fill="#fd6500" d="M 34.5,17.5 C 34.3505,18.552 34.5172,19.552 35,20.5C 36.6258,18.0829 38.1258,15.5829 39.5,13C 40.9285,12.4209 42.2618,12.5876 43.5,13.5C 43.5,15.1667 43.5,16.8333 43.5,18.5C 41.3178,22.3529 38.9845,26.1863 36.5,30C 35.451,30.4922 34.451,30.3256 33.5,29.5C 32.4793,28.0986 31.4793,26.7653 30.5,25.5C 30.6495,24.448 30.4828,23.448 30,22.5C 29.2086,23.745 28.7086,25.0783 28.5,26.5C 27.6364,27.6883 26.6364,28.8549 25.5,30C 24.451,30.4922 23.451,30.3256 22.5,29.5C 19.1857,24.8841 17.0191,19.8841 16,14.5C 16.8373,12.9926 18.0039,12.4926 19.5,13C 21.3773,15.2513 22.8773,17.7513 24,20.5C 25.0512,17.0393 27.0512,14.3727 30,12.5C 31.9764,13.8217 33.4764,15.4884 34.5,17.5 Z M 30.5,25.5 C 29.8333,25.8333 29.1667,26.1667 28.5,26.5C 28.7086,25.0783 29.2086,23.745 30,22.5C 30.4828,23.448 30.6495,24.448 30.5,25.5 Z"/></g>
<g><path style="opacity:0.831" fill="#fd6500" d="M 52.5,17.5 C 53.1667,20.1667 53.8333,20.1667 54.5,17.5C 57.9493,10.9959 61.1159,11.3292 64,18.5C 66.2823,17.292 68.449,15.292 70.5,12.5C 72.9456,13.427 73.7789,15.0937 73,17.5C 71.1343,22.5913 68.301,26.9246 64.5,30.5C 62.2822,29.0758 60.7822,27.0758 60,24.5C 58.1753,25.6171 56.3419,27.4504 54.5,30C 53.8333,30.6667 53.1667,30.6667 52.5,30C 50.0155,26.1863 47.6822,22.3529 45.5,18.5C 44.438,16.7659 44.438,15.0992 45.5,13.5C 46.7382,12.5876 48.0715,12.4209 49.5,13C 50.3994,14.6516 51.3994,16.1516 52.5,17.5 Z M 52.5,17.5 C 53.1667,17.5 53.8333,17.5 54.5,17.5C 53.8333,20.1667 53.1667,20.1667 52.5,17.5 Z"/></g>
<g><path style="opacity:0.842" fill="#fd6500" d="M 89.5,25.5 C 89.6309,24.6236 89.2975,23.9569 88.5,23.5C 87.0413,25.583 85.7079,27.7497 84.5,30C 83.5,30.6667 82.5,30.6667 81.5,30C 79.2058,25.912 77.0391,21.7453 75,17.5C 74.1761,14.2826 75.3428,12.7826 78.5,13C 80.3773,15.2513 81.8773,17.7513 83,20.5C 86.7189,9.86443 90.3855,9.86443 94,20.5C 95,18.5 96,16.5 97,14.5C 101.656,11.4708 103.323,12.8042 102,18.5C 100.237,23.0412 97.7366,27.0412 94.5,30.5C 92.1498,29.4225 90.4831,27.7559 89.5,25.5 Z"/></g>
<g><path style="opacity:0.004" fill="#ff2e00" d="M -0.5,12.5 C 0.338246,12.8417 0.67158,13.5084 0.5,14.5C 0.166667,14.5 -0.166667,14.5 -0.5,14.5C -0.5,13.8333 -0.5,13.1667 -0.5,12.5 Z"/></g>
<g><path style="opacity:0.012" fill="#ff5500" d="M 34.5,17.5 C 34.5173,15.9719 35.184,15.4719 36.5,16C 35.9558,16.7172 35.2891,17.2172 34.5,17.5 Z"/></g>
<g><path style="opacity:0.012" fill="#ff4000" d="M 136.5,18.5 C 136.343,17.1266 136.51,15.7932 137,14.5C 137.765,16.0657 137.598,17.3991 136.5,18.5 Z"/></g>
<g><path style="opacity:0.012" fill="#ff5b00" d="M 54.5,17.5 C 53.8333,17.5 53.1667,17.5 52.5,17.5C 53.1667,14.8333 53.8333,14.8333 54.5,17.5 Z"/></g>
<g><path style="opacity:0.008" fill="#ff69ff" d="M 43.5,18.5 C 44.1667,18.5 44.8333,18.5 45.5,18.5C 44.8333,21.1667 44.1667,21.1667 43.5,18.5 Z"/></g>
<g><path style="opacity:0.835" fill="#fd6500" d="M 130.5,26.5 C 130.5,27.1667 130.833,27.5 131.5,27.5C 132.514,28.6737 133.847,29.3404 135.5,29.5C 137.794,31.653 140.46,33.3197 143.5,34.5C 143.328,35.4916 143.662,36.1583 144.5,36.5C 144.5,37.8333 144.5,39.1667 144.5,40.5C 143.167,41.1667 142.167,42.1667 141.5,43.5C 139.073,43.523 136.74,44.023 134.5,45C 135.977,46.8121 137.31,48.6455 138.5,50.5C 139.219,52.7638 139.552,55.0971 139.5,57.5C 138.833,57.5 138.5,57.8333 138.5,58.5C 137.5,58.8333 136.833,59.5 136.5,60.5C 135.833,60.5 135.5,60.8333 135.5,61.5C 134.508,61.3284 133.842,61.6618 133.5,62.5C 130.904,63.2653 128.237,63.5987 125.5,63.5C 124.136,61.8089 122.803,60.1423 121.5,58.5C 121.672,57.5084 121.338,56.8417 120.5,56.5C 119.5,52.5 118.5,52.5 117.5,56.5C 116.833,56.5 116.5,56.8333 116.5,57.5C 115.833,57.5 115.5,57.8333 115.5,58.5C 114.508,58.3284 113.842,58.6618 113.5,59.5C 110.675,59.9193 108.509,58.9193 107,56.5C 106.043,44.7364 106.377,33.0697 108,21.5C 110.917,19.6067 114.084,19.1067 117.5,20C 121.744,22.4277 126.078,24.5944 130.5,26.5 Z M 116.5,26.5 C 115.5,26.5 114.5,26.5 113.5,26.5C 113.5,33.5 113.5,40.5 113.5,47.5C 113.328,48.4916 113.662,49.1583 114.5,49.5C 114.217,50.2891 113.717,50.9558 113,51.5C 112.5,42.8397 112.334,34.1731 112.5,25.5C 114.099,25.2322 115.432,25.5655 116.5,26.5 Z M 116.5,26.5 C 118.027,26.427 119.027,27.0937 119.5,28.5C 118.262,28.81 118.262,29.31 119.5,30C 120.946,31.298 122.279,31.4646 123.5,30.5C 125.027,30.427 126.027,31.0937 126.5,32.5C 125.262,32.81 125.262,33.31 126.5,34C 127.745,34.7914 129.078,35.2914 130.5,35.5C 130.5,36.1667 130.833,36.5 131.5,36.5C 131.5,36.8333 131.5,37.1667 131.5,37.5C 128.916,37.5688 126.916,38.7355 125.5,41C 125.728,41.3988 126.062,41.5654 126.5,41.5C 127.441,43.0495 128.107,44.7162 128.5,46.5C 127.535,47.7211 127.702,49.0544 129,50.5C 129.69,51.7383 130.19,51.7383 130.5,50.5C 131.906,50.9731 132.573,51.9731 132.5,53.5C 132.167,53.5 131.833,53.5 131.5,53.5C 131.167,54.1667 130.833,54.8333 130.5,55.5C 129.508,55.3284 128.842,55.6618 128.5,56.5C 127.094,56.0269 126.427,55.0269 126.5,53.5C 127.465,52.2789 127.298,50.9456 126,49.5C 125.31,48.2617 124.81,48.2617 124.5,49.5C 123.094,49.0269 122.427,48.0269 122.5,46.5C 123.547,45.9222 123.38,45.2555 122,44.5C 121.601,44.7284 121.435,45.0618 121.5,45.5C 119.053,45.615 117.053,46.615 115.5,48.5C 115.5,47.8333 115.5,47.1667 115.5,46.5C 115.167,46.5 114.833,46.5 114.5,46.5C 113.877,39.7453 114.544,33.412 116.5,27.5C 116.5,27.1667 116.5,26.8333 116.5,26.5 Z M 130.5,35.5 C 130.5,35.1667 130.5,34.8333 130.5,34.5C 132.027,34.427 133.027,35.0937 133.5,36.5C 132.833,36.5 132.167,36.5 131.5,36.5C 130.833,36.5 130.5,36.1667 130.5,35.5 Z M 133.5,36.5 C 134.756,36.4614 135.756,36.9614 136.5,38C 134.866,38.4935 133.199,38.6602 131.5,38.5C 131.5,38.1667 131.5,37.8333 131.5,37.5C 132.492,37.6716 133.158,37.3382 133.5,36.5 Z M 120.5,56.5 C 119.5,55.1667 118.5,55.1667 117.5,56.5C 118.5,52.5 119.5,52.5 120.5,56.5 Z"/></g>
<g><path style="opacity:0.004" fill="#fe0000" d="M 137.5,22.5 C 137.369,21.7611 137.536,21.0944 138,20.5C 138.692,21.4368 138.525,22.1034 137.5,22.5 Z"/></g>
<g><path style="opacity:0.004" fill="#fe0000" d="M 136.5,22.5 C 136.833,22.5 137.167,22.5 137.5,22.5C 137.315,23.1701 136.981,23.1701 136.5,22.5 Z"/></g>
<g><path style="opacity:0.012" fill="#ff5300" d="M 131.5,24.5 C 135.418,25.4754 135.418,26.4754 131.5,27.5C 130.833,27.5 130.5,27.1667 130.5,26.5C 130.328,25.5084 130.662,24.8417 131.5,24.5 Z"/></g>
<g><path style="opacity:0.004" fill="#ff49ff" d="M 30.5,25.5 C 30.2893,27.4241 29.6226,27.7574 28.5,26.5C 29.1667,26.1667 29.8333,25.8333 30.5,25.5 Z"/></g>
<g><path style="opacity:0.004" fill="#ff49ff" d="M 89.5,25.5 C 89.4827,27.0281 88.816,27.5281 87.5,27C 88.0442,26.2828 88.7109,25.7828 89.5,25.5 Z"/></g>
<g><path style="opacity:0.004" fill="#ff63ff" d="M 116.5,26.5 C 116.5,26.8333 116.5,27.1667 116.5,27.5C 114.544,33.412 113.877,39.7453 114.5,46.5C 114.5,47.1667 114.167,47.5 113.5,47.5C 113.5,40.5 113.5,33.5 113.5,26.5C 114.5,26.5 115.5,26.5 116.5,26.5 Z"/></g>
<g><path style="opacity:0.016" fill="#fe7f00" d="M 135.5,28.5 C 136.833,29.1667 136.833,29.1667 135.5,28.5 Z"/></g>
<g><path style="opacity:0.012" fill="#ff4400" d="M -0.5,28.5 C -0.166667,28.5 0.166667,28.5 0.5,28.5C 0.67158,29.4916 0.338246,30.1583 -0.5,30.5C -0.5,29.8333 -0.5,29.1667 -0.5,28.5 Z"/></g>
<g><path style="opacity:0.012" fill="#fe5500" d="M 1.5,31.5 C 0.833333,32.1667 0.833333,32.1667 1.5,31.5 Z"/></g>
<g><path style="opacity:0.008" fill="#fe7f00" d="M 144.5,33.5 C 144.5,33.8333 144.5,34.1667 144.5,34.5C 143.83,34.0187 143.83,33.6853 144.5,33.5 Z"/></g>
<g><path style="opacity:0.008" fill="#ff5fff" d="M 103.5,40.5 C 104.26,36.9186 104.76,33.2519 105,29.5C 105.667,38.5 105.667,47.5 105,56.5C 104.827,50.9842 104.327,45.6509 103.5,40.5 Z"/></g>
<g><path style="opacity:0.004" fill="#fe0000" d="M 102.5,40.5 C 102.833,40.5 103.167,40.5 103.5,40.5C 103.672,41.4916 103.338,42.1583 102.5,42.5C 102.5,41.8333 102.5,41.1667 102.5,40.5 Z"/></g>
<g><path style="opacity:0.008" fill="#fe7f00" d="M 13.5,42.5 C 13.1034,43.525 12.4368,43.6917 11.5,43C 12.0944,42.5357 12.7611,42.369 13.5,42.5 Z"/></g>
<g><path style="opacity:0.004" fill="#fe0000" d="M 101.5,42.5 C 101.833,42.5 102.167,42.5 102.5,42.5C 102.315,43.1701 101.981,43.1701 101.5,42.5 Z"/></g>
<g><path style="opacity:0.004" fill="#fe0000" d="M 144.5,42.5 C 144.5,42.8333 144.5,43.1667 144.5,43.5C 143.83,43.0187 143.83,42.6853 144.5,42.5 Z"/></g>
<g><path style="opacity:0.012" fill="#ff6cff" d="M 14.5,44.5 C 15.2506,43.4265 16.2506,43.2599 17.5,44C 16.552,44.4828 15.552,44.6495 14.5,44.5 Z"/></g>
<g><path style="opacity:0.004" fill="#ff45ff" d="M 99.5,43.5 C 100.167,43.5 100.833,43.5 101.5,43.5C 100.833,44.8333 100.167,44.8333 99.5,43.5 Z"/></g>
<g><path style="opacity:0.008" fill="#fe7f00" d="M 141.5,43.5 C 142.833,44.1667 142.833,44.1667 141.5,43.5 Z"/></g>
<g><path style="opacity:0.012" fill="#ff5500" d="M 141.5,44.5 C 140.749,45.5735 139.749,45.7401 138.5,45C 139.448,44.5172 140.448,44.3505 141.5,44.5 Z"/></g>
<g><path style="opacity:0.018" fill="#ff4400" d="M 114.5,46.5 C 114.833,46.5 115.167,46.5 115.5,46.5C 115.5,47.1667 115.5,47.8333 115.5,48.5C 114.833,48.5 114.5,48.8333 114.5,49.5C 113.662,49.1583 113.328,48.4916 113.5,47.5C 114.167,47.5 114.5,47.1667 114.5,46.5 Z"/></g>
<g><path style="opacity:0.008" fill="#fe7f00" d="M 139.5,50.5 C 139.167,50.5 138.833,50.5 138.5,50.5C 138.833,47.8333 139.167,47.8333 139.5,50.5 Z"/></g>
<g><path style="opacity:0.012" fill="#fe5500" d="M 139.5,50.5 C 140.833,51.1667 140.833,51.1667 139.5,50.5 Z"/></g>
<g><path style="opacity:0.012" fill="#fe5500" d="M 131.5,53.5 C 131.833,53.5 132.167,53.5 132.5,53.5C 132.5,54.1667 132.5,54.8333 132.5,55.5C 131.833,55.5 131.167,55.5 130.5,55.5C 130.833,54.8333 131.167,54.1667 131.5,53.5 Z"/></g>
<g><path style="opacity:0.012" fill="#ff6700" d="M 140.5,52.5 C 141.598,53.6009 141.765,54.9343 141,56.5C 140.51,55.2068 140.343,53.8734 140.5,52.5 Z"/></g>
<g><path style="opacity:0.008" fill="#fe7f00" d="M 116.5,57.5 C 117.833,58.1667 117.833,58.1667 116.5,57.5 Z"/></g>
<g><path style="opacity:0.012" fill="#fe5500" d="M 139.5,57.5 C 140.833,58.1667 140.833,58.1667 139.5,57.5 Z"/></g>
<g><path style="opacity:0.004" fill="#fe0000" d="M 106.5,58.5 C 107.833,59.1667 107.833,59.1667 106.5,58.5 Z"/></g>
<g><path style="opacity:0.008" fill="#fe7f00" d="M 115.5,58.5 C 115.833,58.5 116.167,58.5 116.5,58.5C 116.315,59.1701 115.981,59.1701 115.5,58.5 Z"/></g>
<g><path style="opacity:0.004" fill="#fe0000" d="M 138.5,58.5 C 138.833,58.5 139.167,58.5 139.5,58.5C 139.315,59.1701 138.981,59.1701 138.5,58.5 Z"/></g>
<g><path style="opacity:0.004" fill="#ff45ff" d="M 113.5,60.5 C 113.5,60.1667 113.5,59.8333 113.5,59.5C 114.167,59.5 114.833,59.5 115.5,59.5C 115.158,60.3382 114.492,60.6716 113.5,60.5 Z"/></g>
<g><path style="opacity:0.004" fill="#ff2e00" d="M 121.5,58.5 C 121.631,59.2389 121.464,59.9056 121,60.5C 120.308,59.5632 120.475,58.8966 121.5,58.5 Z"/></g>
<g><path style="opacity:0.012" fill="#ff4000" d="M 113.5,60.5 C 112.399,61.5983 111.066,61.765 109.5,61C 110.793,60.51 112.127,60.3433 113.5,60.5 Z"/></g>
<g><path style="opacity:0.004" fill="#fe0000" d="M 136.5,60.5 C 137.833,61.1667 137.833,61.1667 136.5,60.5 Z"/></g>
<g><path style="opacity:0.012" fill="#fe5500" d="M 135.5,61.5 C 135.833,61.5 136.167,61.5 136.5,61.5C 136.315,62.1701 135.981,62.1701 135.5,61.5 Z"/></g>
<g><path style="opacity:0.004" fill="#ff45ff" d="M 133.5,63.5 C 133.5,63.1667 133.5,62.8333 133.5,62.5C 134.167,62.5 134.833,62.5 135.5,62.5C 135.158,63.3382 134.492,63.6716 133.5,63.5 Z"/></g>
<g><path style="opacity:0.008" fill="#fe7f00" d="M 125.5,63.5 C 125.5,63.8333 125.5,64.1667 125.5,64.5C 124.83,64.0187 124.83,63.6853 125.5,63.5 Z"/></g>
<g><path style="opacity:0.008" fill="#fe7f00" d="M 133.5,63.5 C 133.5,63.8333 133.5,64.1667 133.5,64.5C 132.83,64.0187 132.83,63.6853 133.5,63.5 Z"/></g>
</svg>
