<?xml version="1.0" encoding="UTF-8"?>
<!DOCTYPE svg PUBLIC "-//W3C//DTD SVG 1.1//EN" "http://www.w3.org/Graphics/SVG/1.1/DTD/svg11.dtd">
<svg xmlns="http://www.w3.org/2000/svg" version="1.1" width="72px" height="77px" style="shape-rendering:geometricPrecision; text-rendering:geometricPrecision; image-rendering:optimizeQuality; fill-rule:evenodd; clip-rule:evenodd" xmlns:xlink="http://www.w3.org/1999/xlink">
<g><path style="opacity:0.008" fill="#fe7f00" d="M 43.5,-0.5 C 44.1667,-0.5 44.8333,-0.5 45.5,-0.5C 45.5,-0.166667 45.5,0.166667 45.5,0.5C 44.5084,0.67158 43.8417,0.338246 43.5,-0.5 Z"/></g>
<g><path style="opacity:0.008" fill="#fe7f00" d="M 54.5,0.5 C 54.5,0.166667 54.5,-0.166667 54.5,-0.5C 55.1667,-0.5 55.8333,-0.5 56.5,-0.5C 56.1583,0.338246 55.4916,0.67158 54.5,0.5 Z"/></g>
<g><path style="opacity:0.012" fill="#fe5500" d="M 41.5,0.5 C 42.8333,1.16667 42.8333,1.16667 41.5,0.5 Z"/></g>
<g><path style="opacity:0.012" fill="#fe5500" d="M 57.5,0.5 C 58.8333,1.16667 58.8333,1.16667 57.5,0.5 Z"/></g>
<g><path style="opacity:0.818" fill="#fd6c10" d="M 45.5,1.5 C 45.5,1.16667 45.5,0.833333 45.5,0.5C 48.5,0.5 51.5,0.5 54.5,0.5C 57.5244,2.01335 60.1911,4.01335 62.5,6.5C 62.5,7.16667 62.5,7.83333 62.5,8.5C 61.1667,7.5 59.8333,6.5 58.5,5.5C 55.619,3.32003 52.2856,2.32003 48.5,2.5C 47.791,1.59603 46.791,1.26269 45.5,1.5 Z"/></g>
<g><path style="opacity:1" fill="#ffe7d8" d="M 45.5,3.5 C 46.209,2.59603 47.209,2.26269 48.5,2.5C 52.2856,2.32003 55.619,3.32003 58.5,5.5C 55.7104,5.7508 52.7104,5.7508 49.5,5.5C 48.8166,3.82351 47.4832,3.15684 45.5,3.5 Z"/></g>
<g><path style="opacity:0.998" fill="#fef1e8" d="M 49.5,5.5 C 52.7104,5.7508 55.7104,5.7508 58.5,5.5C 59.8333,6.5 61.1667,7.5 62.5,8.5C 62.5,8.83333 62.5,9.16667 62.5,9.5C 60.5953,9.92828 58.762,9.26161 57,7.5C 57.3554,8.95945 57.1888,10.2928 56.5,11.5C 54.0872,9.94929 51.4206,9.28262 48.5,9.5C 49.6085,8.71003 50.9419,8.21003 52.5,8C 51.062,7.78107 49.7287,7.28107 48.5,6.5C 48.6236,5.89333 48.9569,5.55999 49.5,5.5 Z"/></g>
<g><path style="opacity:0.999" fill="#fef5f0" d="M 40.5,6.5 C 41.3324,7.32851 40.999,8.16184 39.5,9C 40.7101,10.0391 41.7101,11.2058 42.5,12.5C 41.8333,13.5 41.1667,14.5 40.5,15.5C 39.8333,15.8333 39.1667,16.1667 38.5,16.5C 38.5,16.1667 38.5,15.8333 38.5,15.5C 38.1667,13.5 37.8333,11.5 37.5,9.5C 38.1667,8.16667 39.1667,7.16667 40.5,6.5 Z"/></g>
<g><path style="opacity:1" fill="#fef4ed" d="M 45.5,3.5 C 47.4832,3.15684 48.8166,3.82351 49.5,5.5C 48.9569,5.55999 48.6236,5.89333 48.5,6.5C 49.7287,7.28107 51.062,7.78107 52.5,8C 50.9419,8.21003 49.6085,8.71003 48.5,9.5C 46.2163,9.97516 44.2163,10.9752 42.5,12.5C 41.7101,11.2058 40.7101,10.0391 39.5,9C 40.999,8.16184 41.3324,7.32851 40.5,6.5C 41.6594,4.74973 43.326,3.74973 45.5,3.5 Z"/></g>
<g><path style="opacity:0.988" fill="#fe6a0f" d="M 45.5,1.5 C 46.791,1.26269 47.791,1.59603 48.5,2.5C 47.209,2.26269 46.209,2.59603 45.5,3.5C 43.326,3.74973 41.6594,4.74973 40.5,6.5C 39.1667,7.16667 38.1667,8.16667 37.5,9.5C 36.1667,10.5 34.8333,11.5 33.5,12.5C 32.8333,12.5 32.1667,12.5 31.5,12.5C 35.0138,7.31444 39.6804,3.64777 45.5,1.5 Z"/></g>
<g><path style="opacity:1" fill="#f47124" d="M 48.5,9.5 C 51.4206,9.28262 54.0872,9.94929 56.5,11.5C 56.8333,12.1667 57.1667,12.8333 57.5,13.5C 56.6618,13.8417 56.3284,14.5084 56.5,15.5C 55.1667,15.5 53.8333,15.5 52.5,15.5C 52.5774,14.2502 53.244,13.4169 54.5,13C 52.4553,10.4915 50.122,9.99154 47.5,11.5C 45.1868,12.5005 43.1868,13.8338 41.5,15.5C 41.1667,15.5 40.8333,15.5 40.5,15.5C 41.1667,14.5 41.8333,13.5 42.5,12.5C 44.2163,10.9752 46.2163,9.97516 48.5,9.5 Z"/></g>
<g><path style="opacity:1" fill="#fef2eb" d="M 37.5,9.5 C 37.8333,11.5 38.1667,13.5 38.5,15.5C 36.1667,16.8333 33.8333,16.8333 31.5,15.5C 32.1667,14.5 32.8333,13.5 33.5,12.5C 34.8333,11.5 36.1667,10.5 37.5,9.5 Z"/></g>
<g><path style="opacity:1" fill="#726b79" d="M 64.5,8.5 C 67.3231,9.99232 68.9898,12.3257 69.5,15.5C 69.2624,17.4044 68.2624,18.7377 66.5,19.5C 66.586,15.6814 65.9193,12.0148 64.5,8.5 Z"/></g>
<g><path style="opacity:0.008" fill="#7e7f7e" d="M 71.5,13.5 C 71.5,14.1667 71.5,14.8333 71.5,15.5C 71.1667,15.5 70.8333,15.5 70.5,15.5C 70.3284,14.5084 70.6618,13.8417 71.5,13.5 Z"/></g>
<g><path style="opacity:0.999" fill="#fef6f1" d="M 31.5,15.5 C 33.8333,16.8333 36.1667,16.8333 38.5,15.5C 38.5,15.8333 38.5,16.1667 38.5,16.5C 36.8333,18.8333 34.8333,20.8333 32.5,22.5C 33.7651,19.9967 33.4318,17.6634 31.5,15.5 Z"/></g>
<g><path style="opacity:1" fill="#b06840" d="M 47.5,11.5 C 50.122,9.99154 52.4553,10.4915 54.5,13C 53.244,13.4169 52.5774,14.2502 52.5,15.5C 49.2358,17.0941 46.5691,19.4275 44.5,22.5C 43.8333,22.5 43.1667,22.5 42.5,22.5C 42.5,21.8333 42.1667,21.5 41.5,21.5C 41.5497,18.848 42.5497,17.848 44.5,18.5C 47.6377,17.1955 49.971,15.0288 51.5,12C 50.2068,11.51 48.8734,11.3433 47.5,11.5 Z"/></g>
<g><path style="opacity:0.999" fill="#fef3ec" d="M 62.5,9.5 C 66.3087,18.1125 64.6421,25.4459 57.5,31.5C 52.1667,33.5 50.5,31.8333 52.5,26.5C 57.8254,23.5235 59.492,19.1902 57.5,13.5C 57.1667,12.8333 56.8333,12.1667 56.5,11.5C 57.1888,10.2928 57.3554,8.95945 57,7.5C 58.762,9.26161 60.5953,9.92828 62.5,9.5 Z"/></g>
<g><path style="opacity:0.008" fill="#fa6e09" d="M 55.5,19.5 C 54.4664,18.3129 53.133,17.4796 51.5,17C 52.7932,16.51 54.1266,16.3433 55.5,16.5C 55.5,17.5 55.5,18.5 55.5,19.5 Z"/></g>
<g><path style="opacity:1" fill="#856b66" d="M 47.5,11.5 C 48.8734,11.3433 50.2068,11.51 51.5,12C 49.971,15.0288 47.6377,17.1955 44.5,18.5C 42.5497,17.848 41.5497,18.848 41.5,21.5C 40.8333,21.5 40.1667,21.5 39.5,21.5C 39.6716,20.5084 39.3382,19.8417 38.5,19.5C 39.5,18.1667 40.5,16.8333 41.5,15.5C 43.1868,13.8338 45.1868,12.5005 47.5,11.5 Z"/></g>
<g><path style="opacity:0.008" fill="#fe7f00" d="M 21.5,19.5 C 22.8333,20.1667 22.8333,20.1667 21.5,19.5 Z"/></g>
<g><path style="opacity:0.998" fill="#fef5ef" d="M 31.5,15.5 C 33.4318,17.6634 33.7651,19.9967 32.5,22.5C 31.8333,23.5 31.1667,24.5 30.5,25.5C 27.8727,25.2097 26.2061,23.8764 25.5,21.5C 27.1667,19.1667 29.1667,17.1667 31.5,15.5 Z"/></g>
<g><path style="opacity:0.871" fill="#fe6b12" d="M 31.5,12.5 C 32.1667,12.5 32.8333,12.5 33.5,12.5C 32.8333,13.5 32.1667,14.5 31.5,15.5C 29.1667,17.1667 27.1667,19.1667 25.5,21.5C 23.7073,23.4261 22.7073,25.7594 22.5,28.5C 21.9987,30.246 21.3321,31.246 20.5,31.5C 20.5079,28.4552 20.8413,25.4552 21.5,22.5C 24.4729,18.8604 27.8062,15.5271 31.5,12.5 Z"/></g>
<g><path style="opacity:1" fill="#846b68" d="M 38.5,19.5 C 39.3382,19.8417 39.6716,20.5084 39.5,21.5C 37.7706,22.2362 36.7706,23.5695 36.5,25.5C 35.453,27.1506 34.2863,28.8172 33,30.5C 32.3292,31.2524 31.4959,31.5858 30.5,31.5C 31.149,26.2141 33.8156,22.2141 38.5,19.5 Z"/></g>
<g><path style="opacity:0.012" fill="#fe5500" d="M 21.5,22.5 C 20.8333,21.1667 20.8333,21.1667 21.5,22.5 Z"/></g>
<g><path style="opacity:1" fill="#f67022" d="M 40.5,15.5 C 40.8333,15.5 41.1667,15.5 41.5,15.5C 40.5,16.8333 39.5,18.1667 38.5,19.5C 33.8156,22.2141 31.149,26.2141 30.5,31.5C 31.0056,34.734 32.6722,35.4007 35.5,33.5C 35.5,34.1667 35.5,34.8333 35.5,35.5C 34.2905,35.9321 33.2905,36.5987 32.5,37.5C 31.1667,35.8333 29.8333,34.1667 28.5,32.5C 28.3939,29.9214 29.0605,27.588 30.5,25.5C 31.1667,24.5 31.8333,23.5 32.5,22.5C 34.8333,20.8333 36.8333,18.8333 38.5,16.5C 39.1667,16.1667 39.8333,15.8333 40.5,15.5 Z"/></g>
<g><path style="opacity:0.996" fill="#f67a2b" d="M 39.5,21.5 C 40.1667,21.5 40.8333,21.5 41.5,21.5C 42.1667,21.5 42.5,21.8333 42.5,22.5C 42.5,22.8333 42.5,23.1667 42.5,23.5C 39.8732,23.2933 38.2065,24.46 37.5,27C 40.0669,29.6353 41.4002,32.8019 41.5,36.5C 41.1667,36.5 40.8333,36.5 40.5,36.5C 40.6495,35.448 40.4828,34.448 40,33.5C 39.7679,34.7375 39.2679,35.7375 38.5,36.5C 38.9465,33.9899 38.2798,31.9899 36.5,30.5C 36.5,28.8333 36.5,27.1667 36.5,25.5C 36.7706,23.5695 37.7706,22.2362 39.5,21.5 Z"/></g>
<g><path style="opacity:0.557" fill="#f47324" d="M 42.5,23.5 C 42.5,23.1667 42.5,22.8333 42.5,22.5C 43.1667,22.5 43.8333,22.5 44.5,22.5C 45.1667,23.5 45.8333,24.5 46.5,25.5C 47.7298,27.2972 48.3964,29.2972 48.5,31.5C 48.756,35.2693 48.4227,38.9359 47.5,42.5C 47.1667,42.5 46.8333,42.5 46.5,42.5C 46.1667,42.5 45.8333,42.5 45.5,42.5C 46.3627,40.5786 47.0293,38.5786 47.5,36.5C 47.7847,33.1709 47.1181,30.1709 45.5,27.5C 44.4884,26.1283 43.4884,24.795 42.5,23.5 Z"/></g>
<g><path style="opacity:0.012" fill="#ff4400" d="M 20.5,22.5 C 20.631,23.2389 20.4643,23.9056 20,24.5C 19.3083,23.5632 19.475,22.8966 20.5,22.5 Z"/></g>
<g><path style="opacity:0.999" fill="#fef0e8" d="M 25.5,21.5 C 26.2061,23.8764 27.8727,25.2097 30.5,25.5C 29.0605,27.588 28.3939,29.9214 28.5,32.5C 28.5,33.1667 28.1667,33.5 27.5,33.5C 26.7717,29.621 25.1051,28.9543 22.5,31.5C 22.5,30.5 22.5,29.5 22.5,28.5C 22.7073,25.7594 23.7073,23.4261 25.5,21.5 Z"/></g>
<g><path style="opacity:0.949" fill="#fe6e18" d="M 57.5,13.5 C 59.492,19.1902 57.8254,23.5235 52.5,26.5C 52.5,25.8333 52.1667,25.5 51.5,25.5C 53.2516,23.7541 54.5849,21.7541 55.5,19.5C 56.4345,18.4324 56.7678,17.099 56.5,15.5C 56.3284,14.5084 56.6618,13.8417 57.5,13.5 Z"/></g>
<g><path style="opacity:0.99" fill="#e66716" d="M 70.5,19.5 C 70.8333,19.5 71.1667,19.5 71.5,19.5C 71.5,20.8333 71.5,22.1667 71.5,23.5C 70.5655,24.5676 70.2322,25.901 70.5,27.5C 69.8333,27.5 69.5,27.8333 69.5,28.5C 65.6648,25.2594 65.9982,22.2594 70.5,19.5 Z"/></g>
<g><path style="opacity:0.999" fill="#fef2eb" d="M 42.5,23.5 C 43.4884,24.795 44.4884,26.1283 45.5,27.5C 43.3939,29.7188 42.3939,32.3855 42.5,35.5C 42.5393,37.2239 42.206,37.5573 41.5,36.5C 41.4002,32.8019 40.0669,29.6353 37.5,27C 38.2065,24.46 39.8732,23.2933 42.5,23.5 Z"/></g>
<g><path style="opacity:0.994" fill="#d66725" d="M 69.5,15.5 C 69.8333,15.5 70.1667,15.5 70.5,15.5C 70.5,16.8333 70.5,18.1667 70.5,19.5C 65.9982,22.2594 65.6648,25.2594 69.5,28.5C 69.5,28.8333 69.5,29.1667 69.5,29.5C 68.8333,29.5 68.5,29.8333 68.5,30.5C 66.4352,30.4828 64.4352,30.1495 62.5,29.5C 62.1667,29.5 61.8333,29.5 61.5,29.5C 64.2262,26.7144 65.8928,23.381 66.5,19.5C 68.2624,18.7377 69.2624,17.4044 69.5,15.5 Z"/></g>
<g><path style="opacity:1" fill="#f47125" d="M 62.5,6.5 C 63.5,6.83333 64.1667,7.5 64.5,8.5C 65.9193,12.0148 66.586,15.6814 66.5,19.5C 65.8928,23.381 64.2262,26.7144 61.5,29.5C 60.5,30.1667 59.5,30.8333 58.5,31.5C 58.1667,31.5 57.8333,31.5 57.5,31.5C 64.6421,25.4459 66.3087,18.1125 62.5,9.5C 62.5,9.16667 62.5,8.83333 62.5,8.5C 62.5,7.83333 62.5,7.16667 62.5,6.5 Z"/></g>
<g><path style="opacity:0.008" fill="#fe7f00" d="M 70.5,27.5 C 70.8333,27.5 71.1667,27.5 71.5,27.5C 71.5,28.1667 71.5,28.8333 71.5,29.5C 71.1667,29.5 70.8333,29.5 70.5,29.5C 70.5,28.8333 70.5,28.1667 70.5,27.5 Z"/></g>
<g><path style="opacity:0.008" fill="#ff6c00" d="M 18.5,25.5 C 19.782,26.7082 19.782,28.0416 18.5,29.5C 18.0941,28.4425 18.0941,27.1092 18.5,25.5 Z"/></g>
<g><path style="opacity:0.998" fill="#fb7211" d="M 51.5,25.5 C 52.1667,25.5 52.5,25.8333 52.5,26.5C 50.5,31.8333 52.1667,33.5 57.5,31.5C 57.8333,31.5 58.1667,31.5 58.5,31.5C 57.0101,33.2798 55.0101,33.9465 52.5,33.5C 51.0213,31.3218 49.688,28.9885 48.5,26.5C 49.609,26.4431 50.609,26.1098 51.5,25.5 Z"/></g>
<g><path style="opacity:0.936" fill="#ed660d" d="M 62.5,29.5 C 64.4352,30.1495 66.4352,30.4828 68.5,30.5C 68.5,30.8333 68.5,31.1667 68.5,31.5C 67.8333,31.5 67.5,31.8333 67.5,32.5C 66.8333,32.5 66.5,32.8333 66.5,33.5C 65.8333,33.5 65.5,33.8333 65.5,34.5C 64.8333,34.5 64.5,34.8333 64.5,35.5C 64.1667,35.5 63.8333,35.5 63.5,35.5C 62.8333,34.1667 62.1667,32.8333 61.5,31.5C 61.8333,30.8333 62.1667,30.1667 62.5,29.5 Z"/></g>
<g><path style="opacity:0.998" fill="#feece0" d="M 27.5,33.5 C 27.0618,33.4346 26.7284,33.6012 26.5,34C 27.8333,34.6667 28.8333,35.6667 29.5,37C 27.5753,36.8651 25.5753,36.6984 23.5,36.5C 22.962,34.8828 22.6287,33.2161 22.5,31.5C 25.1051,28.9543 26.7717,29.621 27.5,33.5 Z"/></g>
<g><path style="opacity:1" fill="#b6693c" d="M 36.5,25.5 C 36.5,27.1667 36.5,28.8333 36.5,30.5C 35.596,31.209 35.2627,32.209 35.5,33.5C 32.6722,35.4007 31.0056,34.734 30.5,31.5C 31.4959,31.5858 32.3292,31.2524 33,30.5C 34.2863,28.8172 35.453,27.1506 36.5,25.5 Z"/></g>
<g><path style="opacity:0.004" fill="#ff2e00" d="M 69.5,29.5 C 69.8333,29.5 70.1667,29.5 70.5,29.5C 70.6716,30.4916 70.3382,31.1583 69.5,31.5C 69.5,30.8333 69.5,30.1667 69.5,29.5 Z"/></g>
<g><path style="opacity:0.012" fill="#fe5500" d="M 68.5,31.5 C 68.8333,31.5 69.1667,31.5 69.5,31.5C 69.3147,32.1701 68.9813,32.1701 68.5,31.5 Z"/></g>
<g><path style="opacity:1" fill="#f57528" d="M 22.5,28.5 C 22.5,29.5 22.5,30.5 22.5,31.5C 22.6287,33.2161 22.962,34.8828 23.5,36.5C 24.1237,38.754 25.457,40.4206 27.5,41.5C 27.1583,42.3382 26.4916,42.6716 25.5,42.5C 24.8333,42.5 24.1667,42.5 23.5,42.5C 24.4427,40.9988 24.1094,39.6654 22.5,38.5C 22.6716,37.5084 22.3382,36.8417 21.5,36.5C 21.6495,35.448 21.4828,34.448 21,33.5C 20.79,35.0581 20.29,36.3915 19.5,37.5C 19.1667,37.5 18.8333,37.5 18.5,37.5C 18.5,35.8333 18.5,34.1667 18.5,32.5C 16.3792,32.3253 14.3792,32.6586 12.5,33.5C 12.5,32.8333 12.1667,32.5 11.5,32.5C 14.0296,28.891 17.0296,28.5576 20.5,31.5C 21.3321,31.246 21.9987,30.246 22.5,28.5 Z"/></g>
<g><path style="opacity:0.016" fill="#fe7f00" d="M 67.5,32.5 C 67.8333,32.5 68.1667,32.5 68.5,32.5C 68.3147,33.1701 67.9813,33.1701 67.5,32.5 Z"/></g>
<g><path style="opacity:0.012" fill="#fe5500" d="M 66.5,33.5 C 66.8333,33.5 67.1667,33.5 67.5,33.5C 67.3147,34.1701 66.9813,34.1701 66.5,33.5 Z"/></g>
<g><path style="opacity:0.976" fill="#fe6e18" d="M 11.5,32.5 C 12.1667,32.5 12.5,32.8333 12.5,33.5C 11.1667,35.1667 9.83333,36.8333 8.5,38.5C 7.5,39.8333 6.5,41.1667 5.5,42.5C 4.83333,42.5 4.16667,42.5 3.5,42.5C 5.05723,38.2764 7.7239,34.9431 11.5,32.5 Z"/></g>
<g><path style="opacity:1" fill="#fef0e7" d="M 45.5,27.5 C 47.1181,30.1709 47.7847,33.1709 47.5,36.5C 45.8762,36.3601 44.7096,37.0267 44,38.5C 43.7679,37.2625 43.2679,36.2625 42.5,35.5C 42.3939,32.3855 43.3939,29.7188 45.5,27.5 Z"/></g>
<g><path style="opacity:0.996" fill="#7b6a70" d="M 46.5,25.5 C 47.4916,25.3284 48.1583,25.6618 48.5,26.5C 49.688,28.9885 51.0213,31.3218 52.5,33.5C 52.5,33.8333 52.5,34.1667 52.5,34.5C 51.8485,35.0906 51.1818,35.7573 50.5,36.5C 49.8302,34.7086 49.1635,33.0419 48.5,31.5C 48.3964,29.2972 47.7298,27.2972 46.5,25.5 Z"/></g>
<g><path style="opacity:1" fill="#dc671c" d="M 61.5,29.5 C 61.8333,29.5 62.1667,29.5 62.5,29.5C 62.1667,30.1667 61.8333,30.8333 61.5,31.5C 59.1394,33.1939 57.1394,35.1939 55.5,37.5C 54.8333,37.1667 54.1667,36.8333 53.5,36.5C 56.2583,35.0335 55.925,34.3668 52.5,34.5C 52.5,34.1667 52.5,33.8333 52.5,33.5C 55.0101,33.9465 57.0101,33.2798 58.5,31.5C 59.5,30.8333 60.5,30.1667 61.5,29.5 Z"/></g>
<g><path style="opacity:0.008" fill="#fe7f00" d="M 65.5,34.5 C 65.8333,34.5 66.1667,34.5 66.5,34.5C 66.3147,35.1701 65.9813,35.1701 65.5,34.5 Z"/></g>
<g><path style="opacity:1" fill="#fee9db" d="M 42.5,35.5 C 43.2679,36.2625 43.7679,37.2625 44,38.5C 44.7096,37.0267 45.8762,36.3601 47.5,36.5C 47.0293,38.5786 46.3627,40.5786 45.5,42.5C 43.7673,41.9924 43.434,41.159 44.5,40C 42.7703,38.1476 41.6036,38.3143 41,40.5C 40.5357,39.9056 40.369,39.2389 40.5,38.5C 40.5,37.8333 40.5,37.1667 40.5,36.5C 40.8333,36.5 41.1667,36.5 41.5,36.5C 42.206,37.5573 42.5393,37.2239 42.5,35.5 Z"/></g>
<g><path style="opacity:0.837" fill="#ec660e" d="M 61.5,31.5 C 62.1667,32.8333 62.8333,34.1667 63.5,35.5C 63.5,35.8333 63.5,36.1667 63.5,36.5C 62.8333,36.5 62.5,36.8333 62.5,37.5C 61.8333,37.5 61.5,37.8333 61.5,38.5C 59.5,38.5 57.5,38.5 55.5,38.5C 55.5,38.1667 55.5,37.8333 55.5,37.5C 57.1394,35.1939 59.1394,33.1939 61.5,31.5 Z"/></g>
<g><path style="opacity:0.012" fill="#fe5500" d="M 64.5,35.5 C 64.8333,35.5 65.1667,35.5 65.5,35.5C 65.3147,36.1701 64.9813,36.1701 64.5,35.5 Z"/></g>
<g><path style="opacity:0.999" fill="#ffe0cd" d="M 28.5,32.5 C 29.8333,34.1667 31.1667,35.8333 32.5,37.5C 32.5,38.5 32.5,39.5 32.5,40.5C 30.9582,41.3007 29.2915,41.634 27.5,41.5C 25.457,40.4206 24.1237,38.754 23.5,36.5C 25.5753,36.6984 27.5753,36.8651 29.5,37C 28.8333,35.6667 27.8333,34.6667 26.5,34C 26.7284,33.6012 27.0618,33.4346 27.5,33.5C 28.1667,33.5 28.5,33.1667 28.5,32.5 Z"/></g>
<g><path style="opacity:0.012" fill="#fe5500" d="M 63.5,36.5 C 63.8333,36.5 64.1667,36.5 64.5,36.5C 64.3147,37.1701 63.9813,37.1701 63.5,36.5 Z"/></g>
<g><path style="opacity:0.008" fill="#fe7f00" d="M 62.5,37.5 C 62.8333,37.5 63.1667,37.5 63.5,37.5C 63.3147,38.1701 62.9813,38.1701 62.5,37.5 Z"/></g>
<g><path style="opacity:0.998" fill="#fedec9" d="M 14.5,40.5 C 14.1667,41.1667 13.8333,41.8333 13.5,42.5C 12.7784,42.0825 12.2784,41.4158 12,40.5C 11.323,42.689 10.1563,43.0224 8.5,41.5C 6.94622,43.9329 6.27955,46.5995 6.5,49.5C 6.5,50.1667 6.16667,50.5 5.5,50.5C 5.5,47.8333 5.5,45.1667 5.5,42.5C 6.5,41.1667 7.5,39.8333 8.5,38.5C 9.32851,39.3324 10.1618,38.999 11,37.5C 12.0391,38.7101 13.2058,39.7101 14.5,40.5 Z"/></g>
<g><path style="opacity:1" fill="#fee6d6" d="M 18.5,37.5 C 17.1667,38.5 15.8333,39.5 14.5,40.5C 13.2058,39.7101 12.0391,38.7101 11,37.5C 10.1618,38.999 9.32851,39.3324 8.5,38.5C 9.83333,36.8333 11.1667,35.1667 12.5,33.5C 14.3792,32.6586 16.3792,32.3253 18.5,32.5C 18.5,34.1667 18.5,35.8333 18.5,37.5 Z"/></g>
<g><path style="opacity:0.835" fill="#f76710" d="M 40.5,36.5 C 40.5,37.1667 40.5,37.8333 40.5,38.5C 39.5116,39.795 38.5116,41.1283 37.5,42.5C 35.1667,44.1667 33.1667,46.1667 31.5,48.5C 31.1667,48.5 30.8333,48.5 30.5,48.5C 30.5,47.8333 30.1667,47.5 29.5,47.5C 29.1667,46.8333 28.8333,46.1667 28.5,45.5C 29.8333,45.5 31.1667,45.5 32.5,45.5C 32.5,44.5 32.5,43.5 32.5,42.5C 33.5,42.5 34.5,42.5 35.5,42.5C 35.666,38.6266 34.666,37.9599 32.5,40.5C 32.5,39.5 32.5,38.5 32.5,37.5C 33.2905,36.5987 34.2905,35.9321 35.5,35.5C 36.148,39.9863 37.148,40.3196 38.5,36.5C 39.2679,35.7375 39.7679,34.7375 40,33.5C 40.4828,34.448 40.6495,35.448 40.5,36.5 Z"/></g>
<g><path style="opacity:0.008" fill="#fe7f00" d="M 61.5,38.5 C 61.8333,38.5 62.1667,38.5 62.5,38.5C 62.3147,39.1701 61.9813,39.1701 61.5,38.5 Z"/></g>
<g><path style="opacity:0.984" fill="#c36731" d="M 48.5,31.5 C 49.1635,33.0419 49.8302,34.7086 50.5,36.5C 51.1818,35.7573 51.8485,35.0906 52.5,34.5C 55.925,34.3668 56.2583,35.0335 53.5,36.5C 53.5,37.5 53.5,38.5 53.5,39.5C 51.2775,40.1145 49.6108,41.4478 48.5,43.5C 47.8933,43.3764 47.56,43.0431 47.5,42.5C 48.4227,38.9359 48.756,35.2693 48.5,31.5 Z"/></g>
<g><path style="opacity:0.008" fill="#f7690b" d="M 55.5,38.5 C 57.2646,39.4614 59.2646,39.7947 61.5,39.5C 59.7354,40.4614 57.7354,40.7947 55.5,40.5C 54.4738,43.3968 54.4738,42.7301 55.5,38.5 Z"/></g>
<g><path style="opacity:0.996" fill="#9a6a54" d="M 21.5,36.5 C 21.4894,38.0174 20.8228,39.1841 19.5,40C 19.8333,40.3333 20.1667,40.6667 20.5,41C 18.3762,42.1217 16.5429,43.6217 15,45.5C 14.6012,45.2716 14.4346,44.9382 14.5,44.5C 15.7536,41.9066 17.4202,39.5732 19.5,37.5C 20.29,36.3915 20.79,35.0581 21,33.5C 21.4828,34.448 21.6495,35.448 21.5,36.5 Z"/></g>
<g><path style="opacity:1" fill="#df6b25" d="M 28.5,45.5 C 27.1667,44.8333 26.1667,43.8333 25.5,42.5C 26.4916,42.6716 27.1583,42.3382 27.5,41.5C 29.2915,41.634 30.9582,41.3007 32.5,40.5C 34.666,37.9599 35.666,38.6266 35.5,42.5C 34.5,42.5 33.5,42.5 32.5,42.5C 32.5,43.5 32.5,44.5 32.5,45.5C 31.1667,45.5 29.8333,45.5 28.5,45.5 Z"/></g>
<g><path style="opacity:1" fill="#fee4d3" d="M 40.5,38.5 C 40.369,39.2389 40.5357,39.9056 41,40.5C 41.6036,38.3143 42.7703,38.1476 44.5,40C 43.434,41.159 43.7673,41.9924 45.5,42.5C 43.5,45.1667 41.1667,47.5 38.5,49.5C 37.7611,49.631 37.0944,49.4643 36.5,49C 38.8384,47.8378 40.1717,46.0044 40.5,43.5C 39.209,43.7373 38.209,43.404 37.5,42.5C 38.5116,41.1283 39.5116,39.795 40.5,38.5 Z"/></g>
<g><path style="opacity:0.988" fill="#dd671b" d="M 53.5,39.5 C 53.5,40.8333 53.5,42.1667 53.5,43.5C 52.0502,42.3424 51.0502,42.8424 50.5,45C 48.9751,46.0086 47.3084,46.5086 45.5,46.5C 45.8333,45.1667 46.1667,43.8333 46.5,42.5C 46.8333,42.5 47.1667,42.5 47.5,42.5C 47.56,43.0431 47.8933,43.3764 48.5,43.5C 49.6108,41.4478 51.2775,40.1145 53.5,39.5 Z"/></g>
<g><path style="opacity:0.012" fill="#ff5500" d="M 2.5,44.5 C 1.42654,43.7494 1.25988,42.7494 2,41.5C 2.48278,42.448 2.64945,43.448 2.5,44.5 Z"/></g>
<g><path style="opacity:1" fill="#fed7bd" d="M 13.5,42.5 C 11.7739,44.8201 11.1072,47.4867 11.5,50.5C 11.1407,52.8312 10.474,52.6645 9.5,50C 8.55198,49.5172 7.55198,49.3505 6.5,49.5C 6.27955,46.5995 6.94622,43.9329 8.5,41.5C 10.1563,43.0224 11.323,42.689 12,40.5C 12.2784,41.4158 12.7784,42.0825 13.5,42.5 Z"/></g>
<g><path style="opacity:1" fill="#f9711e" d="M 18.5,37.5 C 18.8333,37.5 19.1667,37.5 19.5,37.5C 17.4202,39.5732 15.7536,41.9066 14.5,44.5C 13.5655,45.5676 13.2322,46.901 13.5,48.5C 12.6618,48.8417 12.3284,49.5084 12.5,50.5C 12.1667,50.5 11.8333,50.5 11.5,50.5C 11.1072,47.4867 11.7739,44.8201 13.5,42.5C 13.8333,41.8333 14.1667,41.1667 14.5,40.5C 15.8333,39.5 17.1667,38.5 18.5,37.5 Z"/></g>
<g><path style="opacity:1" fill="#b96839" d="M 21.5,36.5 C 22.3382,36.8417 22.6716,37.5084 22.5,38.5C 20.919,41.5971 19.0857,44.5971 17,47.5C 15.9887,48.3366 14.8221,48.67 13.5,48.5C 13.2322,46.901 13.5655,45.5676 14.5,44.5C 14.4346,44.9382 14.6012,45.2716 15,45.5C 16.5429,43.6217 18.3762,42.1217 20.5,41C 20.1667,40.6667 19.8333,40.3333 19.5,40C 20.8228,39.1841 21.4894,38.0174 21.5,36.5 Z"/></g>
<g><path style="opacity:0.004" fill="#ff2e00" d="M 53.5,44.5 C 54.8333,45.1667 54.8333,45.8333 53.5,46.5C 53.5,45.8333 53.5,45.1667 53.5,44.5 Z"/></g>
<g><path style="opacity:0.004" fill="#fe0000" d="M 0.5,46.5 C 1.52502,46.8966 1.69169,47.5632 1,48.5C 0.535656,47.9056 0.368989,47.2389 0.5,46.5 Z"/></g>
<g><path style="opacity:0.953" fill="#ff7c2f" d="M 3.5,42.5 C 4.16667,42.5 4.83333,42.5 5.5,42.5C 5.5,45.1667 5.5,47.8333 5.5,50.5C 4.83333,50.5 4.16667,50.5 3.5,50.5C 3.16667,50.5 2.83333,50.5 2.5,50.5C 2.5,48.5 2.5,46.5 2.5,44.5C 3.33825,44.1583 3.67158,43.4916 3.5,42.5 Z"/></g>
<g><path style="opacity:1" fill="#feddc6" d="M 37.5,42.5 C 38.209,43.404 39.209,43.7373 40.5,43.5C 40.1717,46.0044 38.8384,47.8378 36.5,49C 37.0944,49.4643 37.7611,49.631 38.5,49.5C 37.8333,50.8333 36.8333,51.8333 35.5,52.5C 34.8502,49.6287 33.6836,49.9621 32,53.5C 32.068,51.6577 31.9014,49.991 31.5,48.5C 33.1667,46.1667 35.1667,44.1667 37.5,42.5 Z"/></g>
<g><path style="opacity:0.993" fill="#ec660e" d="M 53.5,43.5 C 53.5,43.8333 53.5,44.1667 53.5,44.5C 52.6618,44.8417 52.3284,45.5084 52.5,46.5C 51.6618,46.8417 51.3284,47.5084 51.5,48.5C 50.8333,48.5 50.5,48.8333 50.5,49.5C 49.8333,49.5 49.5,49.8333 49.5,50.5C 48.8333,50.5 48.5,50.8333 48.5,51.5C 47.8333,51.5 47.5,51.8333 47.5,52.5C 46.8333,52.5 46.5,52.8333 46.5,53.5C 45.8333,53.5 45.5,53.8333 45.5,54.5C 44.8333,54.5 44.5,54.8333 44.5,55.5C 43.8333,55.5 43.5,55.8333 43.5,56.5C 42.8333,56.5 42.5,56.8333 42.5,57.5C 41.8333,57.5 41.5,57.8333 41.5,58.5C 41.1667,58.5 40.8333,58.5 40.5,58.5C 39.9595,57.439 39.6262,56.439 39.5,55.5C 41.1023,53.3011 42.9357,51.3011 45,49.5C 45.4828,48.552 45.6495,47.552 45.5,46.5C 47.3084,46.5086 48.9751,46.0086 50.5,45C 51.0502,42.8424 52.0502,42.3424 53.5,43.5 Z"/></g>
<g><path style="opacity:0.004" fill="#ff2e00" d="M 52.5,46.5 C 52.8333,46.5 53.1667,46.5 53.5,46.5C 53.6716,47.4916 53.3382,48.1583 52.5,48.5C 52.5,47.8333 52.5,47.1667 52.5,46.5 Z"/></g>
<g><path style="opacity:0.845" fill="#e16618" d="M 22.5,38.5 C 24.1094,39.6654 24.4427,40.9988 23.5,42.5C 21.4202,44.5732 19.7536,46.9066 18.5,49.5C 17.6618,49.8417 17.3284,50.5084 17.5,51.5C 16.5272,50.2086 15.5272,50.2086 14.5,51.5C 13.6143,50.675 13.281,49.675 13.5,48.5C 14.8221,48.67 15.9887,48.3366 17,47.5C 19.0857,44.5971 20.919,41.5971 22.5,38.5 Z"/></g>
<g><path style="opacity:0.012" fill="#fe5500" d="M 51.5,48.5 C 51.8333,48.5 52.1667,48.5 52.5,48.5C 52.3147,49.1701 51.9813,49.1701 51.5,48.5 Z"/></g>
<g><path style="opacity:0.012" fill="#fe5500" d="M 50.5,49.5 C 50.8333,49.5 51.1667,49.5 51.5,49.5C 51.3147,50.1701 50.9813,50.1701 50.5,49.5 Z"/></g>
<g><path style="opacity:0.997" fill="#fed1b3" d="M 30.5,48.5 C 30.8333,48.5 31.1667,48.5 31.5,48.5C 31.9014,49.991 32.068,51.6577 32,53.5C 33.6836,49.9621 34.8502,49.6287 35.5,52.5C 34.1667,54.5 32.5,56.1667 30.5,57.5C 30.631,56.7611 30.4643,56.0944 30,55.5C 28.4477,55.9889 27.281,55.3223 26.5,53.5C 27.8333,51.8333 29.1667,50.1667 30.5,48.5 Z"/></g>
<g><path style="opacity:0.012" fill="#fe5500" d="M 49.5,50.5 C 49.8333,50.5 50.1667,50.5 50.5,50.5C 50.3147,51.1701 49.9813,51.1701 49.5,50.5 Z"/></g>
<g><path style="opacity:0.012" fill="#ff6cff" d="M 2.5,50.5 C 2.64945,51.552 2.48278,52.552 2,53.5C 1.25988,52.2506 1.42654,51.2506 2.5,50.5 Z"/></g>
<g><path style="opacity:0.999" fill="#feccab" d="M 6.5,49.5 C 7.55198,49.3505 8.55198,49.5172 9.5,50C 10.474,52.6645 11.1407,52.8312 11.5,50.5C 11.8333,50.5 12.1667,50.5 12.5,50.5C 12.7329,52.0618 13.3995,53.3951 14.5,54.5C 13.6715,55.3324 12.8382,54.999 12,53.5C 11.7216,54.4158 11.2216,55.0825 10.5,55.5C 9.43236,54.5655 8.09903,54.2322 6.5,54.5C 6.16667,53.1667 5.83333,51.8333 5.5,50.5C 6.16667,50.5 6.5,50.1667 6.5,49.5 Z"/></g>
<g><path style="opacity:0.998" fill="#d86720" d="M 45.5,46.5 C 45.6495,47.552 45.4828,48.552 45,49.5C 42.9357,51.3011 41.1023,53.3011 39.5,55.5C 37.0062,57.5987 34.6729,59.932 32.5,62.5C 31.4728,61.2086 30.4728,61.2086 29.5,62.5C 29.5,62.1667 29.5,61.8333 29.5,61.5C 34.1981,55.8012 39.5315,50.8012 45.5,46.5 Z"/></g>
<g><path style="opacity:0.012" fill="#fe5500" d="M 48.5,51.5 C 48.8333,51.5 49.1667,51.5 49.5,51.5C 49.3147,52.1701 48.9813,52.1701 48.5,51.5 Z"/></g>
<g><path style="opacity:0.012" fill="#fe5500" d="M 47.5,52.5 C 47.8333,52.5 48.1667,52.5 48.5,52.5C 48.3147,53.1701 47.9813,53.1701 47.5,52.5 Z"/></g>
<g><path style="opacity:0.682" fill="#fc6b11" d="M 29.5,47.5 C 30.1667,47.5 30.5,47.8333 30.5,48.5C 29.1667,50.1667 27.8333,51.8333 26.5,53.5C 25.5,54.1667 24.5,54.8333 23.5,55.5C 21.5,55.5 19.5,55.5 17.5,55.5C 16.391,55.4431 15.391,55.1098 14.5,54.5C 13.3995,53.3951 12.7329,52.0618 12.5,50.5C 12.3284,49.5084 12.6618,48.8417 13.5,48.5C 13.281,49.675 13.6143,50.675 14.5,51.5C 15.5272,50.2086 16.5272,50.2086 17.5,51.5C 17.9704,52.6935 18.9704,53.3601 20.5,53.5C 21.7261,53.4805 22.7261,53.1471 23.5,52.5C 25.5,50.8333 27.5,49.1667 29.5,47.5 Z M 18.5,49.5 C 18.5,50.5 18.5,51.5 18.5,52.5C 20.1667,52.5 21.8333,52.5 23.5,52.5C 22.7261,53.1471 21.7261,53.4805 20.5,53.5C 18.9704,53.3601 17.9704,52.6935 17.5,51.5C 17.3284,50.5084 17.6618,49.8417 18.5,49.5 Z"/></g>
<g><path style="opacity:0.004" fill="#ff4500" d="M 18.5,49.5 C 20.0389,50.7671 21.7056,51.7671 23.5,52.5C 21.8333,52.5 20.1667,52.5 18.5,52.5C 18.5,51.5 18.5,50.5 18.5,49.5 Z"/></g>
<g><path style="opacity:0.012" fill="#fe5500" d="M 46.5,53.5 C 46.8333,53.5 47.1667,53.5 47.5,53.5C 47.3147,54.1701 46.9813,54.1701 46.5,53.5 Z"/></g>
<g><path style="opacity:0.012" fill="#fe5500" d="M 2.5,54.5 C 3.83333,55.1667 3.83333,55.1667 2.5,54.5 Z"/></g>
<g><path style="opacity:0.894" fill="#f86e17" d="M 3.5,50.5 C 4.16667,50.5 4.83333,50.5 5.5,50.5C 5.83333,51.8333 6.16667,53.1667 6.5,54.5C 8.6367,57.973 11.6367,60.3064 15.5,61.5C 17.9479,62.4731 20.6146,62.8064 23.5,62.5C 24.1667,62.5 24.8333,62.5 25.5,62.5C 22.7131,63.4767 19.7131,63.81 16.5,63.5C 14.5,62.8333 12.5,62.1667 10.5,61.5C 9.16667,60.5 7.83333,59.5 6.5,58.5C 4.94024,56.0465 3.94024,53.3798 3.5,50.5 Z"/></g>
<g><path style="opacity:0.999" fill="#fec9a6" d="M 14.5,54.5 C 15.391,55.1098 16.391,55.4431 17.5,55.5C 18.9187,56.4511 20.5853,56.7845 22.5,56.5C 22.5,57.5 22.5,58.5 22.5,59.5C 19.7714,56.9456 17.1048,56.9456 14.5,59.5C 14.0825,58.7784 13.4158,58.2784 12.5,58C 12.8333,57.6667 13.1667,57.3333 13.5,57C 12.2625,56.7679 11.2625,56.2679 10.5,55.5C 11.2216,55.0825 11.7216,54.4158 12,53.5C 12.8382,54.999 13.6715,55.3324 14.5,54.5 Z"/></g>
<g><path style="opacity:1" fill="#fb701e" d="M 45.5,42.5 C 45.8333,42.5 46.1667,42.5 46.5,42.5C 46.1667,43.8333 45.8333,45.1667 45.5,46.5C 39.5315,50.8012 34.1981,55.8012 29.5,61.5C 28.1667,61.8333 26.8333,62.1667 25.5,62.5C 24.8333,62.5 24.1667,62.5 23.5,62.5C 23.5,62.1667 23.5,61.8333 23.5,61.5C 25.5529,61.5979 27.2196,60.9313 28.5,59.5C 29.5,59.1667 30.1667,58.5 30.5,57.5C 32.5,56.1667 34.1667,54.5 35.5,52.5C 36.8333,51.8333 37.8333,50.8333 38.5,49.5C 41.1667,47.5 43.5,45.1667 45.5,42.5 Z"/></g>
<g><path style="opacity:0.012" fill="#fe5500" d="M 45.5,54.5 C 45.8333,54.5 46.1667,54.5 46.5,54.5C 46.3147,55.1701 45.9813,55.1701 45.5,54.5 Z"/></g>
<g><path style="opacity:0.998" fill="#fecba8" d="M 26.5,53.5 C 27.281,55.3223 28.4477,55.9889 30,55.5C 30.4643,56.0944 30.631,56.7611 30.5,57.5C 30.1667,58.5 29.5,59.1667 28.5,59.5C 27.2502,59.4226 26.4169,58.756 26,57.5C 25.6667,58.1667 25.3333,58.8333 25,59.5C 24.5899,58.0993 24.0899,56.766 23.5,55.5C 24.5,54.8333 25.5,54.1667 26.5,53.5 Z"/></g>
<g><path style="opacity:0.012" fill="#fe5500" d="M 44.5,55.5 C 44.8333,55.5 45.1667,55.5 45.5,55.5C 45.3147,56.1701 44.9813,56.1701 44.5,55.5 Z"/></g>
<g><path style="opacity:0.008" fill="#fe7f00" d="M 3.5,56.5 C 4.83333,57.1667 4.83333,57.1667 3.5,56.5 Z"/></g>
<g><path style="opacity:0.012" fill="#fe5500" d="M 43.5,56.5 C 43.8333,56.5 44.1667,56.5 44.5,56.5C 44.3147,57.1701 43.9813,57.1701 43.5,56.5 Z"/></g>
<g><path style="opacity:1" fill="#fec29a" d="M 22.5,59.5 C 22.3284,60.4916 22.6618,61.1583 23.5,61.5C 23.5,61.8333 23.5,62.1667 23.5,62.5C 20.6146,62.8064 17.9479,62.4731 15.5,61.5C 15.9382,61.5654 16.2716,61.3988 16.5,61C 15.5842,60.7216 14.9175,60.2216 14.5,59.5C 17.1048,56.9456 19.7714,56.9456 22.5,59.5 Z"/></g>
<g><path style="opacity:0.012" fill="#fe5500" d="M 42.5,57.5 C 42.8333,57.5 43.1667,57.5 43.5,57.5C 43.3147,58.1701 42.9813,58.1701 42.5,57.5 Z"/></g>
<g><path style="opacity:0.008" fill="#fe7f00" d="M 6.5,58.5 C 5.83333,59.1667 5.83333,59.1667 6.5,58.5 Z"/></g>
<g><path style="opacity:1" fill="#fdc39c" d="M 6.5,54.5 C 8.09903,54.2322 9.43236,54.5655 10.5,55.5C 11.2625,56.2679 12.2625,56.7679 13.5,57C 13.1667,57.3333 12.8333,57.6667 12.5,58C 13.4158,58.2784 14.0825,58.7784 14.5,59.5C 14.9175,60.2216 15.5842,60.7216 16.5,61C 16.2716,61.3988 15.9382,61.5654 15.5,61.5C 11.6367,60.3064 8.6367,57.973 6.5,54.5 Z"/></g>
<g><path style="opacity:0.012" fill="#fe5500" d="M 41.5,58.5 C 41.8333,58.5 42.1667,58.5 42.5,58.5C 42.3147,59.1701 41.9813,59.1701 41.5,58.5 Z"/></g>
<g><path style="opacity:1" fill="#fec29a" d="M 17.5,55.5 C 19.5,55.5 21.5,55.5 23.5,55.5C 24.0899,56.766 24.5899,58.0993 25,59.5C 25.3333,58.8333 25.6667,58.1667 26,57.5C 26.4169,58.756 27.2502,59.4226 28.5,59.5C 27.2196,60.9313 25.5529,61.5979 23.5,61.5C 22.6618,61.1583 22.3284,60.4916 22.5,59.5C 22.5,58.5 22.5,57.5 22.5,56.5C 20.5853,56.7845 18.9187,56.4511 17.5,55.5 Z"/></g>
<g><path style="opacity:0.998" fill="#ee660d" d="M 39.5,55.5 C 39.6262,56.439 39.9595,57.439 40.5,58.5C 40.5,58.8333 40.5,59.1667 40.5,59.5C 39.8333,59.5 39.5,59.8333 39.5,60.5C 38.8333,60.5 38.5,60.8333 38.5,61.5C 37.8333,61.5 37.5,61.8333 37.5,62.5C 36.8333,62.5 36.5,62.8333 36.5,63.5C 35.8333,63.5 35.5,63.8333 35.5,64.5C 34.8333,64.5 34.5,64.8333 34.5,65.5C 33.8333,65.5 33.5,65.8333 33.5,66.5C 33.1667,66.5 32.8333,66.5 32.5,66.5C 31.8407,63.5918 31.0074,63.2584 30,65.5C 29.5172,64.552 29.3505,63.552 29.5,62.5C 30.4728,61.2086 31.4728,61.2086 32.5,62.5C 34.6729,59.932 37.0062,57.5987 39.5,55.5 Z"/></g>
<g><path style="opacity:0.012" fill="#fe5500" d="M 40.5,59.5 C 40.8333,59.5 41.1667,59.5 41.5,59.5C 41.3147,60.1701 40.9813,60.1701 40.5,59.5 Z"/></g>
<g><path style="opacity:0.004" fill="#fe0000" d="M 7.5,61.5 C 6.83333,60.1667 6.83333,60.1667 7.5,61.5 Z"/></g>
<g><path style="opacity:0.012" fill="#fe5500" d="M 39.5,60.5 C 39.8333,60.5 40.1667,60.5 40.5,60.5C 40.3147,61.1701 39.9813,61.1701 39.5,60.5 Z"/></g>
<g><path style="opacity:0.004" fill="#fe0000" d="M 7.5,61.5 C 8.16667,61.5 8.5,61.8333 8.5,62.5C 8.16667,62.1667 7.83333,61.8333 7.5,61.5 Z"/></g>
<g><path style="opacity:0.012" fill="#fe5500" d="M 38.5,61.5 C 38.8333,61.5 39.1667,61.5 39.5,61.5C 39.3147,62.1701 38.9813,62.1701 38.5,61.5 Z"/></g>
<g><path style="opacity:0.008" fill="#7e7f7e" d="M 8.5,62.5 C 9.16667,62.5 9.5,62.8333 9.5,63.5C 9.16667,63.1667 8.83333,62.8333 8.5,62.5 Z"/></g>
<g><path style="opacity:0.012" fill="#fe5500" d="M 37.5,62.5 C 37.8333,62.5 38.1667,62.5 38.5,62.5C 38.3147,63.1701 37.9813,63.1701 37.5,62.5 Z"/></g>
<g><path style="opacity:0.008" fill="#7e7f7e" d="M 9.5,63.5 C 10.1667,63.5 10.5,63.8333 10.5,64.5C 10.1667,64.1667 9.83333,63.8333 9.5,63.5 Z"/></g>
<g><path style="opacity:0.012" fill="#fe5500" d="M 36.5,63.5 C 36.8333,63.5 37.1667,63.5 37.5,63.5C 37.3147,64.1701 36.9813,64.1701 36.5,63.5 Z"/></g>
<g><path style="opacity:0.004" fill="#fe0000" d="M 10.5,64.5 C 11.8333,65.1667 11.8333,65.1667 10.5,64.5 Z"/></g>
<g><path style="opacity:0.99" fill="#b8683a" d="M 29.5,61.5 C 29.5,61.8333 29.5,62.1667 29.5,62.5C 27.0615,64.0268 25.0615,66.0268 23.5,68.5C 21.8333,68.5 20.1667,68.5 18.5,68.5C 18.5,68.1667 18.5,67.8333 18.5,67.5C 19.4734,67.0133 20.4734,66.5133 21.5,66C 19.8251,65.0147 18.1585,64.1814 16.5,63.5C 19.7131,63.81 22.7131,63.4767 25.5,62.5C 26.8333,62.1667 28.1667,61.8333 29.5,61.5 Z"/></g>
<g><path style="opacity:0.012" fill="#fe5500" d="M 35.5,64.5 C 35.8333,64.5 36.1667,64.5 36.5,64.5C 36.3147,65.1701 35.9813,65.1701 35.5,64.5 Z"/></g>
<g><path style="opacity:0.787" fill="#e16618" d="M 29.5,62.5 C 29.3505,63.552 29.5172,64.552 30,65.5C 31.0074,63.2584 31.8407,63.5918 32.5,66.5C 31.8333,66.5 31.5,66.8333 31.5,67.5C 28.8728,68.0916 26.2062,68.4249 23.5,68.5C 25.0615,66.0268 27.0615,64.0268 29.5,62.5 Z"/></g>
<g><path style="opacity:0.012" fill="#fe5500" d="M 34.5,65.5 C 34.8333,65.5 35.1667,65.5 35.5,65.5C 35.3147,66.1701 34.9813,66.1701 34.5,65.5 Z"/></g>
<g><path style="opacity:0.902" fill="#7b6b6f" d="M 10.5,61.5 C 12.5,62.1667 14.5,62.8333 16.5,63.5C 18.1585,64.1814 19.8251,65.0147 21.5,66C 20.4734,66.5133 19.4734,67.0133 18.5,67.5C 14.9796,66.6472 12.3129,64.6472 10.5,61.5 Z"/></g>
<g><path style="opacity:0.008" fill="#fe7f00" d="M 33.5,66.5 C 33.8333,66.5 34.1667,66.5 34.5,66.5C 34.3147,67.1701 33.9813,67.1701 33.5,66.5 Z"/></g>
<g><path style="opacity:0.012" fill="#fe5500" d="M 31.5,67.5 C 32.8333,68.1667 32.8333,68.1667 31.5,67.5 Z"/></g>
<g><path style="opacity:0.012" fill="#67629c" d="M 18.5,68.5 C 18.1034,69.525 17.4368,69.6917 16.5,69C 17.0944,68.5357 17.7611,68.369 18.5,68.5 Z"/></g>
<g><path style="opacity:0.004" fill="#ff2e00" d="M 31.5,68.5 C 31.1034,69.525 30.4368,69.6917 29.5,69C 30.0944,68.5357 30.7611,68.369 31.5,68.5 Z"/></g>
<g><path style="opacity:0.016" fill="#ba7344" d="M 19.5,70.5 C 22.3035,69.3622 25.3035,69.1955 28.5,70C 25.5184,70.498 22.5184,70.6646 19.5,70.5 Z"/></g>
</svg>
