<?xml version="1.0" encoding="UTF-8"?>
<!DOCTYPE svg PUBLIC "-//W3C//DTD SVG 1.1//EN" "http://www.w3.org/Graphics/SVG/1.1/DTD/svg11.dtd">
<svg xmlns="http://www.w3.org/2000/svg" version="1.1" width="244px" height="235px" style="shape-rendering:geometricPrecision; text-rendering:geometricPrecision; image-rendering:optimizeQuality; fill-rule:evenodd; clip-rule:evenodd" xmlns:xlink="http://www.w3.org/1999/xlink">
<g><path style="opacity:0.993" fill="#fffefe" d="M 34.5,1.5 C 92.1676,1.33334 149.834,1.50001 207.5,2C 222.398,6.29399 230.898,16.1273 233,31.5C 233.667,86.5 233.667,141.5 233,196.5C 230.364,211.802 221.53,221.302 206.5,225C 149.167,225.667 91.8333,225.667 34.5,225C 20.891,221.058 12.391,212.225 9,198.5C 8.33333,141.833 8.33333,85.1667 9,28.5C 12.5766,14.759 21.0766,5.759 34.5,1.5 Z"/></g>
<g><path style="opacity:1" fill="#ff6702" d="M 133.5,131.5 C 132.502,154.994 132.169,178.661 132.5,202.5C 123.167,202.5 113.833,202.5 104.5,202.5C 104.5,178.5 104.5,154.5 104.5,130.5C 96.5,130.5 88.5,130.5 80.5,130.5C 80.5,121.5 80.5,112.5 80.5,103.5C 88.5,103.5 96.5,103.5 104.5,103.5C 104.5,94.5 104.5,85.5 104.5,76.5C 105.869,60.5831 114.202,50.4164 129.5,46C 140.161,45.5002 150.828,45.3335 161.5,45.5C 161.5,54.1667 161.5,62.8333 161.5,71.5C 154.492,71.3337 147.492,71.5004 140.5,72C 137.417,72.786 135.251,74.6193 134,77.5C 133.5,85.8267 133.334,94.16 133.5,102.5C 142.5,102.5 151.5,102.5 160.5,102.5C 159.338,111.802 158.338,121.135 157.5,130.5C 149.316,130.174 141.316,130.508 133.5,131.5 Z"/></g>
<g><path style="opacity:1" fill="#ffa264" d="M 104.5,76.5 C 104.5,85.5 104.5,94.5 104.5,103.5C 96.5,103.5 88.5,103.5 80.5,103.5C 80.5,112.5 80.5,121.5 80.5,130.5C 80.1667,130.5 79.8333,130.5 79.5,130.5C 79.5,121.167 79.5,111.833 79.5,102.5C 87.5,102.5 95.5,102.5 103.5,102.5C 103.174,93.6506 103.507,84.9839 104.5,76.5 Z"/></g>
<g><path style="opacity:1" fill="#ffc096" d="M 79.5,130.5 C 79.8333,130.5 80.1667,130.5 80.5,130.5C 88.5,130.5 96.5,130.5 104.5,130.5C 104.5,154.5 104.5,178.5 104.5,202.5C 103.502,179.006 103.169,155.339 103.5,131.5C 95.3159,131.826 87.3159,131.492 79.5,130.5 Z"/></g>
<g><path style="opacity:1" fill="#ffa366" d="M 133.5,131.5 C 133.5,155.5 133.5,179.5 133.5,203.5C 123.652,203.827 113.986,203.494 104.5,202.5C 113.833,202.5 123.167,202.5 132.5,202.5C 132.169,178.661 132.502,154.994 133.5,131.5 Z"/></g>
</svg>
