<?xml version="1.0" encoding="UTF-8"?>
<!DOCTYPE svg PUBLIC "-//W3C//DTD SVG 1.1//EN" "http://www.w3.org/Graphics/SVG/1.1/DTD/svg11.dtd">
<svg xmlns="http://www.w3.org/2000/svg" version="1.1" width="234px" height="234px" style="shape-rendering:geometricPrecision; text-rendering:geometricPrecision; image-rendering:optimizeQuality; fill-rule:evenodd; clip-rule:evenodd" xmlns:xlink="http://www.w3.org/1999/xlink">
<g><path style="opacity:0.999" fill="#2d3e53" d="M 158.5,208.5 C 159.404,207.791 159.737,206.791 159.5,205.5C 169.5,207.5 179.5,209.5 189.5,211.5C 189.993,209.194 190.326,206.861 190.5,204.5C 200.556,161.178 210.723,117.845 221,74.5C 222.499,68.1901 223.499,61.8568 224,55.5C 183.318,45.6218 142.485,36.2885 101.5,27.5C 100.274,27.5195 99.2739,27.8529 98.5,28.5C 96.0763,27.9695 93.743,27.1362 91.5,26C 93.8918,21.92 97.3918,20.0867 102,20.5C 121.133,24.6931 140.299,28.6931 159.5,32.5C 159.5,30.5 159.5,28.5 159.5,26.5C 159.5,25.5 159.5,24.5 159.5,23.5C 153.5,23.5 147.5,23.5 141.5,23.5C 141.5,18.5 141.5,13.5 141.5,8.5C 102.499,8.33335 63.4986,8.50001 24.5,9C 25.0442,9.71719 25.7109,10.2172 26.5,10.5C 29.5786,11.304 32.5786,12.304 35.5,13.5C 62.5147,23.2278 89.5147,33.0611 116.5,43C 117.667,44.1667 118.833,45.3333 120,46.5C 120.168,54.5207 120.668,62.5207 121.5,70.5C 125.934,72.0288 130.101,74.0288 134,76.5C 134.167,102.506 134.667,128.506 135.5,154.5C 141.14,158.307 146.64,162.307 152,166.5C 152.5,179.496 152.667,192.496 152.5,205.5C 152.423,206.75 151.756,207.583 150.5,208C 145.177,208.499 139.844,208.666 134.5,208.5C 137.866,222.985 133.366,226.318 121,218.5C 120.667,221.833 120.333,225.167 120,228.5C 118.975,230.687 117.475,232.354 115.5,233.5C 113.5,233.5 111.5,233.5 109.5,233.5C 75.0476,220.401 40.3809,207.568 5.5,195C 3.66667,194.5 2.5,193.333 2,191.5C 1.33333,129.5 1.33333,67.5 2,5.5C 2.37424,4.58377 2.87424,3.75044 3.5,3C 50.8333,2.33333 98.1667,2.33333 145.5,3C 146.701,3.90252 147.535,5.06919 148,6.5C 148.498,9.48162 148.665,12.4816 148.5,15.5C 164.167,12.5 170.5,18.8333 167.5,34.5C 186.153,38.6628 204.819,42.8294 223.5,47C 228.73,48.8922 231.73,52.5589 232.5,58C 220.411,110.19 208.244,162.356 196,214.5C 194.732,217.598 192.399,219.265 189,219.5C 178.103,217.021 167.269,214.355 156.5,211.5C 157.193,210.482 157.859,209.482 158.5,208.5 Z"/></g>
<g><path style="opacity:1" fill="#868366" d="M 141.5,23.5 C 140.518,20.0381 140.185,16.3714 140.5,12.5C 140.5,11.5 140.5,10.5 140.5,9.5C 102.33,9.16816 64.3297,9.50149 26.5,10.5C 25.7109,10.2172 25.0442,9.71719 24.5,9C 63.4986,8.50001 102.499,8.33335 141.5,8.5C 141.5,13.5 141.5,18.5 141.5,23.5 Z"/></g>
<g><path style="opacity:1" fill="#f9e396" d="M 26.5,10.5 C 64.3297,9.50149 102.33,9.16816 140.5,9.5C 140.5,10.5 140.5,11.5 140.5,12.5C 105.329,12.1683 70.3294,12.5016 35.5,13.5C 32.5786,12.304 29.5786,11.304 26.5,10.5 Z"/></g>
<g><path style="opacity:1" fill="#f3dd90" d="M 112.5,49.5 C 112.5,50.5 112.5,51.5 112.5,52.5C 77.6121,40.3871 42.9454,27.7205 8.5,14.5C 8.34332,13.1266 8.50999,11.7932 9,10.5C 43.5433,23.6221 78.0433,36.6221 112.5,49.5 Z"/></g>
<g><path style="opacity:0.999" fill="#f8d665" d="M 35.5,13.5 C 70.3294,12.5016 105.329,12.1683 140.5,12.5C 140.185,16.3714 140.518,20.0381 141.5,23.5C 141.5,24.5 141.5,25.5 141.5,26.5C 147.5,26.5 153.5,26.5 159.5,26.5C 159.5,28.5 159.5,30.5 159.5,32.5C 140.299,28.6931 121.133,24.6931 102,20.5C 97.3918,20.0867 93.8918,21.92 91.5,26C 93.743,27.1362 96.0763,27.9695 98.5,28.5C 105.616,31.5996 112.95,34.4329 120.5,37C 122.373,38.7038 124.04,40.5372 125.5,42.5C 126.939,44.588 127.606,46.9214 127.5,49.5C 127.172,54.8746 127.505,60.2079 128.5,65.5C 129.736,66.2458 131.07,66.5792 132.5,66.5C 135.009,67.9213 137.343,69.5879 139.5,71.5C 141.358,75.5269 142.025,79.8602 141.5,84.5C 141.5,86.8333 141.5,89.1667 141.5,91.5C 141.5,100.167 141.5,108.833 141.5,117.5C 141.5,120.833 141.5,124.167 141.5,127.5C 141.5,130.167 141.5,132.833 141.5,135.5C 141.5,137.833 141.5,140.167 141.5,142.5C 141.187,145.247 141.52,147.914 142.5,150.5C 145.184,152.193 147.851,153.86 150.5,155.5C 153.833,158.167 156.833,161.167 159.5,164.5C 159.5,168.167 159.5,171.833 159.5,175.5C 159.5,178.167 159.5,180.833 159.5,183.5C 159.5,189.5 159.5,195.5 159.5,201.5C 159.598,203.553 158.931,205.22 157.5,206.5C 155.708,206.634 154.042,206.301 152.5,205.5C 152.667,192.496 152.5,179.496 152,166.5C 146.64,162.307 141.14,158.307 135.5,154.5C 134.667,128.506 134.167,102.506 134,76.5C 130.101,74.0288 125.934,72.0288 121.5,70.5C 120.668,62.5207 120.168,54.5207 120,46.5C 118.833,45.3333 117.667,44.1667 116.5,43C 89.5147,33.0611 62.5147,23.2278 35.5,13.5 Z"/></g>
<g><path style="opacity:1" fill="#fbd865" d="M 8.5,14.5 C 42.9454,27.7205 77.6121,40.3871 112.5,52.5C 112.5,108.833 112.5,165.167 112.5,221.5C 77.7107,209.57 43.044,197.236 8.5,184.5C 8.5,127.833 8.5,71.1667 8.5,14.5 Z"/></g>
<g><path style="opacity:1" fill="#f9e496" d="M 141.5,23.5 C 147.5,23.5 153.5,23.5 159.5,23.5C 159.5,24.5 159.5,25.5 159.5,26.5C 153.5,26.5 147.5,26.5 141.5,26.5C 141.5,25.5 141.5,24.5 141.5,23.5 Z"/></g>
<g><path style="opacity:1" fill="#c7e9ea" d="M 190.5,204.5 C 189.596,205.209 189.263,206.209 189.5,207.5C 179.458,205.708 169.458,203.708 159.5,201.5C 159.5,195.5 159.5,189.5 159.5,183.5C 166.289,184.197 172.956,185.53 179.5,187.5C 184.498,186.984 185.498,184.818 182.5,181C 174.779,179.319 167.112,177.486 159.5,175.5C 159.5,171.833 159.5,168.167 159.5,164.5C 167.652,166.38 175.818,168.38 184,170.5C 187.739,170.095 189.073,168.095 188,164.5C 175.686,160.807 163.186,157.807 150.5,155.5C 147.851,153.86 145.184,152.193 142.5,150.5C 141.52,147.914 141.187,145.247 141.5,142.5C 156.74,145.434 171.906,148.768 187,152.5C 191.249,152.604 192.749,150.771 191.5,147C 174.975,142.595 158.309,138.761 141.5,135.5C 141.5,132.833 141.5,130.167 141.5,127.5C 143.946,128.965 145.946,128.465 147.5,126C 149.819,117.06 151.819,108.06 153.5,99C 152.928,91.2661 148.928,86.4328 141.5,84.5C 142.025,79.8602 141.358,75.5269 139.5,71.5C 149.278,63.4243 149.945,54.591 141.5,45C 136.555,41.5491 131.221,40.7157 125.5,42.5C 124.04,40.5372 122.373,38.7038 120.5,37C 112.95,34.4329 105.616,31.5996 98.5,28.5C 99.2739,27.8529 100.274,27.5195 101.5,27.5C 142.485,36.2885 183.318,45.6218 224,55.5C 223.499,61.8568 222.499,68.1901 221,74.5C 210.723,117.845 200.556,161.178 190.5,204.5 Z"/></g>
<g><path style="opacity:1" fill="#324358" d="M 139.5,71.5 C 137.343,69.5879 135.009,67.9213 132.5,66.5C 140.864,63.4778 142.53,58.3111 137.5,51C 134.37,48.6036 131.036,48.1036 127.5,49.5C 127.606,46.9214 126.939,44.588 125.5,42.5C 131.221,40.7157 136.555,41.5491 141.5,45C 149.945,54.591 149.278,63.4243 139.5,71.5 Z"/></g>
<g><path style="opacity:1" fill="#dee8ee" d="M 132.5,66.5 C 131.07,66.5792 129.736,66.2458 128.5,65.5C 127.505,60.2079 127.172,54.8746 127.5,49.5C 131.036,48.1036 134.37,48.6036 137.5,51C 142.53,58.3111 140.864,63.4778 132.5,66.5 Z"/></g>
<g><path style="opacity:1" fill="#314258" d="M 171.5,61.5 C 185.182,64.5035 198.849,67.6702 212.5,71C 214.35,74.7475 213.183,76.9142 209,77.5C 196.963,74.1872 184.796,71.3538 172.5,69C 168.88,67.0059 168.547,64.5059 171.5,61.5 Z"/></g>
<g><path style="opacity:1" fill="#304157" d="M 166.5,79.5 C 180.227,81.8467 193.893,84.68 207.5,88C 210.388,91.172 209.722,93.3386 205.5,94.5C 193.808,92.1021 182.141,89.6021 170.5,87C 165.847,86.1762 164.513,83.6762 166.5,79.5 Z"/></g>
<g><path style="opacity:1" fill="#a6a99f" d="M 121.5,78.5 C 120.169,121.335 120.169,164.335 121.5,207.5C 123.45,208.372 125.45,209.039 127.5,209.5C 127.762,210.978 127.429,212.311 126.5,213.5C 124.5,212.5 122.5,211.5 120.5,210.5C 119.167,166.167 119.167,121.833 120.5,77.5C 121.107,77.6236 121.44,77.9569 121.5,78.5 Z"/></g>
<g><path style="opacity:1" fill="#e4edf4" d="M 121.5,78.5 C 123.582,78.472 125.416,79.1387 127,80.5C 127.333,106.167 127.667,131.833 128,157.5C 133.667,161.5 139.333,165.5 145,169.5C 145.5,178.827 145.666,188.161 145.5,197.5C 139.824,197.334 134.157,197.501 128.5,198C 127.594,199.699 127.261,201.533 127.5,203.5C 127.5,205.5 127.5,207.5 127.5,209.5C 125.45,209.039 123.45,208.372 121.5,207.5C 120.169,164.335 120.169,121.335 121.5,78.5 Z"/></g>
<g><path style="opacity:1" fill="#334358" d="M 141.5,84.5 C 148.928,86.4328 152.928,91.2661 153.5,99C 151.819,108.06 149.819,117.06 147.5,126C 145.946,128.465 143.946,128.965 141.5,127.5C 141.5,124.167 141.5,120.833 141.5,117.5C 143.467,111.537 145.134,105.37 146.5,99C 145.701,95.8958 144.034,93.3958 141.5,91.5C 141.5,89.1667 141.5,86.8333 141.5,84.5 Z"/></g>
<g><path style="opacity:1" fill="#ee6955" d="M 141.5,91.5 C 144.034,93.3958 145.701,95.8958 146.5,99C 145.134,105.37 143.467,111.537 141.5,117.5C 141.5,108.833 141.5,100.167 141.5,91.5 Z"/></g>
<g><path style="opacity:1" fill="#2f4156" d="M 163.5,96.5 C 177.259,99.2188 190.926,102.385 204.5,106C 206.426,109.79 205.26,111.623 201,111.5C 188.081,109.041 175.248,106.208 162.5,103C 161.144,100.586 161.478,98.4193 163.5,96.5 Z"/></g>
<g><path style="opacity:1" fill="#334459" d="M 159.5,113.5 C 173.149,116.665 186.816,119.832 200.5,123C 202.35,126.747 201.183,128.914 197,129.5C 184.587,126.292 172.087,123.459 159.5,121C 156.914,118.506 156.914,116.006 159.5,113.5 Z"/></g>
<g><path style="opacity:1" fill="#314257" d="M 141.5,135.5 C 158.309,138.761 174.975,142.595 191.5,147C 192.749,150.771 191.249,152.604 187,152.5C 171.906,148.768 156.74,145.434 141.5,142.5C 141.5,140.167 141.5,137.833 141.5,135.5 Z"/></g>
<g><path style="opacity:1" fill="#34465a" d="M 150.5,155.5 C 163.186,157.807 175.686,160.807 188,164.5C 189.073,168.095 187.739,170.095 184,170.5C 175.818,168.38 167.652,166.38 159.5,164.5C 156.833,161.167 153.833,158.167 150.5,155.5 Z"/></g>
<g><path style="opacity:1" fill="#324459" d="M 159.5,175.5 C 167.112,177.486 174.779,179.319 182.5,181C 185.498,184.818 184.498,186.984 179.5,187.5C 172.956,185.53 166.289,184.197 159.5,183.5C 159.5,180.833 159.5,178.167 159.5,175.5 Z"/></g>
<g><path style="opacity:1" fill="#cbb158" d="M 112.5,49.5 C 113.499,107.998 113.832,166.664 113.5,225.5C 78.3583,213.73 43.525,201.063 9,187.5C 8.51722,186.552 8.35055,185.552 8.5,184.5C 43.044,197.236 77.7107,209.57 112.5,221.5C 112.5,165.167 112.5,108.833 112.5,52.5C 112.5,51.5 112.5,50.5 112.5,49.5 Z"/></g>
<g><path style="opacity:1" fill="#bfc5ca" d="M 145.5,197.5 C 145.5,198.833 145.5,200.167 145.5,201.5C 139.208,200.947 133.208,201.614 127.5,203.5C 127.261,201.533 127.594,199.699 128.5,198C 134.157,197.501 139.824,197.334 145.5,197.5 Z"/></g>
<g><path style="opacity:1" fill="#a2c5c0" d="M 159.5,201.5 C 169.458,203.708 179.458,205.708 189.5,207.5C 189.263,206.209 189.596,205.209 190.5,204.5C 190.326,206.861 189.993,209.194 189.5,211.5C 179.5,209.5 169.5,207.5 159.5,205.5C 159.737,206.791 159.404,207.791 158.5,208.5C 156.302,208.591 155.969,207.925 157.5,206.5C 158.931,205.22 159.598,203.553 159.5,201.5 Z"/></g>
</svg>
