<?xml version="1.0" encoding="UTF-8"?>
<!DOCTYPE svg PUBLIC "-//W3C//DTD SVG 1.1//EN" "http://www.w3.org/Graphics/SVG/1.1/DTD/svg11.dtd">
<svg xmlns="http://www.w3.org/2000/svg" version="1.1" width="210px" height="213px" style="shape-rendering:geometricPrecision; text-rendering:geometricPrecision; image-rendering:optimizeQuality; fill-rule:evenodd; clip-rule:evenodd" xmlns:xlink="http://www.w3.org/1999/xlink">
<g><path style="opacity:0.004" fill="#00fffe" d="M 133.5,3.5 C 134.833,4.16667 134.833,4.16667 133.5,3.5 Z"/></g>
<g><path style="opacity:0.996" fill="#6bc9ef" d="M 17.5,-0.5 C 18.5,-0.5 19.5,-0.5 20.5,-0.5C 36.8333,0.833333 53.1667,0.833333 69.5,-0.5C 88.8333,-0.5 108.167,-0.5 127.5,-0.5C 130.447,0.839362 132.447,2.50603 133.5,4.5C 139.91,11.2399 146.244,17.9065 152.5,24.5C 150.228,24.9114 149.895,26.078 151.5,28C 151.15,29.2575 150.483,29.5908 149.5,29C 142.221,21.0467 134.388,13.8801 126,7.5C 89.5202,8.48423 53.0202,8.81757 16.5,8.5C 16.8016,5.9407 16.4682,3.60737 15.5,1.5C 16.1667,0.833333 16.8333,0.166667 17.5,-0.5 Z"/></g>
<g><path style="opacity:1" fill="#3cabe4" d="M 15.5,1.5 C 16.4682,3.60737 16.8016,5.9407 16.5,8.5C 53.0202,8.81757 89.5202,8.48423 126,7.5C 134.388,13.8801 142.221,21.0467 149.5,29C 150.483,29.5908 151.15,29.2575 151.5,28C 149.895,26.078 150.228,24.9114 152.5,24.5C 155.768,28.1113 157.601,32.4447 158,37.5C 158.5,48.8284 158.667,60.1618 158.5,71.5C 157.609,72.1098 156.609,72.4431 155.5,72.5C 155.5,59.1667 155.5,45.8333 155.5,32.5C 152.465,32.4607 149.798,31.4607 147.5,29.5C 143.94,25.7087 139.94,22.3754 135.5,19.5C 134.833,20.5 134.167,21.5 133.5,22.5C 132.672,21.5853 131.672,20.9186 130.5,20.5C 125.99,21.1341 121.49,21.8007 117,22.5C 115.856,22.0889 114.689,21.7556 113.5,21.5C 110.194,22.1633 106.861,22.6633 103.5,23C 104.167,23.3333 104.833,23.6667 105.5,24C 82.9963,24.168 60.6629,24.668 38.5,25.5C 37.8333,25.5 37.5,25.8333 37.5,26.5C 36.8333,26.5 36.5,26.8333 36.5,27.5C 34.3342,30.3324 34.3342,33.1657 36.5,36C 35.048,37.9583 34.7146,39.9583 35.5,42C 32.3054,42.1805 29.3054,42.6805 26.5,43.5C 25.8826,43.3893 25.3826,43.056 25,42.5C 23.3333,43.8333 21.6667,45.1667 20,46.5C 19.4413,39.544 18.6079,32.544 17.5,25.5C 17.8195,20.6367 17.4861,15.97 16.5,11.5C 15.4861,9.42609 14.4861,7.42609 13.5,5.5C 12.8333,5.5 12.5,5.83333 12.5,6.5C 11.475,6.10343 11.3083,5.43677 12,4.5C 12.6667,3.16667 13.3333,3.16667 14,4.5C 15.1563,3.49821 15.6563,2.49821 15.5,1.5 Z"/></g>
<g><path style="opacity:1" fill="#32a2e0" d="M 147.5,29.5 C 146.504,29.5858 145.671,29.2524 145,28.5C 143.334,32.6635 142.501,36.9968 142.5,41.5C 141.325,41.281 140.325,41.6143 139.5,42.5C 140.544,44.7676 140.711,47.1009 140,49.5C 138.684,46.2045 136.851,43.2045 134.5,40.5C 133.289,41.2739 133.289,42.1072 134.5,43C 127.321,43.1715 120.321,43.6715 113.5,44.5C 112.883,44.6107 112.383,44.944 112,45.5C 111.505,47.4727 111.338,49.4727 111.5,51.5C 110.883,51.6107 110.383,51.944 110,52.5C 109.333,51.1667 108.667,49.8333 108,48.5C 107.971,51.3665 107.138,53.8665 105.5,56C 80.4972,56.25 55.4972,55.9167 30.5,55C 29.0577,54.6232 28.0577,53.7899 27.5,52.5C 53.1688,52.6666 78.8355,52.5 104.5,52C 105.097,50.9383 105.43,49.7716 105.5,48.5C 105.66,46.6455 104.993,45.3121 103.5,44.5C 78.0054,43.5022 52.3388,43.1689 26.5,43.5C 29.3054,42.6805 32.3054,42.1805 35.5,42C 34.7146,39.9583 35.048,37.9583 36.5,36C 34.3342,33.1657 34.3342,30.3324 36.5,27.5C 36.0535,30.0101 36.7202,32.0101 38.5,33.5C 66.6637,34.6637 94.997,34.8304 123.5,34C 124.423,31.9592 124.756,29.7925 124.5,27.5C 124.389,26.8826 124.056,26.3826 123.5,26C 95.1686,25.5 66.8353,25.3334 38.5,25.5C 60.6629,24.668 82.9963,24.168 105.5,24C 104.833,23.6667 104.167,23.3333 103.5,23C 106.861,22.6633 110.194,22.1633 113.5,21.5C 114.689,21.7556 115.856,22.0889 117,22.5C 121.49,21.8007 125.99,21.1341 130.5,20.5C 131.672,20.9186 132.672,21.5853 133.5,22.5C 134.167,21.5 134.833,20.5 135.5,19.5C 139.94,22.3754 143.94,25.7087 147.5,29.5 Z"/></g>
<g><path style="opacity:1" fill="#ad89eb" d="M 38.5,25.5 C 66.8353,25.3334 95.1686,25.5 123.5,26C 124.056,26.3826 124.389,26.8826 124.5,27.5C 124.167,27.5 123.833,27.5 123.5,27.5C 108.876,28.1507 94.2096,28.484 79.5,28.5C 65.1504,28.4993 51.1504,27.8326 37.5,26.5C 37.5,25.8333 37.8333,25.5 38.5,25.5 Z"/></g>
<g><path style="opacity:1" fill="#9563dc" d="M 37.5,26.5 C 51.1504,27.8326 65.1504,28.4993 79.5,28.5C 94.2096,28.484 108.876,28.1507 123.5,27.5C 122.699,29.0418 122.366,30.7085 122.5,32.5C 94.3284,32.1687 66.3284,32.502 38.5,33.5C 36.7202,32.0101 36.0535,30.0101 36.5,27.5C 36.5,26.8333 36.8333,26.5 37.5,26.5 Z"/></g>
<g><path style="opacity:1" fill="#31a1e0" d="M 147.5,29.5 C 149.798,31.4607 152.465,32.4607 155.5,32.5C 155.5,45.8333 155.5,59.1667 155.5,72.5C 155.167,72.5 154.833,72.5 154.5,72.5C 154.667,60.4954 154.5,48.4954 154,36.5C 152.333,35.1667 150.667,35.1667 149,36.5C 148.5,48.4954 148.333,60.4954 148.5,72.5C 135.496,72.3334 122.496,72.5001 109.5,73C 108.944,73.3826 108.611,73.8826 108.5,74.5C 105.088,75.5815 103.088,77.9148 102.5,81.5C 102.167,81.5 101.833,81.5 101.5,81.5C 98.9104,82.0511 98.2437,83.3845 99.5,85.5C 97.9547,86.4519 96.288,86.7852 94.5,86.5C 94.2189,84.0372 93.2189,81.8705 91.5,80C 93.0779,77.6612 92.7446,75.8278 90.5,74.5C 94.3068,74.7733 96.9734,72.7733 98.5,68.5C 100.006,67.2528 101.506,67.2528 103,68.5C 107.195,64.5945 112.029,61.5945 117.5,59.5C 116.311,58.5713 114.978,58.238 113.5,58.5C 113.5,56.8333 113.5,55.1667 113.5,53.5C 120.175,53.6663 126.842,53.4996 133.5,53C 134.833,50.3333 134.833,47.6667 133.5,45C 126.842,44.5004 120.175,44.3337 113.5,44.5C 120.321,43.6715 127.321,43.1715 134.5,43C 133.289,42.1072 133.289,41.2739 134.5,40.5C 136.851,43.2045 138.684,46.2045 140,49.5C 140.711,47.1009 140.544,44.7676 139.5,42.5C 140.325,41.6143 141.325,41.281 142.5,41.5C 142.501,36.9968 143.334,32.6635 145,28.5C 145.671,29.2524 146.504,29.5858 147.5,29.5 Z"/></g>
<g><path style="opacity:1" fill="#5941c8" d="M 123.5,27.5 C 123.833,27.5 124.167,27.5 124.5,27.5C 124.756,29.7925 124.423,31.9592 123.5,34C 94.997,34.8304 66.6637,34.6637 38.5,33.5C 66.3284,32.502 94.3284,32.1687 122.5,32.5C 122.366,30.7085 122.699,29.0418 123.5,27.5 Z"/></g>
<g><path style="opacity:1" fill="#ab92ed" d="M 26.5,43.5 C 52.3388,43.1689 78.0054,43.5022 103.5,44.5C 103.672,45.4916 103.338,46.1583 102.5,46.5C 76.759,46.8236 51.0923,46.4902 25.5,45.5C 25.8333,44.8333 26.1667,44.1667 26.5,43.5 Z"/></g>
<g><path style="opacity:1" fill="#1473c8" d="M 154.5,72.5 C 152.5,72.5 150.5,72.5 148.5,72.5C 148.333,60.4954 148.5,48.4954 149,36.5C 150.667,35.1667 152.333,35.1667 154,36.5C 154.5,48.4954 154.667,60.4954 154.5,72.5 Z"/></g>
<g><path style="opacity:1" fill="#9c6adf" d="M 25.5,45.5 C 51.0923,46.4902 76.759,46.8236 102.5,46.5C 102.5,47.8333 102.5,49.1667 102.5,50.5C 76.9945,50.1689 51.6612,50.5023 26.5,51.5C 25.0532,50.8658 24.3866,49.6991 24.5,48C 24.528,46.9302 24.8614,46.0968 25.5,45.5 Z"/></g>
<g><path style="opacity:1" fill="#815eda" d="M 113.5,44.5 C 120.175,44.3337 126.842,44.5004 133.5,45C 134.833,47.6667 134.833,50.3333 133.5,53C 126.842,53.4996 120.175,53.6663 113.5,53.5C 113.167,52.5 112.5,51.8333 111.5,51.5C 111.338,49.4727 111.505,47.4727 112,45.5C 112.383,44.944 112.883,44.6107 113.5,44.5 Z"/></g>
<g><path style="opacity:1" fill="#5a40c2" d="M 103.5,44.5 C 104.993,45.3121 105.66,46.6455 105.5,48.5C 105.43,49.7716 105.097,50.9383 104.5,52C 78.8355,52.5 53.1688,52.6666 27.5,52.5C 27.1667,52.5 26.8333,52.5 26.5,52.5C 26.5,52.1667 26.5,51.8333 26.5,51.5C 51.6612,50.5023 76.9945,50.1689 102.5,50.5C 102.5,49.1667 102.5,47.8333 102.5,46.5C 103.338,46.1583 103.672,45.4916 103.5,44.5 Z"/></g>
<g><path style="opacity:1" fill="#34a6e0" d="M 17.5,25.5 C 18.6079,32.544 19.4413,39.544 20,46.5C 21.6667,45.1667 23.3333,43.8333 25,42.5C 25.3826,43.056 25.8826,43.3893 26.5,43.5C 26.1667,44.1667 25.8333,44.8333 25.5,45.5C 24.8614,46.0968 24.528,46.9302 24.5,48C 24.3866,49.6991 25.0532,50.8658 26.5,51.5C 26.5,51.8333 26.5,52.1667 26.5,52.5C 26.6445,55.4743 27.9778,57.641 30.5,59C 37.3685,59.0066 44.0351,59.8399 50.5,61.5C 54.6633,59.3434 55.9967,60.3434 54.5,64.5C 49.7414,62.2169 46.7414,63.5503 45.5,68.5C 37.2294,70.9387 34.396,76.2721 37,84.5C 38.1217,86.6238 39.6217,88.4571 41.5,90C 46.6027,91.7171 51.6027,93.7171 56.5,96C 57.8602,97.9376 57.5268,99.6043 55.5,101C 49.641,102.896 45.3076,101.229 42.5,96C 36.5062,94.1594 34.1729,96.3261 35.5,102.5C 34.6829,104.969 34.1829,107.635 34,110.5C 33.2496,111.126 32.4162,111.626 31.5,112C 32.2797,113.073 32.113,114.24 31,115.5C 29.6667,114.167 28.3333,114.167 27,115.5C 26.0475,113.408 24.7141,113.075 23,114.5C 21.8823,112.733 21.3823,110.899 21.5,109C 21.6667,108.5 21.8333,108 22,107.5C 23.793,108.381 24.4597,107.714 24,105.5C 22.6054,106.815 21.6054,106.481 21,104.5C 20.6667,107.833 20.3333,111.167 20,114.5C 19.654,112.782 19.154,111.115 18.5,109.5C 18.8333,108.167 19.1667,106.833 19.5,105.5C 18.0196,78.8867 17.3529,52.2201 17.5,25.5 Z"/></g>
<g><path style="opacity:1" fill="#32a5e1" d="M 111.5,51.5 C 112.5,51.8333 113.167,52.5 113.5,53.5C 113.5,55.1667 113.5,56.8333 113.5,58.5C 114.978,58.238 116.311,58.5713 117.5,59.5C 112.029,61.5945 107.195,64.5945 103,68.5C 101.506,67.2528 100.006,67.2528 98.5,68.5C 96.9734,72.7733 94.3068,74.7733 90.5,74.5C 89.534,78.1722 88.034,78.1722 86,74.5C 84.4933,76.008 82.8267,77.3413 81,78.5C 74.0297,75.2239 71.5297,77.3906 73.5,85C 73.3749,86.6268 72.8749,88.1268 72,89.5C 71.7435,86.443 71.2435,83.443 70.5,80.5C 68.4824,78.6499 66.6491,76.6499 65,74.5C 64.6012,74.7284 64.4346,75.0618 64.5,75.5C 61.8292,72.8394 58.8292,70.5061 55.5,68.5C 54.5713,67.3112 54.238,65.9778 54.5,64.5C 55.9967,60.3434 54.6633,59.3434 50.5,61.5C 44.0351,59.8399 37.3685,59.0066 30.5,59C 27.9778,57.641 26.6445,55.4743 26.5,52.5C 26.8333,52.5 27.1667,52.5 27.5,52.5C 28.0577,53.7899 29.0577,54.6232 30.5,55C 55.4972,55.9167 80.4972,56.25 105.5,56C 107.138,53.8665 107.971,51.3665 108,48.5C 108.667,49.8333 109.333,51.1667 110,52.5C 110.383,51.944 110.883,51.6107 111.5,51.5 Z"/></g>
<g><path style="opacity:1" fill="#32a3df" d="M 90.5,74.5 C 92.7446,75.8278 93.0779,77.6612 91.5,80C 93.2189,81.8705 94.2189,84.0372 94.5,86.5C 96.288,86.7852 97.9547,86.4519 99.5,85.5C 98.2437,83.3845 98.9104,82.0511 101.5,81.5C 101.707,91.8446 98.5406,100.178 92,106.5C 91.3333,105.167 90.6667,105.167 90,106.5C 89.5604,108.076 88.727,109.41 87.5,110.5C 88.3256,111.451 88.4922,112.451 88,113.5C 85.0555,114.272 81.8888,114.272 78.5,113.5C 77.8076,114.025 77.3076,114.692 77,115.5C 75.9207,113.606 74.5874,113.273 73,114.5C 71.1902,112.516 71.0235,110.349 72.5,108C 72.4071,101.983 70.0737,97.1497 65.5,93.5C 64.3747,91.8712 63.0414,90.3712 61.5,89C 56.7278,86.4097 51.7278,84.4097 46.5,83C 43.967,80.916 43.967,78.916 46.5,77C 51.8135,75.2646 55.4801,76.9313 57.5,82C 59.8098,82.4966 62.1432,82.6633 64.5,82.5C 64.5,80.1667 64.5,77.8333 64.5,75.5C 64.4346,75.0618 64.6012,74.7284 65,74.5C 66.6491,76.6499 68.4824,78.6499 70.5,80.5C 71.2435,83.443 71.7435,86.443 72,89.5C 72.8749,88.1268 73.3749,86.6268 73.5,85C 71.5297,77.3906 74.0297,75.2239 81,78.5C 82.8267,77.3413 84.4933,76.008 86,74.5C 88.034,78.1722 89.534,78.1722 90.5,74.5 Z"/></g>
<g><path style="opacity:0.996" fill="#d0cae8" d="M 209.5,78.5 C 209.5,79.8333 209.5,81.1667 209.5,82.5C 208.356,80.8998 207.189,79.2331 206,77.5C 205.517,78.448 205.351,79.448 205.5,80.5C 172.475,80.195 139.475,80.5283 106.5,81.5C 106.166,78.812 106.832,76.4786 108.5,74.5C 108.611,73.8826 108.944,73.3826 109.5,73C 122.496,72.5001 135.496,72.3334 148.5,72.5C 150.5,72.5 152.5,72.5 154.5,72.5C 154.833,72.5 155.167,72.5 155.5,72.5C 156.609,72.4431 157.609,72.1098 158.5,71.5C 171.758,70.3532 185.092,70.1865 198.5,71C 188.833,71.3333 179.167,71.6667 169.5,72C 180.214,72.8098 190.88,72.6431 201.5,71.5C 202.696,71.8457 202.696,72.3457 201.5,73C 202.449,73.6172 203.282,73.4506 204,72.5C 205.331,74.9962 207.164,76.9962 209.5,78.5 Z"/></g>
<g><path style="opacity:1" fill="#b1a8d1" d="M 209.5,82.5 C 209.5,123.167 209.5,163.833 209.5,204.5C 208.5,204.833 207.833,205.5 207.5,206.5C 206.833,206.5 206.5,206.833 206.5,207.5C 205.833,207.5 205.5,207.833 205.5,208.5C 204.833,208.5 204.5,208.833 204.5,209.5C 201.833,209.833 201.833,210.167 204.5,210.5C 203.5,211.167 202.5,211.833 201.5,212.5C 179.5,212.5 157.5,212.5 135.5,212.5C 127.01,211.67 118.343,211.17 109.5,211C 109.018,209.54 107.851,208.04 106,206.5C 102.25,208.029 98.75,207.696 95.5,205.5C 94.6618,205.158 94.3284,204.492 94.5,203.5C 97.7131,203.81 100.713,203.477 103.5,202.5C 105.671,204.5 108.004,206.334 110.5,208C 140.833,208.667 171.167,208.667 201.5,208C 203.437,205.914 205.104,203.748 206.5,201.5C 207.499,161.67 207.832,121.67 207.5,81.5C 205.833,81.5 204.167,81.5 202.5,81.5C 201.167,81.5 199.833,81.5 198.5,81.5C 198.443,85.0287 197.443,88.0287 195.5,90.5C 195.167,89.5 194.5,88.8333 193.5,88.5C 193.082,87.7784 192.416,87.2784 191.5,87C 166.164,86.3199 140.831,85.9866 115.5,86C 114.619,86.7083 113.953,87.5416 113.5,88.5C 112.175,92.2762 111.509,96.4428 111.5,101C 111.667,105.167 111.833,109.333 112,113.5C 113.045,114.373 113.878,115.373 114.5,116.5C 113.852,117.979 113.519,119.479 113.5,121C 114.126,121.75 114.626,122.584 115,123.5C 115.333,123.167 115.667,122.833 116,122.5C 117.633,123.83 119.133,124.496 120.5,124.5C 118.577,125.308 116.577,125.808 114.5,126C 113.62,127.356 113.286,128.856 113.5,130.5C 112.203,135.066 112.203,139.733 113.5,144.5C 112.143,146.499 112.81,147.665 115.5,148C 114.5,148.333 113.5,148.667 112.5,149C 112.562,151.272 112.562,153.438 112.5,155.5C 112.5,156.5 112.5,157.5 112.5,158.5C 111.842,159.398 111.176,160.398 110.5,161.5C 109.692,159.577 109.192,157.577 109,155.5C 109.143,130.607 108.31,105.941 106.5,81.5C 139.475,80.5283 172.475,80.195 205.5,80.5C 205.351,79.448 205.517,78.448 206,77.5C 207.189,79.2331 208.356,80.8998 209.5,82.5 Z"/></g>
<g><path style="opacity:1" fill="#309dda" d="M 16.5,11.5 C 17.4861,15.97 17.8195,20.6367 17.5,25.5C 17.3529,52.2201 18.0196,78.8867 19.5,105.5C 19.1667,106.833 18.8333,108.167 18.5,109.5C 19.154,111.115 19.654,112.782 20,114.5C 20.3333,111.167 20.6667,107.833 21,104.5C 21.6054,106.481 22.6054,106.815 24,105.5C 24.4597,107.714 23.793,108.381 22,107.5C 21.8333,108 21.6667,108.5 21.5,109C 21.3823,110.899 21.8823,112.733 23,114.5C 24.7141,113.075 26.0475,113.408 27,115.5C 28.3333,114.167 29.6667,114.167 31,115.5C 32.113,114.24 32.2797,113.073 31.5,112C 32.4162,111.626 33.2496,111.126 34,110.5C 34.1829,107.635 34.6829,104.969 35.5,102.5C 38.0624,105.794 41.3957,108.127 45.5,109.5C 46.2656,114.15 48.9322,115.65 53.5,114C 54.3802,112.644 54.7135,111.144 54.5,109.5C 63.5688,108.033 67.2355,102.7 65.5,93.5C 70.0737,97.1497 72.4071,101.983 72.5,108C 71.0235,110.349 71.1902,112.516 73,114.5C 74.5874,113.273 75.9207,113.606 77,115.5C 77.3076,114.692 77.8076,114.025 78.5,113.5C 81.8888,114.272 85.0555,114.272 88,113.5C 88.4922,112.451 88.3256,111.451 87.5,110.5C 88.727,109.41 89.5604,108.076 90,106.5C 90.6667,105.167 91.3333,105.167 92,106.5C 98.5406,100.178 101.707,91.8446 101.5,81.5C 101.833,81.5 102.167,81.5 102.5,81.5C 102.5,102.833 102.5,124.167 102.5,145.5C 101.038,144.542 99.7051,143.376 98.5,142C 97.2068,141.51 95.8734,141.343 94.5,141.5C 94.7373,140.209 94.404,139.209 93.5,138.5C 80.5794,137.52 67.5794,137.186 54.5,137.5C 49.57,137.197 44.7367,137.531 40,138.5C 39.5217,145.841 39.0217,153.174 38.5,160.5C 32.8482,159.698 27.1815,159.531 21.5,160C 19.8068,160.847 18.1401,161.68 16.5,162.5C 16.5,112.167 16.5,61.8333 16.5,11.5 Z"/></g>
<g><path style="opacity:0.996" fill="#2389d0" d="M 13.5,5.5 C 14.4861,7.42609 15.4861,9.42609 16.5,11.5C 16.5,61.8333 16.5,112.167 16.5,162.5C 15.1805,163.942 13.5138,164.608 11.5,164.5C 11.1755,111.791 11.5088,59.1247 12.5,6.5C 13.1667,6.5 13.5,6.16667 13.5,5.5 Z"/></g>
<g><path style="opacity:1" fill="#dbdcdd" d="M 54.5,64.5 C 54.238,65.9778 54.5713,67.3112 55.5,68.5C 58.8292,70.5061 61.8292,72.8394 64.5,75.5C 64.5,77.8333 64.5,80.1667 64.5,82.5C 62.1432,82.6633 59.8098,82.4966 57.5,82C 55.4801,76.9313 51.8135,75.2646 46.5,77C 43.967,78.916 43.967,80.916 46.5,83C 51.7278,84.4097 56.7278,86.4097 61.5,89C 63.0414,90.3712 64.3747,91.8712 65.5,93.5C 67.2355,102.7 63.5688,108.033 54.5,109.5C 54.7135,111.144 54.3802,112.644 53.5,114C 48.9322,115.65 46.2656,114.15 45.5,109.5C 41.3957,108.127 38.0624,105.794 35.5,102.5C 34.1729,96.3261 36.5062,94.1594 42.5,96C 45.3076,101.229 49.641,102.896 55.5,101C 57.5268,99.6043 57.8602,97.9376 56.5,96C 51.6027,93.7171 46.6027,91.7171 41.5,90C 39.6217,88.4571 38.1217,86.6238 37,84.5C 34.396,76.2721 37.2294,70.9387 45.5,68.5C 46.7414,63.5503 49.7414,62.2169 54.5,64.5 Z"/></g>
<g><path style="opacity:1" fill="#debc31" d="M 54.5,137.5 C 67.5794,137.186 80.5794,137.52 93.5,138.5C 93.5,139.167 93.1667,139.5 92.5,139.5C 91.5,139.5 90.5,139.5 89.5,139.5C 86.4824,139.704 83.4824,140.037 80.5,140.5C 77.1501,140.335 73.8168,140.502 70.5,141C 69.8333,144.333 69.1667,147.667 68.5,151C 63.1667,151.667 57.8333,151.667 52.5,151C 50.7486,147.941 49.0819,144.774 47.5,141.5C 45.2241,140.787 42.8907,140.287 40.5,140C 47.1667,139.667 53.8333,139.333 60.5,139C 58.2922,138.809 56.2922,138.309 54.5,137.5 Z"/></g>
<g><path style="opacity:1" fill="#6e629f" d="M 202.5,81.5 C 204.167,81.5 205.833,81.5 207.5,81.5C 207.832,121.67 207.499,161.67 206.5,201.5C 206.53,200.503 206.03,199.836 205,199.5C 203.06,199.957 201.56,200.957 200.5,202.5C 199.848,161.947 200.515,121.614 202.5,81.5 Z"/></g>
<g><path style="opacity:1" fill="#a0661f" d="M 89.5,139.5 C 90.5,139.5 91.5,139.5 92.5,139.5C 92.5,148.167 92.5,156.833 92.5,165.5C 89.8333,165.833 87.1667,166.167 84.5,166.5C 83.7611,166.631 83.0944,166.464 82.5,166C 83.7659,165.691 84.9326,165.191 86,164.5C 86.539,161.471 87.2057,158.471 88,155.5C 88.7504,154.874 89.5838,154.374 90.5,154C 87.3618,152.756 84.0284,152.089 80.5,152C 82.433,151.749 84.2663,151.249 86,150.5C 86.1152,146.38 87.2819,142.713 89.5,139.5 Z"/></g>
<g><path style="opacity:1" fill="#a297ca" d="M 108.5,74.5 C 106.832,76.4786 106.166,78.812 106.5,81.5C 108.31,105.941 109.143,130.607 109,155.5C 109.192,157.577 109.692,159.577 110.5,161.5C 111.176,160.398 111.842,159.398 112.5,158.5C 112.211,162.106 112.544,165.606 113.5,169C 117.833,169.667 122.167,169.667 126.5,169C 127.464,164.934 127.797,160.767 127.5,156.5C 128.86,161.739 128.693,167.072 127,172.5C 123.969,174.644 120.803,175.31 117.5,174.5C 115.714,174.696 114.381,175.529 113.5,177C 118.019,177.175 122.353,177.675 126.5,178.5C 121.901,178.2 117.401,178.533 113,179.5C 112.333,183.833 112.333,188.167 113,192.5C 117.413,193.632 121.913,193.799 126.5,193C 127.464,188.934 127.797,184.767 127.5,180.5C 128.117,180.611 128.617,180.944 129,181.5C 129.877,187.247 130.044,192.914 129.5,198.5C 132.85,198.665 136.183,198.498 139.5,198C 137.651,196.907 135.984,195.574 134.5,194C 135.056,193.617 135.389,193.117 135.5,192.5C 149.016,197.988 153.683,193.655 149.5,179.5C 150.649,179.791 151.316,180.624 151.5,182C 152.8,187.527 153.134,193.027 152.5,198.5C 154.857,198.663 157.19,198.497 159.5,198C 158.151,196.462 157.484,194.629 157.5,192.5C 161.876,194.534 166.543,195.034 171.5,194C 172,193.5 172.5,193 173,192.5C 173.499,188.848 173.665,185.182 173.5,181.5C 175.777,184.683 177.11,188.35 177.5,192.5C 178.689,193.429 180.022,193.762 181.5,193.5C 181.611,194.117 181.944,194.617 182.5,195C 186.5,195.667 190.5,195.667 194.5,195C 195,194.5 195.5,194 196,193.5C 196.5,181.505 196.667,169.505 196.5,157.5C 197.786,154.665 197.786,151.832 196.5,149C 192.167,148.667 187.833,148.333 183.5,148C 182.177,147.184 181.511,146.017 181.5,144.5C 196.329,149.34 200.663,144.674 194.5,130.5C 196.414,127.316 197.08,123.649 196.5,119.5C 169.819,119.731 143.152,119.231 116.5,118C 141.67,117.832 166.67,117.332 191.5,116.5C 192.794,115.71 193.961,114.71 195,113.5C 195.5,105.841 195.666,98.1739 195.5,90.5C 197.443,88.0287 198.443,85.0287 198.5,81.5C 199.833,81.5 201.167,81.5 202.5,81.5C 200.515,121.614 199.848,161.947 200.5,202.5C 170.238,203.658 139.905,203.825 109.5,203C 108.333,201.833 107.167,200.667 106,199.5C 105.667,184.5 105.333,169.5 105,154.5C 104.844,151.809 104.011,149.476 102.5,147.5C 102.5,146.833 102.5,146.167 102.5,145.5C 102.5,124.167 102.5,102.833 102.5,81.5C 103.088,77.9148 105.088,75.5815 108.5,74.5 Z"/></g>
<g><path style="opacity:1" fill="#aea3d2" d="M 127.5,131.5 C 128.888,137.023 130.555,142.523 132.5,148C 130.715,149.163 128.715,149.83 126.5,150C 130.223,153.025 133.556,152.859 136.5,149.5C 137.086,149.709 137.586,150.043 138,150.5C 136.229,148.763 135.395,146.429 135.5,143.5C 147.466,149.213 152.466,145.547 150.5,132.5C 152.85,135.196 153.516,138.196 152.5,141.5C 153.082,145.155 153.582,148.822 154,152.5C 156.035,153.374 158.368,153.707 161,153.5C 161.9,152.23 163.066,151.23 164.5,150.5C 160.962,150.182 158.462,148.515 157,145.5C 155.796,146.471 155.296,147.471 155.5,148.5C 154.177,146.146 154.843,144.479 157.5,143.5C 161.876,145.534 166.543,146.034 171.5,145C 172,144.5 172.5,144 173,143.5C 173.499,139.848 173.665,136.182 173.5,132.5C 173.841,135.562 175.508,137.728 178.5,139C 177.388,141.108 178.054,142.608 180.5,143.5C 181.167,143.5 181.5,143.833 181.5,144.5C 181.511,146.017 182.177,147.184 183.5,148C 187.833,148.333 192.167,148.667 196.5,149C 197.786,151.832 197.786,154.665 196.5,157.5C 195.833,157.167 195.167,156.833 194.5,156.5C 190.689,155.355 186.689,155.188 182.5,156C 181.944,156.383 181.611,156.883 181.5,157.5C 180.18,169.402 180.18,181.402 181.5,193.5C 180.022,193.762 178.689,193.429 177.5,192.5C 177.11,188.35 175.777,184.683 173.5,181.5C 173.047,180.542 172.381,179.708 171.5,179C 159.166,175.5 154.5,180 157.5,192.5C 157.484,194.629 158.151,196.462 159.5,198C 157.19,198.497 154.857,198.663 152.5,198.5C 153.134,193.027 152.8,187.527 151.5,182C 151.316,180.624 150.649,179.791 149.5,179.5C 145.298,178.201 140.964,178.201 136.5,179.5C 135.508,183.783 135.174,188.116 135.5,192.5C 135.389,193.117 135.056,193.617 134.5,194C 135.984,195.574 137.651,196.907 139.5,198C 136.183,198.498 132.85,198.665 129.5,198.5C 130.044,192.914 129.877,187.247 129,181.5C 128.617,180.944 128.117,180.611 127.5,180.5C 127.167,179.833 126.833,179.167 126.5,178.5C 122.353,177.675 118.019,177.175 113.5,177C 114.381,175.529 115.714,174.696 117.5,174.5C 120.803,175.31 123.969,174.644 127,172.5C 128.693,167.072 128.86,161.739 127.5,156.5C 127.389,155.883 127.056,155.383 126.5,155C 121.748,154.227 117.081,154.393 112.5,155.5C 112.562,153.438 112.562,151.272 112.5,149C 113.5,148.667 114.5,148.333 115.5,148C 112.81,147.665 112.143,146.499 113.5,144.5C 118.167,144.5 122.833,144.5 127.5,144.5C 127.5,140.167 127.5,135.833 127.5,131.5 Z"/></g>
<g><path style="opacity:1" fill="#8f5fd5" d="M 194.5,130.5 C 200.663,144.674 196.329,149.34 181.5,144.5C 181.5,143.833 181.167,143.5 180.5,143.5C 180.234,139.429 180.567,135.429 181.5,131.5C 185.783,130.508 190.116,130.174 194.5,130.5 Z"/></g>
<g><path style="opacity:1" fill="#9364da" d="M 173.5,132.5 C 173.665,136.182 173.499,139.848 173,143.5C 172.5,144 172,144.5 171.5,145C 166.543,146.034 161.876,145.534 157.5,143.5C 157.203,139.233 157.536,135.066 158.5,131C 162.375,129.48 166.375,129.146 170.5,130C 171.942,130.377 172.942,131.21 173.5,132.5 Z"/></g>
<g><path style="opacity:1" fill="#9160d9" d="M 127.5,131.5 C 127.5,135.833 127.5,140.167 127.5,144.5C 122.833,144.5 118.167,144.5 113.5,144.5C 112.203,139.733 112.203,135.066 113.5,130.5C 117.747,129.398 122.08,129.232 126.5,130C 127.056,130.383 127.389,130.883 127.5,131.5 Z"/></g>
<g><path style="opacity:1" fill="#b0a6d3" d="M 114.5,116.5 C 140.167,116.5 165.833,116.5 191.5,116.5C 166.67,117.332 141.67,117.832 116.5,118C 143.152,119.231 169.819,119.731 196.5,119.5C 197.08,123.649 196.414,127.316 194.5,130.5C 190.116,130.174 185.783,130.508 181.5,131.5C 180.567,135.429 180.234,139.429 180.5,143.5C 178.054,142.608 177.388,141.108 178.5,139C 175.508,137.728 173.841,135.562 173.5,132.5C 172.942,131.21 171.942,130.377 170.5,130C 166.375,129.146 162.375,129.48 158.5,131C 157.536,135.066 157.203,139.233 157.5,143.5C 154.843,144.479 154.177,146.146 155.5,148.5C 155.296,147.471 155.796,146.471 157,145.5C 158.462,148.515 160.962,150.182 164.5,150.5C 163.066,151.23 161.9,152.23 161,153.5C 158.368,153.707 156.035,153.374 154,152.5C 153.582,148.822 153.082,145.155 152.5,141.5C 153.516,138.196 152.85,135.196 150.5,132.5C 150.047,131.542 149.381,130.708 148.5,130C 144.442,129.233 140.442,129.4 136.5,130.5C 135.508,134.783 135.174,139.116 135.5,143.5C 135.395,146.429 136.229,148.763 138,150.5C 137.586,150.043 137.086,149.709 136.5,149.5C 133.556,152.859 130.223,153.025 126.5,150C 128.715,149.83 130.715,149.163 132.5,148C 130.555,142.523 128.888,137.023 127.5,131.5C 127.389,130.883 127.056,130.383 126.5,130C 122.08,129.232 117.747,129.398 113.5,130.5C 113.286,128.856 113.62,127.356 114.5,126C 116.577,125.808 118.577,125.308 120.5,124.5C 119.133,124.496 117.633,123.83 116,122.5C 115.667,122.833 115.333,123.167 115,123.5C 114.626,122.584 114.126,121.75 113.5,121C 113.519,119.479 113.852,117.979 114.5,116.5 Z"/></g>
<g><path style="opacity:1" fill="#9160d9" d="M 150.5,132.5 C 152.466,145.547 147.466,149.213 135.5,143.5C 135.174,139.116 135.508,134.783 136.5,130.5C 140.442,129.4 144.442,129.233 148.5,130C 149.381,130.708 150.047,131.542 150.5,132.5 Z"/></g>
<g><path style="opacity:1" fill="#e1e1e1" d="M 193.5,88.5 C 192.458,89.7911 191.292,89.7911 190,88.5C 189.5,89 189,89.5 188.5,90C 189.52,92.1757 190.354,94.6757 191,97.5C 190.667,97.1667 190.333,96.8333 190,96.5C 184.277,98.2216 178.944,99.8882 174,101.5C 173.326,100.422 172.326,99.7549 171,99.5C 168.526,99.5903 166.026,99.9236 163.5,100.5C 163.404,104.311 162.738,104.311 161.5,100.5C 160.833,101.833 160.167,103.167 159.5,104.5C 158.284,103.998 157.117,103.665 156,103.5C 155,104.5 154,105.5 153,106.5C 150.408,105.018 148.075,105.352 146,107.5C 145.383,106.551 145.549,105.718 146.5,105C 146,104.833 145.5,104.667 145,104.5C 142.753,104.777 140.92,106.11 139.5,108.5C 136.472,107.773 133.305,107.44 130,107.5C 129.05,108.022 128.216,108.689 127.5,109.5C 126.158,108.098 125.324,108.431 125,110.5C 121.236,110.885 117.736,110.885 114.5,110.5C 113.503,103.197 113.169,95.8635 113.5,88.5C 113.953,87.5416 114.619,86.7083 115.5,86C 140.831,85.9866 166.164,86.3199 191.5,87C 192.416,87.2784 193.082,87.7784 193.5,88.5 Z"/></g>
<g><path style="opacity:1" fill="#dddddd" d="M 113.5,88.5 C 113.169,95.8635 113.503,103.197 114.5,110.5C 117.736,110.885 121.236,110.885 125,110.5C 125.324,108.431 126.158,108.098 127.5,109.5C 128.216,108.689 129.05,108.022 130,107.5C 133.305,107.44 136.472,107.773 139.5,108.5C 140.92,106.11 142.753,104.777 145,104.5C 145.5,104.667 146,104.833 146.5,105C 145.549,105.718 145.383,106.551 146,107.5C 148.075,105.352 150.408,105.018 153,106.5C 154,105.5 155,104.5 156,103.5C 157.117,103.665 158.284,103.998 159.5,104.5C 160.167,103.167 160.833,101.833 161.5,100.5C 162.738,104.311 163.404,104.311 163.5,100.5C 166.026,99.9236 168.526,99.5903 171,99.5C 172.326,99.7549 173.326,100.422 174,101.5C 178.944,99.8882 184.277,98.2216 190,96.5C 190.333,96.8333 190.667,97.1667 191,97.5C 190.354,94.6757 189.52,92.1757 188.5,90C 189,89.5 189.5,89 190,88.5C 191.292,89.7911 192.458,89.7911 193.5,88.5C 194.5,88.8333 195.167,89.5 195.5,90.5C 195.666,98.1739 195.5,105.841 195,113.5C 193.961,114.71 192.794,115.71 191.5,116.5C 165.833,116.5 140.167,116.5 114.5,116.5C 113.878,115.373 113.045,114.373 112,113.5C 111.833,109.333 111.667,105.167 111.5,101C 111.509,96.4428 112.175,92.2762 113.5,88.5 Z"/></g>
<g><path style="opacity:1" fill="#905fd7" d="M 127.5,156.5 C 127.797,160.767 127.464,164.934 126.5,169C 122.167,169.667 117.833,169.667 113.5,169C 112.544,165.606 112.211,162.106 112.5,158.5C 112.5,157.5 112.5,156.5 112.5,155.5C 117.081,154.393 121.748,154.227 126.5,155C 127.056,155.383 127.389,155.883 127.5,156.5 Z"/></g>
<g><path style="opacity:1" fill="#8f5fd7" d="M 137.5,154.5 C 141.555,154.176 145.555,154.509 149.5,155.5C 153.745,169.426 149.245,173.76 136,168.5C 134.989,163.529 135.489,158.863 137.5,154.5 Z"/></g>
<g><path style="opacity:1" fill="#ddba2a" d="M 194.5,156.5 C 193.521,168.42 193.188,180.42 193.5,192.5C 189.833,192.5 186.167,192.5 182.5,192.5C 182.811,180.753 182.478,169.086 181.5,157.5C 181.611,156.883 181.944,156.383 182.5,156C 186.689,155.188 190.689,155.355 194.5,156.5 Z"/></g>
<g><path style="opacity:1" fill="#b17810" d="M 89.5,139.5 C 87.2819,142.713 86.1152,146.38 86,150.5C 84.2663,151.249 82.433,151.749 80.5,152C 84.0284,152.089 87.3618,152.756 90.5,154C 89.5838,154.374 88.7504,154.874 88,155.5C 87.2057,158.471 86.539,161.471 86,164.5C 84.9326,165.191 83.7659,165.691 82.5,166C 83.0944,166.464 83.7611,166.631 84.5,166.5C 86.6074,167.468 88.9407,167.802 91.5,167.5C 92.0555,171.997 91.3888,176.164 89.5,180C 90,180.5 90.5,181 91,181.5C 91.9454,188.835 92.7787,196.168 93.5,203.5C 92.2158,206.484 89.8824,207.984 86.5,208C 71.7783,208.932 57.1116,208.599 42.5,207C 44.568,204.358 46.2347,201.525 47.5,198.5C 49.9414,192.774 50.9414,186.774 50.5,180.5C 50.4569,177.413 50.2903,174.413 50,171.5C 52.4784,173.943 54.3117,176.776 55.5,180C 61.5368,180.697 67.5368,180.53 73.5,179.5C 73.5,176.167 73.5,172.833 73.5,169.5C 66.038,168.715 56.7047,167.548 45.5,166C 54.5092,166.722 63.5092,166.556 72.5,165.5C 72.7244,161.821 73.0578,158.154 73.5,154.5C 76.8499,154.665 80.1832,154.498 83.5,154C 75.5,153.667 67.5,153.333 59.5,153C 65.1798,152.555 70.8465,152.055 76.5,151.5C 76.4762,147.213 77.8095,143.547 80.5,140.5C 83.4824,140.037 86.4824,139.704 89.5,139.5 Z"/></g>
<g><path style="opacity:1" fill="#bf9439" d="M 194.5,156.5 C 195.167,156.833 195.833,157.167 196.5,157.5C 196.667,169.505 196.5,181.505 196,193.5C 195.5,194 195,194.5 194.5,195C 190.5,195.667 186.5,195.667 182.5,195C 181.944,194.617 181.611,194.117 181.5,193.5C 180.18,181.402 180.18,169.402 181.5,157.5C 182.478,169.086 182.811,180.753 182.5,192.5C 186.167,192.5 189.833,192.5 193.5,192.5C 193.188,180.42 193.521,168.42 194.5,156.5 Z"/></g>
<g><path style="opacity:1" fill="#8859d2" d="M 160.5,154.5 C 172.511,152.014 176.677,156.681 173,168.5C 160,174.5 155,170.5 158,156.5C 158.995,155.934 159.828,155.267 160.5,154.5 Z"/></g>
<g><path style="opacity:0.006" fill="#efe000" d="M 4.5,174.5 C 3.66175,174.842 3.32842,175.508 3.5,176.5C 2.37892,174.911 2.54559,173.244 4,171.5C 4.48278,172.448 4.64945,173.448 4.5,174.5 Z"/></g>
<g><path style="opacity:1" fill="#d7af21" d="M 54.5,137.5 C 56.2922,138.309 58.2922,138.809 60.5,139C 53.8333,139.333 47.1667,139.667 40.5,140C 42.8907,140.287 45.2241,140.787 47.5,141.5C 49.0819,144.774 50.7486,147.941 52.5,151C 57.8333,151.667 63.1667,151.667 68.5,151C 69.1667,147.667 69.8333,144.333 70.5,141C 73.8168,140.502 77.1501,140.335 80.5,140.5C 77.8095,143.547 76.4762,147.213 76.5,151.5C 70.8465,152.055 65.1798,152.555 59.5,153C 67.5,153.333 75.5,153.667 83.5,154C 80.1832,154.498 76.8499,154.665 73.5,154.5C 73.0578,158.154 72.7244,161.821 72.5,165.5C 63.5092,166.556 54.5092,166.722 45.5,166C 56.7047,167.548 66.038,168.715 73.5,169.5C 73.5,172.833 73.5,176.167 73.5,179.5C 67.5368,180.53 61.5368,180.697 55.5,180C 54.3117,176.776 52.4784,173.943 50,171.5C 50.2903,174.413 50.4569,177.413 50.5,180.5C 49.6909,182.292 49.1909,184.292 49,186.5C 48.6401,184.392 47.9734,182.392 47,180.5C 46.6667,181.167 46.3333,181.833 46,182.5C 42.4058,176.399 37.2391,172.399 30.5,170.5C 28.2911,169.024 26.9577,169.691 26.5,172.5C 25.7321,171.737 25.2321,170.737 25,169.5C 15.0264,173.326 9.85974,180.66 9.5,191.5C 6.1002,172.506 14.1002,163.673 33.5,165C 35.7467,166.309 38.0801,166.975 40.5,167C 38.2548,164.913 35.5881,163.579 32.5,163C 16.3013,161.025 7.30131,168.192 5.5,184.5C 5.87302,187.209 6.03968,189.876 6,192.5C 5.2917,191.619 4.45837,190.953 3.5,190.5C 2.266,190.285 2.266,190.952 3.5,192.5C 3.5,193.5 3.5,194.5 3.5,195.5C 0.819264,190.932 -0.0140688,185.932 1,180.5C 1.33333,183.167 1.66667,185.833 2,188.5C 2.50126,184.49 3.00126,180.49 3.5,176.5C 4.33825,176.158 4.67158,175.492 4.5,174.5C 6.31676,170.889 8.65009,167.555 11.5,164.5C 13.5138,164.608 15.1805,163.942 16.5,162.5C 18.1401,161.68 19.8068,160.847 21.5,160C 27.1815,159.531 32.8482,159.698 38.5,160.5C 39.0217,153.174 39.5217,145.841 40,138.5C 44.7367,137.531 49.57,137.197 54.5,137.5 Z"/></g>
<g><path style="opacity:1" fill="#7f4d21" d="M 93.5,138.5 C 94.404,139.209 94.7373,140.209 94.5,141.5C 94.014,162.086 94.014,182.752 94.5,203.5C 94.1667,203.5 93.8333,203.5 93.5,203.5C 92.7787,196.168 91.9454,188.835 91,181.5C 90.5,181 90,180.5 89.5,180C 91.3888,176.164 92.0555,171.997 91.5,167.5C 88.9407,167.802 86.6074,167.468 84.5,166.5C 87.1667,166.167 89.8333,165.833 92.5,165.5C 92.5,156.833 92.5,148.167 92.5,139.5C 93.1667,139.5 93.5,139.167 93.5,138.5 Z"/></g>
<g><path style="opacity:0.996" fill="#bd8313" d="M 9.5,191.5 C 11.368,196.826 10.5347,197.493 7,193.5C 6.47954,195.289 6.81288,196.956 8,198.5C 11.3955,202.065 14.8955,205.398 18.5,208.5C 16.8467,207.395 15.18,207.229 13.5,208C 14.6537,207.086 14.487,206.253 13,205.5C 11.1598,206.833 10.6598,206.666 11.5,205C 10.4479,203.881 9.2812,203.381 8,203.5C 7.38277,202.551 7.54943,201.718 8.5,201C 7.53054,199.242 6.36387,198.742 5,199.5C 4.53566,198.906 4.36899,198.239 4.5,197.5C 5.83333,196.833 5.83333,196.167 4.5,195.5C 4.73731,194.209 4.40397,193.209 3.5,192.5C 3.5,191.833 3.5,191.167 3.5,190.5C 4.45837,190.953 5.2917,191.619 6,192.5C 6.03968,189.876 5.87302,187.209 5.5,184.5C 7.30131,168.192 16.3013,161.025 32.5,163C 35.5881,163.579 38.2548,164.913 40.5,167C 38.0801,166.975 35.7467,166.309 33.5,165C 14.1002,163.673 6.1002,172.506 9.5,191.5 Z"/></g>
<g><path style="opacity:1" fill="#8a59d3" d="M 126.5,178.5 C 126.833,179.167 127.167,179.833 127.5,180.5C 127.797,184.767 127.464,188.934 126.5,193C 121.913,193.799 117.413,193.632 113,192.5C 112.333,188.167 112.333,183.833 113,179.5C 117.401,178.533 121.901,178.2 126.5,178.5 Z"/></g>
<g><path style="opacity:1" fill="#895ad2" d="M 173.5,181.5 C 173.665,185.182 173.499,188.848 173,192.5C 172.5,193 172,193.5 171.5,194C 166.543,195.034 161.876,194.534 157.5,192.5C 154.5,180 159.166,175.5 171.5,179C 172.381,179.708 173.047,180.542 173.5,181.5 Z"/></g>
<g><path style="opacity:1" fill="#d7b122" d="M 54.5,181.5 C 63.8393,181.334 73.1726,181.5 82.5,182C 79.4465,182.179 76.4465,182.679 73.5,183.5C 72.5827,186.758 72.2493,190.091 72.5,193.5C 66.5,193.5 60.5,193.5 54.5,193.5C 54.5,189.5 54.5,185.5 54.5,181.5 Z"/></g>
<g><path style="opacity:1" fill="#dddad2" d="M 30.5,170.5 C 30.5,171.5 30.5,172.5 30.5,173.5C 34.5,174.167 36.8333,176.5 37.5,180.5C 34.755,180.627 32.755,179.46 31.5,177C 29.2305,176.242 27.0639,176.409 25,177.5C 24.2797,179.112 24.4464,180.612 25.5,182C 29.5556,183.464 33.3889,185.297 37,187.5C 38.8527,193.306 36.8527,196.972 31,198.5C 30.5172,199.448 30.3505,200.448 30.5,201.5C 29.5,201.5 28.5,201.5 27.5,201.5C 27.719,200.325 27.3857,199.325 26.5,198.5C 21.9905,197.661 19.6571,194.995 19.5,190.5C 22.5497,189.923 24.5497,191.09 25.5,194C 28.0991,194.769 30.5991,194.602 33,193.5C 33.7203,191.888 33.5536,190.388 32.5,189C 28.1945,188.097 24.3612,186.263 21,183.5C 19.1851,177.855 21.0185,174.188 26.5,172.5C 26.9577,169.691 28.2911,169.024 30.5,170.5 Z"/></g>
<g><path style="opacity:1" fill="#debb2c" d="M 26.5,172.5 C 21.0185,174.188 19.1851,177.855 21,183.5C 24.3612,186.263 28.1945,188.097 32.5,189C 33.5536,190.388 33.7203,191.888 33,193.5C 30.5991,194.602 28.0991,194.769 25.5,194C 24.5497,191.09 22.5497,189.923 19.5,190.5C 19.6571,194.995 21.9905,197.661 26.5,198.5C 27.3857,199.325 27.719,200.325 27.5,201.5C 28.5,201.5 29.5,201.5 30.5,201.5C 30.3505,200.448 30.5172,199.448 31,198.5C 36.8527,196.972 38.8527,193.306 37,187.5C 33.3889,185.297 29.5556,183.464 25.5,182C 24.4464,180.612 24.2797,179.112 25,177.5C 27.0639,176.409 29.2305,176.242 31.5,177C 32.755,179.46 34.755,180.627 37.5,180.5C 36.8333,176.5 34.5,174.167 30.5,173.5C 30.5,172.5 30.5,171.5 30.5,170.5C 37.2391,172.399 42.4058,176.399 46,182.5C 46.3333,181.833 46.6667,181.167 47,180.5C 47.9734,182.392 48.6401,184.392 49,186.5C 49.1909,184.292 49.6909,182.292 50.5,180.5C 50.9414,186.774 49.9414,192.774 47.5,198.5C 43.7265,203.41 38.7265,206.577 32.5,208C 27.8452,208.499 23.1785,208.666 18.5,208.5C 14.8955,205.398 11.3955,202.065 8,198.5C 6.81288,196.956 6.47954,195.289 7,193.5C 10.5347,197.493 11.368,196.826 9.5,191.5C 9.85974,180.66 15.0264,173.326 25,169.5C 25.2321,170.737 25.7321,171.737 26.5,172.5 Z"/></g>
<g><path style="opacity:1" fill="#8657d2" d="M 149.5,179.5 C 153.683,193.655 149.016,197.988 135.5,192.5C 135.174,188.116 135.508,183.783 136.5,179.5C 140.964,178.201 145.298,178.201 149.5,179.5 Z"/></g>
<g><path style="opacity:1" fill="#0b3374" d="M 94.5,141.5 C 95.8734,141.343 97.2068,141.51 98.5,142C 99.7051,143.376 101.038,144.542 102.5,145.5C 102.5,146.167 102.5,146.833 102.5,147.5C 102.17,166.008 102.503,184.341 103.5,202.5C 100.713,203.477 97.7131,203.81 94.5,203.5C 94.014,182.752 94.014,162.086 94.5,141.5 Z"/></g>
<g><path style="opacity:0.008" fill="#e490ff" d="M 3.5,195.5 C 3.83333,195.5 4.16667,195.5 4.5,195.5C 4.5,196.167 4.5,196.833 4.5,197.5C 3.66175,197.158 3.32842,196.492 3.5,195.5 Z"/></g>
<g><path style="opacity:0.999" fill="#d6af21" d="M 54.5,195.5 C 63.8393,195.334 73.1726,195.5 82.5,196C 80.1093,196.287 77.7759,196.787 75.5,197.5C 74.7964,200.704 74.1298,203.871 73.5,207C 67.1754,207.5 60.8421,207.666 54.5,207.5C 54.5,203.5 54.5,199.5 54.5,195.5 Z"/></g>
<g><path style="opacity:0.998" fill="#5e5188" d="M 102.5,147.5 C 104.011,149.476 104.844,151.809 105,154.5C 105.333,169.5 105.667,184.5 106,199.5C 107.167,200.667 108.333,201.833 109.5,203C 139.905,203.825 170.238,203.658 200.5,202.5C 201.56,200.957 203.06,199.957 205,199.5C 206.03,199.836 206.53,200.503 206.5,201.5C 205.104,203.748 203.437,205.914 201.5,208C 171.167,208.667 140.833,208.667 110.5,208C 108.004,206.334 105.671,204.5 103.5,202.5C 102.503,184.341 102.17,166.008 102.5,147.5 Z"/></g>
<g><path style="opacity:0.004" fill="#fefffe" d="M 207.5,206.5 C 208.833,207.167 208.833,207.167 207.5,206.5 Z"/></g>
<g><path style="opacity:0.012" fill="#a9aaa9" d="M 206.5,207.5 C 206.833,207.5 207.167,207.5 207.5,207.5C 207.315,208.17 206.981,208.17 206.5,207.5 Z"/></g>
<g><path style="opacity:0.741" fill="#b18b3f" d="M 47.5,198.5 C 46.2347,201.525 44.568,204.358 42.5,207C 57.1116,208.599 71.7783,208.932 86.5,208C 89.8824,207.984 92.2158,206.484 93.5,203.5C 93.8333,203.5 94.1667,203.5 94.5,203.5C 94.3284,204.492 94.6618,205.158 95.5,205.5C 95.4729,207.199 94.8062,208.533 93.5,209.5C 81.5,209.833 81.5,210.167 93.5,210.5C 74.0071,211.497 54.3404,211.83 34.5,211.5C 30.5,210.167 26.5,210.167 22.5,211.5C 21.1266,211.657 19.7932,211.49 18.5,211C 19.1667,210.667 19.8333,210.333 20.5,210C 19.5842,209.722 18.9175,209.222 18.5,208.5C 23.1785,208.666 27.8452,208.499 32.5,208C 38.7265,206.577 43.7265,203.41 47.5,198.5 Z"/></g>
<g><path style="opacity:0.012" fill="#a9aaa9" d="M 205.5,208.5 C 205.833,208.5 206.167,208.5 206.5,208.5C 206.315,209.17 205.981,209.17 205.5,208.5 Z"/></g>
<g><path style="opacity:0.008" fill="#fe7f7e" d="M 93.5,209.5 C 94.8333,210.167 94.8333,210.167 93.5,209.5 Z"/></g>
<g><path style="opacity:0.008" fill="#7f7fff" d="M 204.5,209.5 C 204.833,209.5 205.167,209.5 205.5,209.5C 205.315,210.17 204.981,210.17 204.5,209.5 Z"/></g>
<g><path style="opacity:0.016" fill="#b8914a" d="M 22.5,212.5 C 22.5,212.167 22.5,211.833 22.5,211.5C 26.5,211.5 30.5,211.5 34.5,211.5C 34.5,211.833 34.5,212.167 34.5,212.5C 30.5,212.5 26.5,212.5 22.5,212.5 Z"/></g>
</svg>
