<?xml version="1.0" encoding="UTF-8"?>
<!DOCTYPE svg PUBLIC "-//W3C//DTD SVG 1.1//EN" "http://www.w3.org/Graphics/SVG/1.1/DTD/svg11.dtd">
<svg xmlns="http://www.w3.org/2000/svg" version="1.1" width="261px" height="219px" style="shape-rendering:geometricPrecision; text-rendering:geometricPrecision; image-rendering:optimizeQuality; fill-rule:evenodd; clip-rule:evenodd" xmlns:xlink="http://www.w3.org/1999/xlink">
<g><path style="opacity:0.008" fill="#7e7f7e" d="M 120.5,1.5 C 120.897,0.474981 121.563,0.308314 122.5,1C 121.906,1.46434 121.239,1.63101 120.5,1.5 Z"/></g>
<g><path style="opacity:0.786" fill="#51467a" d="M 129.5,-0.5 C 129.833,-0.5 130.167,-0.5 130.5,-0.5C 130.918,0.221579 131.584,0.721579 132.5,1C 129.833,1.66667 129.833,2.33333 132.5,3C 140.518,3.69912 148.518,3.53246 156.5,2.5C 159.532,2.80636 162.532,3.30636 165.5,4C 164.167,4.33333 162.833,4.66667 161.5,5C 163.058,5.21003 164.391,5.71003 165.5,6.5C 169.269,9.93433 172.269,13.9343 174.5,18.5C 173.527,19.984 172.193,20.484 170.5,20C 169.167,19.3333 167.833,18.6667 166.5,18C 170.223,17.5658 170.39,16.7324 167,15.5C 165.328,16.5054 163.995,17.8387 163,19.5C 161.765,14.8492 160.098,14.5158 158,18.5C 156.013,17.782 154.179,16.782 152.5,15.5C 152.167,15.8333 151.833,16.1667 151.5,16.5C 153.028,17.8613 154.695,19.028 156.5,20C 153.869,20.1067 151.369,20.2734 149,20.5C 147.383,19.4642 147.216,18.2975 148.5,17C 145.58,16.5918 143.246,15.2585 141.5,13C 140.5,12.3333 139.5,12.3333 138.5,13C 137.213,14.4095 136.046,15.9095 135,17.5C 133.513,16.7471 133.346,15.9138 134.5,15C 131.077,15.1449 129.077,13.6449 128.5,10.5C 126.409,10.3184 124.409,10.6518 122.5,11.5C 119.911,9.13292 117.245,9.13292 114.5,11.5C 115.708,7.45601 118.208,4.45601 122,2.5C 122.945,2.90536 123.612,3.57203 124,4.5C 125.73,2.59809 127.563,0.93142 129.5,-0.5 Z"/></g>
<g><path style="opacity:0.008" fill="#7e7f7e" d="M 176.5,10.5 C 177.833,11.1667 177.833,11.1667 176.5,10.5 Z"/></g>
<g><path style="opacity:0.004" fill="#000000" d="M 179.5,12.5 C 180.833,13.1667 180.833,13.1667 179.5,12.5 Z"/></g>
<g><path style="opacity:0.02" fill="#443d7c" d="M 112.5,19.5 C 111.366,17.0336 111.199,14.367 112,11.5C 112.497,14.146 112.664,16.8127 112.5,19.5 Z"/></g>
<g><path style="opacity:0.994" fill="#ebeaef" d="M 165.5,6.5 C 167.703,6.60357 169.703,7.27024 171.5,8.5C 174.694,13.5545 177.361,18.8878 179.5,24.5C 178.833,24.5 178.167,24.5 177.5,24.5C 176.5,22.5 175.5,20.5 174.5,18.5C 172.269,13.9343 169.269,9.93433 165.5,6.5 Z"/></g>
<g><path style="opacity:0.912" fill="#574d81" d="M 176.5,11.5 C 177.29,12.4013 178.29,13.0679 179.5,13.5C 181.252,15.2459 182.585,17.2459 183.5,19.5C 182.767,21.2944 181.767,22.9611 180.5,24.5C 180.167,24.5 179.833,24.5 179.5,24.5C 177.361,18.8878 174.694,13.5545 171.5,8.5C 172.721,7.53537 174.054,7.70204 175.5,9C 174.434,10.159 174.767,10.9924 176.5,11.5 Z"/></g>
<g><path style="opacity:0.008" fill="#676477" d="M 112.5,19.5 C 112.833,19.5 113.167,19.5 113.5,19.5C 113.5,20.1667 113.5,20.8333 113.5,21.5C 112.662,21.1583 112.328,20.4916 112.5,19.5 Z"/></g>
<g><path style="opacity:1" fill="#33284b" d="M 174.5,18.5 C 175.5,20.5 176.5,22.5 177.5,24.5C 179.443,29.6655 180.776,34.9988 181.5,40.5C 181.639,42.8825 180.972,44.8825 179.5,46.5C 177.167,43.9974 175.001,41.3307 173,38.5C 171.101,34.2529 168.934,30.2529 166.5,26.5C 153.209,32.8662 139.543,33.8662 125.5,29.5C 123.502,31.4904 121.502,33.4904 119.5,35.5C 119.167,31.5 118.833,31.5 118.5,35.5C 118.167,35.5 117.833,35.5 117.5,35.5C 117.523,33.0733 118.023,30.74 119,28.5C 119.333,29.5 119.667,30.5 120,31.5C 120.419,28.4078 119.252,26.0744 116.5,24.5C 116.068,23.2905 115.401,22.2905 114.5,21.5C 114.672,20.5084 114.338,19.8417 113.5,19.5C 113.194,16.6146 113.527,13.9479 114.5,11.5C 117.245,9.13292 119.911,9.13292 122.5,11.5C 124.409,10.6518 126.409,10.3184 128.5,10.5C 129.077,13.6449 131.077,15.1449 134.5,15C 133.346,15.9138 133.513,16.7471 135,17.5C 136.046,15.9095 137.213,14.4095 138.5,13C 139.5,12.3333 140.5,12.3333 141.5,13C 143.246,15.2585 145.58,16.5918 148.5,17C 147.216,18.2975 147.383,19.4642 149,20.5C 151.369,20.2734 153.869,20.1067 156.5,20C 154.695,19.028 153.028,17.8613 151.5,16.5C 151.833,16.1667 152.167,15.8333 152.5,15.5C 154.179,16.782 156.013,17.782 158,18.5C 160.098,14.5158 161.765,14.8492 163,19.5C 163.995,17.8387 165.328,16.5054 167,15.5C 170.39,16.7324 170.223,17.5658 166.5,18C 167.833,18.6667 169.167,19.3333 170.5,20C 172.193,20.484 173.527,19.984 174.5,18.5 Z"/></g>
<g><path style="opacity:0.008" fill="#676477" d="M 113.5,21.5 C 113.833,21.5 114.167,21.5 114.5,21.5C 114.167,24.1667 113.833,24.1667 113.5,21.5 Z"/></g>
<g><path style="opacity:0.008" fill="#00007f" d="M 116.5,24.5 C 115.833,25.1667 115.833,25.1667 116.5,24.5 Z"/></g>
<g><path style="opacity:0.004" fill="#000000" d="M 116.5,26.5 C 117.833,27.1667 117.833,27.1667 116.5,26.5 Z"/></g>
<g><path style="opacity:0.989" fill="#f9c29f" d="M 179.5,46.5 C 178.532,49.4453 178.366,52.4453 179,55.5C 179.792,57.6437 181.292,58.977 183.5,59.5C 183.5,59.8333 183.5,60.1667 183.5,60.5C 179.851,67.4829 174.185,71.8162 166.5,73.5C 165.585,74.3279 164.919,75.3279 164.5,76.5C 166.074,77.6309 167.741,77.7975 169.5,77C 172.556,75.1444 175.556,73.3111 178.5,71.5C 175.64,77.0354 171.64,81.7021 166.5,85.5C 167.348,87.4086 167.682,89.4086 167.5,91.5C 167.135,93.588 167.135,95.9213 167.5,98.5C 165.408,102.428 162.408,105.594 158.5,108C 152.549,109.834 147.716,108.001 144,102.5C 142.156,99.3194 140.989,95.9861 140.5,92.5C 139.794,91.4427 139.461,91.7761 139.5,93.5C 138.246,91.6431 138.246,89.6431 139.5,87.5C 136.789,85.4864 134.122,83.4864 131.5,81.5C 128.841,77.9854 126.008,75.3187 123,73.5C 120.398,69.5262 118.898,65.1929 118.5,60.5C 119.833,59.1667 119.833,57.8333 118.5,56.5C 118.5,49.5 118.5,42.5 118.5,35.5C 118.833,35.5 119.167,35.5 119.5,35.5C 121.502,33.4904 123.502,31.4904 125.5,29.5C 139.543,33.8662 153.209,32.8662 166.5,26.5C 168.934,30.2529 171.101,34.2529 173,38.5C 175.001,41.3307 177.167,43.9974 179.5,46.5 Z"/></g>
<g><path style="opacity:0.999" fill="#32294e" d="M 183.5,19.5 C 188.231,26.1723 189.565,33.5057 187.5,41.5C 185.876,41.6399 184.71,40.9733 184,39.5C 182.723,34.5072 181.556,29.5072 180.5,24.5C 181.767,22.9611 182.767,21.2944 183.5,19.5 Z"/></g>
<g><path style="opacity:0.996" fill="#60456a" d="M 156.5,38.5 C 159.397,38.1253 162.063,38.6253 164.5,40C 162.344,39.3099 160.177,39.4766 158,40.5C 156.97,40.1639 156.47,39.4972 156.5,38.5 Z"/></g>
<g><path style="opacity:0.992" fill="#755672" d="M 134.5,38.5 C 136.604,38.2011 138.604,38.5344 140.5,39.5C 137.894,40.6517 135.227,40.8184 132.5,40C 133.416,39.7216 134.082,39.2216 134.5,38.5 Z"/></g>
<g><path style="opacity:0.024" fill="#ffd0af" d="M 117.5,35.5 C 117.5,42.5 117.5,49.5 117.5,56.5C 116.167,49.5 116.167,42.5 117.5,35.5 Z"/></g>
<g><path style="opacity:0.929" fill="#55bfb5" d="M 177.5,24.5 C 178.167,24.5 178.833,24.5 179.5,24.5C 179.833,24.5 180.167,24.5 180.5,24.5C 181.556,29.5072 182.723,34.5072 184,39.5C 184.71,40.9733 185.876,41.6399 187.5,41.5C 191.266,44.6282 192.766,48.6282 192,53.5C 188.79,60.5328 184.29,66.5328 178.5,71.5C 175.556,73.3111 172.556,75.1444 169.5,77C 167.741,77.7975 166.074,77.6309 164.5,76.5C 164.919,75.3279 165.585,74.3279 166.5,73.5C 174.185,71.8162 179.851,67.4829 183.5,60.5C 184.833,60.1667 184.833,59.8333 183.5,59.5C 181.292,58.977 179.792,57.6437 179,55.5C 178.366,52.4453 178.532,49.4453 179.5,46.5C 180.972,44.8825 181.639,42.8825 181.5,40.5C 180.776,34.9988 179.443,29.6655 177.5,24.5 Z"/></g>
<g><path style="opacity:0.998" fill="#4b3363" d="M 136.5,47.5 C 137.5,47.5 138.5,47.5 139.5,47.5C 139.5,49.5 139.5,51.5 139.5,53.5C 135.556,53.1156 134.556,51.1156 136.5,47.5 Z"/></g>
<g><path style="opacity:0.997" fill="#402b60" d="M 159.5,47.5 C 162.513,48.3559 163.18,50.1892 161.5,53C 160.552,53.4828 159.552,53.6495 158.5,53.5C 158.325,51.3792 158.659,49.3792 159.5,47.5 Z"/></g>
<g><path style="opacity:0.024" fill="#ffd6bb" d="M 117.5,56.5 C 117.833,56.5 118.167,56.5 118.5,56.5C 118.5,57.8333 118.5,59.1667 118.5,60.5C 117.566,59.4324 117.232,58.099 117.5,56.5 Z"/></g>
<g><path style="opacity:0.997" fill="#fdfaf8" d="M 154.5,66.5 C 155.833,66.5 157.167,66.5 158.5,66.5C 156.846,74.5046 152.179,76.6712 144.5,73C 142.845,71.5557 142.178,69.7224 142.5,67.5C 146.702,67.8168 150.702,67.4834 154.5,66.5 Z"/></g>
<g><path style="opacity:0.004" fill="#fefffe" d="M 40.5,79.5 C 41.8333,80.1667 41.8333,80.1667 40.5,79.5 Z"/></g>
<g><path style="opacity:0.936" fill="#fbc29e" d="M 50.5,85.5 C 51.5646,91.7691 53.2313,97.7691 55.5,103.5C 55.523,105.927 56.023,108.26 57,110.5C 57.4986,106.848 57.6653,103.182 57.5,99.5C 60.7243,97.7496 62.5576,98.7496 63,102.5C 64.2436,111.964 64.7436,121.298 64.5,130.5C 64.767,132.965 65.4336,135.299 66.5,137.5C 60.4382,140.366 54.4382,143.533 48.5,147C 46.5643,147.813 44.5643,148.313 42.5,148.5C 42.7373,147.209 42.404,146.209 41.5,145.5C 41.6716,144.508 41.3382,143.842 40.5,143.5C 40.7373,142.209 40.404,141.209 39.5,140.5C 39.7373,139.209 39.404,138.209 38.5,137.5C 38.1667,134.833 37.8333,134.833 37.5,137.5C 35.9261,135.898 35.2594,133.898 35.5,131.5C 36.8333,130.5 36.8333,129.5 35.5,128.5C 35.1667,124.5 34.8333,124.5 34.5,128.5C 32.9605,126.162 32.2938,123.495 32.5,120.5C 33.8333,119.5 33.8333,118.5 32.5,117.5C 32.7678,115.901 32.4345,114.568 31.5,113.5C 31.7947,111.265 31.4614,109.265 30.5,107.5C 29.945,100.296 30.7783,93.2962 33,86.5C 33.3333,88.5 33.6667,90.5 34,92.5C 34.3007,89.0258 35.134,85.6925 36.5,82.5C 40.3721,80.5391 42.8721,81.5391 44,85.5C 44.3333,84.5 44.6667,83.5 45,82.5C 46.4619,84.1482 48.2953,85.1482 50.5,85.5 Z M 57.5,99.5 C 57.6653,103.182 57.4986,106.848 57,110.5C 56.023,108.26 55.523,105.927 55.5,103.5C 56.1667,102.167 56.8333,100.833 57.5,99.5 Z"/></g>
<g><path style="opacity:0.004" fill="#fefffe" d="M 131.5,81.5 C 130.833,82.1667 130.833,82.1667 131.5,81.5 Z"/></g>
<g><path style="opacity:0.004" fill="#fefffe" d="M 46.5,83.5 C 46.8966,82.475 47.5632,82.3083 48.5,83C 47.9056,83.4643 47.2389,83.631 46.5,83.5 Z"/></g>
<g><path style="opacity:0.004" fill="#fefffe" d="M 51.5,85.5 C 50.8333,84.1667 50.8333,84.1667 51.5,85.5 Z"/></g>
<g><path style="opacity:0.008" fill="#fffea0" d="M 51.5,85.5 C 52.5735,86.2506 52.7401,87.2506 52,88.5C 51.5172,87.552 51.3505,86.552 51.5,85.5 Z"/></g>
<g><path style="opacity:0.012" fill="#ffc79d" d="M 52.5,89.5 C 53.525,89.8966 53.6917,90.5632 53,91.5C 52.5357,90.9056 52.369,90.2389 52.5,89.5 Z"/></g>
<g><path style="opacity:0.008" fill="#ffeaab" d="M 53.5,92.5 C 54.5735,93.2506 54.7401,94.2506 54,95.5C 53.5172,94.552 53.3505,93.552 53.5,92.5 Z"/></g>
<g><path style="opacity:0.008" fill="#feff7e" d="M 54.5,96.5 C 55.525,96.8966 55.6917,97.5632 55,98.5C 54.5357,97.9056 54.369,97.2389 54.5,96.5 Z"/></g>
<g><path style="opacity:0.008" fill="#fffeab" d="M 63.5,99.5 C 64.525,99.8966 64.6917,100.563 64,101.5C 63.5357,100.906 63.369,100.239 63.5,99.5 Z"/></g>
<g><path style="opacity:0.999" fill="#fcfbfc" d="M 140.5,92.5 C 140.989,95.9861 142.156,99.3194 144,102.5C 147.716,108.001 152.549,109.834 158.5,108C 162.408,105.594 165.408,102.428 167.5,98.5C 171.546,131.362 173.879,164.362 174.5,197.5C 166.527,195.285 158.527,193.285 150.5,191.5C 145.903,191.479 141.57,192.479 137.5,194.5C 137.905,160.815 138.905,127.148 140.5,93.5C 140.5,93.1667 140.5,92.8333 140.5,92.5 Z"/></g>
<g><path style="opacity:0.008" fill="#fffe95" d="M 64.5,102.5 C 65.6129,103.946 65.7796,105.613 65,107.5C 64.5065,105.866 64.3398,104.199 64.5,102.5 Z"/></g>
<g><path style="opacity:1" fill="#8e72b0" d="M 167.5,91.5 C 169.279,93.5465 170.946,95.7131 172.5,98C 184.485,101.824 196.151,106.491 207.5,112C 221.026,121.226 232.192,132.726 241,146.5C 248.595,157.248 255.095,168.582 260.5,180.5C 260.5,186.167 260.5,191.833 260.5,197.5C 259.781,199.091 258.781,200.591 257.5,202C 258.345,203.558 257.679,204.558 255.5,205C 255.833,205.333 256.167,205.667 256.5,206C 254.176,207.65 252.509,209.15 251.5,210.5C 251.167,209.167 250.833,209.167 250.5,210.5C 249.833,210.5 249.5,210.833 249.5,211.5C 248.508,211.328 247.842,211.662 247.5,212.5C 246.167,212.833 246.167,213.167 247.5,213.5C 247.158,214.338 246.492,214.672 245.5,214.5C 244.833,213.167 244.167,213.167 243.5,214.5C 240.833,214.833 240.833,215.167 243.5,215.5C 241.485,216.924 239.152,217.59 236.5,217.5C 220.342,216.504 204.009,216.17 187.5,216.5C 186.793,210.34 185.46,204.34 183.5,198.5C 180.287,198.81 177.287,198.477 174.5,197.5C 173.879,164.362 171.546,131.362 167.5,98.5C 167.135,95.9213 167.135,93.588 167.5,91.5 Z M 214.5,170.5 C 215.338,170.842 215.672,171.508 215.5,172.5C 214.833,172.5 214.5,172.833 214.5,173.5C 213.375,172.652 213.375,171.652 214.5,170.5 Z M 214.5,173.5 C 214.833,173.5 215.167,173.5 215.5,173.5C 215.328,174.492 215.662,175.158 216.5,175.5C 216.5,176.167 216.833,176.5 217.5,176.5C 217.328,177.492 217.662,178.158 218.5,178.5C 218.5,179.167 218.833,179.5 219.5,179.5C 219.932,180.71 220.599,181.71 221.5,182.5C 221.5,183.167 221.833,183.5 222.5,183.5C 222.833,184.5 223.5,185.167 224.5,185.5C 221.746,186.946 218.746,187.946 215.5,188.5C 214.746,183.537 214.413,178.537 214.5,173.5 Z"/></g>
<g><path style="opacity:0.02" fill="#ffd1ae" d="M 30.5,107.5 C 30.5,109.5 30.5,111.5 30.5,113.5C 28.5558,106.75 28.0558,99.7495 29,92.5C 29.1739,97.6835 29.6739,102.684 30.5,107.5 Z"/></g>
<g><path style="opacity:0.008" fill="#fffeb0" d="M 65.5,109.5 C 66.6433,112.976 66.8099,116.642 66,120.5C 65.5014,116.848 65.3347,113.182 65.5,109.5 Z"/></g>
<g><path style="opacity:0.948" fill="#8e71af" d="M 139.5,93.5 C 139.833,93.5 140.167,93.5 140.5,93.5C 138.905,127.148 137.905,160.815 137.5,194.5C 133.427,195.955 129.927,198.288 127,201.5C 126.55,205.188 126.717,208.854 127.5,212.5C 128.791,212.263 129.791,212.596 130.5,213.5C 123.646,213.824 116.979,213.491 110.5,212.5C 110.463,206.465 109.963,200.465 109,194.5C 108.667,197.167 108.333,199.833 108,202.5C 106.682,194.717 106.182,187.05 106.5,179.5C 107.338,179.158 107.672,178.492 107.5,177.5C 107.651,165.806 107.151,154.139 106,142.5C 105.226,146.147 104.559,149.814 104,153.5C 102.933,154.191 101.766,154.691 100.5,155C 101.167,155.333 101.833,155.667 102.5,156C 101.289,157.113 101.289,158.28 102.5,159.5C 101.675,160.386 100.675,160.719 99.5,160.5C 99.67,161.822 99.3366,162.989 98.5,164C 100.547,165.622 101.547,167.788 101.5,170.5C 100.451,172.852 99.1181,175.019 97.5,177C 97.4393,178.711 98.1059,180.044 99.5,181C 98.3279,181.419 97.3279,182.085 96.5,183C 97.5,184.667 98.8333,186 100.5,187C 97.9296,188.349 97.9296,189.516 100.5,190.5C 100.167,191.833 99.8333,193.167 99.5,194.5C 98.5041,194.586 97.6708,194.252 97,193.5C 91.7912,181.037 87.2912,168.371 83.5,155.5C 83.1539,153.247 83.6539,150.913 85,148.5C 85.3333,149.167 85.6667,149.833 86,150.5C 89.9895,141.18 94.9895,132.513 101,124.5C 105.701,120.134 110.034,115.467 114,110.5C 114.333,110.833 114.667,111.167 115,111.5C 117.328,110.514 119.328,108.514 121,105.5C 122,105.5 123,105.5 124,105.5C 124.915,104.672 125.581,103.672 126,102.5C 126.333,102.833 126.667,103.167 127,103.5C 127.667,102.167 128.667,101.167 130,100.5C 131,100.5 132,100.5 133,100.5C 133.915,99.6721 134.581,98.6721 135,97.5C 135.914,98.6537 136.747,98.487 137.5,97C 136.167,95.1598 136.334,94.6598 138,95.5C 138.717,94.9558 139.217,94.2891 139.5,93.5 Z"/></g>
<g><path style="opacity:0.02" fill="#ffd19b" d="M 30.5,113.5 C 30.8333,113.5 31.1667,113.5 31.5,113.5C 31.5,114.833 31.5,116.167 31.5,117.5C 30.5655,116.432 30.2322,115.099 30.5,113.5 Z"/></g>
<g><path style="opacity:0.024" fill="#ffbfaa" d="M 31.5,117.5 C 31.8333,117.5 32.1667,117.5 32.5,117.5C 32.5,118.5 32.5,119.5 32.5,120.5C 31.596,119.791 31.2627,118.791 31.5,117.5 Z"/></g>
<g><path style="opacity:0.008" fill="#ffed92" d="M 65.5,130.5 C 65.1667,130.5 64.8333,130.5 64.5,130.5C 64.8333,118.5 65.1667,118.5 65.5,130.5 Z"/></g>
<g><path style="opacity:0.02" fill="#ffd097" d="M 34.5,128.5 C 34.8333,128.5 35.1667,128.5 35.5,128.5C 35.5,129.5 35.5,130.5 35.5,131.5C 34.596,130.791 34.2627,129.791 34.5,128.5 Z"/></g>
<g><path style="opacity:0.008" fill="#fffeab" d="M 65.5,130.5 C 66.525,130.897 66.6917,131.563 66,132.5C 65.5357,131.906 65.369,131.239 65.5,130.5 Z"/></g>
<g><path style="opacity:0.008" fill="#fffeab" d="M 66.5,133.5 C 67.525,133.897 67.6917,134.563 67,135.5C 66.5357,134.906 66.369,134.239 66.5,133.5 Z"/></g>
<g><path style="opacity:0.004" fill="#ff47d4" d="M 67.5,138.5 C 67.369,137.761 67.5357,137.094 68,136.5C 68.6917,137.437 68.525,138.103 67.5,138.5 Z"/></g>
<g><path style="opacity:0.02" fill="#ffbba1" d="M 37.5,137.5 C 37.8333,137.5 38.1667,137.5 38.5,137.5C 38.5,138.5 38.5,139.5 38.5,140.5C 37.596,139.791 37.2627,138.791 37.5,137.5 Z"/></g>
<g><path style="opacity:0.947" fill="#9074b0" d="M 66.5,137.5 C 66.5,138.167 66.8333,138.5 67.5,138.5C 67.7329,141.542 68.7329,144.208 70.5,146.5C 70.4326,147.959 70.7659,149.292 71.5,150.5C 61.1667,150.5 50.8333,150.5 40.5,150.5C 40.5,148.833 40.5,147.167 40.5,145.5C 40.8333,145.5 41.1667,145.5 41.5,145.5C 41.2627,146.791 41.596,147.791 42.5,148.5C 44.5643,148.313 46.5643,147.813 48.5,147C 54.4382,143.533 60.4382,140.366 66.5,137.5 Z"/></g>
<g><path style="opacity:0.008" fill="#7e7f7e" d="M 68.5,139.5 C 69.8333,140.167 69.8333,140.167 68.5,139.5 Z"/></g>
<g><path style="opacity:0.016" fill="#ffa07f" d="M 38.5,140.5 C 38.8333,140.5 39.1667,140.5 39.5,140.5C 39.5,141.5 39.5,142.5 39.5,143.5C 38.596,142.791 38.2627,141.791 38.5,140.5 Z"/></g>
<g><path style="opacity:0.016" fill="#ffb88d" d="M 39.5,143.5 C 39.8333,143.5 40.1667,143.5 40.5,143.5C 40.5,144.167 40.5,144.833 40.5,145.5C 39.6618,145.158 39.3284,144.492 39.5,143.5 Z"/></g>
<g><path style="opacity:0.004" fill="#fe00ff" d="M 70.5,146.5 C 70.369,145.761 70.5357,145.094 71,144.5C 71.6917,145.437 71.525,146.103 70.5,146.5 Z"/></g>
<g><path style="opacity:0.004" fill="#fe00ff" d="M 71.5,147.5 C 72.8333,148.167 72.8333,148.167 71.5,147.5 Z"/></g>
<g><path style="opacity:0.963" fill="#7b5ba0" d="M 214.5,169.5 C 213.167,169.833 213.167,170.167 214.5,170.5C 213.375,171.652 213.375,172.652 214.5,173.5C 214.413,178.537 214.746,183.537 215.5,188.5C 214.082,190.708 212.082,191.542 209.5,191C 212.167,190.333 212.167,189.667 209.5,189C 210.451,188.282 210.617,187.449 210,186.5C 209.346,187.696 208.846,187.696 208.5,186.5C 209.025,185.808 209.692,185.308 210.5,185C 208.341,182.273 206.007,179.606 203.5,177C 204.328,176.085 205.328,175.419 206.5,175C 205.552,174.517 204.552,174.351 203.5,174.5C 203.739,172.533 203.406,170.699 202.5,169C 204.554,167.318 204.221,165.651 201.5,164C 201.985,161.32 202.318,158.653 202.5,156C 200.578,154.54 199.911,152.873 200.5,151C 199.833,150.667 199.167,150.333 198.5,150C 199.428,149.612 200.095,148.945 200.5,148C 199.67,146.535 199.504,145.035 200,143.5C 204.578,152.323 209.411,160.99 214.5,169.5 Z"/></g>
<g><path style="opacity:1" fill="#e7e3e3" d="M 40.5,150.5 C 50.8333,150.5 61.1667,150.5 71.5,150.5C 77.2784,148.031 81.2784,149.698 83.5,155.5C 87.2912,168.371 91.7912,181.037 97,193.5C 97.6708,194.252 98.5041,194.586 99.5,194.5C 101.095,200.283 103.095,205.949 105.5,211.5C 107.045,212.452 108.712,212.785 110.5,212.5C 116.979,213.491 123.646,213.824 130.5,213.5C 135.828,212.852 141.162,212.685 146.5,213C 148.727,213.941 150.727,215.108 152.5,216.5C 112.161,216.833 71.8278,216.5 31.5,215.5C 31.0057,213.974 30.339,212.641 29.5,211.5C 29.1667,208.833 28.8333,208.833 28.5,211.5C 26.7073,209.574 25.7073,207.241 25.5,204.5C 26.8333,203.5 26.8333,202.5 25.5,201.5C 25.6716,200.508 25.3382,199.842 24.5,199.5C 24.7373,198.209 24.404,197.209 23.5,196.5C 23.6716,195.508 23.3382,194.842 22.5,194.5C 22.405,192.214 21.7384,190.214 20.5,188.5C 20.2041,186.597 19.5375,184.93 18.5,183.5C 18.6716,182.508 18.3382,181.842 17.5,181.5C 17.6716,180.508 17.3382,179.842 16.5,179.5C 16.7373,178.209 16.404,177.209 15.5,176.5C 15.6716,175.508 15.3382,174.842 14.5,174.5C 14.7373,173.209 14.404,172.209 13.5,171.5C 13.7373,170.209 13.404,169.209 12.5,168.5C 12.2041,166.597 11.5375,164.93 10.5,163.5C 9.87096,160.603 8.87096,157.936 7.5,155.5C 7.67158,154.508 7.33825,153.842 6.5,153.5C 7.02832,152.279 7.69499,151.113 8.5,150C 19.2432,149.192 29.9099,149.358 40.5,150.5 Z"/></g>
<g><path style="opacity:0.02" fill="#ffdddc" d="M 6.5,153.5 C 6.5,154.167 6.5,154.833 6.5,155.5C 5.16667,154.833 5.16667,154.167 6.5,153.5 Z"/></g>
<g><path style="opacity:0.02" fill="#ffe5e5" d="M 6.5,155.5 C 6.83333,155.5 7.16667,155.5 7.5,155.5C 7.16667,159.5 6.83333,159.5 6.5,155.5 Z"/></g>
<g><path style="opacity:0.963" fill="#7c5ba1" d="M 107.5,177.5 C 106.662,177.842 106.328,178.508 106.5,179.5C 104.769,183.295 102.769,186.962 100.5,190.5C 97.9296,189.516 97.9296,188.349 100.5,187C 98.8333,186 97.5,184.667 96.5,183C 97.3279,182.085 98.3279,181.419 99.5,181C 98.1059,180.044 97.4393,178.711 97.5,177C 99.1181,175.019 100.451,172.852 101.5,170.5C 101.547,167.788 100.547,165.622 98.5,164C 99.3366,162.989 99.67,161.822 99.5,160.5C 100.675,160.719 101.675,160.386 102.5,159.5C 101.289,158.28 101.289,157.113 102.5,156C 101.833,155.667 101.167,155.333 100.5,155C 101.766,154.691 102.933,154.191 104,153.5C 104.559,149.814 105.226,146.147 106,142.5C 107.151,154.139 107.651,165.806 107.5,177.5 Z"/></g>
<g><path style="opacity:0.012" fill="#f4f4f4" d="M 10.5,163.5 C 10.6495,164.552 10.4828,165.552 10,166.5C 9.25988,165.251 9.42654,164.251 10.5,163.5 Z"/></g>
<g><path style="opacity:0.012" fill="#fff2f2" d="M 12.5,168.5 C 12.5,169.5 12.5,170.5 12.5,171.5C 11.1667,170.5 11.1667,169.5 12.5,168.5 Z"/></g>
<g><path style="opacity:0.008" fill="#fff4f4" d="M 12.5,171.5 C 12.8333,171.5 13.1667,171.5 13.5,171.5C 13.5,172.5 13.5,173.5 13.5,174.5C 12.596,173.791 12.2627,172.791 12.5,171.5 Z"/></g>
<g><path style="opacity:0.004" fill="#ededed" d="M 13.5,174.5 C 13.8333,174.5 14.1667,174.5 14.5,174.5C 14.5,175.167 14.5,175.833 14.5,176.5C 13.6618,176.158 13.3284,175.492 13.5,174.5 Z"/></g>
<g><path style="opacity:0.008" fill="#f4f4f4" d="M 14.5,176.5 C 14.8333,176.5 15.1667,176.5 15.5,176.5C 15.5,177.5 15.5,178.5 15.5,179.5C 14.596,178.791 14.2627,177.791 14.5,176.5 Z"/></g>
<g><path style="opacity:0.004" fill="#ededed" d="M 15.5,179.5 C 15.8333,179.5 16.1667,179.5 16.5,179.5C 16.5,180.167 16.5,180.833 16.5,181.5C 15.6618,181.158 15.3284,180.492 15.5,179.5 Z"/></g>
<g><path style="opacity:0.009" fill="#fff7f7" d="M 16.5,181.5 C 16.8333,181.5 17.1667,181.5 17.5,181.5C 17.3284,182.492 17.6618,183.158 18.5,183.5C 18.6495,184.552 18.4828,185.552 18,186.5C 16.9914,184.975 16.4914,183.308 16.5,181.5 Z"/></g>
<g><path style="opacity:0.02" fill="#ffe5e5" d="M 20.5,188.5 C 20.6495,189.552 20.4828,190.552 20,191.5C 19.2599,190.251 19.4265,189.251 20.5,188.5 Z"/></g>
<g><path style="opacity:0.997" fill="#fac19e" d="M 174.5,197.5 C 177.287,198.477 180.287,198.81 183.5,198.5C 185.46,204.34 186.793,210.34 187.5,216.5C 175.833,216.5 164.167,216.5 152.5,216.5C 150.727,215.108 148.727,213.941 146.5,213C 141.162,212.685 135.828,212.852 130.5,213.5C 129.791,212.596 128.791,212.263 127.5,212.5C 126.717,208.854 126.55,205.188 127,201.5C 129.927,198.288 133.427,195.955 137.5,194.5C 141.57,192.479 145.903,191.479 150.5,191.5C 158.527,193.285 166.527,195.285 174.5,197.5 Z"/></g>
<g><path style="opacity:0.012" fill="#ffe9e9" d="M 22.5,194.5 C 22.5,195.167 22.5,195.833 22.5,196.5C 21.1667,195.833 21.1667,195.167 22.5,194.5 Z"/></g>
<g><path style="opacity:0.01" fill="#f4f4f4" d="M 22.5,196.5 C 22.8333,196.5 23.1667,196.5 23.5,196.5C 23.5,197.5 23.5,198.5 23.5,199.5C 22.596,198.791 22.2627,197.791 22.5,196.5 Z"/></g>
<g><path style="opacity:0.008" fill="#ffeded" d="M 23.5,199.5 C 23.8333,199.5 24.1667,199.5 24.5,199.5C 24.5,200.167 24.5,200.833 24.5,201.5C 23.6618,201.158 23.3284,200.492 23.5,199.5 Z"/></g>
<g><path style="opacity:0.016" fill="#ffdfde" d="M 24.5,201.5 C 24.8333,201.5 25.1667,201.5 25.5,201.5C 25.5,202.5 25.5,203.5 25.5,204.5C 24.596,203.791 24.2627,202.791 24.5,201.5 Z"/></g>
<g><path style="opacity:0.012" fill="#a955aa" d="M 250.5,210.5 C 250.833,210.5 251.167,210.5 251.5,210.5C 251.315,211.17 250.981,211.17 250.5,210.5 Z"/></g>
<g><path style="opacity:0.012" fill="#a955aa" d="M 249.5,211.5 C 249.833,211.5 250.167,211.5 250.5,211.5C 250.315,212.17 249.981,212.17 249.5,211.5 Z"/></g>
<g><path style="opacity:0.02" fill="#ffe5e5" d="M 28.5,211.5 C 28.8333,211.5 29.1667,211.5 29.5,211.5C 29.1667,215.5 28.8333,215.5 28.5,211.5 Z"/></g>
<g><path style="opacity:0.008" fill="#807e94" d="M 247.5,213.5 C 247.5,213.167 247.5,212.833 247.5,212.5C 248.167,212.5 248.833,212.5 249.5,212.5C 249.158,213.338 248.492,213.672 247.5,213.5 Z"/></g>
<g><path style="opacity:0.012" fill="#a45ba4" d="M 243.5,215.5 C 243.5,215.167 243.5,214.833 243.5,214.5C 244.167,214.5 244.833,214.5 245.5,214.5C 245.158,215.338 244.492,215.672 243.5,215.5 Z"/></g>
<g><path style="opacity:0.02" fill="#c78fc6" d="M 31.5,218.5 C 99.6646,217.501 167.998,217.167 236.5,217.5C 236.5,217.833 236.5,218.167 236.5,218.5C 168.167,218.5 99.8333,218.5 31.5,218.5 Z"/></g>
</svg>
