<?xml version="1.0" encoding="UTF-8"?>
<!DOCTYPE svg PUBLIC "-//W3C//DTD SVG 1.1//EN" "http://www.w3.org/Graphics/SVG/1.1/DTD/svg11.dtd">
<svg xmlns="http://www.w3.org/2000/svg" version="1.1" width="235px" height="219px" style="shape-rendering:geometricPrecision; text-rendering:geometricPrecision; image-rendering:optimizeQuality; fill-rule:evenodd; clip-rule:evenodd" xmlns:xlink="http://www.w3.org/1999/xlink">
<g><path style="opacity:0.979" fill="#fe6600" d="M 102.5,-0.5 C 105.167,-0.5 107.833,-0.5 110.5,-0.5C 117.167,0.833333 123.833,0.833333 130.5,-0.5C 133.5,-0.5 136.5,-0.5 139.5,-0.5C 142.258,0.760546 145.258,1.59388 148.5,2C 147.167,2.33333 145.833,2.66667 144.5,3C 149.265,4.19938 153.931,5.69938 158.5,7.5C 159.768,6.57211 161.101,6.40544 162.5,7C 160.205,7.9836 160.539,8.81694 163.5,9.5C 164.167,9.16667 164.833,8.83333 165.5,8.5C 167.833,9.66667 170.167,10.8333 172.5,12C 171.167,12.6667 171.167,13.3333 172.5,14C 174.055,15.6458 175.721,15.9791 177.5,15C 177.167,15.3333 176.833,15.6667 176.5,16C 178.316,17.9414 180.316,18.6081 182.5,18C 182.381,19.2812 182.881,20.4479 184,21.5C 185.84,20.1669 186.34,20.3335 185.5,22C 199.416,32.4414 210.749,46.9414 219.5,65.5C 219.328,66.4916 219.662,67.1583 220.5,67.5C 221.031,70.237 221.864,72.9036 223,75.5C 223.333,74.5 223.667,73.5 224,72.5C 225.654,75.4372 225.821,78.4372 224.5,81.5C 225.411,86.6565 226.411,91.6565 227.5,96.5C 227.5,103.833 227.5,111.167 227.5,118.5C 226.532,120.607 226.198,122.941 226.5,125.5C 225.566,126.568 225.232,127.901 225.5,129.5C 224.549,130.919 224.216,132.585 224.5,134.5C 223.596,135.209 223.263,136.209 223.5,137.5C 222.596,138.209 222.263,139.209 222.5,140.5C 221.596,141.209 221.263,142.209 221.5,143.5C 220.596,144.209 220.263,145.209 220.5,146.5C 219.662,146.842 219.328,147.508 219.5,148.5C 218.662,148.842 218.328,149.508 218.5,150.5C 217.596,151.209 217.263,152.209 217.5,153.5C 216.662,153.842 216.328,154.508 216.5,155.5C 215.833,155.5 215.5,155.833 215.5,156.5C 214.662,156.842 214.328,157.508 214.5,158.5C 213.662,158.842 213.328,159.508 213.5,160.5C 212.662,160.842 212.328,161.508 212.5,162.5C 211.833,162.5 211.5,162.833 211.5,163.5C 210.662,163.842 210.328,164.508 210.5,165.5C 209.167,165.833 209.167,166.167 210.5,166.5C 210.672,167.492 210.338,168.158 209.5,168.5C 209.167,167.167 208.833,167.167 208.5,168.5C 207.167,168.833 207.167,169.167 208.5,169.5C 208.573,171.027 207.906,172.027 206.5,172.5C 206.167,171.167 205.833,171.167 205.5,172.5C 204.833,172.5 204.5,172.833 204.5,173.5C 203.167,173.833 203.167,174.167 204.5,174.5C 204.573,176.027 203.906,177.027 202.5,177.5C 202.167,176.167 201.833,176.167 201.5,177.5C 200.833,177.5 200.5,177.833 200.5,178.5C 199.833,178.5 199.5,178.833 199.5,179.5C 198.833,179.5 198.5,179.833 198.5,180.5C 197.833,180.5 197.5,180.833 197.5,181.5C 196.833,181.5 196.5,181.833 196.5,182.5C 195.833,182.5 195.5,182.833 195.5,183.5C 194.833,183.5 194.5,183.833 194.5,184.5C 193.833,184.5 193.5,184.833 193.5,185.5C 192.833,185.5 192.5,185.833 192.5,186.5C 191.833,186.5 191.5,186.833 191.5,187.5C 190.167,187.833 190.167,188.167 191.5,188.5C 191.158,189.338 190.492,189.672 189.5,189.5C 189.167,188.167 188.833,188.167 188.5,189.5C 187.833,189.5 187.5,189.833 187.5,190.5C 186.167,190.833 186.167,191.167 187.5,191.5C 187.027,192.906 186.027,193.573 184.5,193.5C 184.167,192.167 183.833,192.167 183.5,193.5C 182.167,193.833 182.167,194.167 183.5,194.5C 183.158,195.338 182.492,195.672 181.5,195.5C 181.167,194.167 180.833,194.167 180.5,195.5C 179.167,195.833 179.167,196.167 180.5,196.5C 180.158,197.338 179.492,197.672 178.5,197.5C 178.167,196.167 177.833,196.167 177.5,197.5C 176.167,197.833 176.167,198.167 177.5,198.5C 175.337,200.083 173.004,201.416 170.5,202.5C 169.833,201.167 169.167,201.167 168.5,202.5C 167.508,202.328 166.842,202.662 166.5,203.5C 165.508,203.328 164.842,203.662 164.5,204.5C 161.833,204.833 161.833,205.167 164.5,205.5C 163.791,206.404 162.791,206.737 161.5,206.5C 160.833,205.167 160.167,205.167 159.5,206.5C 158.508,206.328 157.842,206.662 157.5,207.5C 156.209,207.263 155.209,207.596 154.5,208.5C 150.5,208.833 150.5,209.167 154.5,209.5C 133.462,216.876 112.129,217.376 90.5,211C 91.5,210.667 92.5,210.333 93.5,210C 91.0413,208.503 88.5413,208.336 86,209.5C 84.2382,209.056 84.4049,208.556 86.5,208C 81.594,205.345 76.594,203.679 71.5,203C 72.8333,202.333 72.8333,201.667 71.5,201C 65.0006,197.311 58.6672,193.478 52.5,189.5C 17.7919,157.853 6.62522,119.186 19,73.5C 28.9558,46.9887 45.4558,27.1554 68.5,14C 67.6598,12.3335 68.1598,12.1669 70,13.5C 72.087,12.2062 74.2537,11.0395 76.5,10C 75.8333,9.66667 75.1667,9.33333 74.5,9C 77.3681,7.08394 80.3681,6.58394 83.5,7.5C 91.8493,4.07935 100.516,1.91268 109.5,1C 106.964,0.813823 104.631,0.313823 102.5,-0.5 Z M 149.5,84.5 C 149.737,85.791 149.404,86.791 148.5,87.5C 148.672,88.4916 148.338,89.1583 147.5,89.5C 147.672,90.4916 147.338,91.1583 146.5,91.5C 146.262,93.4044 145.262,94.7377 143.5,95.5C 142.922,94.453 142.256,94.6197 141.5,96C 141.728,96.3988 142.062,96.5654 142.5,96.5C 141.5,98.1667 140.167,99.5 138.5,100.5C 126.285,108.808 114.285,108.475 102.5,99.5C 101.167,97.5 99.5,95.8333 97.5,94.5C 97.6716,93.5084 97.3382,92.8417 96.5,92.5C 96.5,91.8333 96.1667,91.5 95.5,91.5C 95.6716,90.5084 95.3382,89.8417 94.5,89.5C 94.6716,88.5084 94.3382,87.8417 93.5,87.5C 93.7373,86.209 93.404,85.209 92.5,84.5C 92.7678,82.901 92.4345,81.5676 91.5,80.5C 91.5401,75.8075 91.8734,71.1408 92.5,66.5C 94.1666,62.3469 96.4999,58.5136 99.5,55C 99.2716,54.6012 98.9382,54.4346 98.5,54.5C 110.03,43.4123 123.03,41.5789 137.5,49C 149.826,58.1449 153.826,69.9782 149.5,84.5 Z M 140.5,122.5 C 141.492,122.328 142.158,122.662 142.5,123.5C 143.492,123.328 144.158,123.662 144.5,124.5C 145.492,124.328 146.158,124.662 146.5,125.5C 147.492,125.328 148.158,125.662 148.5,126.5C 147.453,127.078 147.62,127.744 149,128.5C 149.399,128.272 149.565,127.938 149.5,127.5C 150.492,127.328 151.158,127.662 151.5,128.5C 151.062,128.435 150.728,128.601 150.5,129C 151.333,129.833 152.167,130.667 153,131.5C 153.399,131.272 153.565,130.938 153.5,130.5C 156.404,131.614 158.404,133.614 159.5,136.5C 159.062,136.435 158.728,136.601 158.5,137C 159.333,137.833 160.167,138.667 161,139.5C 161.399,139.272 161.565,138.938 161.5,138.5C 162.906,138.973 163.573,139.973 163.5,141.5C 164.906,141.973 165.573,142.973 165.5,144.5C 164.957,144.56 164.624,144.893 164.5,145.5C 165.333,147.167 166.167,148.833 167,150.5C 167.464,149.906 167.631,149.239 167.5,148.5C 168.931,149.78 169.598,151.447 169.5,153.5C 172.285,159.787 173.118,166.453 172,173.5C 145.796,192.128 117.629,195.628 87.5,184C 81.0077,181.257 75.0077,177.757 69.5,173.5C 68.1923,169.685 68.1923,166.019 69.5,162.5C 69.335,165.85 69.5017,169.183 70,172.5C 70.3324,165.341 71.4991,158.341 73.5,151.5C 74.404,150.791 74.7373,149.791 74.5,148.5C 75.3382,148.158 75.6716,147.492 75.5,146.5C 76.3382,146.158 76.6716,145.492 76.5,144.5C 77.9744,143.564 78.9744,142.23 79.5,140.5C 80.3382,140.158 80.6716,139.492 80.5,138.5C 83.5,136.167 86.1667,133.5 88.5,130.5C 89.7095,130.068 90.7095,129.401 91.5,128.5C 92.1667,128.5 92.5,128.167 92.5,127.5C 93.6779,126.338 94.8446,125.338 96,124.5C 97.016,125.634 97.6827,125.301 98,123.5C 99.016,124.634 99.6827,124.301 100,122.5C 101.84,123.833 102.34,123.666 101.5,122C 114.698,117.184 127.698,117.351 140.5,122.5 Z"/></g>
<g><path style="opacity:0.02" fill="#ff5800" d="M 220.5,67.5 C 220.672,66.5084 220.338,65.8417 219.5,65.5C 219.234,63.6526 219.568,62.986 220.5,63.5C 221.705,64.9948 221.705,66.3281 220.5,67.5 Z"/></g>
<g><path style="opacity:0.02" fill="#ff6500" d="M 228.5,118.5 C 228.825,110.981 228.492,103.648 227.5,96.5C 227.337,94.1432 227.503,91.8098 228,89.5C 229.669,99.2955 229.836,108.962 228.5,118.5 Z"/></g>
<g><path style="opacity:0.027" fill="#ff6600" d="M 227.5,118.5 C 227.833,118.5 228.167,118.5 228.5,118.5C 228.802,121.059 228.468,123.393 227.5,125.5C 227.5,123.167 227.5,120.833 227.5,118.5 Z"/></g>
<g><path style="opacity:0.027" fill="#ff6100" d="M 226.5,125.5 C 226.833,125.5 227.167,125.5 227.5,125.5C 227.58,128.781 226.913,131.781 225.5,134.5C 225.5,132.833 225.5,131.167 225.5,129.5C 226.434,128.432 226.768,127.099 226.5,125.5 Z"/></g>
<g><path style="opacity:0.02" fill="#fe6e00" d="M 224.5,134.5 C 224.833,134.5 225.167,134.5 225.5,134.5C 225.737,135.791 225.404,136.791 224.5,137.5C 224.5,136.5 224.5,135.5 224.5,134.5 Z"/></g>
<g><path style="opacity:0.02" fill="#ff6100" d="M 223.5,137.5 C 223.833,137.5 224.167,137.5 224.5,137.5C 224.737,138.791 224.404,139.791 223.5,140.5C 223.5,139.5 223.5,138.5 223.5,137.5 Z"/></g>
<g><path style="opacity:0.02" fill="#ff6800" d="M 222.5,140.5 C 222.833,140.5 223.167,140.5 223.5,140.5C 223.737,141.791 223.404,142.791 222.5,143.5C 222.5,142.5 222.5,141.5 222.5,140.5 Z"/></g>
<g><path style="opacity:0.016" fill="#ff65ff" d="M 221.5,143.5 C 221.833,143.5 222.167,143.5 222.5,143.5C 222.737,144.791 222.404,145.791 221.5,146.5C 221.5,145.5 221.5,144.5 221.5,143.5 Z"/></g>
<g><path style="opacity:0.008" fill="#ff7200" d="M 220.5,146.5 C 220.833,146.5 221.167,146.5 221.5,146.5C 221.672,147.492 221.338,148.158 220.5,148.5C 220.5,147.833 220.5,147.167 220.5,146.5 Z"/></g>
<g><path style="opacity:0.02" fill="#ff5cff" d="M 219.5,148.5 C 219.833,148.5 220.167,148.5 220.5,148.5C 220.598,150.553 219.931,152.22 218.5,153.5C 218.5,152.5 218.5,151.5 218.5,150.5C 219.338,150.158 219.672,149.492 219.5,148.5 Z"/></g>
<g><path style="opacity:0.004" fill="#ff2e00" d="M 217.5,153.5 C 217.833,153.5 218.167,153.5 218.5,153.5C 218.672,154.492 218.338,155.158 217.5,155.5C 217.5,154.833 217.5,154.167 217.5,153.5 Z"/></g>
<g><path style="opacity:0.004" fill="#ff55ff" d="M 216.5,155.5 C 216.833,155.5 217.167,155.5 217.5,155.5C 217.573,157.027 216.906,158.027 215.5,158.5C 215.5,157.833 215.5,157.167 215.5,156.5C 216.167,156.5 216.5,156.167 216.5,155.5 Z"/></g>
<g><path style="opacity:0.016" fill="#ff7200" d="M 214.5,158.5 C 214.833,158.5 215.167,158.5 215.5,158.5C 215.672,159.492 215.338,160.158 214.5,160.5C 214.5,159.833 214.5,159.167 214.5,158.5 Z"/></g>
<g><path style="opacity:0.008" fill="#ff7700" d="M 213.5,160.5 C 213.833,160.5 214.167,160.5 214.5,160.5C 214.672,161.492 214.338,162.158 213.5,162.5C 213.5,161.833 213.5,161.167 213.5,160.5 Z"/></g>
<g><path style="opacity:0.024" fill="#fe5500" d="M 212.5,162.5 C 212.833,162.5 213.167,162.5 213.5,162.5C 213.315,163.17 212.981,163.17 212.5,162.5 Z"/></g>
<g><path style="opacity:0.012" fill="#ff5a00" d="M 211.5,163.5 C 211.833,163.5 212.167,163.5 212.5,163.5C 212.672,164.492 212.338,165.158 211.5,165.5C 211.5,164.833 211.5,164.167 211.5,163.5 Z"/></g>
<g><path style="opacity:0.027" fill="#fd6d00" d="M 210.5,165.5 C 210.833,165.5 211.167,165.5 211.5,165.5C 211.315,166.17 210.981,166.17 210.5,165.5 Z"/></g>
<g><path style="opacity:0.024" fill="#fe5500" d="M 208.5,168.5 C 208.833,168.5 209.167,168.5 209.5,168.5C 209.315,169.17 208.981,169.17 208.5,168.5 Z"/></g>
<g><path style="opacity:0.024" fill="#fe5500" d="M 205.5,172.5 C 205.833,172.5 206.167,172.5 206.5,172.5C 206.315,173.17 205.981,173.17 205.5,172.5 Z"/></g>
<g><path style="opacity:0.027" fill="#fd6d00" d="M 204.5,173.5 C 204.833,173.5 205.167,173.5 205.5,173.5C 205.315,174.17 204.981,174.17 204.5,173.5 Z"/></g>
<g><path style="opacity:0.012" fill="#fe5500" d="M 201.5,177.5 C 201.833,177.5 202.167,177.5 202.5,177.5C 202.315,178.17 201.981,178.17 201.5,177.5 Z"/></g>
<g><path style="opacity:0.016" fill="#fe7f00" d="M 200.5,178.5 C 200.833,178.5 201.167,178.5 201.5,178.5C 201.315,179.17 200.981,179.17 200.5,178.5 Z"/></g>
<g><path style="opacity:0.024" fill="#fe5500" d="M 199.5,179.5 C 199.833,179.5 200.167,179.5 200.5,179.5C 200.315,180.17 199.981,180.17 199.5,179.5 Z"/></g>
<g><path style="opacity:0.027" fill="#fd6d00" d="M 198.5,180.5 C 198.833,180.5 199.167,180.5 199.5,180.5C 199.315,181.17 198.981,181.17 198.5,180.5 Z"/></g>
<g><path style="opacity:0.031" fill="#fe5f00" d="M 197.5,181.5 C 197.833,181.5 198.167,181.5 198.5,181.5C 198.315,182.17 197.981,182.17 197.5,181.5 Z"/></g>
<g><path style="opacity:0.031" fill="#fe5f00" d="M 196.5,182.5 C 196.833,182.5 197.167,182.5 197.5,182.5C 197.315,183.17 196.981,183.17 196.5,182.5 Z"/></g>
<g><path style="opacity:0.027" fill="#fd6d00" d="M 195.5,183.5 C 195.833,183.5 196.167,183.5 196.5,183.5C 196.315,184.17 195.981,184.17 195.5,183.5 Z"/></g>
<g><path style="opacity:0.024" fill="#fe5500" d="M 194.5,184.5 C 194.833,184.5 195.167,184.5 195.5,184.5C 195.315,185.17 194.981,185.17 194.5,184.5 Z"/></g>
<g><path style="opacity:0.02" fill="#fe6600" d="M 193.5,185.5 C 193.833,185.5 194.167,185.5 194.5,185.5C 194.315,186.17 193.981,186.17 193.5,185.5 Z"/></g>
<g><path style="opacity:0.016" fill="#fe7f00" d="M 192.5,186.5 C 192.833,186.5 193.167,186.5 193.5,186.5C 193.315,187.17 192.981,187.17 192.5,186.5 Z"/></g>
<g><path style="opacity:0.012" fill="#fe5500" d="M 191.5,187.5 C 191.833,187.5 192.167,187.5 192.5,187.5C 192.315,188.17 191.981,188.17 191.5,187.5 Z"/></g>
<g><path style="opacity:0.004" fill="#fe0000" d="M 52.5,189.5 C 51.8333,190.167 51.8333,190.167 52.5,189.5 Z"/></g>
<g><path style="opacity:0.031" fill="#fe5f00" d="M 188.5,189.5 C 188.833,189.5 189.167,189.5 189.5,189.5C 189.315,190.17 188.981,190.17 188.5,189.5 Z"/></g>
<g><path style="opacity:0.027" fill="#fd6d00" d="M 187.5,190.5 C 187.833,190.5 188.167,190.5 188.5,190.5C 188.315,191.17 187.981,191.17 187.5,190.5 Z"/></g>
<g><path style="opacity:0.024" fill="#fe5500" d="M 183.5,193.5 C 183.833,193.5 184.167,193.5 184.5,193.5C 184.315,194.17 183.981,194.17 183.5,193.5 Z"/></g>
<g><path style="opacity:0.024" fill="#fe5500" d="M 180.5,195.5 C 180.833,195.5 181.167,195.5 181.5,195.5C 181.315,196.17 180.981,196.17 180.5,195.5 Z"/></g>
<g><path style="opacity:0.024" fill="#fe5500" d="M 177.5,197.5 C 177.833,197.5 178.167,197.5 178.5,197.5C 178.315,198.17 177.981,198.17 177.5,197.5 Z"/></g>
<g><path style="opacity:0.008" fill="#ff7700" d="M 168.5,203.5 C 168.5,203.167 168.5,202.833 168.5,202.5C 169.167,202.5 169.833,202.5 170.5,202.5C 170.158,203.338 169.492,203.672 168.5,203.5 Z"/></g>
<g><path style="opacity:0.012" fill="#fe7f00" d="M 166.5,204.5 C 166.5,204.167 166.5,203.833 166.5,203.5C 167.167,203.5 167.833,203.5 168.5,203.5C 168.158,204.338 167.492,204.672 166.5,204.5 Z"/></g>
<g><path style="opacity:0.008" fill="#ff7700" d="M 164.5,205.5 C 164.5,205.167 164.5,204.833 164.5,204.5C 165.167,204.5 165.833,204.5 166.5,204.5C 166.158,205.338 165.492,205.672 164.5,205.5 Z"/></g>
<g><path style="opacity:0.012" fill="#ff6400" d="M 159.5,207.5 C 159.5,207.167 159.5,206.833 159.5,206.5C 160.167,206.5 160.833,206.5 161.5,206.5C 161.158,207.338 160.492,207.672 159.5,207.5 Z"/></g>
<g><path style="opacity:0.008" fill="#ff7700" d="M 157.5,208.5 C 157.5,208.167 157.5,207.833 157.5,207.5C 158.167,207.5 158.833,207.5 159.5,207.5C 159.158,208.338 158.492,208.672 157.5,208.5 Z"/></g>
<g><path style="opacity:0.016" fill="#ff6cff" d="M 154.5,209.5 C 154.5,209.167 154.5,208.833 154.5,208.5C 155.5,208.5 156.5,208.5 157.5,208.5C 156.791,209.404 155.791,209.737 154.5,209.5 Z"/></g>
</svg>
