<?xml version="1.0" encoding="UTF-8"?>
<!DOCTYPE svg PUBLIC "-//W3C//DTD SVG 1.1//EN" "http://www.w3.org/Graphics/SVG/1.1/DTD/svg11.dtd">
<svg xmlns="http://www.w3.org/2000/svg" version="1.1" width="186px" height="213px" style="shape-rendering:geometricPrecision; text-rendering:geometricPrecision; image-rendering:optimizeQuality; fill-rule:evenodd; clip-rule:evenodd" xmlns:xlink="http://www.w3.org/1999/xlink">
<g><path style="opacity:0.012" fill="#fe5500" d="M 49.5,-0.5 C 49.8333,-0.5 50.1667,-0.5 50.5,-0.5C 50.5,-0.166667 50.5,0.166667 50.5,0.5C 50.1667,0.166667 49.8333,-0.166667 49.5,-0.5 Z"/></g>
<g><path style="opacity:0.892" fill="#fe6500" d="M 50.5,0.5 C 82.1684,0.333352 113.835,0.500018 145.5,1C 147.66,2.33203 149.66,3.83203 151.5,5.5C 151.5,22.8333 151.5,40.1667 151.5,57.5C 148.833,57.5 146.167,57.5 143.5,57.5C 143.5,41.1667 143.5,24.8333 143.5,8.5C 114.5,8.5 85.5,8.5 56.5,8.5C 56.1706,23.676 56.5039,38.676 57.5,53.5C 57.5858,54.4959 57.2524,55.3292 56.5,56C 54.5,57.3333 52.5,58.6667 50.5,60C 36.1705,60.4999 21.8372,60.6666 7.5,60.5C 7.16787,107.67 7.5012,154.67 8.5,201.5C 53.3302,202.499 98.3302,202.832 143.5,202.5C 143.5,201.5 143.5,200.5 143.5,199.5C 146.167,199.5 148.833,199.5 151.5,199.5C 151.5,201.167 151.5,202.833 151.5,204.5C 150.662,204.842 150.328,205.508 150.5,206.5C 149.833,206.5 149.5,206.833 149.5,207.5C 148.833,207.5 148.5,207.833 148.5,208.5C 147.833,208.5 147.5,208.833 147.5,209.5C 146.508,209.328 145.842,209.662 145.5,210.5C 99.1655,210.667 52.8321,210.5 6.5,210C 4.5,208.667 2.5,207.333 0.5,206C 0.343378,155.373 0.510045,104.54 1,53.5C 13.3717,40.6304 25.5384,27.6304 37.5,14.5C 41.8052,9.85942 46.1386,5.19275 50.5,0.5 Z M 16.5,50.5 C 23.4931,42.1742 30.8264,34.1742 38.5,26.5C 39.0778,27.547 39.7445,27.3803 40.5,26C 40.2716,25.6012 39.9382,25.4346 39.5,25.5C 41.3719,22.4181 43.7052,19.7514 46.5,17.5C 46.7828,16.7109 47.2828,16.0442 48,15.5C 48.4999,27.8288 48.6665,40.1622 48.5,52.5C 37.1618,52.6665 25.8284,52.4999 14.5,52C 15.0442,51.2828 15.7109,50.7828 16.5,50.5 Z M 89.5,31.5 C 93.8942,29.4163 96.8942,30.7497 98.5,35.5C 97.8333,35.5 97.1667,35.5 96.5,35.5C 95.791,34.596 94.791,34.2627 93.5,34.5C 92.791,33.596 91.791,33.2627 90.5,33.5C 92.0311,32.0755 91.6977,31.4088 89.5,31.5 Z M 89.5,43.5 C 91.5,43.8333 93.5,44.1667 95.5,44.5C 95.7373,45.791 95.404,46.791 94.5,47.5C 94.631,46.7611 94.4643,46.0944 94,45.5C 92.9887,46.3366 91.8221,46.67 90.5,46.5C 89.8902,45.609 89.5569,44.609 89.5,43.5 Z"/></g>
<g><path style="opacity:0.024" fill="#fe5500" d="M 152.5,5.5 C 151.833,4.16667 151.833,4.16667 152.5,5.5 Z"/></g>
<g><path style="opacity:0.016" fill="#ff7d00" d="M 57.5,53.5 C 57.3334,38.8295 57.5001,24.1629 58,9.5C 58.8276,24.3391 58.6609,39.0058 57.5,53.5 Z"/></g>
<g><path style="opacity:0.008" fill="#fe7f00" d="M 141.5,9.5 C 142.833,10.1667 142.833,10.1667 141.5,9.5 Z"/></g>
<g><path style="opacity:0.012" fill="#ff5800" d="M 152.5,5.5 C 153.662,22.3283 153.828,39.3283 153,56.5C 152.5,39.5033 152.333,22.5033 152.5,5.5 Z"/></g>
<g><path style="opacity:0.004" fill="#fe0000" d="M 37.5,14.5 C 36.8333,13.1667 36.8333,13.1667 37.5,14.5 Z"/></g>
<g><path style="opacity:0.859" fill="#fe6600" d="M 99.5,36.5 C 99.5,35.8333 99.1667,35.5 98.5,35.5C 98.5,35.8333 98.5,36.1667 98.5,36.5C 97.1667,36.8333 97.1667,37.1667 98.5,37.5C 99.6883,38.3636 100.855,39.3636 102,40.5C 103.625,39.5881 104.459,40.2547 104.5,42.5C 103.532,44.6074 103.198,46.9407 103.5,49.5C 102.662,49.8417 102.328,50.5084 102.5,51.5C 101.833,51.5 101.5,51.8333 101.5,52.5C 99.4514,53.8818 97.7847,55.5484 96.5,57.5C 92.7216,61.8496 89.8882,61.183 88,55.5C 82.6289,53.0232 80.1289,49.0232 80.5,43.5C 82.4213,42.359 84.4213,42.1923 86.5,43C 87.3041,44.7713 88.4708,46.2713 90,47.5C 90.3988,47.2716 90.5654,46.9382 90.5,46.5C 91.8221,46.67 92.9887,46.3366 94,45.5C 94.4643,46.0944 94.631,46.7611 94.5,47.5C 95.404,46.791 95.7373,45.791 95.5,44.5C 93.5,44.1667 91.5,43.8333 89.5,43.5C 88.0351,42.2632 86.3684,41.2632 84.5,40.5C 78.6553,32.8529 79.9886,26.6862 88.5,22C 88.1667,21.6667 87.8333,21.3333 87.5,21C 89.121,19.0427 90.121,17.2094 90.5,15.5C 92.1349,16.3302 93.8016,16.4969 95.5,16C 95.1667,16.3333 94.8333,16.6667 94.5,17C 95.717,18.6477 96.5503,20.481 97,22.5C 98.0084,22.9817 99.175,23.1484 100.5,23C 100.167,23.3333 99.8333,23.6667 99.5,24C 100.667,25.1667 101.833,26.3333 103,27.5C 103.333,27.1667 103.667,26.8333 104,26.5C 103.016,28.5979 103.349,30.5979 105,32.5C 105.333,31.8333 105.667,31.1667 106,30.5C 106.699,32.0738 106.365,33.4071 105,34.5C 104.667,34.1667 104.333,33.8333 104,33.5C 102.729,34.8825 101.229,35.8825 99.5,36.5 Z M 89.5,31.5 C 93.8942,29.4163 96.8942,30.7497 98.5,35.5C 97.8333,35.5 97.1667,35.5 96.5,35.5C 95.791,34.596 94.791,34.2627 93.5,34.5C 92.791,33.596 91.791,33.2627 90.5,33.5C 92.0311,32.0755 91.6977,31.4088 89.5,31.5 Z M 89.5,43.5 C 91.5,43.8333 93.5,44.1667 95.5,44.5C 95.7373,45.791 95.404,46.791 94.5,47.5C 94.631,46.7611 94.4643,46.0944 94,45.5C 92.9887,46.3366 91.8221,46.67 90.5,46.5C 89.8902,45.609 89.5569,44.609 89.5,43.5 Z"/></g>
<g><path style="opacity:0.031" fill="#ff4e00" d="M 89.5,31.5 C 91.6977,31.4088 92.0311,32.0755 90.5,33.5C 90.1667,33.5 89.8333,33.5 89.5,33.5C 89.5,32.8333 89.5,32.1667 89.5,31.5 Z"/></g>
<g><path style="opacity:0.016" fill="#fe7f00" d="M 98.5,36.5 C 98.8333,36.5 99.1667,36.5 99.5,36.5C 99.3147,37.1701 98.9813,37.1701 98.5,36.5 Z"/></g>
<g><path style="opacity:0.016" fill="#ff6cff" d="M 84.5,40.5 C 83.7494,41.5735 82.7494,41.7401 81.5,41C 82.448,40.5172 83.448,40.3505 84.5,40.5 Z"/></g>
<g><path style="opacity:0.02" fill="#ff5900" d="M 104.5,42.5 C 105.833,44.8333 105.833,47.1667 104.5,49.5C 104.5,47.1667 104.5,44.8333 104.5,42.5 Z"/></g>
<g><path style="opacity:0.004" fill="#ff3800" d="M 103.5,49.5 C 103.833,49.5 104.167,49.5 104.5,49.5C 104.672,50.4916 104.338,51.1583 103.5,51.5C 103.5,50.8333 103.5,50.1667 103.5,49.5 Z"/></g>
<g><path style="opacity:0.008" fill="#fe7f00" d="M 102.5,51.5 C 102.833,51.5 103.167,51.5 103.5,51.5C 103.315,52.1701 102.981,52.1701 102.5,51.5 Z"/></g>
<g><path style="opacity:0.004" fill="#fe0000" d="M 101.5,52.5 C 101.833,52.5 102.167,52.5 102.5,52.5C 102.315,53.1701 101.981,53.1701 101.5,52.5 Z"/></g>
<g><path style="opacity:0.004" fill="#fe0000" d="M 141.5,55.5 C 142.833,56.1667 142.833,56.1667 141.5,55.5 Z"/></g>
<g><path style="opacity:0.004" fill="#fe0000" d="M 97.5,56.5 C 98.8333,57.1667 98.8333,57.1667 97.5,56.5 Z"/></g>
<g><path style="opacity:0.004" fill="#ff3800" d="M 96.5,57.5 C 96.8333,57.5 97.1667,57.5 97.5,57.5C 97.1667,60.1667 96.8333,60.1667 96.5,57.5 Z"/></g>
<g><path style="opacity:0.004" fill="#fe0000" d="M 106.5,61.5 C 127.329,60.3373 148.329,60.1707 169.5,61C 148.503,61.5 127.503,61.6666 106.5,61.5 Z"/></g>
<g><path style="opacity:0.871" fill="#fe6500" d="M 178.5,186.5 C 177.596,187.209 177.263,188.209 177.5,189.5C 176.833,189.5 176.5,189.833 176.5,190.5C 175.833,190.5 175.5,190.833 175.5,191.5C 174.833,191.5 174.5,191.833 174.5,192.5C 173.833,192.5 173.5,192.833 173.5,193.5C 172.209,193.263 171.209,193.596 170.5,194.5C 147.714,194.466 125.047,194.466 102.5,194.5C 102.236,192.502 100.903,190.835 98.5,189.5C 97.1667,148.833 97.1667,108.167 98.5,67.5C 99.8333,66.8333 100.833,65.8333 101.5,64.5C 102.222,64.0825 102.722,63.4158 103,62.5C 103.414,62.9574 103.914,63.2907 104.5,63.5C 126.833,62.8333 149.167,62.1667 171.5,61.5C 172.769,63.3052 174.603,65.3052 177,67.5C 178.482,107.106 178.982,146.772 178.5,186.5 Z M 106.5,70.5 C 127.503,70.3334 148.503,70.5 169.5,71C 170.824,86.7696 170.824,102.603 169.5,118.5C 148.877,117.678 128.21,117.178 107.5,117C 108.657,101.908 108.824,86.7412 108,71.5C 106.893,72.7119 106.393,72.3786 106.5,70.5 Z M 119.5,86.5 C 120.317,88.9686 120.817,91.6353 121,94.5C 121.497,92.1902 121.663,89.8568 121.5,87.5C 133.081,87.8211 144.581,87.4878 156,86.5C 156.498,89.4816 156.665,92.4816 156.5,95.5C 144.167,95.5 131.833,95.5 119.5,95.5C 119.5,92.5 119.5,89.5 119.5,86.5 Z M 106.5,126.5 C 115.318,125.507 124.318,125.173 133.5,125.5C 133.182,134.751 133.515,143.917 134.5,153C 125.167,153.667 115.833,153.667 106.5,153C 108.452,144.77 109.118,136.27 108.5,127.5C 116.507,127.666 124.507,127.5 132.5,127C 123.84,126.5 115.173,126.334 106.5,126.5 Z M 142.5,125.5 C 151.833,125.5 161.167,125.5 170.5,125.5C 170.5,134.833 170.5,144.167 170.5,153.5C 161.167,153.5 151.833,153.5 142.5,153.5C 142.5,144.167 142.5,134.833 142.5,125.5 Z M 108.5,163.5 C 116.833,163.5 125.167,163.5 133.5,163.5C 133.186,171.087 133.519,178.587 134.5,186C 124.991,186.824 115.657,186.658 106.5,185.5C 108.463,178.576 109.13,171.243 108.5,163.5 Z M 142.5,163.5 C 143.329,170.655 143.829,177.989 144,185.5C 144.5,178.174 144.666,170.841 144.5,163.5C 153.167,163.5 161.833,163.5 170.5,163.5C 170.814,171.087 170.481,178.587 169.5,186C 160.506,186.5 151.506,186.666 142.5,186.5C 142.5,178.833 142.5,171.167 142.5,163.5 Z"/></g>
<g><path style="opacity:0.004" fill="#fe0000" d="M 101.5,64.5 C 100.833,63.1667 100.833,63.1667 101.5,64.5 Z"/></g>
<g><path style="opacity:0.004" fill="#fe0000" d="M 98.5,67.5 C 97.8333,66.1667 97.8333,66.1667 98.5,67.5 Z"/></g>
<g><path style="opacity:0.008" fill="#ff7d00" d="M 179.5,186.5 C 179.333,147.832 179.5,109.165 180,70.5C 180.831,109.336 180.665,148.002 179.5,186.5 Z"/></g>
<g><path style="opacity:0.904" fill="#fe6300" d="M 115.5,78.5 C 130.658,79.4962 145.991,79.8295 161.5,79.5C 166.004,86.0383 166.671,93.0383 163.5,100.5C 162.711,100.783 162.044,101.283 161.5,102C 145.833,102.667 130.167,102.667 114.5,102C 112.232,100.442 111.066,98.2756 111,95.5C 110.371,91.1294 110.537,86.796 111.5,82.5C 113.194,81.4726 114.527,80.1392 115.5,78.5 Z M 119.5,86.5 C 119.5,89.5 119.5,92.5 119.5,95.5C 131.833,95.5 144.167,95.5 156.5,95.5C 156.665,92.4816 156.498,89.4816 156,86.5C 144.581,87.4878 133.081,87.8211 121.5,87.5C 121.663,89.8568 121.497,92.1902 121,94.5C 120.817,91.6353 120.317,88.9686 119.5,86.5 Z"/></g>
<g><path style="opacity:0.918" fill="#fe6600" d="M 24.5,95.5 C 47.1667,95.5 69.8333,95.5 92.5,95.5C 92.5,97.8333 92.5,100.167 92.5,102.5C 69.8309,102.667 47.1642,102.5 24.5,102C 21.9387,99.8441 21.9387,97.6774 24.5,95.5 Z"/></g>
<g><path style="opacity:0.016" fill="#ff7500" d="M 93.5,95.5 C 94.6291,97.6282 94.7958,99.9615 94,102.5C 93.5034,100.19 93.3367,97.8568 93.5,95.5 Z"/></g>
<g><path style="opacity:0.806" fill="#fe6600" d="M 24.5,111.5 C 47.1667,111.5 69.8333,111.5 92.5,111.5C 92.5,114.167 92.5,116.833 92.5,119.5C 70.1642,119.667 47.8308,119.5 25.5,119C 21.8805,117.006 21.5471,114.506 24.5,111.5 Z"/></g>
<g><path style="opacity:0.016" fill="#ff6eff" d="M 93.5,111.5 C 94.6341,113.966 94.8007,116.633 94,119.5C 93.5026,116.854 93.3359,114.187 93.5,111.5 Z"/></g>
<g><path style="opacity:0.008" fill="#ff65ff" d="M 143.5,126.5 C 151.84,126.334 160.173,126.5 168.5,127C 160.507,127.5 152.507,127.666 144.5,127.5C 144.666,135.84 144.5,144.173 144,152.5C 143.5,143.84 143.334,135.173 143.5,126.5 Z"/></g>
<g><path style="opacity:0.949" fill="#fe6500" d="M 25.5,136.5 C 21.6054,133.655 21.6054,130.822 25.5,128C 47.8308,127.5 70.1642,127.333 92.5,127.5C 92.5,130.167 92.5,132.833 92.5,135.5C 69.9938,135.169 47.6604,135.503 25.5,136.5 Z"/></g>
<g><path style="opacity:0.016" fill="#ff7a00" d="M 93.5,128.5 C 94.6291,130.628 94.7958,132.961 94,135.5C 93.5034,133.19 93.3367,130.857 93.5,128.5 Z"/></g>
<g><path style="opacity:0.841" fill="#fe6400" d="M 155.5,133.5 C 155.833,134.833 156.167,134.833 156.5,133.5C 159.832,129.32 162.666,129.653 165,134.5C 165.805,132.099 166.638,132.266 167.5,135C 166.934,135.995 166.267,136.828 165.5,137.5C 165.631,136.761 165.464,136.094 165,135.5C 164.215,137.286 163.049,138.786 161.5,140C 163.049,141.214 164.215,142.714 165,144.5C 165.464,143.906 165.631,143.239 165.5,142.5C 168.167,144.167 168.167,145.833 165.5,147.5C 164.938,145.335 164.271,145.668 163.5,148.5C 161.901,148.232 160.568,148.566 159.5,149.5C 158.833,148.833 158.167,148.167 157.5,147.5C 156.001,145.198 154.668,145.531 153.5,148.5C 151.901,148.232 150.568,148.566 149.5,149.5C 146.848,146.544 146.848,143.544 149.5,140.5C 150.016,139.242 149.35,138.242 147.5,137.5C 147.73,130.717 150.397,129.384 155.5,133.5 Z"/></g>
<g><path style="opacity:0.008" fill="#ff7c00" d="M 25.5,136.5 C 47.8358,136.333 70.1692,136.5 92.5,137C 69.9962,137.83 47.6629,137.663 25.5,136.5 Z"/></g>
<g><path style="opacity:0.855" fill="#fe6600" d="M 128.5,137.5 C 128.833,140.167 129.167,140.167 129.5,137.5C 132.167,139.167 132.167,140.833 129.5,142.5C 129.167,139.833 128.833,139.833 128.5,142.5C 123.398,143.121 118.398,143.787 113.5,144.5C 109.79,141.638 109.79,138.805 113.5,136C 118.785,134.955 123.785,135.455 128.5,137.5 Z"/></g>
<g><path style="opacity:0.919" fill="#fe6400" d="M 25.5,143.5 C 47.8333,143.5 70.1667,143.5 92.5,143.5C 92.5,146.167 92.5,148.833 92.5,151.5C 69.8309,151.667 47.1642,151.5 24.5,151C 23.4258,150.261 22.7591,149.261 22.5,148C 23.3146,146.357 24.3146,144.857 25.5,143.5 Z"/></g>
<g><path style="opacity:0.015" fill="#fe7f00" d="M 93.5,144.5 C 94.6291,146.628 94.7958,148.961 94,151.5C 93.5034,149.19 93.3367,146.857 93.5,144.5 Z"/></g>
<g><path style="opacity:0.016" fill="#ff7d00" d="M 24.5,153.5 C 46.9963,152.337 69.6629,152.17 92.5,153C 69.8358,153.5 47.1691,153.667 24.5,153.5 Z"/></g>
<g><path style="opacity:0.806" fill="#fe6600" d="M 25.5,168.5 C 21.9279,166.574 21.5946,164.074 24.5,161C 47.1642,160.5 69.8309,160.333 92.5,160.5C 92.5,163.167 92.5,165.833 92.5,168.5C 70.1667,168.5 47.8333,168.5 25.5,168.5 Z"/></g>
<g><path style="opacity:0.014" fill="#ff7c00" d="M 93.5,161.5 C 94.6291,163.628 94.7958,165.961 94,168.5C 93.5034,166.19 93.3367,163.857 93.5,161.5 Z"/></g>
<g><path style="opacity:0.004" fill="#fe0000" d="M 108.5,163.5 C 109.13,171.243 108.463,178.576 106.5,185.5C 107.136,178.067 107.802,170.734 108.5,163.5 Z"/></g>
<g><path style="opacity:0.858" fill="#fe6400" d="M 124.5,169.5 C 126.261,170.313 127.928,171.313 129.5,172.5C 128.869,174.448 127.869,176.281 126.5,178C 126.728,178.399 127.062,178.565 127.5,178.5C 126.833,179.833 125.833,180.833 124.5,181.5C 124.631,180.761 124.464,180.094 124,179.5C 123.535,180.931 122.701,182.097 121.5,183C 121.728,183.399 122.062,183.565 122.5,183.5C 120.952,185.922 119.286,185.922 117.5,183.5C 120.167,183.167 120.167,182.833 117.5,182.5C 116.974,180.77 115.974,179.436 114.5,178.5C 114.158,177.662 113.492,177.328 112.5,177.5C 111.527,175.932 111.36,174.265 112,172.5C 114.669,171.253 116.502,169.253 117.5,166.5C 120.134,165.484 122.8,165.484 125.5,166.5C 125.737,167.791 125.404,168.791 124.5,169.5 Z"/></g>
<g><path style="opacity:0.811" fill="#fe6500" d="M 165.5,169.5 C 165.5,170.167 165.833,170.5 166.5,170.5C 165.554,171.931 164.388,173.264 163,174.5C 158.174,173.419 153.341,173.252 148.5,174C 148.833,173.667 149.167,173.333 149.5,173C 146.833,170.667 146.833,168.333 149.5,166C 154.167,165.333 158.833,165.333 163.5,166C 164.085,167.302 164.751,168.469 165.5,169.5 Z"/></g>
<g><path style="opacity:0.012" fill="#fe5500" d="M 25.5,168.5 C 25.5,168.833 25.5,169.167 25.5,169.5C 24.8299,169.019 24.8299,168.685 25.5,168.5 Z"/></g>
<g><path style="opacity:0.008" fill="#ff7d00" d="M 25.5,169.5 C 47.8358,169.333 70.1692,169.5 92.5,170C 69.9962,170.83 47.6629,170.663 25.5,169.5 Z"/></g>
<g><path style="opacity:0.807" fill="#fe6500" d="M 165.5,181.5 C 165.631,180.761 165.464,180.094 165,179.5C 164.535,180.931 163.701,182.097 162.5,183C 162.728,183.399 163.062,183.565 163.5,183.5C 163.158,184.338 162.492,184.672 161.5,184.5C 158.375,183.521 155.042,183.187 151.5,183.5C 151.167,183.5 150.833,183.5 150.5,183.5C 150.158,182.662 149.492,182.328 148.5,182.5C 147.218,176.444 149.884,173.777 156.5,174.5C 160.363,173.85 163.196,175.183 165,178.5C 165.805,176.099 166.638,176.266 167.5,179C 166.934,179.995 166.267,180.828 165.5,181.5 Z"/></g>
<g><path style="opacity:0.841" fill="#fe6600" d="M 25.5,185.5 C 21.6296,182.703 21.6296,179.87 25.5,177C 47.8308,176.5 70.1642,176.333 92.5,176.5C 92.5,179.167 92.5,181.833 92.5,184.5C 69.9938,184.169 47.6604,184.503 25.5,185.5 Z"/></g>
<g><path style="opacity:0.016" fill="#ff7a00" d="M 93.5,177.5 C 94.6291,179.628 94.7958,181.961 94,184.5C 93.5034,182.19 93.3367,179.857 93.5,177.5 Z"/></g>
<g><path style="opacity:0.004" fill="#ff1f00" d="M 148.5,183.5 C 149.167,183.5 149.833,183.5 150.5,183.5C 150.833,183.5 151.167,183.5 151.5,183.5C 154.625,184.479 157.958,184.813 161.5,184.5C 159.866,185.161 158.033,185.494 156,185.5C 153.134,185.7 150.634,185.033 148.5,183.5 Z"/></g>
<g><path style="opacity:0.02" fill="#ff6600" d="M 25.5,185.5 C 47.8358,185.333 70.1692,185.5 92.5,186C 69.9962,186.83 47.6629,186.663 25.5,185.5 Z"/></g>
<g><path style="opacity:0.02" fill="#ff6c00" d="M 178.5,186.5 C 178.833,186.5 179.167,186.5 179.5,186.5C 179.737,187.791 179.404,188.791 178.5,189.5C 178.5,188.5 178.5,187.5 178.5,186.5 Z"/></g>
<g><path style="opacity:0.004" fill="#fe0000" d="M 98.5,189.5 C 97.8333,190.167 97.8333,190.167 98.5,189.5 Z"/></g>
<g><path style="opacity:0.02" fill="#fe6600" d="M 177.5,189.5 C 177.833,189.5 178.167,189.5 178.5,189.5C 178.315,190.17 177.981,190.17 177.5,189.5 Z"/></g>
<g><path style="opacity:0.027" fill="#fd6d00" d="M 176.5,190.5 C 176.833,190.5 177.167,190.5 177.5,190.5C 177.315,191.17 176.981,191.17 176.5,190.5 Z"/></g>
<g><path style="opacity:0.027" fill="#fd6d00" d="M 175.5,191.5 C 175.833,191.5 176.167,191.5 176.5,191.5C 176.315,192.17 175.981,192.17 175.5,191.5 Z"/></g>
<g><path style="opacity:0.027" fill="#fd6d00" d="M 174.5,192.5 C 174.833,192.5 175.167,192.5 175.5,192.5C 175.315,193.17 174.981,193.17 174.5,192.5 Z"/></g>
<g><path style="opacity:0.016" fill="#fe7f00" d="M 173.5,193.5 C 173.833,193.5 174.167,193.5 174.5,193.5C 174.315,194.17 173.981,194.17 173.5,193.5 Z"/></g>
<g><path style="opacity:0.016" fill="#ff61ff" d="M 170.5,195.5 C 170.5,195.167 170.5,194.833 170.5,194.5C 171.5,194.5 172.5,194.5 173.5,194.5C 172.791,195.404 171.791,195.737 170.5,195.5 Z"/></g>
<g><path style="opacity:0.012" fill="#ff5500" d="M 170.5,195.5 C 149.004,196.663 127.337,196.829 105.5,196C 127.164,195.5 148.831,195.333 170.5,195.5 Z"/></g>
<g><path style="opacity:0.004" fill="#fe0000" d="M 8.5,200.5 C 9.83333,201.167 9.83333,201.167 8.5,200.5 Z"/></g>
<g><path style="opacity:0.008" fill="#fe7f00" d="M 141.5,200.5 C 142.833,201.167 142.833,201.167 141.5,200.5 Z"/></g>
<g><path style="opacity:0.012" fill="#ff7200" d="M 152.5,204.5 C 152.343,203.127 152.51,201.793 153,200.5C 153.765,202.066 153.598,203.399 152.5,204.5 Z"/></g>
<g><path style="opacity:0.008" fill="#ff7700" d="M 151.5,204.5 C 151.833,204.5 152.167,204.5 152.5,204.5C 152.672,205.492 152.338,206.158 151.5,206.5C 151.5,205.833 151.5,205.167 151.5,204.5 Z"/></g>
<g><path style="opacity:0.02" fill="#fe6600" d="M 150.5,206.5 C 150.833,206.5 151.167,206.5 151.5,206.5C 151.315,207.17 150.981,207.17 150.5,206.5 Z"/></g>
<g><path style="opacity:0.031" fill="#fe5f00" d="M 149.5,207.5 C 149.833,207.5 150.167,207.5 150.5,207.5C 150.315,208.17 149.981,208.17 149.5,207.5 Z"/></g>
<g><path style="opacity:0.031" fill="#fe5f00" d="M 148.5,208.5 C 148.833,208.5 149.167,208.5 149.5,208.5C 149.315,209.17 148.981,209.17 148.5,208.5 Z"/></g>
<g><path style="opacity:0.016" fill="#fe7f00" d="M 147.5,209.5 C 147.833,209.5 148.167,209.5 148.5,209.5C 148.315,210.17 147.981,210.17 147.5,209.5 Z"/></g>
<g><path style="opacity:0.004" fill="#ff45ff" d="M 145.5,211.5 C 145.5,211.167 145.5,210.833 145.5,210.5C 146.167,210.5 146.833,210.5 147.5,210.5C 147.158,211.338 146.492,211.672 145.5,211.5 Z"/></g>
<g><path style="opacity:0.024" fill="#ff5500" d="M 6.5,212.5 C 52.6637,211.501 98.997,211.168 145.5,211.5C 145.5,211.833 145.5,212.167 145.5,212.5C 99.1667,212.5 52.8333,212.5 6.5,212.5 Z"/></g>
</svg>
