<?xml version="1.0" encoding="UTF-8"?>
<!DOCTYPE svg PUBLIC "-//W3C//DTD SVG 1.1//EN" "http://www.w3.org/Graphics/SVG/1.1/DTD/svg11.dtd">
<svg xmlns="http://www.w3.org/2000/svg" version="1.1" width="245px" height="234px" style="shape-rendering:geometricPrecision; text-rendering:geometricPrecision; image-rendering:optimizeQuality; fill-rule:evenodd; clip-rule:evenodd" xmlns:xlink="http://www.w3.org/1999/xlink">
<g><path style="opacity:0.98" fill="#ff6805" d="M 137.5,233.5 C 128.5,233.5 119.5,233.5 110.5,233.5C 61.784,225.63 29.284,198.296 13,151.5C -0.286253,95.9514 16.2137,51.7848 62.5,19C 103,-3.93242 143.667,-4.26575 184.5,18C 231.485,50.2496 248.652,94.4163 236,150.5C 223.234,189.599 197.401,215.765 158.5,229C 151.41,230.731 144.41,232.231 137.5,233.5 Z M 121.5,26.5 C 131.998,26.8019 142.332,28.1352 152.5,30.5C 153.574,31.8846 154.907,33.0513 156.5,34C 164.226,36.3621 171.226,40.0288 177.5,45C 184.946,50.4676 191.612,56.6343 197.5,63.5C 198.759,67.0246 200.759,70.0246 203.5,72.5C 203.992,74.8185 204.992,76.8185 206.5,78.5C 206.66,80.153 207.326,81.4863 208.5,82.5C 209.205,85.3542 210.205,88.0209 211.5,90.5C 211.728,95.9306 212.561,101.264 214,106.5C 214.5,114.493 214.666,122.493 214.5,130.5C 214.5,131.167 214.5,131.833 214.5,132.5C 212.96,134.838 212.294,137.505 212.5,140.5C 210.32,143.381 209.32,146.714 209.5,150.5C 206.454,156.922 203.121,163.255 199.5,169.5C 195.216,172.752 191.882,176.752 189.5,181.5C 187.833,182.5 186.5,183.833 185.5,185.5C 184.167,185.5 183.5,186.167 183.5,187.5C 181.251,188.08 179.585,189.413 178.5,191.5C 176.999,192.752 175.332,193.752 173.5,194.5C 171.973,194.427 170.973,195.094 170.5,196.5C 169.833,196.833 169.167,197.167 168.5,197.5C 166.973,197.427 165.973,198.094 165.5,199.5C 163.145,200.659 160.812,201.659 158.5,202.5C 156.62,202.229 155.287,202.896 154.5,204.5C 150.023,206.129 145.357,207.129 140.5,207.5C 131.528,208.347 122.528,208.68 113.5,208.5C 106.227,207.714 99.2271,206.048 92.5,203.5C 89.2798,201.06 85.6131,199.393 81.5,198.5C 73.8469,193.667 66.5136,188.334 59.5,182.5C 58.9601,178.292 56.6268,175.625 52.5,174.5C 51.8041,170.119 49.4707,166.786 45.5,164.5C 45.2671,162.938 44.6005,161.605 43.5,160.5C 43.7709,158.62 43.1042,157.287 41.5,156.5C 39.0977,150.293 37.0977,143.96 35.5,137.5C 35.8294,134.772 35.1628,132.438 33.5,130.5C 31.6937,110.319 35.3604,91.3194 44.5,73.5C 47.1119,71.9478 48.4452,69.6145 48.5,66.5C 49.4013,65.7095 50.0679,64.7095 50.5,63.5C 51.8333,63.5 52.5,62.8333 52.5,61.5C 54.1563,59.5398 55.823,57.5398 57.5,55.5C 58.8333,55.5 59.5,54.8333 59.5,53.5C 60.1667,53.5 60.5,53.1667 60.5,52.5C 62.8333,52.1667 64.1667,50.8333 64.5,48.5C 65.0347,46.5544 66.368,45.5544 68.5,45.5C 72.0495,44.2768 75.0495,42.2768 77.5,39.5C 79.674,39.2503 81.3406,38.2503 82.5,36.5C 85.4303,34.8652 88.4303,33.5318 91.5,32.5C 93.698,32.8799 95.3646,32.2132 96.5,30.5C 99.1123,29.6295 101.779,28.9628 104.5,28.5C 110.339,28.1016 116.006,27.4349 121.5,26.5 Z"/></g>
<g><path style="opacity:1" fill="#ffe9d9" d="M 121.5,26.5 C 116.006,27.4349 110.339,28.1016 104.5,28.5C 105.609,27.71 106.942,27.21 108.5,27C 112.821,26.501 117.154,26.3343 121.5,26.5 Z"/></g>
<g><path style="opacity:1" fill="#ffecdf" d="M 96.5,30.5 C 95.3646,32.2132 93.698,32.8799 91.5,32.5C 92.7804,31.0687 94.4471,30.4021 96.5,30.5 Z"/></g>
<g><path style="opacity:1" fill="#ffefe4" d="M 82.5,36.5 C 81.3406,38.2503 79.674,39.2503 77.5,39.5C 78.6594,37.7497 80.326,36.7497 82.5,36.5 Z"/></g>
<g><path style="opacity:1" fill="#fff7f2" d="M 77.5,39.5 C 75.0495,42.2768 72.0495,44.2768 68.5,45.5C 70.9754,42.7589 73.9754,40.7589 77.5,39.5 Z"/></g>
<g><path style="opacity:1" fill="#fffbf8" d="M 64.5,48.5 C 64.1667,50.8333 62.8333,52.1667 60.5,52.5C 61.5,50.8333 62.8333,49.5 64.5,48.5 Z"/></g>
<g><path style="opacity:1" fill="#fff3eb" d="M 152.5,30.5 C 171.25,36.6104 186.25,47.6104 197.5,63.5C 191.612,56.6343 184.946,50.4676 177.5,45C 171.226,40.0288 164.226,36.3621 156.5,34C 154.907,33.0513 153.574,31.8846 152.5,30.5 Z"/></g>
<g><path style="opacity:1" fill="#fffbf9" d="M 59.5,53.5 C 59.5,54.8333 58.8333,55.5 57.5,55.5C 57.8333,54.5 58.5,53.8333 59.5,53.5 Z"/></g>
<g><path style="opacity:1" fill="#fff7f2" d="M 52.5,61.5 C 52.5,62.8333 51.8333,63.5 50.5,63.5C 50.8333,62.5 51.5,61.8333 52.5,61.5 Z"/></g>
<g><path style="opacity:1" fill="#ff6c0f" d="M 124.5,66.5 C 126.833,68.5 129.167,70.5 131.5,72.5C 144.86,86.5271 158.527,100.194 172.5,113.5C 173.167,114.833 174.167,115.833 175.5,116.5C 176.833,117.167 177.833,118.167 178.5,119.5C 178.611,120.117 178.944,120.617 179.5,121C 175.179,121.499 170.846,121.666 166.5,121.5C 152.854,107.188 138.854,93.1877 124.5,79.5C 110.146,93.5212 95.8126,107.521 81.5,121.5C 77.2984,121.817 73.2984,121.483 69.5,120.5C 69.5,119.833 69.8333,119.5 70.5,119.5C 72.5,118.167 74.1667,116.5 75.5,114.5C 75.5,113.833 75.8333,113.5 76.5,113.5C 80.4729,110.194 84.1396,106.527 87.5,102.5C 95.1667,94.5 102.833,86.5 110.5,78.5C 115.531,74.793 120.198,70.793 124.5,66.5 Z"/></g>
<g><path style="opacity:1" fill="#ffe9db" d="M 131.5,72.5 C 129.167,70.5 126.833,68.5 124.5,66.5C 124.369,65.7611 124.536,65.0944 125,64.5C 127.892,66.6389 130.058,69.3056 131.5,72.5 Z"/></g>
<g><path style="opacity:1" fill="#fff0e5" d="M 48.5,66.5 C 48.4452,69.6145 47.1119,71.9478 44.5,73.5C 45.0787,70.6689 46.412,68.3356 48.5,66.5 Z"/></g>
<g><path style="opacity:1" fill="#fff4ed" d="M 197.5,63.5 C 200.241,65.9754 202.241,68.9754 203.5,72.5C 200.759,70.0246 198.759,67.0246 197.5,63.5 Z"/></g>
<g><path style="opacity:1" fill="#fffaf7" d="M 87.5,79.5 C 94.9818,78.508 102.648,78.1746 110.5,78.5C 102.833,86.5 95.1667,94.5 87.5,102.5C 87.1667,102.5 86.8333,102.5 86.5,102.5C 86.1786,96.9738 86.5119,91.6405 87.5,86.5C 87.3345,90.5138 87.5012,94.5138 88,98.5C 92.3333,94.1667 96.6667,89.8333 101,85.5C 101.495,83.5273 101.662,81.5273 101.5,79.5C 96.8333,79.5 92.1667,79.5 87.5,79.5 Z"/></g>
<g><path style="opacity:1" fill="#ff711a" d="M 87.5,79.5 C 92.1667,79.5 96.8333,79.5 101.5,79.5C 101.662,81.5273 101.495,83.5273 101,85.5C 96.6667,89.8333 92.3333,94.1667 88,98.5C 87.5012,94.5138 87.3345,90.5138 87.5,86.5C 87.5,84.1667 87.5,81.8333 87.5,79.5 Z"/></g>
<g><path style="opacity:1" fill="#ffefe4" d="M 166.5,121.5 C 166.5,121.833 166.5,122.167 166.5,122.5C 165.833,122.5 165.167,122.5 164.5,122.5C 150.895,109.396 137.395,96.0625 124,82.5C 111,95.5 98,108.5 85,121.5C 84.5001,135.163 84.3334,148.829 84.5,162.5C 93.8333,162.5 103.167,162.5 112.5,162.5C 112.5,162.833 112.5,163.167 112.5,163.5C 102.833,163.5 93.1667,163.5 83.5,163.5C 83.6666,150.163 83.4999,136.829 83,123.5C 82.6174,122.944 82.1174,122.611 81.5,122.5C 81.5,122.167 81.5,121.833 81.5,121.5C 95.8126,107.521 110.146,93.5212 124.5,79.5C 138.854,93.1877 152.854,107.188 166.5,121.5 Z"/></g>
<g><path style="opacity:1" fill="#ffe5d3" d="M 206.5,78.5 C 208.104,79.287 208.771,80.6203 208.5,82.5C 207.326,81.4863 206.66,80.153 206.5,78.5 Z"/></g>
<g><path style="opacity:1" fill="#ff6803" d="M 164.5,122.5 C 164.5,135.833 164.5,149.167 164.5,162.5C 154.833,162.5 145.167,162.5 135.5,162.5C 135.5,151.5 135.5,140.5 135.5,129.5C 128.018,128.508 120.352,128.175 112.5,128.5C 112.5,139.833 112.5,151.167 112.5,162.5C 103.167,162.5 93.8333,162.5 84.5,162.5C 84.3334,148.829 84.5001,135.163 85,121.5C 98,108.5 111,95.5 124,82.5C 137.395,96.0625 150.895,109.396 164.5,122.5 Z"/></g>
<g><path style="opacity:1" fill="#fff5ee" d="M 211.5,90.5 C 213.264,94.2054 214.431,98.2054 215,102.5C 215.824,112.009 215.658,121.343 214.5,130.5C 214.666,122.493 214.5,114.493 214,106.5C 212.561,101.264 211.728,95.9306 211.5,90.5 Z"/></g>
<g><path style="opacity:1" fill="#ffc096" d="M 86.5,102.5 C 86.8333,102.5 87.1667,102.5 87.5,102.5C 84.1396,106.527 80.4729,110.194 76.5,113.5C 79.0722,109.255 82.4055,105.589 86.5,102.5 Z"/></g>
<g><path style="opacity:1" fill="#ffe8d9" d="M 172.5,113.5 C 174.5,113.5 175.5,114.5 175.5,116.5C 174.167,115.833 173.167,114.833 172.5,113.5 Z"/></g>
<g><path style="opacity:1" fill="#ffb482" d="M 75.5,114.5 C 74.1667,116.5 72.5,118.167 70.5,119.5C 71.1667,116.833 72.8333,115.167 75.5,114.5 Z"/></g>
<g><path style="opacity:1" fill="#ffaf7b" d="M 69.5,120.5 C 73.2984,121.483 77.2984,121.817 81.5,121.5C 81.5,121.833 81.5,122.167 81.5,122.5C 79.1667,122.5 76.8333,122.5 74.5,122.5C 72.2646,122.795 70.2646,122.461 68.5,121.5C 68.5,120.833 68.8333,120.5 69.5,120.5 Z"/></g>
<g><path style="opacity:1" fill="#ffbb8f" d="M 178.5,119.5 C 180.048,119.821 180.715,120.821 180.5,122.5C 175.833,122.5 171.167,122.5 166.5,122.5C 166.5,122.167 166.5,121.833 166.5,121.5C 170.846,121.666 175.179,121.499 179.5,121C 178.944,120.617 178.611,120.117 178.5,119.5 Z"/></g>
<g><path style="opacity:1" fill="#fffbf8" d="M 68.5,121.5 C 70.2646,122.461 72.2646,122.795 74.5,122.5C 72.3066,123.797 69.9732,123.797 67.5,122.5C 67.6236,121.893 67.9569,121.56 68.5,121.5 Z"/></g>
<g><path style="opacity:1" fill="#ffcba9" d="M 135.5,129.5 C 128.167,129.5 120.833,129.5 113.5,129.5C 113.828,140.679 113.495,151.679 112.5,162.5C 112.5,151.167 112.5,139.833 112.5,128.5C 120.352,128.175 128.018,128.508 135.5,129.5 Z"/></g>
<g><path style="opacity:1" fill="#fffcfa" d="M 135.5,129.5 C 135.5,140.5 135.5,151.5 135.5,162.5C 145.167,162.5 154.833,162.5 164.5,162.5C 147.332,164.109 129.998,164.442 112.5,163.5C 112.5,163.167 112.5,162.833 112.5,162.5C 113.495,151.679 113.828,140.679 113.5,129.5C 120.833,129.5 128.167,129.5 135.5,129.5 Z"/></g>
<g><path style="opacity:1" fill="#ffdcc5" d="M 33.5,130.5 C 35.1628,132.438 35.8294,134.772 35.5,137.5C 34.0762,135.485 33.4095,133.152 33.5,130.5 Z"/></g>
<g><path style="opacity:1" fill="#ffdec8" d="M 214.5,132.5 C 214.706,135.495 214.04,138.162 212.5,140.5C 212.294,137.505 212.96,134.838 214.5,132.5 Z"/></g>
<g><path style="opacity:1" fill="#fff5ef" d="M 212.5,140.5 C 212.277,144.162 211.277,147.495 209.5,150.5C 209.32,146.714 210.32,143.381 212.5,140.5 Z"/></g>
<g><path style="opacity:1" fill="#ffe9d9" d="M 41.5,156.5 C 43.1042,157.287 43.7709,158.62 43.5,160.5C 42.3263,159.486 41.6596,158.153 41.5,156.5 Z"/></g>
<g><path style="opacity:1" fill="#ffe9da" d="M 45.5,164.5 C 49.4707,166.786 51.8041,170.119 52.5,174.5C 49.6771,171.525 47.3437,168.192 45.5,164.5 Z"/></g>
<g><path style="opacity:1" fill="#fff0e6" d="M 199.5,169.5 C 196.996,173.828 193.996,177.828 190.5,181.5C 190.167,181.5 189.833,181.5 189.5,181.5C 191.882,176.752 195.216,172.752 199.5,169.5 Z"/></g>
<g><path style="opacity:1" fill="#fff2e9" d="M 52.5,174.5 C 56.6268,175.625 58.9601,178.292 59.5,182.5C 56.7052,180.249 54.3719,177.582 52.5,174.5 Z"/></g>
<g><path style="opacity:1" fill="#ffae77" d="M 189.5,181.5 C 189.833,181.5 190.167,181.5 190.5,181.5C 189.415,183.587 187.749,184.92 185.5,185.5C 186.5,183.833 187.833,182.5 189.5,181.5 Z"/></g>
<g><path style="opacity:1" fill="#ffefe5" d="M 185.5,185.5 C 185.167,186.5 184.5,187.167 183.5,187.5C 183.5,186.167 184.167,185.5 185.5,185.5 Z"/></g>
<g><path style="opacity:1" fill="#ffb27f" d="M 183.5,187.5 C 182.415,189.587 180.749,190.92 178.5,191.5C 179.585,189.413 181.251,188.08 183.5,187.5 Z"/></g>
<g><path style="opacity:1" fill="#ffe6d4" d="M 173.5,194.5 C 173.027,195.906 172.027,196.573 170.5,196.5C 170.973,195.094 171.973,194.427 173.5,194.5 Z"/></g>
<g><path style="opacity:1" fill="#ffd7bd" d="M 168.5,197.5 C 168.027,198.906 167.027,199.573 165.5,199.5C 165.973,198.094 166.973,197.427 168.5,197.5 Z"/></g>
<g><path style="opacity:1" fill="#ffecdf" d="M 81.5,198.5 C 85.6131,199.393 89.2798,201.06 92.5,203.5C 88.4069,202.618 84.7403,200.951 81.5,198.5 Z"/></g>
<g><path style="opacity:1" fill="#ffc39a" d="M 158.5,202.5 C 157.486,203.674 156.153,204.34 154.5,204.5C 155.287,202.896 156.62,202.229 158.5,202.5 Z"/></g>
<g><path style="opacity:1" fill="#ffdec7" d="M 140.5,207.5 C 135.599,209.052 130.432,209.719 125,209.5C 120.985,209.499 117.151,209.165 113.5,208.5C 122.528,208.68 131.528,208.347 140.5,207.5 Z"/></g>
</svg>
