<?xml version="1.0" encoding="UTF-8"?>
<!DOCTYPE svg PUBLIC "-//W3C//DTD SVG 1.1//EN" "http://www.w3.org/Graphics/SVG/1.1/DTD/svg11.dtd">
<svg xmlns="http://www.w3.org/2000/svg" version="1.1" width="268px" height="234px" style="shape-rendering:geometricPrecision; text-rendering:geometricPrecision; image-rendering:optimizeQuality; fill-rule:evenodd; clip-rule:evenodd" xmlns:xlink="http://www.w3.org/1999/xlink">
<g><path style="opacity:0.976" fill="#f14624" d="M 243.5,105.5 C 207.783,78.961 171.616,52.961 135,27.5C 98.3838,52.961 62.2172,78.961 26.5,105.5C 22.3699,108.737 18.0366,111.737 13.5,114.5C 10.1822,111.683 7.01549,108.683 4,105.5C 3.38277,104.551 3.54943,103.718 4.5,103C 47.1667,72.3333 89.8333,41.6667 132.5,11C 134.167,10.3333 135.833,10.3333 137.5,11C 154.333,23.1667 171.167,35.3333 188,47.5C 188.499,42.1771 188.666,36.8437 188.5,31.5C 197.167,31.5 205.833,31.5 214.5,31.5C 214.168,43.5185 214.501,55.5185 215.5,67.5C 232.677,79.5886 249.677,91.9219 266.5,104.5C 263.5,108.167 260.167,111.5 256.5,114.5C 251.873,111.865 247.54,108.865 243.5,105.5 Z"/></g>
<g><path style="opacity:0.992" fill="#edefd3" d="M 243.5,105.5 C 243.5,145.5 243.5,185.5 243.5,225.5C 205.167,225.5 166.833,225.5 128.5,225.5C 128.5,186.167 128.5,146.833 128.5,107.5C 106.167,107.5 83.8333,107.5 61.5,107.5C 61.5,146.833 61.5,186.167 61.5,225.5C 49.8333,225.5 38.1667,225.5 26.5,225.5C 26.5,185.5 26.5,145.5 26.5,105.5C 62.2172,78.961 98.3838,52.961 135,27.5C 171.616,52.961 207.783,78.961 243.5,105.5 Z"/></g>
<g><path style="opacity:1" fill="#d8dac1" d="M 115.5,75.5 C 122.5,75.5 129.5,75.5 136.5,75.5C 136.5,77.1667 136.5,78.8333 136.5,80.5C 142.5,80.5 148.5,80.5 154.5,80.5C 154.5,83.8333 154.5,87.1667 154.5,90.5C 147.5,90.5 140.5,90.5 133.5,90.5C 133.5,88.8333 133.5,87.1667 133.5,85.5C 127.5,85.5 121.5,85.5 115.5,85.5C 115.5,82.1667 115.5,78.8333 115.5,75.5 Z"/></g>
<g><path style="opacity:1" fill="#bfcbb2" d="M 128.5,225.5 C 126.833,225.5 125.167,225.5 123.5,225.5C 123.5,187.833 123.5,150.167 123.5,112.5C 104.341,111.503 85.0072,111.17 65.5,111.5C 65.5,149.5 65.5,187.5 65.5,225.5C 64.1667,225.5 62.8333,225.5 61.5,225.5C 61.5,186.167 61.5,146.833 61.5,107.5C 83.8333,107.5 106.167,107.5 128.5,107.5C 128.5,146.833 128.5,186.167 128.5,225.5 Z"/></g>
<g><path style="opacity:1" fill="#86755a" d="M 123.5,112.5 C 104.5,112.5 85.5,112.5 66.5,112.5C 66.5,150.167 66.5,187.833 66.5,225.5C 66.1667,225.5 65.8333,225.5 65.5,225.5C 65.5,187.5 65.5,149.5 65.5,111.5C 85.0072,111.17 104.341,111.503 123.5,112.5 Z"/></g>
<g><path style="opacity:1" fill="#5b3114" d="M 123.5,112.5 C 123.5,150.167 123.5,187.833 123.5,225.5C 122.833,225.5 122.167,225.5 121.5,225.5C 121.832,188.663 121.498,151.996 120.5,115.5C 103.675,114.503 86.6749,114.17 69.5,114.5C 69.1682,150.671 69.5016,186.671 70.5,222.5C 69.8902,223.391 69.5569,224.391 69.5,225.5C 68.5,225.5 67.5,225.5 66.5,225.5C 66.5,187.833 66.5,150.167 66.5,112.5C 85.5,112.5 104.5,112.5 123.5,112.5 Z"/></g>
<g><path style="opacity:1" fill="#713e1a" d="M 120.5,115.5 C 119.213,118.075 117.879,120.741 116.5,123.5C 102.182,124.499 87.8488,124.833 73.5,124.5C 73.5,138.167 73.5,151.833 73.5,165.5C 81.1955,165.169 88.8622,165.503 96.5,166.5C 94.9239,168.979 93.9239,171.646 93.5,174.5C 86.8333,174.5 80.1667,174.5 73.5,174.5C 73.6666,188.504 73.4999,202.504 73,216.5C 72.4275,218.641 71.5942,220.641 70.5,222.5C 69.5016,186.671 69.1682,150.671 69.5,114.5C 86.6749,114.17 103.675,114.503 120.5,115.5 Z"/></g>
<g><path style="opacity:1" fill="#754522" d="M 228.5,119.5 C 225.8,121.234 223.8,123.568 222.5,126.5C 222.167,126.5 221.833,126.5 221.5,126.5C 212.833,126.5 204.167,126.5 195.5,126.5C 195.167,126.5 194.833,126.5 194.5,126.5C 192.833,126.5 191.167,126.5 189.5,126.5C 189.167,126.5 188.833,126.5 188.5,126.5C 180.167,126.5 171.833,126.5 163.5,126.5C 162.505,137.321 162.172,148.321 162.5,159.5C 162.5,161.167 162.5,162.833 162.5,164.5C 162.5,173.833 162.5,183.167 162.5,192.5C 160.5,194.833 158.5,197.167 156.5,199.5C 155.502,172.672 155.169,145.672 155.5,118.5C 180.006,118.169 204.339,118.502 228.5,119.5 Z"/></g>
<g><path style="opacity:1" fill="#5a3114" d="M 228.5,119.5 C 228.5,146.167 228.5,172.833 228.5,199.5C 204.5,199.5 180.5,199.5 156.5,199.5C 158.5,197.167 160.5,194.833 162.5,192.5C 171.5,192.5 180.5,192.5 189.5,192.5C 189.5,183.167 189.5,173.833 189.5,164.5C 180.5,164.5 171.5,164.5 162.5,164.5C 162.5,162.833 162.5,161.167 162.5,159.5C 171.5,159.5 180.5,159.5 189.5,159.5C 189.5,148.5 189.5,137.5 189.5,126.5C 191.167,126.5 192.833,126.5 194.5,126.5C 194.5,137.5 194.5,148.5 194.5,159.5C 203.5,159.5 212.5,159.5 221.5,159.5C 221.5,161.167 221.5,162.833 221.5,164.5C 212.5,164.5 203.5,164.5 194.5,164.5C 194.5,173.833 194.5,183.167 194.5,192.5C 203.5,192.5 212.5,192.5 221.5,192.5C 222.497,170.673 222.831,148.673 222.5,126.5C 223.8,123.568 225.8,121.234 228.5,119.5 Z"/></g>
<g><path style="opacity:1" fill="#6a7d72" d="M 194.5,126.5 C 194.833,126.5 195.167,126.5 195.5,126.5C 195.5,127.167 195.5,127.833 195.5,128.5C 195.5,138.5 195.5,148.5 195.5,158.5C 203.5,158.5 211.5,158.5 219.5,158.5C 221.476,148.219 222.143,137.552 221.5,126.5C 221.833,126.5 222.167,126.5 222.5,126.5C 222.831,148.673 222.497,170.673 221.5,192.5C 221.5,192.167 221.5,191.833 221.5,191.5C 221.5,182.833 221.5,174.167 221.5,165.5C 221.5,165.167 221.5,164.833 221.5,164.5C 221.5,162.833 221.5,161.167 221.5,159.5C 212.5,159.5 203.5,159.5 194.5,159.5C 194.5,148.5 194.5,137.5 194.5,126.5 Z"/></g>
<g><path style="opacity:1" fill="#6abdc5" d="M 195.5,126.5 C 204.167,126.5 212.833,126.5 221.5,126.5C 222.143,137.552 221.476,148.219 219.5,158.5C 219.5,148.5 219.5,138.5 219.5,128.5C 211.5,128.5 203.5,128.5 195.5,128.5C 195.5,127.833 195.5,127.167 195.5,126.5 Z"/></g>
<g><path style="opacity:1" fill="#74887c" d="M 163.5,126.5 C 163.172,137.346 163.506,148.013 164.5,158.5C 172.5,158.5 180.5,158.5 188.5,158.5C 188.5,148.5 188.5,138.5 188.5,128.5C 188.5,127.833 188.5,127.167 188.5,126.5C 188.833,126.5 189.167,126.5 189.5,126.5C 189.5,137.5 189.5,148.5 189.5,159.5C 180.5,159.5 171.5,159.5 162.5,159.5C 162.172,148.321 162.505,137.321 163.5,126.5 Z"/></g>
<g><path style="opacity:1" fill="#99d6d4" d="M 188.5,128.5 C 188.5,138.5 188.5,148.5 188.5,158.5C 180.5,158.5 172.5,158.5 164.5,158.5C 164.5,148.5 164.5,138.5 164.5,128.5C 172.5,128.5 180.5,128.5 188.5,128.5 Z"/></g>
<g><path style="opacity:1" fill="#67bbc3" d="M 163.5,126.5 C 171.833,126.5 180.167,126.5 188.5,126.5C 188.5,127.167 188.5,127.833 188.5,128.5C 180.5,128.5 172.5,128.5 164.5,128.5C 164.5,138.5 164.5,148.5 164.5,158.5C 163.506,148.013 163.172,137.346 163.5,126.5 Z"/></g>
<g><path style="opacity:1" fill="#9ad6d4" d="M 195.5,128.5 C 203.5,128.5 211.5,128.5 219.5,128.5C 219.5,138.5 219.5,148.5 219.5,158.5C 211.5,158.5 203.5,158.5 195.5,158.5C 195.5,148.5 195.5,138.5 195.5,128.5 Z"/></g>
<g><path style="opacity:1" fill="#4e2a10" d="M 120.5,115.5 C 121.498,151.996 121.832,188.663 121.5,225.5C 104.167,225.5 86.8333,225.5 69.5,225.5C 69.5569,224.391 69.8902,223.391 70.5,222.5C 71.5942,220.641 72.4275,218.641 73,216.5C 73.4999,202.504 73.6666,188.504 73.5,174.5C 80.1667,174.5 86.8333,174.5 93.5,174.5C 93.9239,171.646 94.9239,168.979 96.5,166.5C 88.8622,165.503 81.1955,165.169 73.5,165.5C 73.5,151.833 73.5,138.167 73.5,124.5C 87.8488,124.833 102.182,124.499 116.5,123.5C 117.879,120.741 119.213,118.075 120.5,115.5 Z"/></g>
<g><path style="opacity:1" fill="#713e1a" d="M 75.5,127.5 C 88.1667,127.5 100.833,127.5 113.5,127.5C 109.093,139.377 104.093,151.043 98.5,162.5C 90.8622,163.497 83.1955,163.831 75.5,163.5C 75.5,151.5 75.5,139.5 75.5,127.5 Z"/></g>
<g><path style="opacity:1" fill="#eff8f8" d="M 166.5,132.5 C 172.217,134.319 176.883,138.152 180.5,144C 179.833,144.667 179.167,144.667 178.5,144C 174.631,139.963 170.631,136.13 166.5,132.5 Z"/></g>
<g><path style="opacity:1" fill="#f0f9f8" d="M 200.5,132.5 C 200.897,131.475 201.563,131.308 202.5,132C 207.167,135.333 211.167,139.333 214.5,144C 213.833,144.667 213.167,144.667 212.5,144C 208.631,139.963 204.631,136.13 200.5,132.5 Z"/></g>
<g><path style="opacity:1" fill="#ea8111" d="M 118.5,169.5 C 118.778,167.654 118.111,166.32 116.5,165.5C 115.548,167.045 115.215,168.712 115.5,170.5C 114.504,170.586 113.671,170.252 113,169.5C 111.5,164.333 113.333,162.5 118.5,164C 121.124,165.969 121.124,167.802 118.5,169.5 Z"/></g>
<g><path style="opacity:1" fill="#eb9b0d" d="M 118.5,169.5 C 118.663,171.857 118.497,174.19 118,176.5C 117.586,176.957 117.086,177.291 116.5,177.5C 115.526,175.257 115.192,172.924 115.5,170.5C 115.215,168.712 115.548,167.045 116.5,165.5C 118.111,166.32 118.778,167.654 118.5,169.5 Z"/></g>
<g><path style="opacity:1" fill="#71948d" d="M 162.5,164.5 C 171.5,164.5 180.5,164.5 189.5,164.5C 189.5,173.833 189.5,183.167 189.5,192.5C 180.5,192.5 171.5,192.5 162.5,192.5C 162.5,183.167 162.5,173.833 162.5,164.5 Z"/></g>
<g><path style="opacity:1" fill="#92d2d1" d="M 166.5,165.5 C 166.369,166.239 166.536,166.906 167,167.5C 171.73,172.563 176.897,176.729 182.5,180C 177.605,174.936 172.605,170.103 167.5,165.5C 174.5,165.5 181.5,165.5 188.5,165.5C 188.5,174.167 188.5,182.833 188.5,191.5C 180.167,191.5 171.833,191.5 163.5,191.5C 163.5,182.833 163.5,174.167 163.5,165.5C 164.5,165.5 165.5,165.5 166.5,165.5 Z"/></g>
<g><path style="opacity:1" fill="#9bd6d5" d="M 219.5,165.5 C 219.5,173.5 219.5,181.5 219.5,189.5C 211.5,189.5 203.5,189.5 195.5,189.5C 195.5,181.5 195.5,173.5 195.5,165.5C 203.5,165.5 211.5,165.5 219.5,165.5 Z"/></g>
<g><path style="opacity:1" fill="#6cbec5" d="M 219.5,165.5 C 220.167,165.5 220.833,165.5 221.5,165.5C 221.5,174.167 221.5,182.833 221.5,191.5C 212.435,192.136 203.769,191.47 195.5,189.5C 203.5,189.5 211.5,189.5 219.5,189.5C 219.5,181.5 219.5,173.5 219.5,165.5 Z"/></g>
<g><path style="opacity:1" fill="#eef8f7" d="M 200.5,166.5 C 205.556,170.371 210.223,174.704 214.5,179.5C 213.998,180.521 213.332,180.688 212.5,180C 207.898,175.906 203.898,171.406 200.5,166.5 Z"/></g>
<g><path style="opacity:1" fill="#ecf7f7" d="M 166.5,165.5 C 166.833,165.5 167.167,165.5 167.5,165.5C 172.605,170.103 177.605,174.936 182.5,180C 176.897,176.729 171.73,172.563 167,167.5C 166.536,166.906 166.369,166.239 166.5,165.5 Z"/></g>
<g><path style="opacity:1" fill="#703e1a" d="M 75.5,177.5 C 80.8437,177.334 86.1771,177.501 91.5,178C 86.205,188.757 81.0383,199.591 76,210.5C 75.5002,199.505 75.3335,188.505 75.5,177.5 Z"/></g>
<g><path style="opacity:1" fill="#f0f8f8" d="M 167.5,174.5 C 167.897,173.475 168.563,173.308 169.5,174C 172.833,177.333 176.167,180.667 179.5,184C 178.833,184.667 178.167,184.667 177.5,184C 174.297,180.629 170.964,177.462 167.5,174.5 Z"/></g>
<g><path style="opacity:1" fill="#709b97" d="M 221.5,164.5 C 221.5,164.833 221.5,165.167 221.5,165.5C 220.833,165.5 220.167,165.5 219.5,165.5C 211.5,165.5 203.5,165.5 195.5,165.5C 195.5,173.5 195.5,181.5 195.5,189.5C 203.769,191.47 212.435,192.136 221.5,191.5C 221.5,191.833 221.5,192.167 221.5,192.5C 212.5,192.5 203.5,192.5 194.5,192.5C 194.5,183.167 194.5,173.833 194.5,164.5C 203.5,164.5 212.5,164.5 221.5,164.5 Z"/></g>
</svg>
