<?xml version="1.0" encoding="UTF-8"?>
<!DOCTYPE svg PUBLIC "-//W3C//DTD SVG 1.1//EN" "http://www.w3.org/Graphics/SVG/1.1/DTD/svg11.dtd">
<svg xmlns="http://www.w3.org/2000/svg" version="1.1" width="236px" height="234px" style="shape-rendering:geometricPrecision; text-rendering:geometricPrecision; image-rendering:optimizeQuality; fill-rule:evenodd; clip-rule:evenodd" xmlns:xlink="http://www.w3.org/1999/xlink">
<g><path style="opacity:0.984" fill="#fe6600" d="M 129.5,233.5 C 120.5,233.5 111.5,233.5 102.5,233.5C 52.6171,225.129 19.7837,196.796 4,148.5C -7.80662,93.8856 9.02671,50.719 54.5,19C 97.7613,-5.18501 140.428,-4.18501 182.5,22C 222.019,52.2325 237.852,92.0658 230,141.5C 216.326,194.014 182.826,224.681 129.5,233.5 Z M 112.5,43.5 C 115.978,43.1842 119.312,43.6842 122.5,45C 143.695,65.8615 164.529,87.0282 185,108.5C 187.514,114.954 185.681,119.788 179.5,123C 176.77,123.728 174.103,123.562 171.5,122.5C 170.667,139.157 170.167,155.823 170,172.5C 168.221,176.612 165.388,179.778 161.5,182C 132.562,183.642 103.562,183.975 74.5,183C 68.8406,182.004 65.0073,178.838 63,173.5C 61.7089,156.566 61.0423,139.566 61,122.5C 50.2991,124.802 45.6324,120.468 47,109.5C 68.367,86.9666 90.2004,64.9666 112.5,43.5 Z"/></g>
<g><path style="opacity:0.966" fill="#fe6600" d="M 100.5,122.5 C 110.839,122.334 121.172,122.5 131.5,123C 134.265,124.097 135.931,126.097 136.5,129C 135.833,141.333 135.167,153.667 134.5,166C 122.93,167.623 111.264,167.957 99.5,167C 98.6667,166.167 97.8333,165.333 97,164.5C 96.3333,151.833 96.3333,139.167 97,126.5C 97.6897,124.65 98.8564,123.316 100.5,122.5 Z"/></g>
</svg>
