<?xml version="1.0" encoding="UTF-8"?>
<!DOCTYPE svg PUBLIC "-//W3C//DTD SVG 1.1//EN" "http://www.w3.org/Graphics/SVG/1.1/DTD/svg11.dtd">
<svg xmlns="http://www.w3.org/2000/svg" version="1.1" width="240px" height="234px" style="shape-rendering:geometricPrecision; text-rendering:geometricPrecision; image-rendering:optimizeQuality; fill-rule:evenodd; clip-rule:evenodd" xmlns:xlink="http://www.w3.org/1999/xlink">
<g><path style="opacity:0.921" fill="#fe6600" d="M 119.5,233.5 C 117.5,233.5 115.5,233.5 113.5,233.5C 79.0476,220.401 44.3809,207.568 9.5,195C 8.06919,194.535 6.90252,193.701 6,192.5C 4.34464,130.891 4.01131,69.2243 5,7.5C 5.78451,5.71398 6.95118,4.21398 8.5,3C 55.1667,2.33333 101.833,2.33333 148.5,3C 150.333,3.5 151.5,4.66667 152,6.5C 152.498,9.81677 152.665,13.1501 152.5,16.5C 157.511,16.3341 162.511,16.5007 167.5,17C 169.049,18.214 170.215,19.714 171,21.5C 171.172,25.8711 171.672,30.2044 172.5,34.5C 191.453,39.1548 210.453,43.6548 229.5,48C 234.055,50.0493 236.389,53.5493 236.5,58.5C 224.807,110.941 212.64,163.274 200,215.5C 198.38,217.726 196.214,219.06 193.5,219.5C 182.514,216.936 171.514,214.436 160.5,212C 162.202,209.765 163.202,207.265 163.5,204.5C 173.424,206.885 183.424,208.885 193.5,210.5C 204.85,159.767 216.517,109.1 228.5,58.5C 228.167,57.8333 227.833,57.1667 227.5,56.5C 188.352,46.7136 149.019,37.547 109.5,29C 107.101,28.289 104.768,28.4557 102.5,29.5C 100.271,28.4229 97.9372,27.7563 95.5,27.5C 95.7993,24.3579 97.4659,22.1912 100.5,21C 102.5,20.8333 104.5,20.6667 106.5,20.5C 125.599,24.0248 144.599,28.0248 163.5,32.5C 163.5,29.8333 163.5,27.1667 163.5,24.5C 157.167,24.5 150.833,24.5 144.5,24.5C 144.5,19.5 144.5,14.5 144.5,9.5C 106.832,9.33335 69.1652,9.50001 31.5,10C 61.5,21 91.5,32 121.5,43C 122.701,43.9025 123.535,45.0692 124,46.5C 124.5,54.4931 124.666,62.4931 124.5,70.5C 128.168,71.5555 131.835,72.7222 135.5,74C 137.333,74.5 138.5,75.6667 139,77.5C 139.167,103.173 139.667,128.84 140.5,154.5C 146.48,158.323 151.98,162.656 157,167.5C 157.667,180.167 157.667,192.833 157,205.5C 156.626,206.416 156.126,207.25 155.5,208C 150.177,208.499 144.844,208.666 139.5,208.5C 141.974,222.879 137.141,226.212 125,218.5C 124.667,222.167 124.333,225.833 124,229.5C 122.603,231.07 121.103,232.404 119.5,233.5 Z M 12.5,12.5 C 47.1667,24.8333 81.8333,37.1667 116.5,49.5C 116.667,108.168 116.5,166.834 116,225.5C 81.8886,212.74 47.7219,200.073 13.5,187.5C 12.5,129.17 12.1667,70.8371 12.5,12.5 Z M 124.5,78.5 C 126.138,79.1589 127.805,79.8256 129.5,80.5C 130.333,105.827 130.833,131.16 131,156.5C 136.049,161.538 141.716,165.871 148,169.5C 148.5,179.828 148.666,190.161 148.5,200.5C 143.489,200.334 138.489,200.501 133.5,201C 132.151,201.772 131.318,202.939 131,204.5C 130.667,207.167 130.333,209.833 130,212.5C 128.333,211.5 126.667,210.5 125,209.5C 124.5,165.835 124.333,122.168 124.5,78.5 Z"/></g>
<g><path style="opacity:0.867" fill="#fe6600" d="M 130.5,41.5 C 145.826,40.9914 152.66,48.3247 151,63.5C 149.431,67.072 147.098,70.072 144,72.5C 141.592,70.0439 138.759,68.2106 135.5,67C 142.214,65.4105 144.714,61.2438 143,54.5C 140.402,49.7558 136.569,48.4224 131.5,50.5C 130.151,47.4592 129.818,44.4592 130.5,41.5 Z"/></g>
<g><path style="opacity:0.89" fill="#fe6600" d="M 174.5,61.5 C 189.063,63.5098 203.23,66.8431 217,71.5C 217.667,73.1667 217.667,74.8333 217,76.5C 214.599,77.6023 212.099,77.769 209.5,77C 198.089,74.6473 186.756,71.9806 175.5,69C 172.342,66.7451 172.009,64.2451 174.5,61.5 Z"/></g>
<g><path style="opacity:0.885" fill="#fe6600" d="M 172.5,78.5 C 185.447,81.4861 198.447,84.3195 211.5,87C 214.466,90.502 213.966,93.3354 210,95.5C 196.491,92.6672 183.157,89.3339 170,85.5C 168.916,82.3411 169.75,80.0078 172.5,78.5 Z"/></g>
<g><path style="opacity:0.885" fill="#fe6600" d="M 145.5,83.5 C 153.72,85.8916 158.054,91.3916 158.5,100C 156.42,108.819 154.254,117.652 152,126.5C 150.211,128.229 148.044,128.896 145.5,128.5C 145.943,118.889 147.276,109.389 149.5,100C 150.025,96.6975 148.858,94.1975 146,92.5C 145.502,89.5184 145.335,86.5184 145.5,83.5 Z"/></g>
<g><path style="opacity:0.888" fill="#fe6600" d="M 166.5,96.5 C 180.935,98.3178 195.102,101.318 209,105.5C 210.248,109.483 208.914,111.817 205,112.5C 192.471,109.794 179.971,106.961 167.5,104C 164.342,101.745 164.009,99.2451 166.5,96.5 Z"/></g>
<g><path style="opacity:0.895" fill="#fe6600" d="M 163.5,113.5 C 177.65,115.893 191.483,119.226 205,123.5C 205.667,125.167 205.667,126.833 205,128.5C 202.263,129.61 199.429,129.777 196.5,129C 185.103,126.587 173.77,123.921 162.5,121C 161.046,118.216 161.379,115.716 163.5,113.5 Z"/></g>
<g><path style="opacity:0.885" fill="#fe6600" d="M 145.5,134.5 C 162.229,138.015 178.896,141.849 195.5,146C 197.395,149.733 196.395,152.233 192.5,153.5C 177.485,150.064 162.485,146.564 147.5,143C 145.679,140.544 145.012,137.711 145.5,134.5 Z"/></g>
<g><path style="opacity:0.869" fill="#fe6600" d="M 152.5,155.5 C 165.101,156.97 177.768,159.47 190.5,163C 194.17,169.678 192.17,172.011 184.5,170C 177.833,168.5 171.167,167 164.5,165.5C 161.328,161.237 157.328,157.904 152.5,155.5 Z"/></g>
<g><path style="opacity:0.868" fill="#fe6600" d="M 163.5,175.5 C 171.903,176.679 180.069,178.679 188,181.5C 189.569,185.902 188.069,187.902 183.5,187.5C 176.798,186.293 170.131,184.96 163.5,183.5C 163.5,180.833 163.5,178.167 163.5,175.5 Z"/></g>
</svg>
