<?xml version="1.0" encoding="UTF-8"?>
<!DOCTYPE svg PUBLIC "-//W3C//DTD SVG 1.1//EN" "http://www.w3.org/Graphics/SVG/1.1/DTD/svg11.dtd">
<svg xmlns="http://www.w3.org/2000/svg" version="1.1" width="226px" height="228px" style="shape-rendering:geometricPrecision; text-rendering:geometricPrecision; image-rendering:optimizeQuality; fill-rule:evenodd; clip-rule:evenodd" xmlns:xlink="http://www.w3.org/1999/xlink">
<g><path style="opacity:0.986" fill="#fffefd" d="M 225.5,106.5 C 225.5,111.5 225.5,116.5 225.5,121.5C 219.972,164.726 197.639,195.893 158.5,215C 108.838,233.203 65.6711,223.37 29,185.5C -1.80229,145.099 -5.80229,102.099 17,56.5C 44.9429,13.6201 84.4429,-4.21326 135.5,3C 180.613,13.4467 209.446,40.9467 222,85.5C 223.407,92.6076 224.574,99.6076 225.5,106.5 Z"/></g>
<g><path style="opacity:1" fill="#ff6805" d="M 67.5,57.5 C 99.1684,57.3334 130.835,57.5 162.5,58C 165.902,59.3999 168.736,61.5665 171,64.5C 172.652,97.0813 172.985,129.748 172,162.5C 170.895,167.206 168.062,170.373 163.5,172C 130.833,172.667 98.1667,172.667 65.5,172C 61.5095,170.01 59.0095,166.843 58,162.5C 57.3333,130.5 57.3333,98.5 58,66.5C 60.2557,62.47 63.4223,59.47 67.5,57.5 Z"/></g>
<g><path style="opacity:1" fill="#fffefd" d="M 138.5,70.5 C 144.842,70.3338 151.175,70.5005 157.5,71C 158,71.5 158.5,72 159,72.5C 159.667,78.5 159.667,84.5 159,90.5C 158.5,91 158,91.5 157.5,92C 151.167,92.6667 144.833,92.6667 138.5,92C 138,91.5 137.5,91 137,90.5C 136.333,84.5 136.333,78.5 137,72.5C 137.717,71.9558 138.217,71.2891 138.5,70.5 Z"/></g>
<g><path style="opacity:1" fill="#fffcfb" d="M 108.5,92.5 C 123.521,90.2512 133.354,96.2512 138,110.5C 138.192,129.639 128.692,138.472 109.5,137C 96.8399,132.674 91.0066,123.84 92,110.5C 94.6193,101.719 100.119,95.7195 108.5,92.5 Z"/></g>
<g><path style="opacity:1" fill="#fffbf9" d="M 69.5,106.5 C 73.1817,106.335 76.8484,106.501 80.5,107C 76.9588,128.252 85.2922,142.586 105.5,150C 137.043,152.623 152.043,138.123 150.5,106.5C 153.5,106.5 156.5,106.5 159.5,106.5C 159.667,123.503 159.5,140.503 159,157.5C 158.5,158 158,158.5 157.5,159C 128.595,159.828 99.7614,159.662 71,158.5C 69.528,141.261 69.028,123.928 69.5,106.5 Z"/></g>
</svg>
