<?xml version="1.0" encoding="UTF-8"?>
<!DOCTYPE svg PUBLIC "-//W3C//DTD SVG 1.1//EN" "http://www.w3.org/Graphics/SVG/1.1/DTD/svg11.dtd">
<svg xmlns="http://www.w3.org/2000/svg" version="1.1" width="232px" height="231px" style="shape-rendering:geometricPrecision; text-rendering:geometricPrecision; image-rendering:optimizeQuality; fill-rule:evenodd; clip-rule:evenodd" xmlns:xlink="http://www.w3.org/1999/xlink">
<g><path style="opacity:0.998" fill="#fffdfc" d="M 17.5,4.5 C 83.1675,4.33334 148.834,4.5 214.5,5C 218.241,6.73791 221.408,9.23791 224,12.5C 225.298,32.4355 225.964,52.4355 226,72.5C 226.815,120.176 226.482,167.842 225,215.5C 223.207,218.295 221.04,220.795 218.5,223C 150.915,224.66 83.2486,224.993 15.5,224C 11.3101,221.474 8.14348,217.974 6,213.5C 4.17995,147.836 4.17995,82.1692 6,16.5C 8.69074,11.3111 12.5241,7.31113 17.5,4.5 Z"/></g>
<g><path style="opacity:1" fill="#ff6906" d="M 50.5,39.5 C 67.1898,39.6877 74.3565,48.021 72,64.5C 66.5172,76.0015 57.6838,79.5015 45.5,75C 36.7594,68.4366 34.2594,59.9366 38,49.5C 41.1908,44.8366 45.3575,41.5032 50.5,39.5 Z"/></g>
<g><path style="opacity:1" fill="#ff6701" d="M 92.5,186.5 C 92.5,154.167 92.5,121.833 92.5,89.5C 102.833,89.5 113.167,89.5 123.5,89.5C 123.334,93.5138 123.501,97.5138 124,101.5C 132.024,90.7418 142.858,85.7418 156.5,86.5C 176.648,86.8164 188.815,96.8164 193,116.5C 193.5,139.831 193.667,163.164 193.5,186.5C 182.5,186.5 171.5,186.5 160.5,186.5C 160.667,165.831 160.5,145.164 160,124.5C 157.484,116.484 151.984,112.818 143.5,113.5C 134.303,113.516 128.137,117.849 125,126.5C 124.5,146.497 124.333,166.497 124.5,186.5C 113.833,186.5 103.167,186.5 92.5,186.5 Z"/></g>
<g><path style="opacity:1" fill="#ff6701" d="M 38.5,88.5 C 49.1667,88.5 59.8333,88.5 70.5,88.5C 70.5,121.167 70.5,153.833 70.5,186.5C 59.8333,186.5 49.1667,186.5 38.5,186.5C 38.5,153.833 38.5,121.167 38.5,88.5 Z"/></g>
<g><path style="opacity:1" fill="#ff9650" d="M 123.5,89.5 C 113.167,89.5 102.833,89.5 92.5,89.5C 92.5,121.833 92.5,154.167 92.5,186.5C 91.5017,154.004 91.1684,121.338 91.5,88.5C 102.346,88.1722 113.013,88.5056 123.5,89.5 Z"/></g>
</svg>
