<?xml version="1.0" encoding="UTF-8"?>
<!DOCTYPE svg PUBLIC "-//W3C//DTD SVG 1.1//EN" "http://www.w3.org/Graphics/SVG/1.1/DTD/svg11.dtd">
<svg xmlns="http://www.w3.org/2000/svg" version="1.1" width="51px" height="77px" style="shape-rendering:geometricPrecision; text-rendering:geometricPrecision; image-rendering:optimizeQuality; fill-rule:evenodd; clip-rule:evenodd" xmlns:xlink="http://www.w3.org/1999/xlink">
<g><path style="opacity:0.016" fill="#ff8f1b" d="M 20.5,4.5 C 23.9758,3.35673 27.6425,3.19007 31.5,4C 27.8484,4.49863 24.1817,4.6653 20.5,4.5 Z"/></g>
<g><path style="opacity:0.012" fill="#fe5500" d="M 19.5,5.5 C 18.7611,5.63101 18.0944,5.46434 17.5,5C 18.4368,4.30831 19.1034,4.47498 19.5,5.5 Z"/></g>
<g><path style="opacity:0.008" fill="#ff7e6a" d="M 32.5,5.5 C 32.8966,4.47498 33.5632,4.30831 34.5,5C 33.9056,5.46434 33.2389,5.63101 32.5,5.5 Z"/></g>
<g><path style="opacity:0.012" fill="#fe5500" d="M 16.5,6.5 C 15.8333,5.16667 15.8333,5.16667 16.5,6.5 Z"/></g>
<g><path style="opacity:0.804" fill="#fe6701" d="M 19.5,5.5 C 22.5,5.5 25.5,5.5 28.5,5.5C 28.5,7.16667 28.5,8.83333 28.5,10.5C 16.9549,10.3757 10.2882,16.0423 8.5,27.5C 12.0374,38.2486 17.3707,47.9152 24.5,56.5C 25.032,59.4596 25.6987,59.7929 26.5,57.5C 27.1667,57.1667 27.8333,56.8333 28.5,56.5C 28.5,58.8333 28.5,61.1667 28.5,63.5C 28.3146,65.1958 27.4813,66.5291 26,67.5C 23.7632,65.3529 21.7632,63.0196 20,60.5C 18.6569,61.2135 17.3236,60.8802 16,59.5C 14.9052,63.3849 13.7386,67.2183 12.5,71C 17.8229,71.4994 23.1563,71.666 28.5,71.5C 28.5,73.1667 28.5,74.8333 28.5,76.5C 21.1667,76.5 13.8333,76.5 6.5,76.5C 6.5,74.8333 6.5,73.1667 6.5,71.5C 7.43448,70.4324 7.76781,69.099 7.5,67.5C 8.43448,66.4324 8.76781,65.099 8.5,63.5C 9.43448,62.4324 9.76781,61.099 9.5,59.5C 10.29,58.3915 10.79,57.0581 11,55.5C 12.5095,54.9103 14.0095,54.2436 15.5,53.5C 15.3764,52.8933 15.0431,52.56 14.5,52.5C 14.5,51.8333 14.1667,51.5 13.5,51.5C 13.6716,50.5084 13.3382,49.8417 12.5,49.5C 12.0679,48.2905 11.4013,47.2905 10.5,46.5C 10.573,44.9731 9.90632,43.9731 8.5,43.5C 8.67158,42.5084 8.33825,41.8417 7.5,41.5C 7.67158,40.5084 7.33825,39.8417 6.5,39.5C 6.59794,37.4471 5.93127,35.7804 4.5,34.5C 4.73731,33.209 4.40397,32.209 3.5,31.5C 3.5,28.5 3.5,25.5 3.5,22.5C 5.67225,16.9959 9.00558,12.3292 13.5,8.5C 15.0269,8.57298 16.0269,7.90632 16.5,6.5C 17.791,6.73731 18.791,6.40397 19.5,5.5 Z M 24.5,56.5 C 25.1667,56.8333 25.8333,57.1667 26.5,57.5C 25.6987,59.7929 25.032,59.4596 24.5,56.5 Z"/></g>
<g><path style="opacity:0.012" fill="#fe5500" d="M 13.5,6.5 C 14.8333,7.16667 14.8333,7.16667 13.5,6.5 Z"/></g>
<g><path style="opacity:0.008" fill="#fe7f00" d="M 13.5,7.5 C 13.5,7.83333 13.5,8.16667 13.5,8.5C 12.8299,8.01865 12.8299,7.68532 13.5,7.5 Z"/></g>
<g><path style="opacity:0.008" fill="#fe7f00" d="M 10.5,8.5 C 11.8333,9.16667 11.8333,9.16667 10.5,8.5 Z"/></g>
<g><path style="opacity:0.924" fill="#fe9f5e" d="M 28.5,5.5 C 31.5418,5.73292 34.2084,6.73292 36.5,8.5C 36.5,10.1667 36.5,11.8333 36.5,13.5C 33.8284,12.4986 31.1618,11.4986 28.5,10.5C 28.5,8.83333 28.5,7.16667 28.5,5.5 Z"/></g>
<g><path style="opacity:0.01" fill="#fefffe" d="M 47.5,20.5 C 47.369,19.7611 47.5357,19.0944 48,18.5C 48.6917,19.4368 48.525,20.1034 47.5,20.5 Z"/></g>
<g><path style="opacity:0.803" fill="#fe6803" d="M 28.5,20.5 C 28.5,22.1667 28.5,23.8333 28.5,25.5C 27.1779,25.67 26.0113,25.3366 25,24.5C 24.2828,25.0442 23.7828,25.7109 23.5,26.5C 22.1667,27.8333 22.1667,29.1667 23.5,30.5C 24.5676,31.4345 25.901,31.7678 27.5,31.5C 27.5,33.5 27.5,35.5 27.5,37.5C 17.9233,36.1248 15.09,31.1248 19,22.5C 21.8482,19.6129 25.0148,18.9463 28.5,20.5 Z"/></g>
<g><path style="opacity:0.012" fill="#ff4800" d="M 3.5,22.5 C 2.42654,21.7494 2.25988,20.7494 3,19.5C 3.48278,20.448 3.64945,21.448 3.5,22.5 Z"/></g>
<g><path style="opacity:0.359" fill="#fed4b8" d="M 36.5,8.5 C 39.4274,9.75731 41.7607,11.7573 43.5,14.5C 43.5,23.1667 43.5,31.8333 43.5,40.5C 43.5,41.1667 43.5,41.8333 43.5,42.5C 42.6618,42.8417 42.3284,43.5084 42.5,44.5C 41.8333,44.5 41.5,44.8333 41.5,45.5C 40.6618,45.8417 40.3284,46.5084 40.5,47.5C 39.8333,47.8333 39.1667,48.1667 38.5,48.5C 38.5,45.8333 38.5,43.1667 38.5,40.5C 44.4326,30.917 43.7659,21.917 36.5,13.5C 36.5,11.8333 36.5,10.1667 36.5,8.5 Z"/></g>
<g><path style="opacity:0.987" fill="#feefe4" d="M 43.5,14.5 C 44.8333,16.5 46.1667,18.5 47.5,20.5C 48.6736,24.8474 48.6736,29.1808 47.5,33.5C 46.0687,34.7804 45.4021,36.4471 45.5,38.5C 44.6618,38.8417 44.3284,39.5084 44.5,40.5C 44.1667,40.5 43.8333,40.5 43.5,40.5C 43.5,31.8333 43.5,23.1667 43.5,14.5 Z"/></g>
<g><path style="opacity:0.012" fill="#ff51ff" d="M 1.5,23.5 C 2.62914,25.6282 2.79581,27.9615 2,30.5C 1.50335,28.1902 1.33669,25.8568 1.5,23.5 Z"/></g>
<g><path style="opacity:0.018" fill="#ff5600" d="M 23.5,26.5 C 24.2485,27.531 24.9152,28.6976 25.5,30C 24.9056,30.4643 24.2389,30.631 23.5,30.5C 23.5,29.1667 23.5,27.8333 23.5,26.5 Z"/></g>
<g><path style="opacity:0.848" fill="#fe8636" d="M 28.5,20.5 C 34.4053,23.1867 35.9053,27.52 33,33.5C 31.5679,35.4388 29.7346,36.7721 27.5,37.5C 27.5,35.5 27.5,33.5 27.5,31.5C 29.5124,29.7918 29.8458,27.7918 28.5,25.5C 28.5,23.8333 28.5,22.1667 28.5,20.5 Z"/></g>
<g><path style="opacity:0.012" fill="#ff5500" d="M 3.5,31.5 C 3.5,32.5 3.5,33.5 3.5,34.5C 2.16667,33.5 2.16667,32.5 3.5,31.5 Z"/></g>
<g><path style="opacity:0.01" fill="#fefffe" d="M 47.5,33.5 C 48.525,33.8966 48.6917,34.5632 48,35.5C 47.5357,34.9056 47.369,34.2389 47.5,33.5 Z"/></g>
<g><path style="opacity:0.012" fill="#ff6400" d="M 3.5,34.5 C 3.83333,34.5 4.16667,34.5 4.5,34.5C 4.16667,37.1667 3.83333,37.1667 3.5,34.5 Z"/></g>
<g><path style="opacity:0.012" fill="#fefffe" d="M 46.5,36.5 C 47.8333,37.1667 47.8333,37.1667 46.5,36.5 Z"/></g>
<g><path style="opacity:0.004" fill="#ff2e00" d="M 5.5,39.5 C 4.47498,39.1034 4.30831,38.4368 5,37.5C 5.46434,38.0944 5.63101,38.7611 5.5,39.5 Z"/></g>
<g><path style="opacity:0.004" fill="#fffee2" d="M 45.5,38.5 C 46.8333,39.1667 46.8333,39.8333 45.5,40.5C 45.5,39.8333 45.5,39.1667 45.5,38.5 Z"/></g>
<g><path style="opacity:0.004" fill="#ff2e00" d="M 5.5,39.5 C 5.83333,39.5 6.16667,39.5 6.5,39.5C 6.5,40.1667 6.5,40.8333 6.5,41.5C 5.66175,41.1583 5.32842,40.4916 5.5,39.5 Z"/></g>
<g><path style="opacity:0.012" fill="#fe5500" d="M 6.5,41.5 C 6.83333,41.5 7.16667,41.5 7.5,41.5C 7.31468,42.1701 6.98135,42.1701 6.5,41.5 Z"/></g>
<g><path style="opacity:0.004" fill="#fffee2" d="M 44.5,40.5 C 44.8333,40.5 45.1667,40.5 45.5,40.5C 45.6716,41.4916 45.3382,42.1583 44.5,42.5C 44.5,41.8333 44.5,41.1667 44.5,40.5 Z"/></g>
<g><path style="opacity:0.012" fill="#feffa9" d="M 43.5,42.5 C 43.8333,42.5 44.1667,42.5 44.5,42.5C 44.3147,43.1701 43.9813,43.1701 43.5,42.5 Z"/></g>
<g><path style="opacity:0.012" fill="#fe5500" d="M 8.5,43.5 C 7.83333,44.1667 7.83333,44.1667 8.5,43.5 Z"/></g>
<g><path style="opacity:0.012" fill="#feaaa9" d="M 42.5,44.5 C 43.8333,45.1667 43.8333,45.1667 42.5,44.5 Z"/></g>
<g><path style="opacity:0.008" fill="#fe7f00" d="M 9.5,46.5 C 8.83333,45.1667 8.83333,45.1667 9.5,46.5 Z"/></g>
<g><path style="opacity:0.008" fill="#feff7e" d="M 41.5,45.5 C 41.8333,45.5 42.1667,45.5 42.5,45.5C 42.6716,46.4916 42.3382,47.1583 41.5,47.5C 41.5,46.8333 41.5,46.1667 41.5,45.5 Z"/></g>
<g><path style="opacity:0.004" fill="#ff2e00" d="M 9.5,46.5 C 9.83333,46.5 10.1667,46.5 10.5,46.5C 10.1667,49.1667 9.83333,49.1667 9.5,46.5 Z"/></g>
<g><path style="opacity:0.016" fill="#febf7e" d="M 40.5,47.5 C 40.8333,47.5 41.1667,47.5 41.5,47.5C 41.3147,48.1701 40.9813,48.1701 40.5,47.5 Z"/></g>
<g><path style="opacity:0.012" fill="#feaaa9" d="M 39.5,49.5 C 40.8333,50.1667 40.8333,50.1667 39.5,49.5 Z"/></g>
<g><path style="opacity:0.008" fill="#ff65ff" d="M 12.5,49.5 C 12.5,50.1667 12.5,50.8333 12.5,51.5C 11.1667,50.8333 11.1667,50.1667 12.5,49.5 Z"/></g>
<g><path style="opacity:0.012" fill="#ff6700" d="M 12.5,51.5 C 12.8333,51.5 13.1667,51.5 13.5,51.5C 14.1667,51.5 14.5,51.8333 14.5,52.5C 13.7494,53.5735 12.7494,53.7401 11.5,53C 12.056,52.6174 12.3893,52.1174 12.5,51.5 Z"/></g>
<g><path style="opacity:0.008" fill="#ffe7b3" d="M 38.5,50.5 C 38.8333,50.5 39.1667,50.5 39.5,50.5C 39.4142,51.4959 39.7476,52.3292 40.5,53C 39.2506,53.7401 38.2506,53.5735 37.5,52.5C 38.3382,52.1583 38.6716,51.4916 38.5,50.5 Z"/></g>
<g><path style="opacity:0.822" fill="#fec9a6" d="M 36.5,54.5 C 37.8333,54.5 39.1667,54.5 40.5,54.5C 41.0552,58.3968 42.0552,62.0635 43.5,65.5C 43.2322,67.099 43.5655,68.4324 44.5,69.5C 44.2322,71.099 44.5655,72.4324 45.5,73.5C 45.5,74.5 45.5,75.5 45.5,76.5C 42.8333,76.5 40.1667,76.5 37.5,76.5C 37.5,74.8333 37.5,73.1667 37.5,71.5C 38.1239,71.0831 38.4573,70.4164 38.5,69.5C 37.6716,66.5212 37.0049,63.5212 36.5,60.5C 36.5,58.5 36.5,56.5 36.5,54.5 Z"/></g>
<g><path style="opacity:0.902" fill="#fe8635" d="M 32.5,50.5 C 32.2529,53.9387 32.5863,57.272 33.5,60.5C 31.5887,61.075 29.922,62.075 28.5,63.5C 28.5,61.1667 28.5,58.8333 28.5,56.5C 29.3403,54.1475 30.6736,52.1475 32.5,50.5 Z"/></g>
<g><path style="opacity:0.997" fill="#ffab73" d="M 38.5,40.5 C 38.5,43.1667 38.5,45.8333 38.5,48.5C 38.5,49.1667 38.5,49.8333 38.5,50.5C 37.6618,50.8417 37.3284,51.5084 37.5,52.5C 35.8946,53.0059 35.5613,53.6726 36.5,54.5C 36.5,56.5 36.5,58.5 36.5,60.5C 35.7321,61.2625 35.2321,62.2625 35,63.5C 34.7679,62.2625 34.2679,61.2625 33.5,60.5C 32.5863,57.272 32.2529,53.9387 32.5,50.5C 34.0002,46.827 36.0002,43.4937 38.5,40.5 Z"/></g>
<g><path style="opacity:0.016" fill="#ffd4d3" d="M 41.5,54.5 C 42.525,54.8966 42.6917,55.5632 42,56.5C 41.5357,55.9056 41.369,55.2389 41.5,54.5 Z"/></g>
<g><path style="opacity:0.012" fill="#ff6cff" d="M 9.5,59.5 C 8.42654,58.7494 8.25988,57.7494 9,56.5C 9.48278,57.448 9.64945,58.448 9.5,59.5 Z"/></g>
<g><path style="opacity:0.008" fill="#ffefb0" d="M 42.5,57.5 C 43.5735,58.2506 43.7401,59.2506 43,60.5C 42.5172,59.552 42.3505,58.552 42.5,57.5 Z"/></g>
<g><path style="opacity:0.012" fill="#ff6cff" d="M 8.5,63.5 C 7.42654,62.7494 7.25988,61.7494 8,60.5C 8.48278,61.448 8.64945,62.448 8.5,63.5 Z"/></g>
<g><path style="opacity:0.016" fill="#ffdfc0" d="M 43.5,65.5 C 43.3505,64.448 43.5172,63.448 44,62.5C 44.7401,63.7494 44.5735,64.7494 43.5,65.5 Z"/></g>
<g><path style="opacity:0.012" fill="#ff6cff" d="M 7.5,67.5 C 6.42654,66.7494 6.25988,65.7494 7,64.5C 7.48278,65.448 7.64945,66.448 7.5,67.5 Z"/></g>
<g><path style="opacity:0.016" fill="#ffdfde" d="M 44.5,69.5 C 44.3505,68.448 44.5172,67.448 45,66.5C 45.7401,67.7494 45.5735,68.7494 44.5,69.5 Z"/></g>
<g><path style="opacity:0.012" fill="#ff5500" d="M 6.5,71.5 C 5.42654,70.7494 5.25988,69.7494 6,68.5C 6.48278,69.448 6.64945,70.448 6.5,71.5 Z"/></g>
<g><path style="opacity:0.016" fill="#fffedf" d="M 45.5,73.5 C 45.3505,72.448 45.5172,71.448 46,70.5C 46.7401,71.7494 46.5735,72.7494 45.5,73.5 Z"/></g>
<g><path style="opacity:0.784" fill="#fea162" d="M 28.5,71.5 C 31.5,71.5 34.5,71.5 37.5,71.5C 37.5,73.1667 37.5,74.8333 37.5,76.5C 34.5,76.5 31.5,76.5 28.5,76.5C 28.5,74.8333 28.5,73.1667 28.5,71.5 Z"/></g>
<g><path style="opacity:0.012" fill="#ff5500" d="M 4.5,72.5 C 5.57346,73.2506 5.74012,74.2506 5,75.5C 4.51722,74.552 4.35055,73.552 4.5,72.5 Z"/></g>
<g><path style="opacity:0.008" fill="#fefffe" d="M 46.5,74.5 C 47.8333,75.1667 47.8333,75.1667 46.5,74.5 Z"/></g>
</svg>
