<?xml version="1.0" encoding="UTF-8"?>
<!DOCTYPE svg PUBLIC "-//W3C//DTD SVG 1.1//EN" "http://www.w3.org/Graphics/SVG/1.1/DTD/svg11.dtd">
<svg xmlns="http://www.w3.org/2000/svg" version="1.1" width="118px" height="70px" style="shape-rendering:geometricPrecision; text-rendering:geometricPrecision; image-rendering:optimizeQuality; fill-rule:evenodd; clip-rule:evenodd" xmlns:xlink="http://www.w3.org/1999/xlink">
<g><path style="opacity:0.94" fill="#ff6803" d="M 75.5,13.5 C 76.7537,17.8183 76.7537,22.1516 75.5,26.5C 75.5,26.8333 75.5,27.1667 75.5,27.5C 71.7966,31.2023 68.4633,35.2023 65.5,39.5C 63.5273,40.806 61.8606,42.4727 60.5,44.5C 59.8333,44.5 59.5,44.8333 59.5,45.5C 59.1667,45.5 58.8333,45.5 58.5,45.5C 57.5,45.1667 56.8333,44.5 56.5,43.5C 52.5368,39.0355 48.3702,34.7022 44,30.5C 40.9043,25.4683 40.071,20.1349 41.5,14.5C 44.306,6.58048 49.9727,2.24715 58.5,1.5C 66.8803,1.84176 72.5469,5.84176 75.5,13.5 Z M 55.5,11.5 C 64.8464,11.332 68.3464,15.6653 66,24.5C 60.5135,30.0804 55.5135,29.747 51,23.5C 49.4742,18.2389 50.9742,14.2389 55.5,11.5 Z"/></g>
<g><path style="opacity:0.879" fill="#fffefe" d="M 41.5,14.5 C 40.071,20.1349 40.9043,25.4683 44,30.5C 48.3702,34.7022 52.5368,39.0355 56.5,43.5C 50.8236,43.6661 45.1569,43.4994 39.5,43C 38.8742,42.2496 38.3742,41.4162 38,40.5C 27.7211,45.5904 17.2211,50.0904 6.5,54C 10.706,45.7541 15.0393,37.5875 19.5,29.5C 23.7154,28.2023 27.8821,28.2023 32,29.5C 32.1667,29.1667 32.3333,28.8333 32.5,28.5C 28.5408,27.6735 24.5408,27.1735 20.5,27C 21.627,25.2467 22.627,23.4134 23.5,21.5C 29.1871,18.3817 35.1871,16.0484 41.5,14.5 Z"/></g>
<g><path style="opacity:0.839" fill="#fffcfb" d="M 75.5,13.5 C 81.5889,15.7088 87.5889,18.2088 93.5,21C 95.8333,25.3333 98.1667,29.6667 100.5,34C 93.5092,33.3783 86.6759,31.8783 80,29.5C 79.5348,30.9308 78.7014,32.0975 77.5,33C 73.3568,34.9941 69.3568,37.1608 65.5,39.5C 68.4633,35.2023 71.7966,31.2023 75.5,27.5C 76.8333,27.1667 76.8333,26.8333 75.5,26.5C 76.7537,22.1516 76.7537,17.8183 75.5,13.5 Z"/></g>
<g><path style="opacity:0.892" fill="#fefffe" d="M 58.5,45.5 C 58.8333,45.5 59.1667,45.5 59.5,45.5C 60.1667,45.5 60.5,45.1667 60.5,44.5C 62.8553,43.9056 65.022,42.9056 67,41.5C 67.772,41.6448 68.4387,41.9781 69,42.5C 69.5831,40.9984 70.4164,39.6651 71.5,38.5C 75.1287,36.6999 78.6287,34.6999 82,32.5C 88.0709,34.249 94.2376,35.749 100.5,37C 101.416,37.3742 102.25,37.8742 103,38.5C 107.245,47.3238 111.745,55.9905 116.5,64.5C 116,64.8333 115.5,65.1667 115,65.5C 106.806,62.102 98.4723,59.102 90,56.5C 79.6667,59.5 69.3333,62.5 59,65.5C 48.5895,62.8245 37.9229,59.8245 27,56.5C 18.2768,59.9644 9.44347,62.7977 0.5,65C 1.70794,62.7497 3.04127,60.583 4.5,58.5C 13.5,54.3333 22.5,50.1667 31.5,46C 40.7177,45.6057 49.7177,45.439 58.5,45.5 Z"/></g>
</svg>
