<?xml version="1.0" encoding="UTF-8"?>
<!DOCTYPE svg PUBLIC "-//W3C//DTD SVG 1.1//EN" "http://www.w3.org/Graphics/SVG/1.1/DTD/svg11.dtd">
<svg xmlns="http://www.w3.org/2000/svg" version="1.1" width="74px" height="77px" style="shape-rendering:geometricPrecision; text-rendering:geometricPrecision; image-rendering:optimizeQuality; fill-rule:evenodd; clip-rule:evenodd" xmlns:xlink="http://www.w3.org/1999/xlink">
<g><path style="opacity:0.012" fill="#fe7f00" d="M 23.5,4.5 C 24.6009,3.40168 25.9343,3.23502 27.5,4C 26.2068,4.49001 24.8734,4.65668 23.5,4.5 Z"/></g>
<g><path style="opacity:0.012" fill="#ff4400" d="M 28.5,5.5 C 28.8966,4.47498 29.5632,4.30831 30.5,5C 29.9056,5.46434 29.2389,5.63101 28.5,5.5 Z"/></g>
<g><path style="opacity:0.768" fill="#fd6500" d="M 28.5,5.5 C 29.209,6.40397 30.209,6.73731 31.5,6.5C 31.8417,7.33825 32.5084,7.67158 33.5,7.5C 38.2637,10.9284 41.9304,15.2617 44.5,20.5C 44.2627,21.791 44.596,22.791 45.5,23.5C 45.5,24.5 45.5,25.5 45.5,26.5C 43.8333,27.8333 42.1667,27.8333 40.5,26.5C 40.7373,25.209 40.404,24.209 39.5,23.5C 39.7373,22.209 39.404,21.209 38.5,20.5C 38.6716,19.5084 38.3382,18.8417 37.5,18.5C 36.4007,15.0679 34.0674,13.0679 30.5,12.5C 30.1583,11.6618 29.4916,11.3284 28.5,11.5C 26.5739,10.5139 24.5739,9.51385 22.5,8.5C 22.4142,7.5041 22.7476,6.67076 23.5,6C 25.1341,5.50649 26.8008,5.33982 28.5,5.5 Z"/></g>
<g><path style="opacity:0.012" fill="#fe5500" d="M 31.5,5.5 C 32.8333,6.16667 32.8333,6.16667 31.5,5.5 Z"/></g>
<g><path style="opacity:0.012" fill="#fe5500" d="M 33.5,6.5 C 34.8333,7.16667 34.8333,7.16667 33.5,6.5 Z"/></g>
<g><path style="opacity:0.004" fill="#fe0000" d="M 21.5,8.5 C 20.8333,7.16667 20.8333,7.16667 21.5,8.5 Z"/></g>
<g><path style="opacity:0.008" fill="#fe7f00" d="M 35.5,7.5 C 36.8333,8.16667 36.8333,8.16667 35.5,7.5 Z"/></g>
<g><path style="opacity:0.004" fill="#fe0000" d="M 21.5,8.5 C 21.8333,8.5 22.1667,8.5 22.5,8.5C 22.3147,9.17014 21.9813,9.17014 21.5,8.5 Z"/></g>
<g><path style="opacity:0.008" fill="#fe7f00" d="M 24.5,11.5 C 23.8333,10.1667 23.8333,10.1667 24.5,11.5 Z"/></g>
<g><path style="opacity:0.012" fill="#ff5100" d="M 24.5,11.5 C 25.8333,11.5 27.1667,11.5 28.5,11.5C 28.5,11.8333 28.5,12.1667 28.5,12.5C 27.609,13.1098 26.609,13.4431 25.5,13.5C 25.1667,12.8333 24.8333,12.1667 24.5,11.5 Z"/></g>
<g><path style="opacity:0.008" fill="#fe7f00" d="M 22.5,12.5 C 23.8333,13.1667 23.8333,13.1667 22.5,12.5 Z"/></g>
<g><path style="opacity:0.004" fill="#fe0000" d="M 22.5,13.5 C 22.5,13.8333 22.5,14.1667 22.5,14.5C 21.8299,14.0187 21.8299,13.6853 22.5,13.5 Z"/></g>
<g><path style="opacity:0.012" fill="#ff5500" d="M 28.5,12.5 C 29.1667,12.5 29.8333,12.5 30.5,12.5C 29.4523,14.9327 28.7856,14.9327 28.5,12.5 Z"/></g>
<g><path style="opacity:0.752" fill="#fd6500" d="M 25.5,13.5 C 29.6028,15.2164 32.9361,17.8831 35.5,21.5C 35.3284,22.4916 35.6618,23.1583 36.5,23.5C 36.5,24.8333 36.5,26.1667 36.5,27.5C 35.2921,28.2341 33.9587,28.5674 32.5,28.5C 32.6716,27.5084 32.3382,26.8417 31.5,26.5C 31.7373,25.209 31.404,24.209 30.5,23.5C 28.846,20.3337 26.1794,18.667 22.5,18.5C 22.5,17.1667 22.5,15.8333 22.5,14.5C 23.609,14.4431 24.609,14.1098 25.5,13.5 Z"/></g>
<g><path style="opacity:0.004" fill="#ff56ff" d="M 21.5,14.5 C 21.6495,15.552 21.4828,16.552 21,17.5C 20.2599,16.2506 20.4265,15.2506 21.5,14.5 Z"/></g>
<g><path style="opacity:0.008" fill="#ff70ff" d="M 37.5,18.5 C 37.5,19.1667 37.5,19.8333 37.5,20.5C 36.8333,20.5 36.5,20.8333 36.5,21.5C 36.1667,21.5 35.8333,21.5 35.5,21.5C 35.427,19.9731 36.0937,18.9731 37.5,18.5 Z"/></g>
<g><path style="opacity:0.012" fill="#fe5500" d="M 23.5,19.5 C 24.8333,20.1667 24.8333,20.1667 23.5,19.5 Z"/></g>
<g><path style="opacity:0.012" fill="#ff6400" d="M 44.5,20.5 C 44.369,19.7611 44.5357,19.0944 45,18.5C 45.6917,19.4368 45.525,20.1034 44.5,20.5 Z"/></g>
<g><path style="opacity:0.012" fill="#fe5500" d="M 45.5,23.5 C 45.369,22.7611 45.5357,22.0944 46,21.5C 46.6917,22.4368 46.525,23.1034 45.5,23.5 Z"/></g>
<g><path style="opacity:0.012" fill="#ff3a00" d="M 30.5,23.5 C 30.5,24.5 30.5,25.5 30.5,26.5C 29.1667,25.5 29.1667,24.5 30.5,23.5 Z"/></g>
<g><path style="opacity:0.012" fill="#ff60ff" d="M 37.5,20.5 C 37.8333,20.5 38.1667,20.5 38.5,20.5C 38.2627,21.791 38.596,22.791 39.5,23.5C 39.5,24.5 39.5,25.5 39.5,26.5C 38.8333,26.8333 38.1667,27.1667 37.5,27.5C 37.7678,25.901 37.4345,24.5676 36.5,23.5C 36.5,22.8333 36.5,22.1667 36.5,21.5C 37.1667,21.5 37.5,21.1667 37.5,20.5 Z"/></g>
<g><path style="opacity:0.004" fill="#fe0000" d="M 46.5,26.5 C 46.369,25.7611 46.5357,25.0944 47,24.5C 47.6917,25.4368 47.525,26.1034 46.5,26.5 Z"/></g>
<g><path style="opacity:0.004" fill="#fe0000" d="M 23.5,25.5 C 24.8333,26.1667 24.8333,26.1667 23.5,25.5 Z"/></g>
<g><path style="opacity:0.012" fill="#ff6000" d="M 8.5,27.5 C 9.25057,26.4265 10.2506,26.2599 11.5,27C 10.552,27.4828 9.55198,27.6495 8.5,27.5 Z"/></g>
<g><path style="opacity:0.004" fill="#ff2e00" d="M 27.5,27.5 C 26.7611,27.631 26.0944,27.4643 25.5,27C 26.4368,26.3083 27.1034,26.475 27.5,27.5 Z"/></g>
<g><path style="opacity:0.004" fill="#fe0000" d="M 39.5,26.5 C 39.8333,26.5 40.1667,26.5 40.5,26.5C 40.3147,27.1701 39.9813,27.1701 39.5,26.5 Z"/></g>
<g><path style="opacity:0.004" fill="#fe0000" d="M 45.5,26.5 C 45.8333,26.5 46.1667,26.5 46.5,26.5C 46.3147,27.1701 45.9813,27.1701 45.5,26.5 Z"/></g>
<g><path style="opacity:0.795" fill="#fd6500" d="M 27.5,28.5 C 28.209,29.404 29.209,29.7373 30.5,29.5C 32.2143,30.7384 34.2143,31.405 36.5,31.5C 38.7916,33.2671 41.4582,34.2671 44.5,34.5C 45.209,35.404 46.209,35.7373 47.5,35.5C 49.7916,37.2671 52.4582,38.2671 55.5,38.5C 56.209,39.404 57.209,39.7373 58.5,39.5C 59.209,40.404 60.209,40.7373 61.5,40.5C 62.7804,41.9313 64.4471,42.5979 66.5,42.5C 69.2589,42.9333 70.5922,44.6 70.5,47.5C 69.2905,47.9321 68.2905,48.5987 67.5,49.5C 66.5084,49.3284 65.8417,49.6618 65.5,50.5C 64.5084,50.3284 63.8417,50.6618 63.5,51.5C 62.5084,51.3284 61.8417,51.6618 61.5,52.5C 60.5084,52.3284 59.8417,52.6618 59.5,53.5C 58.1667,53.8333 58.1667,54.1667 59.5,54.5C 62.8333,58.5 66.5,62.1667 70.5,65.5C 70.5,66.1667 70.5,66.8333 70.5,67.5C 69.8333,67.5 69.5,67.8333 69.5,68.5C 68.8333,68.5 68.5,68.8333 68.5,69.5C 67.8333,69.5 67.5,69.8333 67.5,70.5C 66.8333,70.5 66.5,70.8333 66.5,71.5C 65.8333,71.5 65.5,71.8333 65.5,72.5C 64.8333,72.5 64.5,72.8333 64.5,73.5C 63.8333,73.5 63.5,73.8333 63.5,74.5C 62.8333,74.5 62.5,74.8333 62.5,75.5C 61.8333,75.5 61.5,75.8333 61.5,76.5C 60.5,76.5 59.5,76.5 58.5,76.5C 58.5,75.8333 58.1667,75.5 57.5,75.5C 54.8333,72.1667 51.8333,69.1667 48.5,66.5C 47.3774,65.2426 46.7107,65.5759 46.5,67.5C 45.6618,67.8417 45.3284,68.5084 45.5,69.5C 44.6618,69.8417 44.3284,70.5084 44.5,71.5C 43.6618,71.8417 43.3284,72.5084 43.5,73.5C 42.0937,73.9731 41.427,74.9731 41.5,76.5C 40.5,76.5 39.5,76.5 38.5,76.5C 38.5,75.8333 38.1667,75.5 37.5,75.5C 37.6716,74.5084 37.3382,73.8417 36.5,73.5C 36.7373,72.209 36.404,71.209 35.5,70.5C 35.5979,68.4471 34.9313,66.7804 33.5,65.5C 33.7373,64.209 33.404,63.209 32.5,62.5C 32.7373,61.209 32.404,60.209 31.5,59.5C 31.7373,58.209 31.404,57.209 30.5,56.5C 30.5979,54.4471 29.9313,52.7804 28.5,51.5C 28.7373,50.209 28.404,49.209 27.5,48.5C 27.7373,47.209 27.404,46.209 26.5,45.5C 26.5979,43.4471 25.9313,41.7804 24.5,40.5C 24.405,38.2143 23.7384,36.2143 22.5,34.5C 22.7373,33.209 22.404,32.209 21.5,31.5C 21.33,30.1779 21.6634,29.0113 22.5,28C 24.1075,28.0187 25.7741,28.1854 27.5,28.5 Z M 28.5,34.5 C 29.4916,34.3284 30.1583,34.6618 30.5,35.5C 29.6618,35.8417 29.3284,36.5084 29.5,37.5C 28.596,36.791 28.2627,35.791 28.5,34.5 Z M 29.5,37.5 C 30.2216,37.9175 30.7216,38.5842 31,39.5C 31.4169,38.244 32.2502,37.5774 33.5,37.5C 34.5,38.8333 35.5,38.8333 36.5,37.5C 38.5529,37.4021 40.2196,38.0687 41.5,39.5C 42.791,39.2627 43.791,39.596 44.5,40.5C 45.791,40.2627 46.791,40.596 47.5,41.5C 49.5529,41.4021 51.2196,42.0687 52.5,43.5C 53.791,43.2627 54.791,43.596 55.5,44.5C 56.791,44.2627 57.791,44.596 58.5,45.5C 56.3023,45.4088 55.9689,46.0755 57.5,47.5C 54.1403,48.0264 51.8069,49.8597 50.5,53C 54.1192,57.6219 58.1192,61.9552 62.5,66C 61.6667,66.8333 60.8333,67.6667 60,68.5C 55.9552,64.1192 51.6219,60.1192 47,56.5C 44.1155,57.4661 42.9488,59.1328 43.5,61.5C 42.8717,64.09 41.705,66.4234 40,68.5C 39.5172,67.552 39.3505,66.552 39.5,65.5C 42.1667,64.5 42.1667,63.5 39.5,62.5C 39.5086,60.6916 39.0086,59.0249 38,57.5C 37.5357,58.0944 37.369,58.7611 37.5,59.5C 36.596,58.791 36.2627,57.791 36.5,56.5C 35.0687,55.2196 34.4021,53.5529 34.5,51.5C 35.6211,49.9106 35.4544,48.2439 34,46.5C 33.5357,47.0944 33.369,47.7611 33.5,48.5C 32.596,47.791 32.2627,46.791 32.5,45.5C 31.596,44.791 31.2627,43.791 31.5,42.5C 30.0687,41.2196 29.4021,39.5529 29.5,37.5 Z M 58.5,45.5 C 59.675,45.281 60.675,45.6143 61.5,46.5C 61.0431,47.2975 60.3764,47.6309 59.5,47.5C 59.1667,46.8333 58.8333,46.1667 58.5,45.5 Z M 48.5,66.5 C 47.8333,66.8333 47.1667,67.1667 46.5,67.5C 46.7107,65.5759 47.3774,65.2426 48.5,66.5 Z"/></g>
<g><path style="opacity:0.012" fill="#ff4aff" d="M 30.5,26.5 C 30.8333,26.5 31.1667,26.5 31.5,26.5C 31.3284,27.4916 31.6618,28.1583 32.5,28.5C 32.1583,29.3382 31.4916,29.6716 30.5,29.5C 29.791,28.596 28.791,28.2627 27.5,28.5C 27.5,28.1667 27.5,27.8333 27.5,27.5C 28.791,27.7373 29.791,27.404 30.5,26.5 Z"/></g>
<g><path style="opacity:0.004" fill="#fe0000" d="M 36.5,27.5 C 36.8333,27.5 37.1667,27.5 37.5,27.5C 37.3147,28.1701 36.9813,28.1701 36.5,27.5 Z"/></g>
<g><path style="opacity:0.784" fill="#ff965a" d="M -0.5,-0.5 C -0.166667,-0.5 0.166667,-0.5 0.5,-0.5C 0.168247,9.18959 0.50158,18.8563 1.5,28.5C 3.20996,30.6432 4.5433,32.9765 5.5,35.5C 5.32842,36.4916 5.66175,37.1583 6.5,37.5C 8.34674,42.0124 11.6801,44.679 16.5,45.5C 17.6412,46.339 18.9745,47.0057 20.5,47.5C 21.3857,48.325 21.719,49.325 21.5,50.5C 20.8333,50.5 20.5,50.8333 20.5,51.5C 18.1944,51.0074 15.861,50.6741 13.5,50.5C 12.4863,49.3263 11.153,48.6596 9.5,48.5C 9.16667,47.5 8.5,46.8333 7.5,46.5C 6.5,44.8333 5.16667,43.5 3.5,42.5C 2.84069,39.5918 2.00736,39.2584 1,41.5C 0.500136,53.1619 0.333469,64.8286 0.5,76.5C 0.166667,76.5 -0.166667,76.5 -0.5,76.5C -0.5,50.8333 -0.5,25.1667 -0.5,-0.5 Z M 3.5,42.5 C 5.16667,43.5 6.5,44.8333 7.5,46.5C 5.16667,46.1667 3.83333,44.8333 3.5,42.5 Z"/></g>
<g><path style="opacity:0.762" fill="#fd6500" d="M 17.5,36.5 C 18.6002,37.5585 19.9336,38.3918 21.5,39C 22.2524,39.6708 22.5858,40.5041 22.5,41.5C 20.6208,42.3414 18.6208,42.6747 16.5,42.5C 13.5,40.1667 10.8333,37.5 8.5,34.5C 8.57918,33.0695 8.24585,31.7362 7.5,30.5C 8.61974,28.4038 10.1197,28.0705 12,29.5C 12.4318,33.0717 14.2652,35.405 17.5,36.5 Z"/></g>
<g><path style="opacity:0.01" fill="#fe7f00" d="M 41.5,29.5 C 42.2506,28.4265 43.2506,28.2599 44.5,29C 43.552,29.4828 42.552,29.6495 41.5,29.5 Z"/></g>
<g><path style="opacity:0.012" fill="#fe7f00" d="M 13.5,29.5 C 14.525,29.8966 14.6917,30.5632 14,31.5C 13.5357,30.9056 13.369,30.2389 13.5,29.5 Z"/></g>
<g><path style="opacity:0.012" fill="#ff3a00" d="M 20.5,31.5 C 19.4265,30.7494 19.2599,29.7494 20,28.5C 20.4828,29.448 20.6495,30.448 20.5,31.5 Z"/></g>
<g><path style="opacity:0.012" fill="#ff5000" d="M 4.5,29.5 C 6.33702,29.6395 6.67036,30.3061 5.5,31.5C 4.70245,31.0431 4.36912,30.3764 4.5,29.5 Z"/></g>
<g><path style="opacity:0.008" fill="#ff7200" d="M 36.5,31.5 C 36.8966,30.475 37.5632,30.3083 38.5,31C 37.9056,31.4643 37.2389,31.631 36.5,31.5 Z"/></g>
<g><path style="opacity:0.004" fill="#ff2e00" d="M 39.5,32.5 C 39.8966,31.475 40.5632,31.3083 41.5,32C 40.9056,32.4643 40.2389,32.631 39.5,32.5 Z"/></g>
<g><path style="opacity:0.012" fill="#ff3a00" d="M 7.5,34.5 C 6.83333,34.5 6.5,34.8333 6.5,35.5C 6.16667,35.5 5.83333,35.5 5.5,35.5C 5.28099,34.325 5.61432,33.325 6.5,32.5C 7.29755,32.9569 7.63088,33.6236 7.5,34.5 Z"/></g>
<g><path style="opacity:0.012" fill="#ff3a00" d="M 20.5,31.5 C 20.8333,31.5 21.1667,31.5 21.5,31.5C 21.5,32.5 21.5,33.5 21.5,34.5C 20.596,33.791 20.2627,32.791 20.5,31.5 Z"/></g>
<g><path style="opacity:0.012" fill="#ff6400" d="M 44.5,34.5 C 44.8966,33.475 45.5632,33.3083 46.5,34C 45.9056,34.4643 45.2389,34.631 44.5,34.5 Z"/></g>
<g><path style="opacity:0.008" fill="#ff7700" d="M 7.5,34.5 C 7.83333,34.5 8.16667,34.5 8.5,34.5C 8.57298,36.0269 7.90632,37.0269 6.5,37.5C 6.5,36.8333 6.5,36.1667 6.5,35.5C 7.16667,35.5 7.5,35.1667 7.5,34.5 Z"/></g>
<g><path style="opacity:0.008" fill="#ff7200" d="M 47.5,35.5 C 47.8966,34.475 48.5632,34.3083 49.5,35C 48.9056,35.4643 48.2389,35.631 47.5,35.5 Z"/></g>
<g><path style="opacity:0.004" fill="#ff45ff" d="M 17.5,36.5 C 17.8966,35.475 18.5632,35.3083 19.5,36C 18.9056,36.4643 18.2389,36.631 17.5,36.5 Z"/></g>
<g><path style="opacity:0.012" fill="#ff6400" d="M 21.5,34.5 C 21.8333,34.5 22.1667,34.5 22.5,34.5C 22.6716,35.4916 22.3382,36.1583 21.5,36.5C 21.5,35.8333 21.5,35.1667 21.5,34.5 Z"/></g>
<g><path style="opacity:0.004" fill="#ff2e00" d="M 50.5,36.5 C 50.8966,35.475 51.5632,35.3083 52.5,36C 51.9056,36.4643 51.2389,36.631 50.5,36.5 Z"/></g>
<g><path style="opacity:0.008" fill="#fe7f00" d="M 21.5,36.5 C 20.8333,37.1667 20.8333,37.1667 21.5,36.5 Z"/></g>
<g><path style="opacity:0.004" fill="#ff52ff" d="M 30.5,35.5 C 31.209,36.404 32.209,36.7373 33.5,36.5C 33.5,36.8333 33.5,37.1667 33.5,37.5C 32.2502,37.5774 31.4169,38.244 31,39.5C 30.7216,38.5842 30.2216,37.9175 29.5,37.5C 29.3284,36.5084 29.6618,35.8417 30.5,35.5 Z"/></g>
<g><path style="opacity:0.012" fill="#ff6400" d="M 55.5,38.5 C 55.8966,37.475 56.5632,37.3083 57.5,38C 56.9056,38.4643 56.2389,38.631 55.5,38.5 Z"/></g>
<g><path style="opacity:0.008" fill="#ff7200" d="M 58.5,39.5 C 58.8966,38.475 59.5632,38.3083 60.5,39C 59.9056,39.4643 59.2389,39.631 58.5,39.5 Z"/></g>
<g><path style="opacity:0.008" fill="#ff7200" d="M 61.5,40.5 C 61.8966,39.475 62.5632,39.3083 63.5,40C 62.9056,40.4643 62.2389,40.631 61.5,40.5 Z"/></g>
<g><path style="opacity:0.004" fill="#ff2e00" d="M 66.5,41.5 C 65.7611,41.631 65.0944,41.4643 64.5,41C 65.4368,40.3083 66.1034,40.475 66.5,41.5 Z"/></g>
<g><path style="opacity:0.008" fill="#ff65ff" d="M 24.5,40.5 C 24.2893,42.4241 23.6226,42.7574 22.5,41.5C 23.1667,41.1667 23.8333,40.8333 24.5,40.5 Z"/></g>
<g><path style="opacity:0.012" fill="#ff4400" d="M 66.5,42.5 C 66.5,42.1667 66.5,41.8333 66.5,41.5C 69.1667,41.8333 69.1667,42.1667 66.5,42.5 Z"/></g>
<g><path style="opacity:0.012" fill="#ff4000" d="M 16.5,42.5 C 16.5,43.1667 16.5,43.8333 16.5,44.5C 13.8333,43.8333 13.8333,43.1667 16.5,42.5 Z"/></g>
<g><path style="opacity:0.01" fill="#ff7600" d="M 16.5,45.5 C 16.5,45.1667 16.5,44.8333 16.5,44.5C 18.0683,43.5269 19.735,43.3603 21.5,44C 19.9751,45.0086 18.3084,45.5086 16.5,45.5 Z"/></g>
<g><path style="opacity:0.004" fill="#ff2e00" d="M 25.5,45.5 C 24.475,45.1034 24.3083,44.4368 25,43.5C 25.4643,44.0944 25.631,44.7611 25.5,45.5 Z"/></g>
<g><path style="opacity:0.004" fill="#fe0000" d="M 20.5,45.5 C 21.8333,46.1667 21.8333,46.1667 20.5,45.5 Z"/></g>
<g><path style="opacity:0.008" fill="#ff6f00" d="M 58.5,45.5 C 58.8333,46.1667 59.1667,46.8333 59.5,47.5C 58.8333,47.5 58.1667,47.5 57.5,47.5C 55.9689,46.0755 56.3023,45.4088 58.5,45.5 Z"/></g>
<g><path style="opacity:0.004" fill="#fe0000" d="M 71.5,45.5 C 72.8333,46.1667 72.8333,46.1667 71.5,45.5 Z"/></g>
<g><path style="opacity:0.012" fill="#ff6400" d="M 25.5,45.5 C 25.8333,45.5 26.1667,45.5 26.5,45.5C 26.1667,48.1667 25.8333,48.1667 25.5,45.5 Z"/></g>
<g><path style="opacity:0.004" fill="#fe0000" d="M 70.5,47.5 C 71.8333,48.1667 71.8333,48.1667 70.5,47.5 Z"/></g>
<g><path style="opacity:0.012" fill="#fe5500" d="M 9.5,48.5 C 8.83333,49.1667 8.83333,49.1667 9.5,48.5 Z"/></g>
<g><path style="opacity:0.012" fill="#ff6cff" d="M 22.5,50.5 C 22.3505,49.448 22.5172,48.448 23,47.5C 23.7401,48.7494 23.5735,49.7494 22.5,50.5 Z"/></g>
<g><path style="opacity:0.008" fill="#ff7200" d="M 27.5,48.5 C 27.631,49.2389 27.4643,49.9056 27,50.5C 26.3083,49.5632 26.475,48.8966 27.5,48.5 Z"/></g>
<g><path style="opacity:0.012" fill="#fe5500" d="M 67.5,49.5 C 68.8333,50.1667 68.8333,50.1667 67.5,49.5 Z"/></g>
<g><path style="opacity:0.012" fill="#ff4400" d="M 13.5,50.5 C 13.1034,51.525 12.4368,51.6917 11.5,51C 12.0944,50.5357 12.7611,50.369 13.5,50.5 Z"/></g>
<g><path style="opacity:0.004" fill="#fe0000" d="M 21.5,50.5 C 21.8333,50.5 22.1667,50.5 22.5,50.5C 22.3147,51.1701 21.9813,51.1701 21.5,50.5 Z"/></g>
<g><path style="opacity:0.004" fill="#ff2e00" d="M 65.5,51.5 C 65.5,51.1667 65.5,50.8333 65.5,50.5C 66.1667,50.5 66.8333,50.5 67.5,50.5C 67.1583,51.3382 66.4916,51.6716 65.5,51.5 Z"/></g>
<g><path style="opacity:0.012" fill="#ff6400" d="M 14.5,52.5 C 14.8966,51.475 15.5632,51.3083 16.5,52C 15.9056,52.4643 15.2389,52.631 14.5,52.5 Z"/></g>
<g><path style="opacity:0.004" fill="#fe0000" d="M 20.5,51.5 C 20.8333,51.5 21.1667,51.5 21.5,51.5C 21.3147,52.1701 20.9813,52.1701 20.5,51.5 Z"/></g>
<g><path style="opacity:0.004" fill="#ff2e00" d="M 63.5,52.5 C 63.5,52.1667 63.5,51.8333 63.5,51.5C 64.1667,51.5 64.8333,51.5 65.5,51.5C 65.1583,52.3382 64.4916,52.6716 63.5,52.5 Z"/></g>
<g><path style="opacity:0.012" fill="#ff3a00" d="M 20.5,52.5 C 19.7494,53.5735 18.7494,53.7401 17.5,53C 18.448,52.5172 19.448,52.3505 20.5,52.5 Z"/></g>
<g><path style="opacity:0.008" fill="#ff7200" d="M 28.5,51.5 C 28.631,52.2389 28.4643,52.9056 28,53.5C 27.3083,52.5632 27.475,51.8966 28.5,51.5 Z"/></g>
<g><path style="opacity:0.004" fill="#ff2e00" d="M 61.5,53.5 C 61.5,53.1667 61.5,52.8333 61.5,52.5C 62.1667,52.5 62.8333,52.5 63.5,52.5C 63.1583,53.3382 62.4916,53.6716 61.5,53.5 Z"/></g>
<g><path style="opacity:0.012" fill="#ff6400" d="M 59.5,54.5 C 59.5,54.1667 59.5,53.8333 59.5,53.5C 60.1667,53.5 60.8333,53.5 61.5,53.5C 61.5,53.8333 61.5,54.1667 61.5,54.5C 60.8333,54.5 60.1667,54.5 59.5,54.5 Z"/></g>
<g><path style="opacity:0.004" fill="#fe0000" d="M 61.5,54.5 C 62.1667,54.5 62.5,54.8333 62.5,55.5C 62.1667,55.1667 61.8333,54.8333 61.5,54.5 Z"/></g>
<g><path style="opacity:0.004" fill="#ff2e00" d="M 29.5,56.5 C 28.475,56.1034 28.3083,55.4368 29,54.5C 29.4643,55.0944 29.631,55.7611 29.5,56.5 Z"/></g>
<g><path style="opacity:0.004" fill="#fe0000" d="M 62.5,55.5 C 63.1667,55.5 63.5,55.8333 63.5,56.5C 63.1667,56.1667 62.8333,55.8333 62.5,55.5 Z"/></g>
<g><path style="opacity:0.004" fill="#fe0000" d="M 63.5,56.5 C 64.1667,56.5 64.5,56.8333 64.5,57.5C 64.1667,57.1667 63.8333,56.8333 63.5,56.5 Z"/></g>
<g><path style="opacity:0.012" fill="#ff3a00" d="M 29.5,56.5 C 29.8333,56.5 30.1667,56.5 30.5,56.5C 30.5,57.5 30.5,58.5 30.5,59.5C 29.596,58.791 29.2627,57.791 29.5,56.5 Z"/></g>
<g><path style="opacity:0.004" fill="#fe0000" d="M 64.5,57.5 C 65.1667,57.5 65.5,57.8333 65.5,58.5C 65.1667,58.1667 64.8333,57.8333 64.5,57.5 Z"/></g>
<g><path style="opacity:0.004" fill="#fe0000" d="M 65.5,58.5 C 66.1667,58.5 66.5,58.8333 66.5,59.5C 66.1667,59.1667 65.8333,58.8333 65.5,58.5 Z"/></g>
<g><path style="opacity:0.004" fill="#fe0000" d="M 66.5,59.5 C 67.1667,59.5 67.5,59.8333 67.5,60.5C 67.1667,60.1667 66.8333,59.8333 66.5,59.5 Z"/></g>
<g><path style="opacity:0.012" fill="#ff6400" d="M 30.5,59.5 C 30.8333,59.5 31.1667,59.5 31.5,59.5C 31.1667,62.1667 30.8333,62.1667 30.5,59.5 Z"/></g>
<g><path style="opacity:0.004" fill="#fe0000" d="M 67.5,60.5 C 68.1667,60.5 68.5,60.8333 68.5,61.5C 68.1667,61.1667 67.8333,60.8333 67.5,60.5 Z"/></g>
<g><path style="opacity:0.004" fill="#fe0000" d="M 68.5,61.5 C 69.1667,61.5 69.5,61.8333 69.5,62.5C 69.1667,62.1667 68.8333,61.8333 68.5,61.5 Z"/></g>
<g><path style="opacity:0.004" fill="#fe0000" d="M 69.5,62.5 C 70.8333,63.1667 70.8333,63.1667 69.5,62.5 Z"/></g>
<g><path style="opacity:0.008" fill="#ff7200" d="M 32.5,62.5 C 32.631,63.2389 32.4643,63.9056 32,64.5C 31.3083,63.5632 31.475,62.8966 32.5,62.5 Z"/></g>
<g><path style="opacity:0.012" fill="#ff4000" d="M 39.5,62.5 C 42.1667,63.5 42.1667,64.5 39.5,65.5C 39.5,64.5 39.5,63.5 39.5,62.5 Z"/></g>
<g><path style="opacity:0.004" fill="#fe0000" d="M 71.5,65.5 C 70.8333,64.1667 70.8333,64.1667 71.5,65.5 Z"/></g>
<g><path style="opacity:0.004" fill="#fe0000" d="M 71.5,65.5 C 72.8333,66.1667 72.8333,66.1667 71.5,65.5 Z"/></g>
<g><path style="opacity:0.004" fill="#ff2e00" d="M 33.5,65.5 C 33.631,66.2389 33.4643,66.9056 33,67.5C 32.3083,66.5632 32.475,65.8966 33.5,65.5 Z"/></g>
<g><path style="opacity:0.004" fill="#fe0000" d="M 70.5,67.5 C 71.8333,68.1667 71.8333,68.1667 70.5,67.5 Z"/></g>
<g><path style="opacity:0.008" fill="#fe7f00" d="M 69.5,68.5 C 69.8333,68.5 70.1667,68.5 70.5,68.5C 70.3147,69.1701 69.9813,69.1701 69.5,68.5 Z"/></g>
<g><path style="opacity:0.004" fill="#ff2e00" d="M 34.5,70.5 C 33.475,70.1034 33.3083,69.4368 34,68.5C 34.4643,69.0944 34.631,69.7611 34.5,70.5 Z"/></g>
<g><path style="opacity:0.012" fill="#fe5500" d="M 45.5,69.5 C 46.8333,70.1667 46.8333,70.1667 45.5,69.5 Z"/></g>
<g><path style="opacity:0.012" fill="#fe5500" d="M 68.5,69.5 C 68.8333,69.5 69.1667,69.5 69.5,69.5C 69.3147,70.1701 68.9813,70.1701 68.5,69.5 Z"/></g>
<g><path style="opacity:0.012" fill="#fe5500" d="M 67.5,70.5 C 67.8333,70.5 68.1667,70.5 68.5,70.5C 68.3147,71.1701 67.9813,71.1701 67.5,70.5 Z"/></g>
<g><path style="opacity:0.012" fill="#ff6400" d="M 34.5,70.5 C 34.8333,70.5 35.1667,70.5 35.5,70.5C 35.1667,73.1667 34.8333,73.1667 34.5,70.5 Z"/></g>
<g><path style="opacity:0.012" fill="#fe5500" d="M 44.5,71.5 C 45.8333,72.1667 45.8333,72.1667 44.5,71.5 Z"/></g>
<g><path style="opacity:0.016" fill="#fe7f00" d="M 66.5,71.5 C 66.8333,71.5 67.1667,71.5 67.5,71.5C 67.3147,72.1701 66.9813,72.1701 66.5,71.5 Z"/></g>
<g><path style="opacity:0.012" fill="#fe5500" d="M 65.5,72.5 C 65.8333,72.5 66.1667,72.5 66.5,72.5C 66.3147,73.1701 65.9813,73.1701 65.5,72.5 Z"/></g>
<g><path style="opacity:0.012" fill="#fe5500" d="M 43.5,73.5 C 44.8333,74.1667 44.8333,74.1667 43.5,73.5 Z"/></g>
<g><path style="opacity:0.016" fill="#fe7f00" d="M 64.5,73.5 C 64.8333,73.5 65.1667,73.5 65.5,73.5C 65.3147,74.1701 64.9813,74.1701 64.5,73.5 Z"/></g>
<g><path style="opacity:0.008" fill="#ff7200" d="M 36.5,73.5 C 36.5,74.1667 36.5,74.8333 36.5,75.5C 35.1667,74.8333 35.1667,74.1667 36.5,73.5 Z"/></g>
<g><path style="opacity:0.016" fill="#fe7f00" d="M 63.5,74.5 C 63.8333,74.5 64.1667,74.5 64.5,74.5C 64.3147,75.1701 63.9813,75.1701 63.5,74.5 Z"/></g>
<g><path style="opacity:0.004" fill="#fe0000" d="M 36.5,75.5 C 36.8333,75.5 37.1667,75.5 37.5,75.5C 37.5,75.8333 37.5,76.1667 37.5,76.5C 37.1667,76.1667 36.8333,75.8333 36.5,75.5 Z"/></g>
<g><path style="opacity:0.008" fill="#fe7f00" d="M 57.5,75.5 C 57.5,75.8333 57.5,76.1667 57.5,76.5C 56.8299,76.0187 56.8299,75.6853 57.5,75.5 Z"/></g>
<g><path style="opacity:0.008" fill="#fe7f00" d="M 62.5,75.5 C 62.8333,75.5 63.1667,75.5 63.5,75.5C 63.5,75.8333 63.5,76.1667 63.5,76.5C 63.1667,76.1667 62.8333,75.8333 62.5,75.5 Z"/></g>
</svg>
