<?xml version="1.0" encoding="UTF-8"?>
<!DOCTYPE svg PUBLIC "-//W3C//DTD SVG 1.1//EN" "http://www.w3.org/Graphics/SVG/1.1/DTD/svg11.dtd">
<svg xmlns="http://www.w3.org/2000/svg" version="1.1" width="262px" height="231px" style="shape-rendering:geometricPrecision; text-rendering:geometricPrecision; image-rendering:optimizeQuality; fill-rule:evenodd; clip-rule:evenodd" xmlns:xlink="http://www.w3.org/1999/xlink">
<g><path style="opacity:0.967" fill="#fffbf8" d="M 158.5,230.5 C 145.167,230.5 131.833,230.5 118.5,230.5C 103.28,227.141 88.9465,221.308 75.5,213C 52.8358,212.5 30.1691,212.333 7.5,212.5C 15.8206,195.697 24.8206,179.197 34.5,163C 23.9218,136.626 22.7552,109.793 31,82.5C 33.3959,75.3784 36.5626,68.7117 40.5,62.5C 41.9063,62.0269 42.573,61.0269 42.5,59.5C 44.0621,55.6082 46.3954,52.2749 49.5,49.5C 51.2624,48.7377 52.2624,47.4044 52.5,45.5C 52.8333,44.5 53.5,43.8333 54.5,43.5C 57.5,41.1667 60.1667,38.5 62.5,35.5C 73.2277,24.7953 85.8944,17.1286 100.5,12.5C 104.162,12.2766 107.495,11.2766 110.5,9.5C 159.211,-0.550477 199.044,13.7829 230,52.5C 252.455,86.5621 256.788,122.895 243,161.5C 226.259,198.605 198.093,221.605 158.5,230.5 Z"/></g>
<g><path style="opacity:0.996" fill="#ffba8e" d="M 110.5,9.5 C 107.495,11.2766 104.162,12.2766 100.5,12.5C 103.505,10.7234 106.838,9.7234 110.5,9.5 Z"/></g>
<g><path style="opacity:1" fill="#ff6d11" d="M 123.5,15.5 C 181.777,12.5348 220.277,38.5348 239,93.5C 248.501,148.411 228.667,188.577 179.5,214C 138.376,229.439 101.042,223.106 67.5,195C 35.5709,161.774 27.0709,123.274 42,79.5C 58.2347,44.0838 85.4013,22.7504 123.5,15.5 Z"/></g>
<g><path style="opacity:1" fill="#fffefd" d="M 124.5,21.5 C 175.668,17.8887 211.168,39.5553 231,86.5C 243.44,132.177 231.273,169.677 194.5,199C 156.242,222.649 118.242,222.316 80.5,198C 42.8045,166.395 31.9712,127.229 48,80.5C 63.6254,47.9469 89.1254,28.2803 124.5,21.5 Z"/></g>
<g><path style="opacity:0.78" fill="#ff9950" d="M 62.5,35.5 C 60.1667,38.5 57.5,41.1667 54.5,43.5C 56.1667,39.8333 58.8333,37.1667 62.5,35.5 Z"/></g>
<g><path style="opacity:1" fill="#ff6c0d" d="M 85.5,45.5 C 90.0498,44.8843 94.0498,46.051 97.5,49C 105.204,56.3726 113.204,63.3726 121.5,70C 125.047,73.49 126.214,77.6566 125,82.5C 119.947,88.5521 115.281,94.8854 111,101.5C 109.909,107.097 110.576,112.43 113,117.5C 121.167,125 129.333,132.5 137.5,140C 144.946,145.494 152.613,145.828 160.5,141C 164.833,135.333 169.833,130.333 175.5,126C 179.738,125.177 183.738,125.844 187.5,128C 197.035,136.17 206.202,144.67 215,153.5C 215.667,156.833 215.667,160.167 215,163.5C 193.596,191.977 166.43,199.144 133.5,185C 112.742,168.247 92.5757,150.747 73,132.5C 54.0637,102.394 56.7304,74.3936 81,48.5C 82.6516,47.6006 84.1516,46.6006 85.5,45.5 Z"/></g>
<g><path style="opacity:0.961" fill="#ff9e63" d="M 52.5,45.5 C 52.2624,47.4044 51.2624,48.7377 49.5,49.5C 49.7376,47.5956 50.7376,46.2623 52.5,45.5 Z"/></g>
<g><path style="opacity:1" fill="#fffdfc" d="M 86.5,52.5 C 88.6547,52.372 90.6547,52.872 92.5,54C 100.703,61.8719 109.203,69.3719 118,76.5C 118.635,78.6354 118.301,80.6354 117,82.5C 111.476,87.6833 107.142,93.6833 104,100.5C 102.5,108.409 103.833,115.742 108,122.5C 115.833,129.667 123.667,136.833 131.5,144C 142.378,153.111 153.711,153.778 165.5,146C 169.132,141.366 173.132,137.033 177.5,133C 179.167,132.333 180.833,132.333 182.5,133C 190.703,140.872 199.203,148.372 208,155.5C 208.667,157.5 208.667,159.5 208,161.5C 191.141,182.759 169.641,189.593 143.5,182C 138.003,179.755 133.003,176.755 128.5,173C 111.702,158.537 95.2017,143.704 79,128.5C 61.5394,101.207 64.0394,75.8735 86.5,52.5 Z"/></g>
<g><path style="opacity:0.655" fill="#ffa069" d="M 42.5,59.5 C 42.573,61.0269 41.9063,62.0269 40.5,62.5C 40.427,60.9731 41.0937,59.9731 42.5,59.5 Z"/></g>
</svg>
