<?xml version="1.0" ?><svg enable-background="new 0 0 64 64" height="64px" version="1.1" viewBox="0 0 64 64" width="64px" xml:space="preserve" xmlns="http://www.w3.org/2000/svg" xmlns:xlink="http://www.w3.org/1999/xlink"><g id="_x31_-Call"/><g id="_x32_-24_Hours_Call"/><g id="_x33_-Sending_Call"/><g id="_x34_-Incoming_Call"/><g id="_x35_-Talk_On_Phone"/><g id="_x36_-Block_Call"/><g id="_x37_-Hold_Call"/><g id="_x38_-Mute_Call"/><g id="_x39_-Phone_Book"/><g id="_x31_0-Add_Contact"/><g id="_x31_1-Delete_Contact"/><g id="_x31_2-Mail"/><g id="_x31_3-Message_Read"/><g id="_x31_4-Email"/><g id="_x31_5-Send_Mail"/><g id="_x31_6-Important_Mail"/><g id="_x31_7-Mail_Chain"/><g id="_x31_8-Messaging"/><g id="_x31_9-Sending"/><g id="_x32_0-Chat"/><g id="_x32_1-Mail_Attachment"/><g id="_x32_2-Mobile_Link"/><g id="_x32_3-Smartphone"/><g id="_x32_4-Social_Media"/><g id="_x32_5-Support"/><g id="_x32_6-Links"/><g id="_x32_7-Phone"/><g id="_x32_8-Phone-2"/><g id="_x32_9-Map"/><g id="_x33_0-Location"><g><circle cx="25.276123" cy="15.8362427" r="3"/><path d="M24.8142204,31.7229614c0.1455078,0.0751953,0.3037109,0.1132813,0.4628906,0.1132813    s0.3173828-0.0380859,0.4628906-0.1132813c0.3886719-0.203125,9.5371094-5.1005859,9.5371094-15.8867188    c0-5.5136719-4.4863281-10-10-10s-10.000001,4.4863281-10.000001,10    C15.2771101,26.6223755,24.4255486,31.5198364,24.8142204,31.7229614z M25.2761345,10.8362427c2.7568359,0,5,2.2431641,5,5    s-2.2431641,5-5,5s-5-2.2431641-5-5S22.5192986,10.8362427,25.2761345,10.8362427z"/><path d="M42.1697502,35.2437134c-0.1399536,0.0599976-0.2799683,0.0900269-0.4199829,0.0900269    c-0.3800049,0-0.7399902-0.210022-0.9099731-0.5800171c-0.2300415-0.5-0.0200195-1.0899658,0.4799805-1.3200073    c0.4199829-0.2000122,0.8399658-0.3499756,1.2700195-0.5L41.719738,20.5837402l-6.1099854,3.1900024    c-0.7399902,1.6599731-1.6599731,3.0899658-2.6199951,4.2999878v14.3599854    c0.460022-0.6599731,0.8699951-1.3800049,1.2700195-2.0899658l0.0999756-0.1700439    c0.2700195-0.4799805,0.8800049-0.6499634,1.3599854-0.3800049c0.4800415,0.2700195,0.6500244,0.8800049,0.3800049,1.3600464    l-0.0899658,0.1699829c-0.460022,0.8200073-0.9799805,1.7399902-1.5900269,2.5599976    c-0.1900024,0.2700195-0.5,0.4099731-0.7999878,0.4099731c-0.210022,0-0.4199829-0.0599976-0.5899658-0.1900024    c-0.0200195-0.0099487-0.0300293-0.0299683-0.0400391-0.039978v13.7600098l11.0300293-4.7999878l-1.2800293-18    C42.5497551,35.09375,42.3497429,35.1537476,42.1697502,35.2437134z M39.7297478,36.7237549    c-0.7399902,0.5799561-1.4299927,1.2599487-2.0299683,2c-0.2000122,0.2399902-0.4899902,0.3699951-0.7800293,0.3699951    c-0.2199707,0-0.4500122-0.0700073-0.6300049-0.2300415c-0.4299927-0.3399658-0.4899902-0.9699707-0.1499634-1.3999634    c0.7000122-0.8600464,1.5-1.6400146,2.3599854-2.3099976c0.4400024-0.3400269,1.0700073-0.2600098,1.4099731,0.1699829    C40.2397575,35.7637329,40.1697502,36.3937378,39.7297478,36.7237549z"/><path d="M60.9097404,56.7437134L56.42976,38.6637573c-0.9699707-0.7600098-3.1300049-2.4100342-3.4199829-2.6000366    c-0.460022-0.3099976-0.5900269-0.9299927-0.2900391-1.3900146c0.3000488-0.4599609,0.9100342-0.5899658,1.3800049-0.289978    c0.2000122,0.1300049,0.8400269,0.6099854,1.5500488,1.1599731l-2.2300415-8.9899902    c-0.0599976-0.2600098-0.2299805-0.4899902-0.4699707-0.6300049l-9.2300415-5.3599854l0.8400269,11.8500366    c0.5200195-0.0600586,1,0.2799683,1.0900269,0.789978c0.1099854,0.5499878-0.25,1.0700073-0.7900391,1.1699829    c-0.0599976,0.0100098-0.1099854,0.0300293-0.1599731,0.0400391l1.3200073,18.6099854l13.6199951,5.0799561    c0.1099854,0.0400391,0.2299805,0.0600586,0.3499756,0.0600586c0.0100098,0,0.0100098,0,0.0200195,0c0.5499878,0,1-0.4400024,1-1    C61.0097771,57.0137329,60.9797478,56.8737183,60.9097404,56.7437134z M51.6997795,34.1737061    c-0.1400146,0.4100342-0.5300293,0.6700439-0.9500122,0.6700439c-0.1099854,0-0.210022-0.0200195-0.3200073-0.0500488    c-0.8999634-0.3099976-1.8300171-0.5-2.7600098-0.5699463c-0.5499878-0.0500488-0.9699707-0.5300293-0.9199829-1.0800171    c0.039978-0.5499878,0.5200195-0.960022,1.0700073-0.9199829c1.0999756,0.0799561,2.2000122,0.3099976,3.2600098,0.6799927    C51.5997429,33.0837402,51.8797722,33.6537476,51.6997795,34.1737061z"/><path d="M25.2797966,33.8337402c-0.4800415,0-0.960022-0.1099854-1.3800049-0.3300171    c-0.1300049-0.0700073-1.1199951-0.5999756-2.4400024-1.6199951l-0.2300415,3.2999878    c0.1600342,0.0900269,0.3000488,0.210022,0.4000244,0.3800049c0.3499756,0.6600342,0.6400146,1.3400269,0.9299927,2.0100098    c0.1199951,0.2799683,0.25,0.5700073,0.3800049,0.8599854c0.2199707,0.5,0,1.0900269-0.5,1.3200073    c-0.1400146,0.0599976-0.2800293,0.0900269-0.4099731,0.0900269c-0.3900146,0-0.75-0.2200317-0.9200439-0.5900269    c-0.0499878-0.1099854-0.0999756-0.2299805-0.1499634-0.3399658l-1,14.1099854l11.0299683,4.7999878V46.4637451    c-0.039978,0.0100098-0.0700073,0.0299683-0.1099854,0.0299683c-0.3300171,0.0800171-0.6699829,0.1199951-1.0200195,0.1199951    c-0.6099854,0-1.2399902-0.1199951-1.8699951-0.3399658c-0.5200195-0.1900024-0.7999878-0.7600098-0.6099854-1.2800293    c0.1799927-0.5199585,0.75-0.789978,1.2700195-0.6099854c0.6499634,0.2299805,1.2599487,0.2800293,1.7999878,0.1599731    c0.1699829-0.039978,0.3300171-0.0899658,0.4799805-0.1599731c0.0200195,0,0.039978,0,0.0599976-0.0100098V30.2637329    c-2.1900024,2.0899658-4.1400146,3.1400146-4.3200073,3.2299805    C26.2297478,33.7237549,25.7497673,33.8337402,25.2797966,33.8337402z M26.4597893,44.383728    c-0.2000122,0.2299805-0.4800415,0.3499756-0.7600098,0.3499756c-0.2300415,0-0.460022-0.0799561-0.6500244-0.2399902    c-0.789978-0.6699829-1.5700073-1.5-2.2600098-2.3900146c-0.3299561-0.4399414-0.25-1.0699463,0.1900024-1.3999634    c0.4400024-0.3400269,1.0599976-0.2600098,1.4000244,0.1799927c0.5999756,0.7800293,1.2799683,1.5100098,1.9699707,2.0900269    C26.7697868,43.3337402,26.8197746,43.9637451,26.4597893,44.383728z"/><path d="M11.0297956,25.9237061c-0.2400513,0.1400146-0.4100342,0.3699951-0.4700317,0.6300049L7.2997541,39.6737061    c0.4500122-0.5299683,0.8200073-0.9899902,0.9100342-1.0999756c0.3200073-0.4500122,0.9499512-0.5499878,1.3999634-0.2200317    c0.4400024,0.3200073,0.5400391,0.9500122,0.2200317,1.3900146c-0.1700439,0.2399902-0.8099976,1-1.8400269,2.2300415    c-0.6799927,0.7999878-1.5800171,1.8699951-1.789978,2.1499634L3.0197861,56.9237061    c-0.0900269,0.3600464,0.0299683,0.7400513,0.2999878,0.9900513c0.1900024,0.1699829,0.4299927,0.25,0.6699829,0.25    c0.1199949,0,0.23999-0.0200195,0.3500364-0.0600586l13.6199961-5.0799561l1.3099976-18.460022    c-0.1400146,0.0700073-0.3000488,0.1099854-0.460022,0.1099854c-0.2000122,0-0.4000244-0.0599976-0.5700073-0.1799927    c-0.6400146-0.4400024-1.3300171-0.5599976-2.1199951-0.3499756c-0.5299692,0.1400146-1.080018-0.1900024-1.2199717-0.7200317    c-0.1400146-0.539978,0.1900024-1.0799561,0.7199707-1.2199707c1.3599863-0.3500366,2.6500254-0.1199951,3.7600107,0.6499634    c0.0100098,0,0.0100098,0.0100098,0.0100098,0.0100098l0.1799927-2.5999756    c-1.6400146-1.5800171-3.4199829-3.7600098-4.6600351-6.5900269L11.0297956,25.9237061z M13.7897444,35.4037476    c-0.6699829,0.5299683-1.3699951,1.2099609-2.0999756,2.0199585c-0.1900024,0.2200317-0.4700317,0.3300171-0.7399902,0.3300171    c-0.2399902,0-0.4800415-0.0800171-0.6699829-0.25c-0.4100342-0.3699951-0.4400024-1-0.0800171-1.4199829    c0.7999878-0.8900146,1.5999756-1.6500244,2.3499756-2.25c0.4400024-0.3400269,1.0700073-0.2600098,1.4100342,0.1699829    C14.2997541,34.4337158,14.2297468,35.0637207,13.7897444,35.4037476z"/></g></g><g id="_x33_1-Write"/><g id="_x33_2-World"/><g id="_x33_3-Home"/><g id="_x33_4-Calendar"/><g id="_x33_5-Website"/><g id="_x33_6-Info"/><g id="_x33_7-Bull_Horn"/><g id="_x33_8-Profile"/><g id="_x33_9-Quote__x26__Answer"/><g id="_x34_0-Notification"/><g id="_x34_1-Share"/><g id="_x34_2-Time"/></svg>